<svg id="Layer_1" data-name="Layer 1" xmlns="http://www.w3.org/2000/svg" viewBox="0 60 320 240"><title>Illustrations</title><path d="M307.79,198.83H272.63c-8.14-.24-13-6.85-13-15s4.88-14.74,13-15h3.84c6.74,0,12.21-6.77,12.21-15.12h0c0-7.69-4.64-14-10.64-15H288.9c6.74,0,12.21-6.77,12.21-15.12h0c0-8.35-5.47-15.12-12.21-15.12H23.84c-6.75,0-12.21,6.77-12.21,15.12h0c0,8.35,5.46,15.12,12.21,15.12H43.35c6,.95,10.65,7.29,10.65,15s-4.64,14-10.65,15H29.86c-6.74,0-12.2,6.77-12.2,15.12h0c0,7.69,4.63,14,10.63,15H12.21C5.47,198.83,0,205.6,0,214H0c0,8.35,5.47,15.12,12.21,15.12H40c-5.41,1.55-9.44,7.55-9.44,14.72h0c0,8.36,5.46,15.12,12.21,15.12H277.27c6.75,0,12.21-6.76,12.21-15.12h0c0-7.17-4-13.17-9.44-14.72h27.75c6.75,0,12.21-6.77,12.21-15.12h0C320,205.6,314.54,198.83,307.79,198.83Z" style="opacity:0.1"/><rect x="76.42" y="127.76" width="168.38" height="96.43" style="fill:#fff"/><g style="opacity:0.1"><line x1="238.93" y1="131.13" x2="86.1" y2="131.5" style="fill:none;stroke:#cbcbca;stroke-miterlimit:10;stroke-width:0.4628400282549344px"/><line x1="238.94" y1="135.16" x2="86.11" y2="135.53" style="fill:none;stroke:#cbcbca;stroke-miterlimit:10;stroke-width:0.4628400282549344px"/><line x1="238.95" y1="139.19" x2="86.12" y2="139.56" style="fill:none;stroke:#cbcbca;stroke-miterlimit:10;stroke-width:0.4628400282549344px"/><line x1="238.96" y1="143.22" x2="86.13" y2="143.59" style="fill:none;stroke:#cbcbca;stroke-miterlimit:10;stroke-width:0.4628400282549344px"/><line x1="238.98" y1="151.28" x2="86.15" y2="151.65" style="fill:none;stroke:#cbcbca;stroke-miterlimit:10;stroke-width:0.4628400282549344px"/><line x1="238.97" y1="147.25" x2="86.14" y2="147.62" style="fill:none;stroke:#cbcbca;stroke-miterlimit:10;stroke-width:0.4628400282549344px"/><line x1="238.99" y1="155.31" x2="86.16" y2="155.68" style="fill:none;stroke:#cbcbca;stroke-miterlimit:10;stroke-width:0.4628400282549344px"/><line x1="239" y1="159.34" x2="86.17" y2="159.71" style="fill:none;stroke:#cbcbca;stroke-miterlimit:10;stroke-width:0.4628400282549344px"/><line x1="239.01" y1="163.37" x2="86.18" y2="163.74" style="fill:none;stroke:#cbcbca;stroke-miterlimit:10;stroke-width:0.4628400282549344px"/><line x1="239.02" y1="167.4" x2="86.19" y2="167.77" style="fill:none;stroke:#cbcbca;stroke-miterlimit:10;stroke-width:0.4628400282549344px"/><line x1="239.03" y1="171.43" x2="86.2" y2="171.8" style="fill:none;stroke:#cbcbca;stroke-miterlimit:10;stroke-width:0.4628400282549344px"/><line x1="239.04" y1="175.46" x2="86.21" y2="175.83" style="fill:none;stroke:#cbcbca;stroke-miterlimit:10;stroke-width:0.4628400282549344px"/><line x1="239.05" y1="179.49" x2="86.22" y2="179.86" style="fill:none;stroke:#cbcbca;stroke-miterlimit:10;stroke-width:0.4628400282549344px"/><line x1="239.06" y1="183.52" x2="86.23" y2="183.89" style="fill:none;stroke:#cbcbca;stroke-miterlimit:10;stroke-width:0.4628400282549344px"/><line x1="239.07" y1="187.55" x2="86.24" y2="187.92" style="fill:none;stroke:#cbcbca;stroke-miterlimit:10;stroke-width:0.4628400282549344px"/><line x1="239.15" y1="219.79" x2="86.32" y2="220.16" style="fill:none;stroke:#cbcbca;stroke-miterlimit:10;stroke-width:0.4628400282549344px"/><line x1="239.08" y1="191.58" x2="86.25" y2="191.95" style="fill:none;stroke:#cbcbca;stroke-miterlimit:10;stroke-width:0.4628400282549344px"/><line x1="239.09" y1="195.61" x2="86.26" y2="195.98" style="fill:none;stroke:#cbcbca;stroke-miterlimit:10;stroke-width:0.4628400282549344px"/><line x1="239.1" y1="199.64" x2="86.27" y2="200.01" style="fill:none;stroke:#cbcbca;stroke-miterlimit:10;stroke-width:0.4628400282549344px"/><line x1="239.11" y1="203.67" x2="86.28" y2="204.04" style="fill:none;stroke:#cbcbca;stroke-miterlimit:10;stroke-width:0.4628400282549344px"/><line x1="239.12" y1="207.7" x2="86.29" y2="208.07" style="fill:none;stroke:#cbcbca;stroke-miterlimit:10;stroke-width:0.4628400282549344px"/><line x1="239.13" y1="211.73" x2="86.3" y2="212.1" style="fill:none;stroke:#cbcbca;stroke-miterlimit:10;stroke-width:0.4628400282549344px"/><line x1="239.14" y1="215.76" x2="86.31" y2="216.13" style="fill:none;stroke:#cbcbca;stroke-miterlimit:10;stroke-width:0.4628400282549344px"/><line x1="174.97" y1="219.95" x2="174.75" y2="131.29" style="fill:none;stroke:#cbcbca;stroke-miterlimit:10;stroke-width:0.35251763568524885px"/><line x1="170.94" y1="219.96" x2="170.72" y2="131.3" style="fill:none;stroke:#cbcbca;stroke-miterlimit:10;stroke-width:0.35251763568524885px"/><line x1="166.91" y1="219.97" x2="166.69" y2="131.31" style="fill:none;stroke:#cbcbca;stroke-miterlimit:10;stroke-width:0.35251763568524885px"/><line x1="162.88" y1="219.97" x2="162.66" y2="131.32" style="fill:none;stroke:#cbcbca;stroke-miterlimit:10;stroke-width:0.35251763568524885px"/><line x1="154.82" y1="219.99" x2="154.6" y2="131.34" style="fill:none;stroke:#cbcbca;stroke-miterlimit:10;stroke-width:0.35251763568524885px"/><line x1="158.85" y1="219.98" x2="158.63" y2="131.33" style="fill:none;stroke:#cbcbca;stroke-miterlimit:10;stroke-width:0.35251763568524885px"/><line x1="150.79" y1="220" x2="150.57" y2="131.35" style="fill:none;stroke:#cbcbca;stroke-miterlimit:10;stroke-width:0.35251763568524885px"/><line x1="146.76" y1="220.01" x2="146.54" y2="131.36" style="fill:none;stroke:#cbcbca;stroke-miterlimit:10;stroke-width:0.35251763568524885px"/><line x1="142.73" y1="220.02" x2="142.51" y2="131.36" style="fill:none;stroke:#cbcbca;stroke-miterlimit:10;stroke-width:0.35251763568524885px"/><line x1="138.7" y1="220.03" x2="138.48" y2="131.37" style="fill:none;stroke:#cbcbca;stroke-miterlimit:10;stroke-width:0.35251763568524885px"/><line x1="134.67" y1="220.04" x2="134.45" y2="131.38" style="fill:none;stroke:#cbcbca;stroke-miterlimit:10;stroke-width:0.35251763568524885px"/><line x1="130.64" y1="220.05" x2="130.42" y2="131.39" style="fill:none;stroke:#cbcbca;stroke-miterlimit:10;stroke-width:0.35251763568524885px"/><line x1="126.61" y1="220.06" x2="126.39" y2="131.4" style="fill:none;stroke:#cbcbca;stroke-miterlimit:10;stroke-width:0.35251763568524885px"/><line x1="122.58" y1="220.07" x2="122.36" y2="131.41" style="fill:none;stroke:#cbcbca;stroke-miterlimit:10;stroke-width:0.35251763568524885px"/><line x1="118.55" y1="220.08" x2="118.33" y2="131.42" style="fill:none;stroke:#cbcbca;stroke-miterlimit:10;stroke-width:0.35251763568524885px"/><line x1="86.31" y1="220.16" x2="86.09" y2="131.5" style="fill:none;stroke:#cbcbca;stroke-miterlimit:10;stroke-width:0.35251763568524885px"/><line x1="114.52" y1="220.09" x2="114.3" y2="131.43" style="fill:none;stroke:#cbcbca;stroke-miterlimit:10;stroke-width:0.35251763568524885px"/><line x1="110.49" y1="220.1" x2="110.27" y2="131.44" style="fill:none;stroke:#cbcbca;stroke-miterlimit:10;stroke-width:0.35251763568524885px"/><line x1="106.46" y1="220.11" x2="106.24" y2="131.45" style="fill:none;stroke:#cbcbca;stroke-miterlimit:10;stroke-width:0.35251763568524885px"/><line x1="102.43" y1="220.12" x2="102.21" y2="131.46" style="fill:none;stroke:#cbcbca;stroke-miterlimit:10;stroke-width:0.35251763568524885px"/><line x1="98.4" y1="220.13" x2="98.18" y2="131.47" style="fill:none;stroke:#cbcbca;stroke-miterlimit:10;stroke-width:0.35251763568524885px"/><line x1="94.37" y1="220.14" x2="94.15" y2="131.48" style="fill:none;stroke:#cbcbca;stroke-miterlimit:10;stroke-width:0.35251763568524885px"/><line x1="90.34" y1="220.15" x2="90.12" y2="131.49" style="fill:none;stroke:#cbcbca;stroke-miterlimit:10;stroke-width:0.35251763568524885px"/><line x1="239.15" y1="219.79" x2="238.93" y2="131.13" style="fill:none;stroke:#cbcbca;stroke-miterlimit:10;stroke-width:0.35251763568524885px"/><line x1="235.12" y1="219.8" x2="234.9" y2="131.14" style="fill:none;stroke:#cbcbca;stroke-miterlimit:10;stroke-width:0.35251763568524885px"/><line x1="231.09" y1="219.81" x2="230.87" y2="131.15" style="fill:none;stroke:#cbcbca;stroke-miterlimit:10;stroke-width:0.35251763568524885px"/><line x1="227.06" y1="219.82" x2="226.85" y2="131.16" style="fill:none;stroke:#cbcbca;stroke-miterlimit:10;stroke-width:0.35251763568524885px"/><line x1="223.03" y1="219.83" x2="222.82" y2="131.17" style="fill:none;stroke:#cbcbca;stroke-miterlimit:10;stroke-width:0.35251763568524885px"/><line x1="219" y1="219.84" x2="218.79" y2="131.18" style="fill:none;stroke:#cbcbca;stroke-miterlimit:10;stroke-width:0.35251763568524885px"/><line x1="214.97" y1="219.85" x2="214.76" y2="131.19" style="fill:none;stroke:#cbcbca;stroke-miterlimit:10;stroke-width:0.35251763568524885px"/><line x1="210.94" y1="219.86" x2="210.73" y2="131.2" style="fill:none;stroke:#cbcbca;stroke-miterlimit:10;stroke-width:0.35251763568524885px"/><line x1="178.7" y1="219.94" x2="178.49" y2="131.28" style="fill:none;stroke:#cbcbca;stroke-miterlimit:10;stroke-width:0.35251763568524885px"/><line x1="206.91" y1="219.87" x2="206.7" y2="131.21" style="fill:none;stroke:#cbcbca;stroke-miterlimit:10;stroke-width:0.35251763568524885px"/><line x1="202.88" y1="219.88" x2="202.67" y2="131.22" style="fill:none;stroke:#cbcbca;stroke-miterlimit:10;stroke-width:0.35251763568524885px"/><line x1="198.85" y1="219.89" x2="198.64" y2="131.23" style="fill:none;stroke:#cbcbca;stroke-miterlimit:10;stroke-width:0.35251763568524885px"/><line x1="194.82" y1="219.9" x2="194.61" y2="131.24" style="fill:none;stroke:#cbcbca;stroke-miterlimit:10;stroke-width:0.35251763568524885px"/><line x1="190.79" y1="219.91" x2="190.58" y2="131.25" style="fill:none;stroke:#cbcbca;stroke-miterlimit:10;stroke-width:0.35251763568524885px"/><line x1="186.76" y1="219.92" x2="186.55" y2="131.26" style="fill:none;stroke:#cbcbca;stroke-miterlimit:10;stroke-width:0.35251763568524885px"/><line x1="182.73" y1="219.93" x2="182.52" y2="131.27" style="fill:none;stroke:#cbcbca;stroke-miterlimit:10;stroke-width:0.35251763568524885px"/></g><path d="M300.48,243.08H201V268.9h99.48a1.64,1.64,0,0,0,1.64-1.64V244.73A1.65,1.65,0,0,0,300.48,243.08Z" style="fill:#fff"/><path d="M198.39,243.08a1.65,1.65,0,0,0-1.64,1.65v22.53a1.64,1.64,0,0,0,1.64,1.64H201V243.08Z" style="fill:#f6b10c"/><path d="M225.18,219.91a.87.87,0,0,1,.22.68l8-7.83-7.87-7.38Z" style="fill:#bebfb9"/><path d="M217.35,213.25s6.57,6.5,7.14,7.7l8.31-8-7.29-7.56Z" style="fill:#ed74a5"/><path d="M90,143.34a6.95,6.95,0,1,0-8.67-4.62A6.95,6.95,0,0,0,90,143.34Zm-8.23-4.76a6.13,6.13,0,1,1,7.64,4.08A6.13,6.13,0,0,1,81.73,138.58Z" style="fill:#edd299;opacity:0.63"/><path d="M80.28,138.92a6.95,6.95,0,1,0,7-6.86A7,7,0,0,0,80.28,138.92Zm7-6.41a6.13,6.13,0,1,1-6.2,6.06A6.13,6.13,0,0,1,87.31,132.51Z" style="fill:#edd299;opacity:0.27"/><circle cx="72.94" cy="118.12" r="8.75" style="fill:#cbcbca"/><path d="M61.54,104.36h7.13a.68.68,0,0,1,.68.68v1.81a.68.68,0,0,1-.68.68H61.54a0,0,0,0,1,0,0v-3.17a0,0,0,0,1,0,0Z" transform="translate(11.39 218.13) rotate(-122.57)" style="fill:#f5f5f5"/><rect x="65.79" y="106.73" width="2.34" height="3.17" transform="translate(11.72 223.05) rotate(-122.57)" style="fill:#cbcbca"/><circle cx="71.49" cy="115.41" r="8.75" style="fill:#f5f5f5"/><circle cx="71.49" cy="115.41" r="6.64" style="fill:#edd299"/><circle cx="71.9" cy="115.68" r="6.29" style="fill:#d0af79"/><ellipse cx="65.72" cy="113.87" rx="0.41" ry="0.4" transform="translate(-56.04 64.26) rotate(-37.84)" style="fill:#edd299"/><ellipse cx="65.72" cy="113.87" rx="0.35" ry="0.34" transform="translate(-56.04 64.26) rotate(-37.84)" style="fill:#d0af79"/><ellipse cx="66.15" cy="113.02" rx="0.63" ry="0.6" transform="translate(-55.42 64.34) rotate(-37.84)" style="fill:#edd299"/><ellipse cx="66.15" cy="113.02" rx="0.53" ry="0.51" transform="translate(-55.42 64.34) rotate(-37.84)" style="fill:#d0af79"/><ellipse cx="67.22" cy="111.31" rx="0.53" ry="0.51" transform="translate(-54.15 64.64) rotate(-37.84)" style="fill:#edd299"/><ellipse cx="67.22" cy="111.31" rx="0.45" ry="0.43" transform="translate(-54.15 64.64) rotate(-37.84)" style="fill:#d0af79"/><ellipse cx="67.9" cy="110.74" rx="0.44" ry="0.42" transform="translate(-53.65 64.94) rotate(-37.84)" style="fill:#edd299"/><ellipse cx="67.9" cy="110.74" rx="0.38" ry="0.36" transform="translate(-53.65 64.94) rotate(-37.84)" style="fill:#d0af79"/><ellipse cx="66.59" cy="112.1" rx="0.61" ry="0.58" transform="translate(-54.77 64.42) rotate(-37.84)" style="fill:#edd299"/><ellipse cx="66.59" cy="112.1" rx="0.52" ry="0.5" transform="translate(-54.77 64.42) rotate(-37.84)" style="fill:#d0af79"/><g id="FE1xaR.tif"><path d="M165.71,231.68c1.17.8,2.26,1.46,3.31,2.28,1.65,1.28,3.27,2.68,4.9,4a2.22,2.22,0,0,1,.51.58c.35.58.68.59,1,.44.52-.24.61-1.7.16-2.5a1.6,1.6,0,0,0-.3-.33c-1.84-1.51-3.69-3-5.53-4.53a23.3,23.3,0,0,0-4.9-3.3c-1.72-.8-2.52-.27-2.47,1.85,0,1.2.26,2.49.37,3.73.18,2,.33,4,.47,5.93a19.54,19.54,0,0,0,1.22,6.21c.12.3.26.58.43,1a2,2,0,0,0,.93-2c-.24-2.53-.5-5.07-.73-7.61a2.9,2.9,0,0,1,.16-1.28c.44,1.2.86,2.4,1.32,3.59,2.63,6.7,6,12.83,10.84,17.68,3,3,6.16,5.16,9.38,5.45a10.71,10.71,0,0,0,2.61-.21c.52-.08.65-1.8.21-2.46a1,1,0,0,0-.53-.43,2.68,2.68,0,0,0-1.33.06,3.9,3.9,0,0,1-3.38-.19c-4.92-2.22-9.11-6.25-12.49-12.27a65.14,65.14,0,0,1-6-14.82C165.83,232.31,165.8,232.12,165.71,231.68Z" style="fill:#fff"/></g><circle cx="214.22" cy="255.61" r="9.18" style="fill:#f6f6f6"/><ellipse cx="214.18" cy="253.4" rx="3.74" ry="4.11" style="fill:#ccc"/><path d="M217.07,257.51c-.85-.41-1.84.51-2.89.51s-2-.92-2.89-.51a4.69,4.69,0,0,0-2.87,4.11,4.24,4.24,0,0,0,.21,1.28,9.21,9.21,0,0,0,11.07.08,4.09,4.09,0,0,0,.24-1.36A4.69,4.69,0,0,0,217.07,257.51Z" style="fill:#ccc"/><rect x="226.22" y="249.94" width="71.81" height="2.01" style="fill:#ccc"/><rect x="226.22" y="255.02" width="71.81" height="2.01" style="fill:#ccc"/><rect x="226.22" y="260.1" width="42.42" height="2.01" style="fill:#ccc"/><path d="M119.76,67.44H20.29V93.26h99.47a1.65,1.65,0,0,0,1.65-1.65V69.09A1.65,1.65,0,0,0,119.76,67.44Z" style="fill:#fff"/><path d="M17.68,67.44A1.64,1.64,0,0,0,16,69.09V91.61a1.64,1.64,0,0,0,1.64,1.65h2.61V67.44Z" style="fill:#f6b10c"/><circle cx="33.51" cy="79.97" r="9.18" style="fill:#f6f6f6"/><ellipse cx="33.47" cy="77.75" rx="3.74" ry="4.11" style="fill:#ccc"/><path d="M36.36,81.87c-.85-.41-1.84.5-2.89.5s-2-.91-2.9-.5A4.67,4.67,0,0,0,27.71,86a4.12,4.12,0,0,0,.21,1.27A9.17,9.17,0,0,0,39,87.34,3.89,3.89,0,0,0,39.22,86,4.68,4.68,0,0,0,36.36,81.87Z" style="fill:#ccc"/><rect x="45.51" y="74.3" width="71.81" height="2.01" style="fill:#ccc"/><rect x="45.51" y="79.38" width="71.81" height="2.01" style="fill:#ccc"/><rect x="45.51" y="84.46" width="42.42" height="2.01" style="fill:#ccc"/><g id="FE1xaR.tif-2" data-name="FE1xaR.tif"><path d="M150.77,114.79c-1.23-1-2.37-1.74-3.46-2.71-1.71-1.52-3.39-3.15-5.08-4.75a2.69,2.69,0,0,1-.51-.67c-.34-.66-.71-.69-1.05-.55-.59.23-.79,1.81-.35,2.71a1.45,1.45,0,0,0,.3.39q2.87,2.66,5.72,5.32a25.87,25.87,0,0,0,5.12,4c1.83,1,2.73.47,2.83-1.85.05-1.32-.12-2.74-.15-4.1-.06-2.18-.09-4.35-.11-6.51a21,21,0,0,0-.89-6.86c-.11-.33-.25-.65-.41-1.08a2.21,2.21,0,0,0-1.15,2.16c.08,2.79.19,5.58.27,8.36a3.26,3.26,0,0,1-.27,1.39c-.4-1.34-.77-2.68-1.19-4-2.41-7.5-5.64-14.42-10.61-20-3.1-3.5-6.36-6.06-9.87-6.59a11.38,11.38,0,0,0-2.86,0c-.57.05-.83,1.93-.4,2.68a1.14,1.14,0,0,0,.56.5,3,3,0,0,0,1.45,0,4.23,4.23,0,0,1,3.67.44c5.22,2.76,9.51,7.45,12.79,14.25a71.63,71.63,0,0,1,5.52,16.6C150.68,114.09,150.7,114.31,150.77,114.79Z" style="fill:#fff"/></g><path d="M245.22,196H262.4a1,1,0,0,1,1,1v25.55a1,1,0,0,1-1,1H245.22a0,0,0,0,1,0,0V196a0,0,0,0,1,0,0Z" transform="translate(85.25 -73.23) rotate(19.63)" style="fill:#f6c756"/><path d="M246.4,197.15h15a.9.9,0,0,1,.9.9v23.47a.9.9,0,0,1-.9.9h-15a0,0,0,0,1,0,0V197.15a0,0,0,0,1,0,0Z" transform="matrix(0.94, 0.34, -0.34, 0.94, 85.24, -73.24)" style="fill:#606967"/><path d="M246.08,197h15a.9.9,0,0,1,.9.9v23.47a.9.9,0,0,1-.9.9h-15a0,0,0,0,1,0,0V197a0,0,0,0,1,0,0Z" transform="translate(85.18 -73.14) rotate(19.63)" style="fill:#cbcbca"/><path d="M245.29,196.76h15a.9.9,0,0,1,.9.9v23.47a.9.9,0,0,1-.9.9h-15a0,0,0,0,1,0,0V196.76a0,0,0,0,1,0,0Z" transform="translate(85.04 -72.89) rotate(19.63)" style="fill:#fff"/><path d="M234.31,187.66l16.07,6.09-9.26,25.95-16.29-5.45a1,1,0,0,1-.61-1.28l8.81-24.7A1,1,0,0,1,234.31,187.66Z" style="fill:#f3b01b"/><path d="M234.72,189l14,5.34-8.48,23.81L226,213.45a.9.9,0,0,1-.55-1.14l8.11-22.74A.9.9,0,0,1,234.72,189Z" style="fill:#606967"/><path d="M235,189.13l14,5.35-8.49,23.8-14.21-4.71a.89.89,0,0,1-.54-1.15l8.11-22.74A.9.9,0,0,1,235,189.13Z" style="fill:#cbcbca"/><path d="M235.82,189.42l14,5.34-8.49,23.8-14.21-4.71a.89.89,0,0,1-.54-1.15l8.1-22.74A.89.89,0,0,1,235.82,189.42Z" style="fill:#f5f5f5"/><rect x="248.2" y="204.31" width="6.14" height="0.84" rx="0.42" ry="0.42" transform="translate(83.36 -72.51) rotate(19.63)" style="fill:#cbcbca"/><rect x="254.51" y="206.56" width="6.14" height="0.84" rx="0.42" ry="0.42" transform="translate(84.49 -74.49) rotate(19.63)" style="fill:#cbcbca"/><rect x="251.11" y="208.81" width="8.66" height="0.84" rx="0.42" ry="0.42" transform="translate(85.12 -73.64) rotate(19.63)" style="fill:#cbcbca"/><rect x="248.75" y="205.25" width="0.84" height="3.5" rx="0.42" ry="0.42" transform="matrix(0.34, -0.94, 0.94, 0.34, -29.5, 372.17)" style="fill:#cbcbca"/><rect x="245.43" y="194.04" width="0.33" height="25.27" transform="translate(83.69 -70.49) rotate(19.63)" style="fill:#f5f5f5"/><rect x="246.29" y="209.67" width="6.14" height="0.84" rx="0.42" ry="0.42" transform="translate(85.05 -71.55) rotate(19.63)" style="fill:#cbcbca"/><rect x="252.6" y="211.92" width="6.14" height="0.84" rx="0.42" ry="0.42" transform="translate(86.18 -73.54) rotate(19.63)" style="fill:#cbcbca"/><rect x="244.67" y="214.28" width="1.39" height="0.84" rx="0.42" ry="0.42" transform="translate(86.37 -69.94) rotate(19.63)" style="fill:#cbcbca"/><rect x="246.62" y="216.57" width="10.34" height="0.84" rx="0.42" ry="0.42" transform="matrix(0.94, 0.34, -0.34, 0.94, 87.51, -71.96)" style="fill:#cbcbca"/><rect x="252.53" y="220.44" width="3.26" height="0.84" rx="0.42" ry="0.42" transform="translate(419.37 514.26) rotate(-160.37)" style="fill:#cbcbca"/><rect x="243.5" y="218.22" width="8.86" height="0.84" rx="0.42" ry="0.42" transform="translate(408.01 507.85) rotate(-160.37)" style="fill:#cbcbca"/><rect x="245.26" y="212.78" width="8.75" height="0.84" rx="0.42" ry="0.42" transform="translate(86.12 -71.46) rotate(19.63)" style="fill:#cbcbca"/><rect x="235.29" y="214.29" width="6.14" height="0.84" rx="0.42" ry="0.42" transform="translate(396.56 493.81) rotate(-161.56)" style="fill:#cbcbca"/><rect x="228.94" y="212.17" width="6.14" height="0.84" rx="0.42" ry="0.42" transform="translate(384.85 487.67) rotate(-161.56)" style="fill:#cbcbca"/><rect x="229.78" y="209.87" width="8.66" height="0.84" rx="0.42" ry="0.42" transform="translate(389.66 483.85) rotate(-161.56)" style="fill:#cbcbca"/><rect x="240" y="210.65" width="0.84" height="3.5" rx="0.42" ry="0.42" transform="translate(-37.13 373.27) rotate(-71.56)" style="fill:#cbcbca"/><rect x="237.32" y="208.51" width="6.14" height="0.84" rx="0.42" ry="0.42" transform="translate(396.64 486.48) rotate(-160.37)" style="fill:#cbcbca"/><rect x="231.02" y="206.26" width="6.14" height="0.84" rx="0.42" ry="0.42" transform="translate(385.16 479.99) rotate(-160.37)" style="fill:#cbcbca"/><rect x="243.7" y="203.9" width="1.39" height="0.84" rx="0.42" ry="0.42" transform="translate(405.96 478.86) rotate(-160.37)" style="fill:#cbcbca"/><rect x="232.81" y="201.61" width="10.34" height="0.84" rx="0.42" ry="0.42" transform="translate(394.27 472.26) rotate(-160.37)" style="fill:#cbcbca"/><rect x="233.85" y="197.39" width="3.26" height="0.84" rx="0.42" ry="0.42" transform="translate(87 -71.51) rotate(21.1)" style="fill:#cbcbca"/><rect x="237.22" y="199.77" width="8.86" height="0.84" rx="0.42" ry="0.42" transform="matrix(0.93, 0.36, -0.36, 0.93, 88.28, -73.58)" style="fill:#cbcbca"/><rect x="235.75" y="205.39" width="8.75" height="0.84" rx="0.42" ry="0.42" transform="translate(397.16 480.33) rotate(-160.37)" style="fill:#cbcbca"/><rect x="241.02" y="197.66" width="6.14" height="0.84" rx="0.42" ry="0.42" transform="translate(400.5 470.76) rotate(-158.9)" style="fill:#cbcbca"/><rect x="234.77" y="195.25" width="6.14" height="0.84" rx="0.42" ry="0.42" transform="translate(389.29 463.85) rotate(-158.9)" style="fill:#cbcbca"/><rect x="235.59" y="193.36" width="8.66" height="0.84" rx="0.42" ry="0.42" transform="translate(393.99 460.95) rotate(-158.9)" style="fill:#cbcbca"/><rect x="245.71" y="194.43" width="0.84" height="3.5" rx="0.42" ry="0.42" transform="translate(-25.51 355.18) rotate(-68.9)" style="fill:#cbcbca"/><path d="M251.9,199.88l1.26,1.41a1.89,1.89,0,1,1-.62-3.19,1.86,1.86,0,0,1,1.07,1Z" style="fill:#cbcbca"/><circle cx="252.69" cy="198.88" r="0.3" style="fill:#fff"/><circle cx="253.99" cy="200.48" r="0.27" style="fill:#cbcbca"/><circle cx="255.19" cy="200.9" r="0.27" style="fill:#cbcbca"/><circle cx="256.39" cy="201.33" r="0.27" style="fill:#cbcbca"/><path d="M262.1,203a1.25,1.25,0,0,0-2.35-.83h0l-.55,1.55a.32.32,0,1,0,.59.23l.06-.17a.14.14,0,0,1,.19-.09h0a.16.16,0,0,1,.09.19l-.06.15a.33.33,0,0,0,.14.4.32.32,0,0,0,.46-.17l.06-.17a.13.13,0,0,1,.18-.09h0a.14.14,0,0,1,.09.19l-.06.17a.32.32,0,0,0,.2.4h0a.31.31,0,0,0,.4-.19l.56-1.56Z" style="fill:#cbcbca"/><circle cx="260.4" cy="202.33" r="0.36" style="fill:#fff"/><circle cx="261.51" cy="202.72" r="0.36" style="fill:#fff"/><circle cx="261.41" cy="202.7" r="0.18" style="fill:#cbcbca"/><circle cx="260.31" cy="202.31" r="0.18" style="fill:#cbcbca"/><circle cx="257.59" cy="201.76" r="0.27" style="fill:#cbcbca"/><circle cx="258.8" cy="202.19" r="0.27" style="fill:#cbcbca"/><path d="M253.55,215.2h.91a0,0,0,0,1,0,0v16.73a0,0,0,0,1,0,0h-.73a.18.18,0,0,1-.18-.18V215.2A0,0,0,0,1,253.55,215.2Z" transform="matrix(0.56, 0.83, -0.83, 0.56, 295.55, -112.25)" style="fill:#f5f5f5"/><path d="M254,216h1a0,0,0,0,1,0,0v16.55a.18.18,0,0,1-.18.18H254a0,0,0,0,1,0,0V216A0,0,0,0,1,254,216Z" transform="translate(296.45 -112.36) rotate(55.7)" style="fill:#f3b01b"/><polygon points="262.85 217.62 260.66 218.48 261.75 220.08 263.31 218.3 262.85 217.62" style="fill:#f6c756"/><polygon points="264.46 216.99 262.85 217.62 263.31 218.3 264.46 216.99" style="fill:#30393f"/><path d="M253.71,214.89h.17a0,0,0,0,1,0,0v16.73a0,0,0,0,1,0,0h0a.13.13,0,0,1-.13-.13v-16.6A0,0,0,0,1,253.71,214.89Z" transform="translate(295.21 -112.22) rotate(55.7)" style="fill:#f3b01b"/><path d="M282.83,71.48c11,8.62,19.24,30.44,14.87,35.58l-1.21,1.43c-6.51,7.65-21.58,7.82-27.68,3s-5.53-8.19-6.69-9.73-4.45-.85-10.25-4.94-4.69-14.5,1.82-22.16l.25-4.38C258.3,65.15,271.8,62.86,282.83,71.48Z" style="fill:#f3b01b"/><rect x="251.99" y="138.46" width="9.39" height="1.74" transform="translate(256.43 -152.73) rotate(61.46)" style="fill:#f3b01b"/><path d="M294.13,122.7s5.95-14.24,4.57-20.62-11.58-4.16-13,2.32a74.24,74.24,0,0,1-4.2,12.69,3.22,3.22,0,0,1-1.61,2.39L254.44,134l5.33,9.79,31.62-17.2A5.36,5.36,0,0,0,294.13,122.7Z" style="fill:#f6c756"/><path d="M249.82,147.18l-3.59-6.58a2.22,2.22,0,0,1-.14-.32,1,1,0,0,1-1-.54l-.12-.22a1,1,0,0,1,.41-1.39l1.84-1h0l3.35-1.83a2.57,2.57,0,0,1,3.48,1l3.59,6.58a2.58,2.58,0,0,1-1,3.49l-3.36,1.83A2.57,2.57,0,0,1,249.82,147.18Z" style="fill:#6d4d33"/><path d="M249.85,148.84a1.13,1.13,0,0,1,0-1l-.4.22a1,1,0,0,1-1.39-.41l0,0a1,1,0,0,1,.41-1.39l.42-.23h0l-.93.51a1.13,1.13,0,0,1-1.52-.45l0-.06a1.12,1.12,0,0,1,.44-1.52l.93-.51h0l-1.22.67a1.15,1.15,0,0,1-1.57-.46h0a1.16,1.16,0,0,1,.46-1.57l1.23-.67h0l-1.62.86a1.15,1.15,0,0,1-1.1-2l3.52-1.9.07,0,.12-.07,3.65-2a2.4,2.4,0,0,1,3.25,1l3,5.45a2.4,2.4,0,0,1-.85,3.19l0,0-5.28,2.88A1.1,1.1,0,0,1,249.85,148.84Z" style="fill:#865a2d"/><rect x="225.55" y="115.01" width="9.82" height="1.82" transform="translate(410.38 300.79) rotate(-160.93)" style="fill:#f3b01b"/><path d="M223.61,124.34,231,126.9l.36.1a1.07,1.07,0,0,0,.71.9l.26.08a1.06,1.06,0,0,0,1.36-.66l.72-2.08h0l1.31-3.77a2.7,2.7,0,0,0-1.66-3.42l-7.41-2.56a2.68,2.68,0,0,0-3.41,1.66L222,120.93A2.68,2.68,0,0,0,223.61,124.34Z" style="fill:#6d4d33"/><path d="M221.9,124.6a1.16,1.16,0,0,0,1-.13l-.15.45a1.06,1.06,0,0,0,.65,1.36l.06,0a1.06,1.06,0,0,0,1.35-.66l.17-.48h0l-.36,1a1.18,1.18,0,0,0,.72,1.49l.07,0a1.17,1.17,0,0,0,1.49-.72l.36-1h0l-.47,1.38a1.21,1.21,0,0,0,.74,1.54h0a1.21,1.21,0,0,0,1.54-.75l.48-1.38h0l-3,8.61a1.21,1.21,0,0,0,2.29.79l3.72-10.76s0,0,0-.08a.69.69,0,0,1,0-.13l1.42-4.12a2.49,2.49,0,0,0-1.54-3.18l-6.15-2.13a2.49,2.49,0,0,0-3.13,1.43l0,0-2.05,6A1.15,1.15,0,0,0,221.9,124.6Z" style="fill:#865a2d"/><path d="M253.05,67.86c11.64-3.73,12.7,8.43,3.37,11.34-6.22,1.94-14.6,13.61-16.06,17.58s-4,20.53-4,20.53l-11-3.81s3.18-22.59,5.72-27.36S241.41,71.6,253.05,67.86Z" style="fill:#f7c856"/><circle cx="274.57" cy="89.38" r="19.12" style="fill:#865a2d"/><path d="M285.61,106.45s9.76-9.24,9.87-13.71,3.25-9.84-6.16-18.33-23.11-6.65-26.79-2.47-6.75,10.49-5.07,14.65,3.28,10.28,7.73,13.94c0,0-2.44-4.21-2.35-6.16,0,0,2.64,5.77,6.07,8.16a7.12,7.12,0,0,1-1.16-2.8s4.79,5.56,7.36,7a7.4,7.4,0,0,1-.9-2.29s5.45,4,5.35,4.68a3,3,0,0,1,1.32-1.39C281.85,107.23,284.3,107.74,285.61,106.45Z" style="fill:#30393e"/><path d="M295.73,78.47c3-.84,3.61-4.72,3.25-5.89s.82-3.77-2.33-4.79-4.17-.42-4.32-1.37.57-3.86-2.29-4.5-5.31-3.62-8.61.93-1.11,6.56-1.11,6.56-3.18-1.77-3.27-3.43c0,0,1.18,4.12,2.77,4.68s3.6,6.57,5.4,9,5.61-1,7.13-1.46S294,79,295.73,78.47Z" style="fill:#30393e"/><path d="M281.58,106.38s3.17.67,2,2.54-3.92,2-2.44,5c0,0,.1-1.17,2.44-2s4.3-6.66,2.89-8.32" style="fill:#30393e"/><rect x="119.82" y="248.44" width="9.24" height="1.71" transform="translate(100.32 -28.29) rotate(21.56)" style="fill:#fff"/><path d="M112.68,287.86l-26,7.72-3.34-13.51,22.37-5.87a3.18,3.18,0,0,0,2.14-1.85l11.1-26.6,10.2,4-13,32.94A5.31,5.31,0,0,1,112.68,287.86Z" style="fill:#359acc"/><circle cx="120.69" cy="251.9" r="1.57" style="fill:#fff"/><path d="M131.22,241.66,124.36,239a1.93,1.93,0,0,0-.34-.11,1,1,0,0,0-.63-.87l-.23-.09a1,1,0,0,0-1.32.56l-.76,1.93h0l-1.38,3.49a2.53,2.53,0,0,0,1.42,3.28l6.86,2.71a2.53,2.53,0,0,0,3.28-1.42l1.38-3.5A2.52,2.52,0,0,0,131.22,241.66Z" style="fill:#f1b48b"/><path d="M132.84,241.48a1.08,1.08,0,0,0-1,.09l.17-.43a1,1,0,0,0-.57-1.3l0,0a1,1,0,0,0-1.3.57l-.17.44h0l.38-1a1.11,1.11,0,0,0-.62-1.43l-.07,0a1.1,1.1,0,0,0-1.43.62l-.38,1h0l.51-1.28a1.14,1.14,0,0,0-.64-1.47h0a1.14,1.14,0,0,0-1.48.64l-.51,1.28h0l3.16-8a1.14,1.14,0,0,0-2.12-.83l-3.94,10s0,0,0,.06l-.06.13-1.5,3.81a2.36,2.36,0,0,0,1.32,3.06l5.69,2.25a2.36,2.36,0,0,0,3-1.22,0,0,0,0,0,0,0l2.18-5.5A1.08,1.08,0,0,0,132.84,241.48Z" style="fill:#fbbe91"/><path d="M58.69,252.5H87.18a17.31,17.31,0,0,1,17.31,17.31v1.79a11.6,11.6,0,0,1-11.6,11.6H53a11.6,11.6,0,0,1-11.6-11.6V269.8A17.31,17.31,0,0,1,58.69,252.5Z" transform="translate(201.69 21.92) rotate(42.87)" style="fill:#359acc"/><circle cx="73.3" cy="267.14" r="16.75" style="fill:#fbbe91"/><path d="M64.29,251.79s-8.89,7.7-9.15,11.61-3.22,8.49,4.69,16.28,20,6.69,23.35,3.17,6.3-8.92,5-12.62-2.48-9.12-6.23-12.49c0,0,2,3.78,1.82,5.47,0,0-2.09-5.14-5-7.36a6.21,6.21,0,0,1,.91,2.49s-4-5-6.17-6.44a6.23,6.23,0,0,1,.69,2s-4.61-3.72-4.5-4.3a2.67,2.67,0,0,1-1.2,1.17C67.61,251.24,65.49,250.7,64.29,251.79Z" style="fill:#926f5c"/><rect x="75.94" y="207.66" width="9.24" height="1.71" transform="translate(-44.01 394.14) rotate(-125.01)" style="fill:#fff"/><path d="M45.78,228.93,44.33,256l13.91.1.5-23.12a3.21,3.21,0,0,1,1.31-2.51l23.29-17-6.29-9L48,224.86A5.33,5.33,0,0,0,45.78,228.93Z" style="fill:#359bcd"/><circle cx="78.9" cy="212.77" r="1.57" style="fill:#fff"/><line x1="86.72" y1="209.22" x2="83.64" y2="211.38" style="fill:#f1b48b"/><path d="M86.39,200.08l4.24,6a2.38,2.38,0,0,1,.18.3,1,1,0,0,1,1,.42l.14.2a1,1,0,0,1-.24,1.41L90,209.63h0l-3.08,2.16a2.53,2.53,0,0,1-3.52-.61l-4.24-6a2.52,2.52,0,0,1,.62-3.52l3.07-2.16A2.52,2.52,0,0,1,86.39,200.08Z" style="fill:#f1b48b"/><path d="M86.18,198.46a1.08,1.08,0,0,1,.14.95l.38-.26a1,1,0,0,1,1.39.25l0,0a1,1,0,0,1-.24,1.4l-.39.27h0l.85-.6a1.11,1.11,0,0,1,1.54.27l0,.06a1.09,1.09,0,0,1-.27,1.53l-.85.6h0l1.12-.79a1.14,1.14,0,0,1,1.59.28h0a1.14,1.14,0,0,1-.28,1.58l-1.13.79h0l1.49-1a1.13,1.13,0,1,1,1.3,1.86l-3.23,2.25-.06,0-.11.09-3.36,2.35a2.35,2.35,0,0,1-3.28-.57l-3.51-5a2.35,2.35,0,0,1,.47-3.21s0,0,0,0l4.84-3.4A1.08,1.08,0,0,1,86.18,198.46Z" style="fill:#fbbe91"/><path d="M88.74,182.7s-.68,1.05.21,1.62,10,6.67,15.11,8.82a.13.13,0,0,0,.15,0l.18-.28Z" style="fill:#34a2ab"/><path d="M88.74,182.7s.68-1,1.57-.48,10.18,6.37,14.24,10.17a.12.12,0,0,1,0,.15l-.18.28Z" style="fill:#2d8c8c"/><path d="M104.39,192.82l.64.41-.08.12a1.77,1.77,0,0,1-.74-.26Z" style="fill:#eb703c"/><path d="M104.39,192.82l.64.41.08-.12a1.81,1.81,0,0,0-.54-.57Z" style="fill:#dd5143"/><path d="M105,193.23l.27.17s-.18,0-.33-.08" style="fill:#606866"/><path d="M105,193.23l.27.17s-.07-.16-.22-.25" style="fill:#30393e"/><path d="M89.13,184.14h3.38a0,0,0,0,1,0,0v1a0,0,0,0,1,0,0H89.13a.35.35,0,0,1-.35-.35v-.33a.35.35,0,0,1,.35-.35Z" transform="translate(-113.64 160.51) rotate(-57.11)" style="fill:#30393e"/><circle cx="93.1" cy="187.42" r="0.36" style="fill:#30393e"/><rect x="91.32" y="185.16" width="0.43" height="3.33" transform="translate(-116.5 189.09) rotate(-64.52)" style="fill:#30393e"/><path d="M82.07,170.38s-4.31,6.38-5.21,7L84.7,183l5.08-7.13Z" style="fill:#e5971a"/><path d="M81.88,170.48s-4,6.56-4.91,7.25L85,183l4.76-7.34Z" style="fill:#ea8f0c"/><path d="M81.82,170.32s-4.11,6.52-5,7.2l8,5.45s4-6.25,4.83-7.42Z" style="fill:#f48b0c"/><path d="M81.65,170.37s-3.93,6.62-4.78,7.33L85,182.8l4.64-7.43Z" style="fill:#fbab19"/><path d="M239.55,140.08s-4.6,6.8-5.55,7.49l8.35,6,5.41-7.6Z" style="fill:#e5971a"/><path d="M239.34,140.19s-4.31,7-5.23,7.72l8.6,5.59,5.08-7.82Z" style="fill:#ea8f0c"/><path d="M239.28,140S234.9,147,234,147.69l8.56,5.81s4.32-6.66,5.14-7.91Z" style="fill:#f48b0c"/><path d="M239.1,140.07s-4.19,7.06-5.1,7.81l8.7,5.43,4.94-7.91Z" style="fill:#fbab19"/><path d="M104.84,165a.88.88,0,0,1-.31.64l11.18-.09-.54-10.78Z" style="fill:#bebfb9"/><path d="M103.83,154.8s.22,9.24-.2,10.5h11.54V154.8Z" style="fill:#cdde52"/><path d="M118.23,165.06a.86.86,0,0,1-.35.62l11.17.46V155.4Z" style="fill:#bebfb9"/><path d="M117.72,154.84s-.24,9.23-.72,10.47l11.52.58.53-10.49Z" style="fill:#c9d34a"/><path d="M104.61,177.69a.84.84,0,0,1-.32.63l11.19-.09-.55-10.71Z" style="fill:#bebfb9"/><path d="M103.59,167.52s.22,9.24-.2,10.5h11.54v-10.5Z" style="fill:#c9d34a"/><path d="M119.14,178a.88.88,0,0,1-.28.66l11.16-.73-1.15-10.73Z" style="fill:#bebfb9"/><path d="M117.55,167.84s.74,9.21.39,10.49l11.53-.65-.6-10.49Z" style="fill:#cdde52"/><path d="M104.77,190.57a.87.87,0,0,1-.35.63l11.18.36-.1-10.79Z" style="fill:#bebfb9"/><path d="M104.17,180.31s-.16,9.24-.63,10.48l11.53.47.43-10.49Z" style="fill:#cdde52"/><path d="M119.38,191.1a.85.85,0,0,1-.31.65l11.19-.32-.77-10.76Z" style="fill:#bebfb9"/><path d="M118.16,180.9s.4,9.23,0,10.5l11.54-.24-.22-10.49Z" style="fill:#cdde52"/><path d="M137.38,166.15a.86.86,0,0,1-.31.64l11.18-.09-.54-10.78Z" style="fill:#bebfb9"/><path d="M136.37,155.92s.22,9.24-.2,10.5h11.54v-10.5Z" style="fill:#ee6e9f"/><path d="M165.28,165.7a.87.87,0,0,1-.34.62l11.17.46V156Z" style="fill:#bebfb9"/><path d="M164.78,155.48s-.24,9.24-.73,10.47l11.53.58L176.1,156Z" style="fill:#ee6e9f"/><path d="M137.15,178.81a.84.84,0,0,1-.32.63l11.19-.09-.55-10.71Z" style="fill:#bebfb9"/><path d="M136.14,168.64s.21,9.24-.21,10.5h11.54v-10.5Z" style="fill:#ee6e9f"/><path d="M151.68,179.12a.82.82,0,0,1-.28.65l11.16-.73-1.15-10.72Z" style="fill:#bebfb9"/><path d="M150.09,169s.74,9.21.39,10.49L162,178.8l-.6-10.48Z" style="fill:#ed7aa9"/><path d="M137.31,191.7a.87.87,0,0,1-.34.62l11.17.36L148,181.9Z" style="fill:#bebfb9"/><path d="M136.71,181.43s-.16,9.24-.63,10.48l11.53.47L148,181.9Z" style="fill:#ed74a5"/><path d="M137.6,205.11a.91.91,0,0,1-.31.65l11.18-.33-.76-10.76Z" style="fill:#bebfb9"/><path d="M136.38,194.9s.4,9.24,0,10.5l11.54-.23-.22-10.5Z" style="fill:#ee6e9f"/><path d="M181.71,165.8a.86.86,0,0,1-.32.64l11.19-.1L192,155.57Z" style="fill:#bebfb9"/><path d="M180.7,155.57s.21,9.24-.21,10.5H192v-10.5Z" style="fill:#feed57"/><path d="M195.09,165.83a.86.86,0,0,1-.35.62l11.18.46V156.17Z" style="fill:#bebfb9"/><path d="M194.59,155.61s-.25,9.23-.73,10.47l11.53.57.52-10.48Z" style="fill:#fce856"/><path d="M181.47,178.46a.86.86,0,0,1-.31.63l11.18-.09-.54-10.71Z" style="fill:#bebfb9"/><path d="M180.46,168.29s.22,9.24-.2,10.5H191.8v-10.5Z" style="fill:#fce856"/><path d="M196,178.76a.89.89,0,0,1-.28.66l11.16-.73L205.73,168Z" style="fill:#bebfb9"/><path d="M194.41,168.61s.74,9.21.4,10.49l11.52-.66-.6-10.48Z" style="fill:#feed57"/><path d="M181.63,191.34a.9.9,0,0,1-.34.63l11.18.36-.1-10.79Z" style="fill:#bebfb9"/><path d="M181,181.08s-.16,9.24-.64,10.48l11.54.47.43-10.49Z" style="fill:#fce965"/><path d="M196.24,191.87a.88.88,0,0,1-.3.65l11.18-.33-.76-10.76Z" style="fill:#bebfb9"/><path d="M195,181.66s.41,9.24,0,10.51l11.54-.24-.21-10.5Z" style="fill:#fce856"/><path d="M209.9,179a.83.83,0,0,1-.27.65l11.16-.73-1.16-10.72Z" style="fill:#bebfb9"/><path d="M208.31,168.81s.74,9.21.4,10.49l11.52-.65-.6-10.48Z" style="fill:#feed57"/><path d="M119.86,204a.9.9,0,0,1-.34.63l11.18.36-.11-10.79Z" style="fill:#bebfb9"/><path d="M119.26,193.75s-.16,9.24-.63,10.48l11.54.47.42-10.49Z" style="fill:#cdde52"/><path d="M165.72,179.44a.88.88,0,0,1-.28.66l11.16-.73-1.15-10.73Z" style="fill:#bebfb9"/><path d="M164.13,169.29s.74,9.21.39,10.49l11.52-.65-.59-10.49Z" style="fill:#ed7aa9"/><path d="M105.06,151.92a.85.85,0,0,1-.32.64l11.18-.09-.54-10.78Z" style="fill:#bebfb9"/><path d="M104,141.69s.22,9.24-.2,10.5h11.54v-10.5Z" style="fill:#aaddf0"/><path d="M137.34,152.43a.85.85,0,0,1-.34.63l11.19.24L148,142.51Z" style="fill:#bebfb9"/><path d="M136.63,142.17s-.06,9.24-.52,10.49l11.54.35.32-10.5Z" style="fill:#aaddf0"/><path d="M151.4,152.45a.88.88,0,0,1-.31.64l11.18-.14-.59-10.77Z" style="fill:#bebfb9"/><path d="M150.34,142.22s.26,9.24-.16,10.5l11.55-.05,0-10.49Z" style="fill:#aaddf0"/><path d="M181.74,152.27a.81.81,0,0,1-.31.63l11.19-.14L192,142Z" style="fill:#bebfb9"/><path d="M180.69,142s.25,9.24-.16,10.5l11.54,0,0-10.5Z" style="fill:#aaddf0"/><rect x="105.28" y="156.79" width="7.97" height="0.72" transform="translate(-7.17 5.24) rotate(-2.66)" style="fill:#b5b5b5"/><rect x="105.37" y="158.79" width="6.72" height="0.72" transform="translate(-7.26 5.21) rotate(-2.66)" style="fill:#b5b5b5"/><rect x="105.46" y="160.71" width="7.97" height="0.68" transform="translate(-7.35 5.25) rotate(-2.66)" style="fill:#b5b5b5"/><rect x="105.55" y="162.63" width="7.97" height="0.68" transform="translate(-7.44 5.26) rotate(-2.66)" style="fill:#b5b5b5"/><rect x="120.74" y="196.24" width="7.97" height="0.72" transform="translate(12.87 -7.6) rotate(3.68)" style="fill:#b5b5b5"/><rect x="120.62" y="198.17" width="6.72" height="0.72" transform="translate(13 -7.55) rotate(3.68)" style="fill:#b5b5b5"/><rect x="105.8" y="182.43" width="7.97" height="0.72" transform="translate(7.91 -4.52) rotate(2.45)" style="fill:#b5b5b5"/><rect x="109.64" y="184.49" width="4.09" height="0.72" transform="translate(8 -4.6) rotate(2.45)" style="fill:#b5b5b5"/><rect x="105.63" y="186.35" width="8.02" height="0.68" transform="translate(8.08 -4.52) rotate(2.45)" style="fill:#b5b5b5"/><rect x="105.55" y="188.28" width="7.97" height="0.68" transform="translate(8.16 -4.51) rotate(2.45)" style="fill:#b5b5b5"/><rect x="105.71" y="184.3" width="3.16" height="0.72" transform="translate(7.99 -4.42) rotate(2.45)" style="fill:#b5b5b5"/><rect x="152.07" y="170.64" width="7.97" height="0.72" transform="translate(-13.91 13.81) rotate(-4.85)" style="fill:#b5b5b5"/><rect x="156.15" y="172.43" width="4.09" height="0.72" transform="translate(-14.05 14) rotate(-4.85)" style="fill:#b5b5b5"/><rect x="152.4" y="174.55" width="8.02" height="0.68" transform="translate(-14.23 13.86) rotate(-4.85)" style="fill:#b5b5b5"/><rect x="152.56" y="176.46" width="7.97" height="0.68" transform="translate(-14.4 13.88) rotate(-4.85)" style="fill:#b5b5b5"/><rect x="152.24" y="172.8" width="3.16" height="0.72" transform="translate(-14.1 13.63) rotate(-4.85)" style="fill:#b5b5b5"/><rect x="182.42" y="170.19" width="7.97" height="0.72" transform="translate(2.51 -2.7) rotate(0.84)" style="fill:#b5b5b5"/><rect x="182.39" y="172.16" width="6.72" height="0.72" transform="translate(2.54 -2.69) rotate(0.84)" style="fill:#b5b5b5"/><rect x="195.92" y="157.63" width="7.97" height="0.72" transform="translate(2.33 -2.9) rotate(0.84)" style="fill:#b5b5b5"/><rect x="195.89" y="159.6" width="6.72" height="0.72" transform="translate(2.36 -2.89) rotate(0.84)" style="fill:#b5b5b5"/><rect x="195.89" y="161.6" width="6.72" height="0.72" transform="translate(2.38 -2.89) rotate(0.84)" style="fill:#b5b5b5"/><path d="M166,191.94a.88.88,0,0,1-.31.64l11.18-.3-.74-10.77Z" style="fill:#bebfb9"/><path d="M164.79,181.73s.39,9.23,0,10.5l11.54-.22-.2-10.5Z" style="fill:#fbab19"/><path d="M178.41,231.12a.81.81,0,0,1,.21.67l8-7.83-7.87-7.38Z" style="fill:#aaddf0"/><path d="M170.58,224.45s6.57,6.5,7.14,7.7l8.31-8-7.29-7.56Z" style="fill:#aaddf0"/><path d="M126.93,131.26a.84.84,0,0,1,.21.68l8-7.83-7.87-7.38Z" style="fill:#bebfb9"/><path d="M119.1,124.6s6.57,6.5,7.14,7.7l8.31-8-7.29-7.55Z" style="fill:#feed57"/><rect x="105.37" y="143.92" width="6.72" height="0.9" style="fill:#8e8e8e"/><rect x="105.37" y="145.64" width="6.72" height="0.9" style="fill:#8e8e8e"/><rect x="138.02" y="144.38" width="8.63" height="0.86" style="fill:#8e8e8e"/><rect x="138.02" y="146.05" width="6.72" height="0.9" style="fill:#8e8e8e"/><rect x="151.47" y="143.96" width="8.63" height="0.86" style="fill:#8e8e8e"/><rect x="151.47" y="145.6" width="2.72" height="0.9" style="fill:#8e8e8e"/><rect x="154.89" y="145.6" width="3.85" height="0.9" style="fill:#8e8e8e"/><rect x="182.25" y="143.53" width="5.54" height="0.86" style="fill:#8e8e8e"/><rect x="182.25" y="145.21" width="4.31" height="0.9" style="fill:#8e8e8e"/><path d="M199,182.63c4.15.76,5.67,4.45,4.5,6.07a3.57,3.57,0,0,1-5.11.84c-1.71-1.3-1.55-3.2-.26-4.9s3.43-2.48,5.3-1.06" style="fill:none;stroke:#b5b5b5;stroke-linecap:round;stroke-miterlimit:10;stroke-width:0.75px"/><rect x="198.98" y="185.64" width="3.34" height="0.72" transform="translate(2.74 -2.91) rotate(0.84)" style="fill:#b5b5b5"/><rect x="198.95" y="187.6" width="2.82" height="0.72" transform="translate(2.76 -2.9) rotate(0.84)" style="fill:#b5b5b5"/><circle cx="200.53" cy="226.22" r="7.98" style="fill:#cbcbca"/><path d="M202.9,215h6.5a.62.62,0,0,1,.62.62v1.65a.62.62,0,0,1-.62.62h-6.5a0,0,0,0,1,0,0V215a0,0,0,0,1,0,0Z" transform="translate(-92.52 226.48) rotate(-48.27)" style="fill:#f5f5f5"/><rect x="203.94" y="216.64" width="2.13" height="2.89" transform="translate(-94.2 225.93) rotate(-48.27)" style="fill:#cbcbca"/><circle cx="200.21" cy="223.9" r="7.98" style="fill:#f5f5f5"/><circle cx="200.21" cy="223.9" r="6.05" style="fill:#986e44"/><ellipse cx="200.28" cy="224.15" rx="5.35" ry="5.58" transform="translate(-47.27 394.67) rotate(-82.78)" style="fill:#695046"/><ellipse cx="196.95" cy="219.46" rx="0.5" ry="0.52" transform="translate(-45.53 387.27) rotate(-82.78)" style="fill:#986e44"/><ellipse cx="196.95" cy="219.46" rx="0.43" ry="0.45" transform="translate(-45.53 387.27) rotate(-82.78)" style="fill:#695046"/><ellipse cx="198.1" cy="219.08" rx="0.76" ry="0.79" transform="translate(-44.14 388.07) rotate(-82.78)" style="fill:#986e44"/><ellipse cx="198.1" cy="219.08" rx="0.65" ry="0.68" transform="translate(-44.14 388.07) rotate(-82.78)" style="fill:#695046"/><ellipse cx="200.6" cy="218.52" rx="0.64" ry="0.67" transform="translate(-41.41 390.06) rotate(-82.78)" style="fill:#986e44"/><ellipse cx="200.6" cy="218.52" rx="0.55" ry="0.57" transform="translate(-41.41 390.06) rotate(-82.78)" style="fill:#695046"/><ellipse cx="201.72" cy="218.62" rx="0.53" ry="0.56" transform="translate(-40.52 391.26) rotate(-82.78)" style="fill:#986e44"/><ellipse cx="201.72" cy="218.62" rx="0.46" ry="0.48" transform="translate(-40.52 391.26) rotate(-82.78)" style="fill:#695046"/><ellipse cx="199.32" cy="218.66" rx="0.74" ry="0.77" transform="translate(-42.66 388.92) rotate(-82.78)" style="fill:#986e44"/><ellipse cx="199.32" cy="218.66" rx="0.63" ry="0.66" transform="translate(-42.66 388.92) rotate(-82.78)" style="fill:#695046"/><path d="M87.68,219.74a.86.86,0,0,1-.52.49l10.47,3.92L101,213.9Z" style="fill:#bebfb9"/><path d="M90.41,209.83s-3.12,8.7-4,9.73l10.77,4.14,3.77-9.8Z" style="fill:#cdde52"/></svg>