<svg id="Layer_1" data-name="Layer 1" xmlns="http://www.w3.org/2000/svg" viewBox="0 15 320 260"><title>Illustrations</title><path d="M304.32,184.57H259.16v0a19.24,19.24,0,0,1,0-38.47v0h4.93c8.66,0,15.68-8.69,15.68-19.42h0c0-9.87-5.95-18-13.66-19.25h13.95c8.66,0,15.68-8.69,15.68-19.42h0c0-10.72-7-19.42-15.68-19.42H30.61C22,68.55,14.93,77.25,14.93,88h0c0,10.73,7,19.42,15.68,19.42H55.68c7.71,1.22,13.67,9.37,13.67,19.25s-6,18-13.67,19.26H38.36c-8.66,0-15.68,8.69-15.68,19.42h0c0,9.87,5.95,18,13.66,19.25H15.68C7,184.57,0,193.26,0,204H0c0,10.72,7,19.42,15.68,19.42H51.32c-7,2-12.12,9.7-12.12,18.91h0c0,10.72,7,19.42,15.67,19.42H265.13c8.65,0,15.67-8.7,15.67-19.42h0c0-9.21-5.17-16.92-12.12-18.91h35.64c8.66,0,15.68-8.7,15.68-19.42h0C320,193.26,313,184.57,304.32,184.57Z" style="opacity:0.1"/><path d="M68.75,120.22,51.89,19.3q.78-.12,1.56-.21c21.66-2.28,41.78,12.19,45.92,33,2.28,11.48-2.14,21.79-6.84,31.64-5.75,12.07-8.14,19.13-6.44,29.3l.7,4.21Z" style="fill:#f6b10c"/><path d="M68.75,120.23,51.89,19.29c-.89.14-1.78.31-2.68.52C28,24.69,13.67,44.91,16.51,65.91c1.57,11.6,9.1,19.91,16.75,27.7,9.36,9.54,13.91,15.44,15.61,25.62l.71,4.2Z" style="fill:#f7c856"/><path d="M62,79.56c3.08-.51,4.72-6.09,3.66-12.45S61.19,56,58.11,56.52" style="fill:none;stroke:#ccc;stroke-miterlimit:10;stroke-width:1.9892506180294662px"/><path d="M56.37,80.5C59.45,80,61.09,74.4,60,68s-4.43-11.1-7.51-10.59" style="fill:none;stroke:#ccc;stroke-miterlimit:10;stroke-width:1.9892506180294662px"/><path d="M50.78,81.43c3.09-.52,4.73-6.09,3.66-12.46S50,57.87,46.93,58.38" style="fill:none;stroke:#ccc;stroke-miterlimit:10;stroke-width:1.9892506180294662px"/><path d="M73.13,77.7c3.09-.52,4.72-6.1,3.66-12.46s-4.42-11.1-7.51-10.59" style="fill:none;stroke:#ccc;stroke-miterlimit:10;stroke-width:1.9892506180294662px"/><path d="M67.54,78.63c3.09-.52,4.73-6.09,3.66-12.46s-4.42-11.1-7.51-10.59" style="fill:none;stroke:#ccc;stroke-miterlimit:10;stroke-width:1.9892506180294662px"/><path d="M76.8,72.48S72.16,102,74,112.9" style="fill:none;stroke:#ccc;stroke-miterlimit:10;stroke-width:1.9892506180294662px"/><path d="M63.69,55.58C60.61,56.1,59,61.68,60,68s4.43,11.11,7.51,10.59" style="fill:none;stroke:#fff;stroke-miterlimit:10;stroke-width:1.9892506180294662px"/><path d="M58.11,56.52C55,57,53.38,62.61,54.44,69S58.87,80.08,62,79.56" style="fill:none;stroke:#fff;stroke-miterlimit:10;stroke-width:1.9892506180294662px"/><path d="M52.52,57.45c-3.09.52-4.73,6.09-3.66,12.46S53.28,81,56.37,80.5" style="fill:none;stroke:#fff;stroke-miterlimit:10;stroke-width:1.9892506180294662px"/><path d="M46.93,58.38c-3.08.52-4.72,6.1-3.66,12.46s4.43,11.1,7.51,10.59" style="fill:none;stroke:#fff;stroke-miterlimit:10;stroke-width:1.9892506180294662px"/><path d="M69.28,54.65c-3.08.52-4.72,6.09-3.66,12.46S70,78.21,73.13,77.7" style="fill:none;stroke:#fff;stroke-miterlimit:10;stroke-width:1.9892506180294662px"/><path d="M45.61,77.69s14,26.4,15.8,37.31" style="fill:none;stroke:#fff;stroke-miterlimit:10;stroke-width:1.9892506180294662px"/><polygon points="67.47 112.58 48.3 115.78 44.21 122.27 68.41 118.22 67.47 112.58" style="fill:#ccc"/><polygon points="68.41 118.22 44.21 122.27 50.18 127.07 69.36 123.86 68.41 118.22" style="fill:#fff"/><polygon points="69.36 123.86 50.18 127.07 46.66 132.69 70.17 128.77 69.36 123.86" style="fill:#ccc"/><polygon points="70.99 133.67 51.82 136.87 46.66 132.69 70.17 128.77 70.99 133.67" style="fill:#fff"/><polygon points="70.99 133.67 51.82 136.87 49.75 142.26 71.81 138.57 70.99 133.67" style="fill:#ccc"/><polygon points="72.63 143.47 53.46 146.68 49.75 142.26 71.81 138.57 72.63 143.47" style="fill:#fff"/><polygon points="56.74 146.13 57.71 147.44 72.87 144.91 72.63 143.47 56.74 146.13" style="fill:#ccc"/><polygon points="60.69 146.94 65.09 152.42 73.88 150.96 72.87 144.91 60.69 146.94" style="fill:#606866"/><polygon points="67.47 112.58 86.64 109.38 92.61 114.18 68.41 118.22 67.47 112.58" style="fill:#b2b2b2"/><polygon points="68.41 118.22 92.61 114.18 88.53 120.66 69.36 123.86 68.41 118.22" style="fill:#f6f6f6"/><polygon points="69.36 123.86 88.53 120.66 93.69 124.84 70.17 128.77 69.36 123.86" style="fill:#b2b2b2"/><polygon points="70.99 133.67 90.16 130.47 93.69 124.84 70.17 128.77 70.99 133.67" style="fill:#f6f6f6"/><polygon points="70.99 133.67 90.16 130.47 93.87 134.89 71.81 138.57 70.99 133.67" style="fill:#b2b2b2"/><polygon points="72.63 143.47 91.8 140.27 93.87 134.89 71.81 138.57 72.63 143.47" style="fill:#f6f6f6"/><polygon points="88.52 140.82 88.03 142.37 72.87 144.91 72.63 143.47 88.52 140.82" style="fill:#b2b2b2"/><polygon points="85.05 142.87 82.67 149.49 73.88 150.96 72.87 144.91 85.05 142.87" style="fill:#30393e"/><rect x="-22.31" y="11.59" width="166.6" height="166.6" transform="translate(-51.68 89.4) rotate(-54.48)" style="fill:none"/><path d="M162.58,103.51H247a4.93,4.93,0,0,1,4.93,4.93V234a4.93,4.93,0,0,1-4.93,4.93H162.58a0,0,0,0,1,0,0V103.51A0,0,0,0,1,162.58,103.51Z" style="fill:#45b6f4"/><path d="M168.33,109h73.53a4.41,4.41,0,0,1,4.41,4.41V228.72a4.41,4.41,0,0,1-4.41,4.41H168.33a0,0,0,0,1,0,0V109A0,0,0,0,1,168.33,109Z" style="fill:#606866"/><path d="M166.69,109h73.53a4.41,4.41,0,0,1,4.41,4.41V228.72a4.41,4.41,0,0,1-4.41,4.41H166.69a0,0,0,0,1,0,0V109A0,0,0,0,1,166.69,109Z" style="fill:#ccc"/><path d="M162.58,109h73.53a4.41,4.41,0,0,1,4.41,4.41V228.72a4.41,4.41,0,0,1-4.41,4.41H162.58a0,0,0,0,1,0,0V109A0,0,0,0,1,162.58,109Z" style="fill:#fdfdfd"/><path d="M78.17,101.73l84.41,1.64V238.75L78.17,240.4a4.94,4.94,0,0,1-4.93-4.94V106.66A4.93,4.93,0,0,1,78.17,101.73Z" style="fill:#359bcd"/><path d="M82.31,107.35,155.84,109V233.13l-73.53,1.65a4.42,4.42,0,0,1-4.42-4.42V111.76A4.41,4.41,0,0,1,82.31,107.35Z" style="fill:#606866"/><path d="M84,107.35,157.48,109V233.13L84,234.78a4.41,4.41,0,0,1-4.41-4.42V111.76A4.4,4.4,0,0,1,84,107.35Z" style="fill:#ccc"/><path d="M88.06,107.35,161.59,109V233.13l-73.53,1.65a4.41,4.41,0,0,1-4.41-4.42V111.76A4.4,4.4,0,0,1,88.06,107.35Z" style="fill:#f6f6f6"/><rect x="169.75" y="159.93" width="30.17" height="4.14" rx="2.07" ry="2.07" style="fill:#ccc"/><rect x="202.64" y="159.93" width="30.17" height="4.14" rx="2.07" ry="2.07" style="fill:#ccc"/><rect x="190.26" y="170.07" width="42.56" height="4.14" rx="2.07" ry="2.07" style="fill:#ccc"/><rect x="170.25" y="170.07" width="17.21" height="4.14" rx="2.07" ry="2.07" style="fill:#ccc"/><rect x="160.93" y="108.99" width="1.64" height="124.14" style="fill:#f6f6f6"/><rect x="169.75" y="180.82" width="30.17" height="4.14" rx="2.07" ry="2.07" style="fill:#ccc"/><rect x="202.64" y="180.82" width="30.17" height="4.14" rx="2.07" ry="2.07" style="fill:#ccc"/><rect x="170.52" y="207.29" width="6.85" height="4.14" rx="2.07" ry="2.07" style="fill:#ccc"/><rect x="182.04" y="207.29" width="50.78" height="4.14" rx="2.07" ry="2.07" style="fill:#ccc"/><rect x="216.82" y="217.43" width="15.99" height="4.14" rx="2.07" ry="2.07" transform="translate(449.63 439) rotate(180)" style="fill:#ccc"/><rect x="170.52" y="217.43" width="43.52" height="4.14" rx="2.07" ry="2.07" transform="translate(384.57 439) rotate(-180)" style="fill:#ccc"/><rect x="169.75" y="196.54" width="42.98" height="4.14" rx="2.07" ry="2.07" style="fill:#ccc"/><rect x="126.48" y="217.51" width="30.17" height="4.14" rx="2.07" ry="2.07" transform="translate(287.64 436.2) rotate(178.82)" style="fill:#ccc"/><rect x="93.6" y="218.19" width="30.17" height="4.14" rx="2.07" ry="2.07" transform="translate(221.9 438.23) rotate(178.82)" style="fill:#ccc"/><rect x="93.93" y="207.81" width="42.56" height="4.14" rx="2.07" ry="2.07" transform="translate(234.73 417.33) rotate(178.82)" style="fill:#ccc"/><rect x="139.28" y="207.13" width="17.21" height="4.14" rx="2.07" ry="2.07" transform="translate(-4.29 3.1) rotate(-1.18)" style="fill:#ccc"/><rect x="126.96" y="196.73" width="30.17" height="4.14" rx="2.07" ry="2.07" transform="translate(284.1 397.6) rotate(-180)" style="fill:#ccc"/><rect x="94.08" y="196.73" width="30.17" height="4.14" rx="2.07" ry="2.07" transform="translate(218.33 397.6) rotate(-180)" style="fill:#ccc"/><rect x="93.54" y="155.97" width="15.99" height="4.14" rx="2.07" ry="2.07" transform="translate(3.23 -2.03) rotate(1.16)" style="fill:#ccc"/><rect x="112.3" y="156.63" width="43.52" height="4.14" rx="2.07" ry="2.07" transform="translate(3.25 -2.69) rotate(1.16)" style="fill:#ccc"/><rect x="126.16" y="146.81" width="30.17" height="4.14" rx="2.07" ry="2.07" transform="translate(278.61 301.35) rotate(-178.53)" style="fill:#ccc"/><rect x="93.28" y="145.96" width="30.17" height="4.14" rx="2.07" ry="2.07" transform="translate(212.89 298.81) rotate(-178.53)" style="fill:#ccc"/><rect x="92.98" y="135.46" width="42.56" height="4.14" rx="2.07" ry="2.07" transform="translate(224.93 277.96) rotate(-178.53)" style="fill:#ccc"/><rect x="144.85" y="129.77" width="4.14" height="17.21" rx="2.07" ry="2.07" transform="translate(4.81 281.68) rotate(-88.53)" style="fill:#ccc"/><path d="M179.72,129.23l8.17,4.45a9.29,9.29,0,1,1-1.59-11Z" style="fill:#ccc"/><circle cx="181.73" cy="123.32" r="1.45" style="fill:#fdfdfd"/><circle cx="190.37" cy="128.55" r="1.3" style="fill:#ccc"/><circle cx="196.64" cy="128.55" r="1.3" style="fill:#ccc"/><circle cx="202.91" cy="128.55" r="1.3" style="fill:#ccc"/><path d="M232,126.73a6.13,6.13,0,0,0-12.25,0h0v8a1.62,1.62,0,0,0,1.3,1.62,1.56,1.56,0,0,0,1.82-1.54V134a.73.73,0,0,1,.73-.73h0a.73.73,0,0,1,.73.73v.79a1.63,1.63,0,0,0,1.29,1.62,1.57,1.57,0,0,0,1.83-1.54V134a.73.73,0,0,1,.72-.73h0a.73.73,0,0,1,.73.73v.87a1.56,1.56,0,0,0,1.56,1.56h0a1.56,1.56,0,0,0,1.56-1.56v-8.12Z" style="fill:#ccc"/><circle cx="223.12" cy="126.55" r="1.75" style="fill:#fdfdfd"/><circle cx="228.87" cy="126.55" r="1.75" style="fill:#fdfdfd"/><circle cx="228.41" cy="126.61" r="0.88" style="fill:#ccc"/><circle cx="222.65" cy="126.61" r="0.88" style="fill:#ccc"/><circle cx="209.18" cy="128.55" r="1.3" style="fill:#ccc"/><circle cx="215.45" cy="128.55" r="1.3" style="fill:#ccc"/><path d="M226.33,194.27h4.48a0,0,0,0,1,0,0v82.21a0,0,0,0,1,0,0h-3.58a.9.9,0,0,1-.9-.9V194.27A0,0,0,0,1,226.33,194.27Z" transform="translate(182.41 -89.46) rotate(36.07)" style="fill:#fff"/><path d="M229.9,197.07h5a0,0,0,0,1,0,0v81.31a.9.9,0,0,1-.9.9H229.9a0,0,0,0,1,0,0V197.07A0,0,0,0,1,229.9,197.07Z" transform="translate(184.8 -91.18) rotate(36.07)" style="fill:#f6b10c"/><polygon points="259.66 193.27 250.96 200.83 258.65 206.43 262.93 195.65 259.66 193.27" style="fill:#f7c856"/><polygon points="266.09 187.68 259.66 193.27 262.93 195.65 266.09 187.68" style="fill:#30393e"/><path d="M226.63,193.35H228a0,0,0,0,1,0,0v82.21a0,0,0,0,1,0,0h-.71a.65.65,0,0,1-.65-.65V193.35a0,0,0,0,1,0,0Z" transform="translate(181.63 -88.89) rotate(36.07)" style="fill:#f6b10c"/><path d="M93.5,130.43V116.21h1.09v14.22Z" style="fill:#ccc;stroke:#ccc;stroke-miterlimit:10;stroke-width:0.6196833331190295px"/><path d="M102.18,127.48a3,3,0,0,1-3,3H96.7V116.21h2.53a3,3,0,0,1,3,3Zm-1.1-8.32a1.84,1.84,0,0,0-1.85-1.85H97.8v12h1.43a1.85,1.85,0,0,0,1.85-1.86Z" style="fill:#ccc;stroke:#ccc;stroke-miterlimit:10;stroke-width:0.6196833331190295px"/><path d="M105.23,117.31v5.45h2.55v1.12h-2.55v5.46h3.63v1.09h-4.72V116.21h4.55v1.1Z" style="fill:#ccc;stroke:#ccc;stroke-miterlimit:10;stroke-width:0.6196833331190295px"/><path d="M115.77,130.43h-1.1l-.57-3.64h-2.88l-.55,3.64h-1.1l2.17-14.22h1.86Zm-4.38-4.74h2.55l-1.25-8.26h0Z" style="fill:#ccc;stroke:#ccc;stroke-miterlimit:10;stroke-width:0.6196833331190295px"/><polygon points="93.5 166.2 93.5 188.86 156.7 188.86 156.7 167.49 93.5 166.2" style="fill:#ccc"/><path d="M171.37,153.63h-1.63L168.29,143h1.15l1.24,9,1.19-9H173l1.17,9,1.2-9h1L175,153.63h-1.56l-1-7.2Z" style="fill:#ccc"/><path d="M177.74,145.59c0-1.63.81-2.67,2.43-2.67s2.44,1,2.44,2.67v5.48c0,1.61-.81,2.67-2.44,2.67s-2.43-1.06-2.43-2.67Zm1.17,5.54c0,1,.41,1.53,1.26,1.53s1.25-.56,1.25-1.53v-5.61c0-1-.39-1.53-1.25-1.53s-1.26.58-1.26,1.53Z" style="fill:#ccc"/><path d="M186.55,143c1.66,0,2.36.85,2.36,2.43v.86c0,1.17-.41,1.9-1.32,2.18,1,.29,1.33,1.08,1.33,2.22v1.65a2.6,2.6,0,0,0,.22,1.27h-1.2a2.7,2.7,0,0,1-.2-1.29v-1.66c0-1.2-.56-1.58-1.54-1.58h-.84v4.53h-1.18V143Zm-.31,5c.94,0,1.5-.31,1.5-1.46v-1c0-1-.35-1.45-1.23-1.45h-1.15V148Z" style="fill:#ccc"/><path d="M192.41,149l-.62,1v3.56H190.6V143h1.19v5.13L194.6,143h1.2l-2.68,4.84,2.77,5.77h-1.21Z" style="fill:#ccc"/><path d="M201.77,145.57v.29h-1.12v-.35c0-1-.36-1.52-1.21-1.52s-1.21.56-1.21,1.5c0,2.38,3.56,2.61,3.56,5.6,0,1.6-.78,2.65-2.4,2.65s-2.38-1.05-2.38-2.65v-.61h1.11v.67c0,.95.39,1.51,1.24,1.51s1.24-.56,1.24-1.51c0-2.37-3.54-2.59-3.54-5.58,0-1.64.76-2.65,2.35-2.65S201.77,144,201.77,145.57Z" style="fill:#ccc"/><path d="M204.45,148.86v4.77h-1.18V143h1.18v4.78h2.61V143h1.18v10.61h-1.18v-4.77Z" style="fill:#ccc"/><path d="M209.81,145.59c0-1.63.81-2.67,2.43-2.67s2.44,1,2.44,2.67v5.48c0,1.61-.8,2.67-2.44,2.67s-2.43-1.06-2.43-2.67Zm1.17,5.54c0,1,.41,1.53,1.26,1.53s1.26-.56,1.26-1.53v-5.61c0-1-.4-1.53-1.26-1.53s-1.26.58-1.26,1.53Z" style="fill:#ccc"/><path d="M218.57,143c1.67,0,2.38,1,2.38,2.6v1.27c0,1.68-.79,2.56-2.47,2.56h-1v4.18h-1.19V143Zm-.09,5.37c.88,0,1.3-.41,1.3-1.43v-1.41c0-1-.34-1.45-1.21-1.45h-1.13v4.29Z" style="fill:#ccc"/><path d="M226,194.06h4.48a0,0,0,0,1,0,0v82.19a0,0,0,0,1,0,0h-3.58a.9.9,0,0,1-.9-.9V194.06a0,0,0,0,1,0,0Z" transform="translate(182.22 -89.32) rotate(36.07)" style="fill:#eb703c"/><path d="M229.6,196.86h5a0,0,0,0,1,0,0v81.29a.9.9,0,0,1-.9.9H229.6a0,0,0,0,1,0,0V196.86A0,0,0,0,1,229.6,196.86Z" transform="translate(184.61 -91.05) rotate(36.07)" style="fill:#dd5143"/><polygon points="259.35 193.06 250.65 200.62 258.34 206.22 262.61 195.44 259.35 193.06" style="fill:#f7c856"/><polygon points="265.78 187.47 259.35 193.06 262.61 195.44 265.78 187.47" style="fill:#7a808c"/></svg>