<svg id="Layer_1" data-name="Layer 1" xmlns="http://www.w3.org/2000/svg" viewBox="0 20 320 290"><title>Illustrations</title><circle cx="108.49" cy="79.94" r="4.34" style="fill:#f7c856"/><circle cx="43.22" cy="142.61" r="4.34" style="fill:#eb703c"/><circle cx="62.21" cy="64.74" r="4.34" style="fill:#2d8c8c"/><path d="M102.33,53.78a64.79,64.79,0,0,0-1.31,6.9c-.18,1.17-.29,2.36-.44,3.54l-.29,3.56a89.91,89.91,0,0,0,.28,14.3c.19,2.39.62,4.74,1,7.11.23,1.18.53,2.34.79,3.51l.4,1.76.53,1.72c.36,1.15.69,2.31,1.07,3.45l1.31,3.36c.23.56.43,1.13.68,1.68l.79,1.63,1.6,3.26-1.82-3.15-.91-1.57c-.28-.54-.52-1.1-.79-1.64l-1.55-3.3c-.46-1.13-.88-2.27-1.32-3.41l-.65-1.71L101.18,93c-.35-1.17-.74-2.33-1.05-3.51-.55-2.38-1.16-4.75-1.52-7.17A91,91,0,0,1,97.32,67.7l.05-3.7c.07-1.22.1-2.46.2-3.69a72.54,72.54,0,0,1,.91-7.44Z" style="fill:#34a2ab"/><path d="M31.56,132.53a15.57,15.57,0,0,1,1.58-.74q.77-.33,1.53-.6c1-.38,2.07-.65,3.11-.94a37.08,37.08,0,0,1,6.35-1,39.34,39.34,0,0,1,12.58,1.25,44.6,44.6,0,0,1,5.89,2.17l1.42.64a10,10,0,0,1,1.39.7l2.7,1.56a22.05,22.05,0,0,1,2.57,1.71l2.51,1.81c1.58,1.31,3.1,2.7,4.65,4-1.66-1.22-3.27-2.47-4.94-3.64l-2.62-1.58a21,21,0,0,0-2.66-1.48l-2.74-1.31a10.48,10.48,0,0,0-1.4-.56l-1.43-.51a42.08,42.08,0,0,0-5.78-1.62,37.31,37.31,0,0,0-11.83-.23,34.38,34.38,0,0,0-5.69,1.35c-.91.34-1.83.65-2.69,1.07-.45.19-.88.4-1.29.62a12.77,12.77,0,0,0-1.15.65Z" style="fill:#34a2ab"/><polygon points="64.76 98.83 68.28 95.4 67.45 90.56 71.8 92.85 76.16 90.56 75.32 95.41 78.83 98.84 73.97 99.54 71.79 103.95 69.62 99.54 64.76 98.83" style="fill:#dd5143"/><polygon points="103.59 57.11 105.77 54.99 105.26 51.99 107.94 53.41 110.63 52 110.12 54.99 112.29 57.12 109.28 57.55 107.94 60.27 106.59 57.55 103.59 57.11" style="fill:#45b6f4"/><path d="M97.44,109.7c-10.56-8.93-19.69-21.85-18.55-42.93s-8.39-39.41-20.63-42" style="fill:none;stroke:#eb703c;stroke-linecap:round;stroke-miterlimit:10;stroke-width:2.7713398705675814px"/><path d="M12,110.14c10.61,6.92,17.92,2.5,26.16.79,17.84-3.69,34.53-4.26,40.57,6.12" style="fill:none;stroke:#f7c856;stroke-linecap:round;stroke-miterlimit:10;stroke-width:2.7713397533643125px"/><polygon points="41.79 123.5 48.02 127.27 47.56 121.19 41.37 117.9 41.79 123.5" style="fill:#45b6f4"/><polygon points="55.74 92.61 61.3 88.58 60.08 80.43 54.69 86.28 55.74 92.61" style="fill:#eb703c"/><polygon points="43.13 98.11 46.73 100.99 44.77 97.4 41.63 93.67 43.13 98.11" style="fill:#45b6f4"/><polygon points="85.84 69.01 89.54 72.81 90.01 65.43 85.42 63.32 85.84 69.01" style="fill:#dd5143"/><polygon points="89.41 88.62 94.05 91.31 96.92 88.06 94.18 85.81 89.41 88.62" style="fill:#45b6f4"/><polygon points="120.1 68.63 123.18 72.37 122.89 68.42 119.93 66.31 120.1 68.63" style="fill:#f7c856"/><circle cx="67.38" cy="119.49" r="3.26" style="fill:#359bcd"/><circle cx="24.55" cy="94.95" r="3.26" style="fill:#dd5143"/><path d="M117.34,30.47s16.73,8.48,4.43,23.3-1.34,28-1.34,28" style="fill:none;stroke:#dd5143;stroke-linecap:round;stroke-miterlimit:10;stroke-width:2.7927210096217183px"/><path d="M15.68,140.58H60.84a19.24,19.24,0,0,1,0,38.48H55.91c-8.66,0-15.68,8.7-15.68,19.42h0c0,9.88,6,18,13.66,19.25h-14c-8.66,0-15.68,8.7-15.68,19.42h0c0,10.73,7,19.42,15.68,19.42H289.39c8.66,0,15.68-8.69,15.68-19.42h0c0-10.72-7-19.42-15.68-19.42H264.32c-7.71-1.22-13.67-9.37-13.67-19.25s6-18,13.67-19.25h17.32c8.66,0,15.68-8.7,15.68-19.42h0c0-9.88-5.95-18-13.66-19.25h20.66c8.66,0,15.68-8.7,15.68-19.42h0c0-10.73-7-19.42-15.68-19.42H268.68c6.95-2,12.12-9.7,12.12-18.91h0c0-10.73-7-19.42-15.67-19.42H54.87c-8.65,0-15.67,8.69-15.67,19.42h0c0,9.21,5.17,16.91,12.12,18.91H15.68C7,101.74,0,110.43,0,121.16H0C0,131.88,7,140.58,15.68,140.58Z" style="opacity:0.1"/><path d="M244.42,258.27l-29.27,2c-2.2-3.8-10.18-18-13.1-24.95-3.48-8.26,15-32.92,10.7-50.26-.65-2.62,8.95-5.05,8.95-5.05s15.38,22,16.3,25.25-3.67,29.61-3.22,36.72S244.42,258.27,244.42,258.27Z" style="fill:#f7a56d"/><path d="M225.69,233.43s2.9-12.55-2.2-21.14c-.82-1.38-8.38-2.74-8.38-2.74l2.8,18.67Z" style="fill:#c1703b"/><path d="M108.15,235.32c-2.92,6.92-16.1,29.52-18.29,33.32L65.78,258.27S75,249.1,75.42,242s-4.14-33.51-3.22-36.72S88.5,180,88.5,180s9.6,2.43,9,5.05C93.15,202.4,111.63,227.06,108.15,235.32Z" style="fill:#f7a56d"/><path d="M85,233.43s-2.9-12.55,2.2-21.14c.82-1.38,8.38-2.74,8.38-2.74l-2.81,18.67Z" style="fill:#c1703b"/><rect x="102.06" y="96.45" width="106.18" height="138.86" rx="8.63" ry="8.63" transform="translate(321.03 10.73) rotate(90)" style="fill:#313326"/><rect x="113.16" y="108.26" width="84.2" height="115.22" transform="translate(321.13 10.61) rotate(90)" style="fill:#fff"/><path d="M97.65,208s18.83-84.2,115.22-84.2H97.65Z" style="fill:#e3e7ea"/><path d="M105.94,217.53c-3.24-4.8-3.21-13.54-3.21-13.54V192.06h0V192a5.45,5.45,0,0,0-10.9,0s0,.06,0,.09h0s-.12,10.32-.12,12.16a22.36,22.36,0,0,1-3.63,12.95c-4.46,6.74-2.79,11.77-2.79,11.77l22.86,6.39S111.28,225.44,105.94,217.53Z" style="fill:#f7a56d"/><rect x="105.89" y="133.41" width="98.52" height="3.11" style="fill:#d6d4d4"/><rect x="105.89" y="140.32" width="98.52" height="3.11" style="fill:#d6d4d4"/><rect x="105.89" y="147.22" width="98.52" height="3.11" style="fill:#d6d4d4"/><rect x="105.89" y="154.14" width="98.52" height="3.11" style="fill:#d6d4d4"/><rect x="105.89" y="165.87" width="98.52" height="3.11" style="fill:#d6d4d4"/><rect x="105.89" y="172.77" width="98.52" height="3.11" style="fill:#d6d4d4"/><rect x="105.89" y="179.68" width="98.52" height="3.11" style="fill:#d6d4d4"/><rect x="105.89" y="186.6" width="98.52" height="3.11" style="fill:#d6d4d4"/><polygon points="171.55 112.79 224.58 165.88 224.58 147.62 189.25 112.79 171.55 112.79" style="fill:#f7c856"/><path d="M105.94,217.53c-3.24-4.8-3.21-13.54-3.21-13.54V192.06h0V192a5.45,5.45,0,0,0-10.9,0s0,.06,0,.09h0s-.12,10.32-.12,12.16a22.36,22.36,0,0,1-3.63,12.95c-4.46,6.74-3.1,16.26-3.1,16.26l23.17,1.9S111.28,225.44,105.94,217.53Z" style="fill:#f7a56d"/><path d="M96.71,188.16a3.08,3.08,0,0,0-3.09,3.08v3.08h6.17v-3.08A3.07,3.07,0,0,0,96.71,188.16Z" style="fill:#fbc9a4"/><path d="M204.26,217.53c3.24-4.8,3.21-13.54,3.21-13.54V192.06h0s0-.06,0-.09a5.45,5.45,0,0,1,10.9,0s0,.06,0,.09h0s.12,10.32.12,12.16a22.36,22.36,0,0,0,3.63,12.95c4.46,6.74,3.66,18.16,3.66,18.16H202.06S198.92,225.44,204.26,217.53Z" style="fill:#f7a56d"/><path d="M213.75,188.16a3.07,3.07,0,0,0-3.08,3.08v3.08h6.16v-3.08A3.07,3.07,0,0,0,213.75,188.16Z" style="fill:#fbc9a4"/><path d="M94.36,165a2.23,2.23,0,0,1,0,1.12,3,3,0,0,1-.54,1.06,2.82,2.82,0,0,1-2.17,1,3,3,0,0,1-2.18-1A2.84,2.84,0,0,1,89,166.1,2.35,2.35,0,0,1,89,165H89a2.66,2.66,0,0,0,.78,1.86,2.67,2.67,0,0,0,3.71,0,2.72,2.72,0,0,0,.79-1.86Z" style="fill:#ebe7e8"/><path d="M193.86,123.33l-.76.76a1.78,1.78,0,0,1-2.83.08l-.44-.44-2.21,2.21-.92-.92,5.88-5.88,1.36,1.36A1.79,1.79,0,0,1,193.86,123.33Zm-1.2-2.43-2,2,.44.44c.29.29.58.32,1-.1l.89-.88c.42-.42.39-.72.1-1Z" style="fill:#f6b120"/><path d="M192.09,130.41a2.58,2.58,0,0,1,.64-.8l.92-.93c.55-.54.57-.93.15-1.35l-.32-.32-2.4,2.4-.92-.93L196,122.6l1.39,1.4a1.67,1.67,0,0,1,0,2.72l-.46.46a1.67,1.67,0,0,1-1.8.59c.27.65,0,1.25-.64,1.86l-.9.91a2.51,2.51,0,0,0-.62.81Zm4-6-1.8,1.8.36.36c.34.35.7.41,1.17-.06l.58-.58c.42-.42.47-.75.14-1.08Z" style="fill:#f6b120"/><path d="M198.18,127.57a2,2,0,1,1,2.81,2.8l-3.06,3.06a2,2,0,1,1-2.8-2.8Zm-2.19,4c-.42.42-.39.76-.1,1.06s.64.32,1.06-.1l3.17-3.18c.42-.42.4-.76.1-1.06s-.63-.32-1.05.1Z" style="fill:#f6b120"/><path d="M204.54,134l-.77.77a1.78,1.78,0,0,1-2.83.07l-.44-.43-2.21,2.21-.92-.93,5.88-5.88,1.36,1.36A1.78,1.78,0,0,1,204.54,134Zm-1.21-2.42-2,2,.44.43c.29.3.59.32,1-.1l.88-.88c.42-.42.4-.71.1-1Z" style="fill:#f6b120"/><path d="M205.19,134.57a2,2,0,1,1,2.8,2.81l-3.06,3.05a2,2,0,1,1-2.8-2.8Zm-2.2,4c-.42.42-.39.76-.1,1.06s.64.32,1.06-.1l3.18-3.18c.42-.42.39-.76.1-1.06s-.64-.31-1.06.11Z" style="fill:#f6b120"/><path d="M211.56,138a1.81,1.81,0,0,1-.12,2.84l-.18.18-.87-.87.24-.24c.42-.42.41-.75.12-1s-.62-.31-1,.11c-1.21,1.21.37,3.25-1.31,4.93a2,2,0,1,1-2.76-2.76l.36-.36.87.87-.42.42c-.42.42-.38.76-.09,1.05s.63.33,1-.09c1.21-1.21-.37-3.24,1.31-4.92A1.81,1.81,0,0,1,211.56,138Z" style="fill:#f6b120"/><path d="M210.76,149.08l-.93-.93.9-1.23-1.13-1.13-1.23.91-.85-.85,6.83-4.94,1.35,1.35Zm-.25-4,.89.89,2.53-3.42Z" style="fill:#f6b120"/><path d="M217.32,143.88l.92.93-5,5,1.52,1.52-.84.84-2.44-2.45Z" style="fill:#f6b120"/><polygon points="254.73 107.14 251.7 111.56 254.73 114.66 257.17 112.1 254.73 107.14" style="fill:#45b6f4"/><circle cx="259.21" cy="133.57" r="4.34" style="fill:#f7c856"/><circle cx="201.58" cy="63.81" r="4.34" style="fill:#eb703c"/><circle cx="277.83" cy="88.55" r="4.34" style="fill:#2d8c8c"/><path d="M285.75,129.38a69.28,69.28,0,0,0-6.78-1.83c-1.15-.26-2.32-.46-3.49-.69L272,126.3a88.44,88.44,0,0,0-14.28-.78c-2.4,0-4.78.26-7.17.47-1.19.14-2.37.35-3.56.52l-1.78.28-1.76.39c-1.17.27-2.35.52-3.52.81l-3.45,1.06c-.57.19-1.16.34-1.72.55l-1.69.67-3.36,1.35,3.27-1.58,1.64-.79c.55-.24,1.13-.44,1.69-.66l3.41-1.31c1.15-.37,2.33-.7,3.49-1.06l1.76-.52,1.78-.4c1.19-.26,2.38-.56,3.58-.78,2.41-.38,4.83-.8,7.27-1a90.17,90.17,0,0,1,14.7-.19l3.68.32c1.22.16,2.45.29,3.67.48a65.84,65.84,0,0,1,7.35,1.46Z" style="fill:#34a2ab"/><path d="M212.51,52.93a14.77,14.77,0,0,1,.62,1.63c.18.52.34,1,.48,1.57.31,1,.49,2.12.71,3.17a37.35,37.35,0,0,1,.5,6.41,39.09,39.09,0,0,1-2.19,12.45,44,44,0,0,1-2.6,5.71l-.74,1.37a10.09,10.09,0,0,1-.8,1.34l-1.76,2.57a23.48,23.48,0,0,1-1.9,2.44l-2,2.36c-1.43,1.48-2.92,2.89-4.37,4.34,1.33-1.56,2.7-3.08,4-4.66l1.78-2.49a22.23,22.23,0,0,0,1.67-2.54L207.42,86a10,10,0,0,0,.67-1.35l.61-1.39a42.33,42.33,0,0,0,2-5.65,36.66,36.66,0,0,0,1.11-11.77,33,33,0,0,0-.92-5.78c-.27-.93-.51-1.87-.86-2.76a14.12,14.12,0,0,0-.52-1.33,11.39,11.39,0,0,0-.57-1.2Z" style="fill:#34a2ab"/><polygon points="243.64 88.55 246.79 92.32 251.69 91.86 249.08 96.02 251.03 100.53 246.26 99.34 242.57 102.59 242.24 97.68 238.01 95.18 242.57 93.35 243.64 88.55" style="fill:#dd5143"/><polygon points="282.35 130.39 284.3 132.72 287.32 132.43 285.71 135 286.91 137.79 283.97 137.06 281.69 139.06 281.48 136.03 278.87 134.49 281.68 133.35 282.35 130.39" style="fill:#45b6f4"/><path d="M230.36,120.33c9.69-9.86,23.26-18,44.19-15.29S314.48,99.61,318,87.59" style="fill:none;stroke:#eb703c;stroke-linecap:round;stroke-miterlimit:10;stroke-width:2.7713398705675814px"/><path d="M236.3,35.13c-7.7,10.07-3.83,17.69-2.75,26,2.35,18.06,1.67,34.74-9.12,40" style="fill:none;stroke:#f7c856;stroke-linecap:round;stroke-miterlimit:10;stroke-width:2.7713397533643125px"/><polygon points="220.75 63.81 216.52 69.73 222.62 69.73 226.37 63.81 220.75 63.81" style="fill:#45b6f4"/><polygon points="250.51 80.03 254.12 85.87 262.34 85.26 256.91 79.44 250.51 80.03" style="fill:#eb703c"/><polygon points="245.97 67.04 242.83 70.42 246.55 68.73 250.51 65.88 245.97 67.04" style="fill:#45b6f4"/><polygon points="271.8 111.8 267.73 115.2 275.06 116.23 277.51 111.8 271.8 111.8" style="fill:#dd5143"/><polygon points="269.62 146 265.66 148.79 269.62 148.79 271.95 146 269.62 146" style="fill:#f7c856"/><circle cx="222.84" cy="89.62" r="3.26" style="fill:#359bcd"/><circle cx="250.51" cy="48.74" r="3.26" style="fill:#dd5143"/><path d="M307.88,146.08s-9.7,16.06-23.56,2.68-27.87-3.42-27.87-3.42" style="fill:none;stroke:#dd5143;stroke-linecap:round;stroke-miterlimit:10;stroke-width:2.7927210096217183px"/><rect x="210.32" y="253.08" width="32.39" height="5.99" transform="translate(532.46 408.65) rotate(158)" style="fill:#fff"/><path d="M258.69,297.17a19.41,19.41,0,0,1-34.7,2.05l-2-4.86-11.89-29.44,2.13-.87,11.61-4.69,18.42-7.44,3.47-1.4,11.88,29.41,2,4.92A19.25,19.25,0,0,1,258.69,297.17Z" style="fill:#f3b01b"/><path d="M243.84,308.75A19.42,19.42,0,0,1,224,299.22l-2-4.86-11.89-29.44,2.13-.87,11.61-4.69.35.86,5.45,13.49Z" style="fill:#f6c756"/><rect x="66.25" y="253.32" width="32.39" height="5.99" transform="translate(58.2 524.47) rotate(-157)" style="fill:#fff"/><path d="M100,266l-11.7,27.56-2.93,6.91A19.4,19.4,0,0,1,51.44,282h0v0l13.16-31,2.11.9,11.54,4.89,18.27,7.76Z" style="fill:#f3b01b"/><path d="M78.27,256.78l-.37.87-5.43,12.8-14.73,34.7A19.4,19.4,0,0,1,51.44,282h0v0l13.16-31,2.11.9Z" style="fill:#f6c756"/></svg>