<svg id="Layer_1" data-name="Layer 1" xmlns="http://www.w3.org/2000/svg" xmlns:xlink="http://www.w3.org/1999/xlink" viewBox="0 25 320 270"><defs><clipPath id="clip-path"><rect x="15.11" y="237.27" width="40.49" height="40.49" rx="9.32" ry="9.32" style="fill:none"/></clipPath></defs><title>Illustrations</title><path d="M304.39,174.83h-45v0a19.16,19.16,0,0,1,0-38.32h4.91c8.63,0,15.62-8.66,15.62-19.34h0c0-9.84-5.93-18-13.61-19.18h13.89c8.63,0,15.62-8.65,15.62-19.34h0c0-10.68-7-19.34-15.62-19.34H31.79c-8.62,0-15.61,8.66-15.61,19.34h0c0,10.69,7,19.34,15.61,19.34h25c7.68,1.22,13.61,9.34,13.61,19.18s-5.93,18-13.61,19.17H39.5c-8.62,0-15.61,8.66-15.61,19.34h0c0,9.84,5.93,17.95,13.6,19.18H16.92c-8.62,0-15.61,8.66-15.61,19.34h0c0,10.68,7,19.34,15.61,19.34H52.41c-6.91,2-12.07,9.66-12.07,18.83h0c0,10.68,7,19.34,15.62,19.34H265.35C274,251.68,281,243,281,232.34h0c0-9.17-5.15-16.84-12.07-18.83h35.5c8.62,0,15.61-8.66,15.61-19.34h0C320,183.49,313,174.83,304.39,174.83Z" style="opacity:0.1"/><path d="M187.79,219.88s10.39,47.11,39.88,45c23.6-1.68,17.73-31.63.14-29.57-21.67,2.54-19.13,43.5,35.47,30.85" style="fill:none;stroke:#f6f6f6;stroke-miterlimit:10;stroke-width:0.4921528557346041px;stroke-dasharray:2.460764169692993"/><path d="M210.83,122s12-19.46,28.92-12.62,1.2,71,36.41,51.37" style="fill:none;stroke:#f6f6f6;stroke-miterlimit:10;stroke-width:0.4921528557346041px;stroke-dasharray:2.460764169692993"/><path d="M203.71,181.43s19.94,30,35.33,17.53,11.19-38.39-11.75-54.39,11.84-75.11,22.15-73" style="fill:none;stroke:#f6f6f6;stroke-miterlimit:10;stroke-width:0.4921528557346041px;stroke-dasharray:2.460764169692993"/><path d="M121.78,113.46s-16.39-8.37-28.41-1.14-10.14,30.31-5.44,38.82c2.76,5,6.22,36-20.32,24.67" style="fill:none;stroke:#f6f6f6;stroke-miterlimit:10;stroke-width:0.4921528557346041px;stroke-dasharray:2.460764169692993"/><path d="M104.59,211.63s-5.06-16.36-19.15-11.91c-6.73,2.13-20.47,16-14.59,31.94s-8.73,36-28.16,20" style="fill:none;stroke:#f6f6f6;stroke-miterlimit:10;stroke-width:0.4921528557346041px;stroke-dasharray:2.460764169692993"/><path d="M48,77.11s45.76,2.15,25,44.89c-14,28.87,18.42,57.6,48.84,29.95" style="fill:none;stroke:#f6f6f6;stroke-miterlimit:10;stroke-width:0.4921528557346041px;stroke-dasharray:2.460764169692993"/><rect x="272.95" y="142.86" width="40.49" height="40.49" rx="9.32" ry="9.32" style="fill:#1ea1f3"/><path d="M303.44,158.35c0,.23,0,.46,0,.69A15,15,0,0,1,280.3,171.7a10.8,10.8,0,0,0,7.84-2.19,5.31,5.31,0,0,1-4.95-3.67,6.64,6.64,0,0,0,1,.09,5.75,5.75,0,0,0,1.39-.18,5.29,5.29,0,0,1-4.23-5.19v-.07a5.3,5.3,0,0,0,2.38.67,5.3,5.3,0,0,1-1.63-7.07,15,15,0,0,0,10.9,5.53,6.06,6.06,0,0,1-.13-1.21A5.28,5.28,0,0,1,302,154.8a10.27,10.27,0,0,0,3.36-1.28,5.25,5.25,0,0,1-2.32,2.91,10.75,10.75,0,0,0,3-.81,11.45,11.45,0,0,1-2.65,2.73Z" style="fill:#fff"/><rect x="15.11" y="237.27" width="40.49" height="40.49" rx="9.32" ry="9.32" style="fill:#fff"/><g style="clip-path:url(#clip-path)"><path d="M55.6,239.51v36a2.23,2.23,0,0,1-2.23,2.24H43.05V262.08h5.26l.78-6.11H43v-3.9c0-1.77.49-3,3-3H49.3v-5.47a43.45,43.45,0,0,0-4.72-.25c-4.66,0-7.86,2.85-7.86,8.08V256H31.44v6.11h5.28v15.68H17.34a2.23,2.23,0,0,1-2.23-2.23v-36a2.24,2.24,0,0,1,2.23-2.24h36A2.24,2.24,0,0,1,55.6,239.51Z" style="fill:#3b579d"/></g><rect x="7.47" y="56.86" width="40.49" height="40.49" rx="9.32" ry="9.32" style="fill:#d7493d"/><path d="M22.69,71.2a5,5,0,0,1,3.51,1.36l2.38-2.31A8.46,8.46,0,0,0,22.69,68a8.81,8.81,0,0,0,0,17.62c5.06,0,8.44-3.58,8.44-8.61A7.18,7.18,0,0,0,31,75.49h-8.3v3h5a4.77,4.77,0,0,1-5,3.78,5.55,5.55,0,0,1,0-11.1Z" style="fill:#fff"/><polygon points="36.52 72.98 36.52 75.5 34 75.5 34 78.03 36.52 78.03 36.52 80.55 39.04 80.55 39.04 78.03 41.55 78.03 41.55 75.5 39.04 75.5 39.04 72.98 36.52 72.98" style="fill:#fff"/><rect x="251.25" y="50.49" width="40.49" height="40.49" rx="9.32" ry="9.32" style="fill:#fff"/><circle cx="273.39" cy="70.73" r="13.39" style="fill:#f6f6f6"/><ellipse cx="273.33" cy="67.5" rx="5.46" ry="6" style="fill:#ccc"/><path d="M277.55,73.5c-1.24-.59-2.68.74-4.22.74s-3-1.34-4.22-.74a6.83,6.83,0,0,0-4.18,6,5.76,5.76,0,0,0,.31,1.86,13.38,13.38,0,0,0,16.13.13,5.79,5.79,0,0,0,.35-2A6.83,6.83,0,0,0,277.55,73.5Z" style="fill:#ccc"/><path d="M257.21,51.12a9.32,9.32,0,0,0-6,8.69V81.65a9.32,9.32,0,0,0,6,8.69Z" style="fill:#f7c856"/><rect x="32.38" y="156.54" width="40.49" height="40.49" rx="9.32" ry="9.32" style="fill:#fff"/><circle cx="54.52" cy="176.79" r="13.39" style="fill:#f6f6f6"/><ellipse cx="54.46" cy="173.56" rx="5.46" ry="6" style="fill:#ccc"/><path d="M58.67,179.56c-1.24-.6-2.68.74-4.22.74s-3-1.34-4.21-.74a6.83,6.83,0,0,0-4.18,6,5.81,5.81,0,0,0,.31,1.86,13.4,13.4,0,0,0,16.13.12,5.73,5.73,0,0,0,.35-2A6.83,6.83,0,0,0,58.67,179.56Z" style="fill:#ccc"/><path d="M38.33,157.18a9.31,9.31,0,0,0-5.95,8.68v21.85a9.32,9.32,0,0,0,5.95,8.69Z" style="fill:#359bcd"/><rect x="257.33" y="246.35" width="40.49" height="40.49" rx="9.32" ry="9.32" style="fill:#fff"/><circle cx="279.47" cy="266.59" r="13.39" style="fill:#f6f6f6"/><ellipse cx="279.41" cy="263.37" rx="5.46" ry="6" style="fill:#ccc"/><path d="M283.63,269.36c-1.24-.59-2.68.75-4.22.75s-3-1.34-4.22-.75a6.84,6.84,0,0,0-4.18,6,5.76,5.76,0,0,0,.31,1.86,13.38,13.38,0,0,0,16.13.13,5.79,5.79,0,0,0,.35-2A6.84,6.84,0,0,0,283.63,269.36Z" style="fill:#ccc"/><path d="M263.29,247a9.32,9.32,0,0,0-6,8.69v21.85a9.3,9.3,0,0,0,6,8.68Z" style="fill:#dd5143"/><rect x="99.77" y="76.56" width="113.27" height="165.46" rx="5.27" ry="5.27" transform="translate(-0.67 0.66) rotate(-0.24)" style="fill:#fff"/><rect x="106.86" y="204.96" width="47.59" height="3.02" transform="translate(-0.87 0.56) rotate(-0.24)" style="fill:#ccc"/><rect x="106.82" y="128.22" width="47.41" height="29.83" transform="translate(-0.61 0.55) rotate(-0.24)" style="fill:#f6f6f6"/><rect x="158.7" y="187.38" width="47.41" height="23.35" transform="translate(-0.84 0.78) rotate(-0.24)" style="fill:#f6f6f6"/><rect x="106.8" y="105.85" width="99.89" height="3.02" transform="translate(-0.45 0.67) rotate(-0.24)" style="fill:#ccc"/><rect x="106.83" y="113.58" width="63.9" height="3.02" transform="translate(-0.49 0.59) rotate(-0.24)" style="fill:#ccc"/><rect x="106.86" y="189.53" width="47.59" height="3.02" transform="translate(-0.81 0.56) rotate(-0.24)" style="fill:#ccc"/><rect x="106.89" y="197.18" width="47.59" height="3.02" transform="translate(-0.84 0.56) rotate(-0.24)" style="fill:#ccc"/><rect x="106.89" y="212.62" width="47.59" height="3.02" transform="translate(-0.91 0.56) rotate(-0.24)" style="fill:#ccc"/><rect x="106.93" y="220.32" width="28.11" height="3.02" transform="translate(-0.94 0.52) rotate(-0.24)" style="fill:#ccc"/><rect x="106.86" y="170.98" width="47.59" height="3.02" transform="translate(-0.73 0.56) rotate(-0.24)" style="fill:#ccc"/><rect x="106.89" y="163.2" width="47.59" height="3.02" transform="translate(-0.7 0.56) rotate(-0.24)" style="fill:#ccc"/><rect x="106.89" y="178.63" width="47.59" height="3.02" transform="translate(-0.76 0.56) rotate(-0.24)" style="fill:#ccc"/><rect x="158.95" y="174.74" width="28.11" height="3.02" transform="translate(-0.75 0.74) rotate(-0.24)" style="fill:#ccc"/><rect x="158.68" y="136.01" width="47.59" height="3.02" transform="translate(-0.58 0.78) rotate(-0.24)" style="fill:#ccc"/><rect x="158.72" y="128.23" width="47.59" height="3.02" transform="translate(-0.55 0.78) rotate(-0.24)" style="fill:#ccc"/><rect x="158.72" y="143.67" width="47.59" height="3.02" transform="translate(-0.61 0.78) rotate(-0.24)" style="fill:#ccc"/><rect x="158.68" y="159.69" width="47.59" height="3.02" transform="translate(-0.68 0.78) rotate(-0.24)" style="fill:#ccc"/><rect x="158.72" y="151.91" width="47.59" height="3.02" transform="translate(-0.65 0.78) rotate(-0.24)" style="fill:#ccc"/><rect x="158.72" y="167.35" width="47.59" height="3.02" transform="translate(-0.71 0.78) rotate(-0.24)" style="fill:#ccc"/><polygon points="195.21 84.43 197.36 88.78 202.16 89.48 198.69 92.86 199.5 97.64 195.21 95.38 190.92 97.64 191.74 92.86 188.27 89.48 193.07 88.78 195.21 84.43" style="fill:#ccc"/><ellipse cx="154.87" cy="85.59" rx="2.19" ry="1.62" style="fill:#606866"/><path d="M163.21,69.2l-8.85,16.29v0a.65.65,0,0,0,.3.33l.07-.12L164.55,70Z" style="fill:#f6f6f6"/><path d="M164.55,70l-9.83,15.69-.07.12h0a.64.64,0,0,0,.42.12v0l10.8-15.07Z" style="fill:#ccc"/><path d="M177.07,70.58c-2.24,3.57-8.19,3.88-13.29.68s-7.43-8.68-5.19-12.26l1.15-1.83C161,57.53,177,68,178.22,68.74Z" style="fill:#f7c856"/><ellipse cx="168.8" cy="63.25" rx="7.18" ry="10.9" transform="translate(25.6 172.73) rotate(-57.94)" style="fill:#f6b10c"/><polygon points="174.28 65.03 164.8 59.1 174.66 45.17 182.5 50.08 174.28 65.03" style="fill:#f7c856"/><ellipse cx="169.54" cy="62.06" rx="3.18" ry="5.59" transform="translate(26.95 172.81) rotate(-57.94)" style="fill:#f7c856"/><ellipse cx="178.46" cy="47.82" rx="5.77" ry="9.24" transform="translate(43.2 173.68) rotate(-57.94)" style="fill:#f6b10c"/><ellipse cx="179.16" cy="46.7" rx="5.77" ry="9.24" transform="translate(44.49 173.75) rotate(-57.94)" style="fill:#f7c856"/><path d="M150.57,234.45a1.49,1.49,0,0,1-1,.3h-.84v1.45h-.84v-4h1.73a1.41,1.41,0,0,1,.95.31,1.53,1.53,0,0,1,0,2Zm-.64-1.44a.65.65,0,0,0-.45-.14h-.75v1.19h.75a.61.61,0,0,0,.45-.15.59.59,0,0,0,.16-.46A.53.53,0,0,0,149.93,233Z" style="fill:#ccc"/><path d="M154,235.83a1.63,1.63,0,0,1-2.29,0,1.87,1.87,0,0,1,0-2.23,1.63,1.63,0,0,1,2.29,0,1.83,1.83,0,0,1,0,2.23Zm-.62-.43a1.13,1.13,0,0,0,.18-.69,1.16,1.16,0,0,0-.18-.69.64.64,0,0,0-.53-.24.61.61,0,0,0-.52.24,1.09,1.09,0,0,0-.19.69,1.07,1.07,0,0,0,.19.69.61.61,0,0,0,.52.24A.64.64,0,0,0,153.4,235.4Z" style="fill:#ccc"/><path d="M155.56,235.25a.49.49,0,0,0,.1.29.76.76,0,0,0,.54.16,1,1,0,0,0,.37-.07.23.23,0,0,0,.13-.21.24.24,0,0,0-.11-.2,4.92,4.92,0,0,0-.81-.23,1.75,1.75,0,0,1-.72-.31.73.73,0,0,1-.2-.54.92.92,0,0,1,.32-.71,1.29,1.29,0,0,1,.91-.29,1.66,1.66,0,0,1,.91.22,1,1,0,0,1,.41.77h-.78a.43.43,0,0,0-.09-.24.51.51,0,0,0-.44-.16.64.64,0,0,0-.36.08.24.24,0,0,0-.11.19.2.2,0,0,0,.12.19,6.47,6.47,0,0,0,.81.22,1.48,1.48,0,0,1,.7.33.74.74,0,0,1,.23.56.91.91,0,0,1-.33.72,1.59,1.59,0,0,1-1,.28,1.52,1.52,0,0,1-1-.3,1,1,0,0,1-.33-.75Z" style="fill:#ccc"/><path d="M157.75,233.8v-.55h.42v-.83h.77v.83h.48v.55h-.48v1.58c0,.12,0,.19,0,.22a.54.54,0,0,0,.29.05h.15v.58l-.37,0a1,1,0,0,1-.75-.19.57.57,0,0,1-.13-.42V233.8Z" style="fill:#ccc"/><path d="M161.86,233.28a1.14,1.14,0,0,1,.51.44,1.55,1.55,0,0,1,.24.62,4.27,4.27,0,0,1,0,.59h-2.17a.68.68,0,0,0,.31.62.75.75,0,0,0,.43.12.65.65,0,0,0,.43-.14.83.83,0,0,0,.16-.2h.8a1,1,0,0,1-.29.53,1.45,1.45,0,0,1-1.12.44,1.64,1.64,0,0,1-1.05-.37,1.44,1.44,0,0,1-.45-1.19,1.61,1.61,0,0,1,.41-1.19,1.43,1.43,0,0,1,1.06-.41A1.75,1.75,0,0,1,161.86,233.28Zm-1.16.67a.85.85,0,0,0-.21.46h1.34a.67.67,0,0,0-.21-.47.71.71,0,0,0-.46-.16A.62.62,0,0,0,160.7,234Z" style="fill:#ccc"/><path d="M164.61,233.27a1,1,0,0,1,.34.33v-1.42h.79v4H165v-.42a1.09,1.09,0,0,1-.38.39,1.07,1.07,0,0,1-.53.12,1.11,1.11,0,0,1-.88-.42,1.65,1.65,0,0,1-.35-1.08,1.83,1.83,0,0,1,.35-1.2,1.14,1.14,0,0,1,.94-.44A1,1,0,0,1,164.61,233.27Zm.19,2.12a1.15,1.15,0,0,0,.17-.64,1,1,0,0,0-.28-.78.6.6,0,0,0-.39-.14.55.55,0,0,0-.5.26,1.15,1.15,0,0,0-.16.64,1.2,1.2,0,0,0,.16.66.55.55,0,0,0,.49.24A.6.6,0,0,0,164.8,235.39Z" style="fill:#ccc"/><path d="M170.53,233.58a1.67,1.67,0,0,1,.34,1.09,1.91,1.91,0,0,1-.33,1.15,1.09,1.09,0,0,1-.92.46,1,1,0,0,1-.59-.15,1.27,1.27,0,0,1-.3-.31v.38H168v-4h.78v1.43a.93.93,0,0,1,.86-.45A1.11,1.11,0,0,1,170.53,233.58Zm-.65,1.81a1,1,0,0,0,.17-.64,1.54,1.54,0,0,0-.08-.52.58.58,0,0,0-.58-.4.57.57,0,0,0-.58.39,1.33,1.33,0,0,0-.09.53,1.11,1.11,0,0,0,.17.63.59.59,0,0,0,.52.25A.53.53,0,0,0,169.88,235.39Z" style="fill:#ccc"/><path d="M171.53,236.77h.09a.79.79,0,0,0,.22,0,.48.48,0,0,0,.18-.06.52.52,0,0,0,.12-.19c0-.1.06-.16.05-.18l-1.09-3.11H172l.65,2.19.61-2.19h.83l-1,2.93a4.58,4.58,0,0,1-.47,1,.91.91,0,0,1-.69.2h-.35Z" style="fill:#ccc"/><path d="M178.49,232.26a1.28,1.28,0,0,1,.68.51,1.81,1.81,0,0,1,.29.65,3.14,3.14,0,0,1,.08.67,2.7,2.7,0,0,1-.32,1.35,1.48,1.48,0,0,1-1.35.76h-1.74v-4h1.74A2.55,2.55,0,0,1,178.49,232.26Zm-1.54.61v2.63h.77a.85.85,0,0,0,.84-.59,2.18,2.18,0,0,0,.12-.77,1.89,1.89,0,0,0-.19-.94.81.81,0,0,0-.77-.33Z" style="fill:#ccc"/><path d="M181.28,234.39a1.63,1.63,0,0,0,.31-.07.23.23,0,0,0,.17-.22.27.27,0,0,0-.13-.26.87.87,0,0,0-.37-.07.51.51,0,0,0-.4.14.55.55,0,0,0-.11.28H180a1.17,1.17,0,0,1,.22-.65,1.27,1.27,0,0,1,1.06-.39,2,2,0,0,1,.87.19.75.75,0,0,1,.38.74v1.36c0,.09,0,.21,0,.34a.34.34,0,0,0,.05.21.2.2,0,0,0,.11.09v.12h-.85a.59.59,0,0,1,0-.17l0-.18a1.53,1.53,0,0,1-.37.29,1.1,1.1,0,0,1-.57.15,1,1,0,0,1-.67-.23.81.81,0,0,1-.27-.66.85.85,0,0,1,.43-.79,1.92,1.92,0,0,1,.69-.19Zm.48.36-.15.08-.21,0-.18,0a1.1,1.1,0,0,0-.36.11.35.35,0,0,0-.18.33.33.33,0,0,0,.11.28.45.45,0,0,0,.28.09.89.89,0,0,0,.47-.14.65.65,0,0,0,.22-.54Z" style="fill:#ccc"/><path d="M184,236.2h-.78v-4H184Z" style="fill:#ccc"/><path d="M184.88,236.77h.1a.79.79,0,0,0,.22,0,.38.38,0,0,0,.17-.06.42.42,0,0,0,.13-.19c0-.1.06-.16.05-.18l-1.09-3.11h.86l.65,2.19.62-2.19h.82l-1,2.93a4.28,4.28,0,0,1-.46,1,.93.93,0,0,1-.69.2h-.36Z" style="fill:#ccc"/><path d="M189.05,234.39a1.63,1.63,0,0,0,.31-.07.24.24,0,0,0,.17-.22.27.27,0,0,0-.13-.26.88.88,0,0,0-.38-.07.5.5,0,0,0-.39.14.55.55,0,0,0-.11.28h-.75a1.1,1.1,0,0,1,.22-.65,1.27,1.27,0,0,1,1.06-.39,2,2,0,0,1,.87.19.75.75,0,0,1,.38.74v1.36c0,.09,0,.21,0,.34a.45.45,0,0,0,0,.21.27.27,0,0,0,.12.09v.12h-.85a1.54,1.54,0,0,1-.05-.17c0-.06,0-.12,0-.18a1.76,1.76,0,0,1-.37.29,1.1,1.1,0,0,1-.57.15,1,1,0,0,1-.67-.23.81.81,0,0,1-.27-.66.83.83,0,0,1,.43-.79,1.86,1.86,0,0,1,.69-.19Zm.48.36-.15.08-.21,0-.18,0a1.1,1.1,0,0,0-.36.11.35.35,0,0,0-.18.33.33.33,0,0,0,.11.28.45.45,0,0,0,.28.09.86.86,0,0,0,.46-.14.63.63,0,0,0,.23-.54Z" style="fill:#ccc"/><path d="M192.65,234.51a2.06,2.06,0,0,1,.59-.51l.09-.05a1.41,1.41,0,0,1-.27-.4.94.94,0,0,1-.1-.43.86.86,0,0,1,.3-.69,1.2,1.2,0,0,1,.77-.24,1,1,0,0,1,.72.25.82.82,0,0,1,.28.65.91.91,0,0,1-.17.58,1.89,1.89,0,0,1-.49.41l.57.7a1.3,1.3,0,0,0,.16-.31,1.34,1.34,0,0,0,.05-.35h.69a2.26,2.26,0,0,1-.17.74,2.18,2.18,0,0,1-.28.46l.72.88h-.94l-.28-.34a1.68,1.68,0,0,1-.38.27,1.53,1.53,0,0,1-.72.17,1.29,1.29,0,0,1-1-.36,1.14,1.14,0,0,1-.35-.8A1.09,1.09,0,0,1,192.65,234.51Zm.76,1a.59.59,0,0,0,.43.16.8.8,0,0,0,.37-.08,1.26,1.26,0,0,0,.28-.2l-.75-.92a1.47,1.47,0,0,0-.4.35.57.57,0,0,0-.09.32A.5.5,0,0,0,193.41,235.48Zm.35-2.16a1.78,1.78,0,0,0,.22.29,2.07,2.07,0,0,0,.24-.2.43.43,0,0,0,.14-.32.35.35,0,0,0-.08-.22.31.31,0,0,0-.26-.1.36.36,0,0,0-.2.06.28.28,0,0,0-.14.26A.36.36,0,0,0,193.76,233.32Z" style="fill:#ccc"/><path d="M201.11,232.17v.72h-1.2v3.31h-.85v-3.31h-1.21v-.72Z" style="fill:#ccc"/><path d="M203.61,235.83a1.41,1.41,0,0,1-1.15.47,1.38,1.38,0,0,1-1.14-.47,1.83,1.83,0,0,1,0-2.23,1.35,1.35,0,0,1,1.14-.47,1.38,1.38,0,0,1,1.15.47,1.87,1.87,0,0,1,0,2.23Zm-.63-.43a1.13,1.13,0,0,0,.19-.69A1.15,1.15,0,0,0,203,234a.61.61,0,0,0-.52-.24.64.64,0,0,0-.53.24,1.16,1.16,0,0,0-.18.69,1.13,1.13,0,0,0,.18.69.64.64,0,0,0,.53.24A.61.61,0,0,0,203,235.4Z" style="fill:#ccc"/><path d="M208.25,233.23a.87.87,0,0,1,.35.27.89.89,0,0,1,.17.38c0,.1,0,.25,0,.44v1.88H208v-1.9a.78.78,0,0,0-.05-.28.41.41,0,0,0-.39-.2.45.45,0,0,0-.44.26.9.9,0,0,0-.06.34v1.78h-.79v-1.78a1.16,1.16,0,0,0,0-.38.4.4,0,0,0-.39-.22.45.45,0,0,0-.44.22.71.71,0,0,0-.07.37v1.79h-.79v-3h.76v.43a1.7,1.7,0,0,1,.27-.33.88.88,0,0,1,1.4.33,1,1,0,0,1,.38-.38,1.18,1.18,0,0,1,.53-.12A1.07,1.07,0,0,1,208.25,233.23Z" style="fill:#ccc"/><path d="M106.83,99V86.25h1V99Z" style="fill:#ccc;stroke:#ccc;stroke-miterlimit:10;stroke-width:0.5548445661673674px"/><path d="M114.61,96.34A2.65,2.65,0,0,1,112,99H109.7V86.25H112a2.65,2.65,0,0,1,2.65,2.64Zm-1-7.45A1.64,1.64,0,0,0,112,87.23h-1.28V98H112a1.65,1.65,0,0,0,1.66-1.66Z" style="fill:#ccc;stroke:#ccc;stroke-miterlimit:10;stroke-width:0.5548445661673674px"/><path d="M117.34,87.23v4.88h2.28v1h-2.28V98h3.25v1h-4.23V86.25h4.07v1Z" style="fill:#ccc;stroke:#ccc;stroke-miterlimit:10;stroke-width:0.5548445661673674px"/><path d="M126.77,99h-1l-.51-3.27H122.7L122.21,99h-1l1.94-12.73h1.66Zm-3.92-4.25h2.28L124,87.34h0Z" style="fill:#ccc;stroke:#ccc;stroke-miterlimit:10;stroke-width:0.5548445661673674px"/><polygon points="204.05 201.44 208.14 225.59 212.77 215.35 223.71 215.77 204.05 201.44" style="fill:#f6b10c"/><polygon points="204.05 201.44 208.14 225.59 212.77 215.35 204.05 201.44" style="fill:#f7c856"/><path d="M72.74,211.56l1.86.79a.78.78,0,0,1,.17,1.34l-1.61,1.23-1.62,1.22a.78.78,0,0,1-1.24-.53l-.25-2-.26-2a.78.78,0,0,1,1.08-.81Z" style="fill:#fff"/><path d="M85.17,142.71l1.94-.57a.78.78,0,0,1,1,.93l-.48,2-.49,2a.78.78,0,0,1-1.29.38L84.36,146l-1.46-1.4a.79.79,0,0,1,.32-1.32Z" style="fill:#fff"/><path d="M69.45,126.48l1.55-1.3a.78.78,0,0,1,1.27.46l.35,2,.35,2a.78.78,0,0,1-1,.87l-1.9-.69-1.9-.7a.78.78,0,0,1-.24-1.33Z" style="fill:#fff"/><path d="M249,130.36l2-.22a.78.78,0,0,1,.79,1.09l-.82,1.86-.82,1.85a.77.77,0,0,1-1.34.14l-1.2-1.64-1.19-1.64a.78.78,0,0,1,.55-1.23Z" style="fill:#fff"/><path d="M244.92,195.07l-.23,2a.78.78,0,0,1-1.24.54l-1.63-1.21-1.63-1.2a.79.79,0,0,1,.16-1.35l1.86-.8,1.85-.81a.78.78,0,0,1,1.09.8Z" style="fill:#fff"/><path d="M250.5,270l-1.59,1.26a.79.79,0,0,1-1.26-.5l-.29-2-.29-2a.78.78,0,0,1,1.06-.84l1.88.75,1.88.75a.78.78,0,0,1,.2,1.34Z" style="fill:#fff"/></svg>