<svg xmlns="http://www.w3.org/2000/svg" viewBox="0 0 737.43 214.61"><defs><style>.cls-1,.cls-2{fill:#fff;}.cls-2{font-size:34.02px;font-family:Avenir-Black, Avenir;}</style></defs><title>Asset 143</title><g id="Layer_2" data-name="Layer 2"><g id="Layer_1-2" data-name="Layer 1"><path class="cls-1" d="M154.27,92.35l-34.06-59L110.05,15.75c-.07-.13-.15-.26-.23-.39l-.35-.57c-.14-.22-.28-.44-.43-.65l-.38-.57c-.15-.22-.31-.44-.47-.65s-.25-.33-.37-.49l-.56-.7-.32-.38-.66-.76-.25-.26c-.26-.28-.53-.56-.8-.83l-.16-.15c-.31-.3-.62-.6-.95-.88l-.07-.06c-.41-.37-.84-.72-1.28-1.07l-.5-.38-.85-.61-.58-.4c-.29-.19-.58-.38-.88-.56l-.54-.33L99.24,5c-.41-.24-.84-.47-1.26-.69l-.12-.06c-.36-.19-.73-.36-1.1-.53l-.32-.15-.87-.36L95,2.93l-.6-.21-.83-.29-.31-.1L92.15,2h0a29.32,29.32,0,0,0-5.53-.93h-.21Q85.79,1,85.2,1H83.83a29.4,29.4,0,0,0-8.16,1.35l-.22.07-.91.32L74,2.92l-.63.26-.81.34-.37.17c-.35.16-.7.32-1,.5L71,4.27c-.42.22-.83.44-1.23.67h0a28.73,28.73,0,0,0-3.7,2.52l0,0c-.37.29-.72.59-1.07.89l-.09.08-.93.87-.17.17-.79.81-.26.28-.66.75-.33.39-.55.69c-.12.16-.25.32-.37.49l-.47.65c-.13.19-.26.38-.38.57s-.29.43-.42.65l-.36.58c-.07.12-.16.25-.23.38L4,111a29.5,29.5,0,1,0,51.09,29.49l29.45-51,1.65,2.85L114,140.51A29.5,29.5,0,1,0,165.05,111Z"/><path class="cls-1" d="M186,14.75l-.07-.11c-.22-.37-.44-.74-.67-1.1a1.63,1.63,0,0,1-.11-.17q-.34-.53-.72-1l-.14-.19c-.23-.32-.47-.64-.72-1l-.21-.26c-.22-.28-.45-.54-.68-.81l-.31-.35-.61-.66-.44-.45-.52-.51-.58-.54-.43-.38-.73-.61-.34-.27-.86-.66-.28-.19-1-.67-.25-.16-1-.62L175.24,4l-.14-.07c-.32-.19-.64-.36-1-.52-.13-.08-.27-.15-.41-.22l-.8-.38-.61-.28-.56-.24-.86-.34-.29-.11-1.12-.38h0A29.28,29.28,0,0,0,162.55.07h-.09c-.42,0-.85,0-1.28-.06h-1.36a29.5,29.5,0,0,0-9.51,1.81l-.22.08-.91.37-.51.21-.65.3-.76.36-.44.23c-.31.17-.63.33-.94.51l-.14.08-.16.1-1,.61-.26.17c-.33.21-.65.43-1,.65l-.28.2-.87.66-.33.27-.74.62-.42.37c-.2.18-.4.36-.59.55l-.51.5-.45.46-.6.64-.33.37-.66.79c-.08.09-.15.19-.23.29-.23.3-.47.6-.69.91l-.17.23c-.23.33-.47.67-.69,1a1.37,1.37,0,0,0-.13.2c-.22.35-.44.7-.65,1.06a29.47,29.47,0,0,0-.08,29.63l25.55,44.26,29.44,51A29.5,29.5,0,1,0,241,110Z"/><path class="cls-1" d="M382.11,5a29.51,29.51,0,0,0-40.3,10.8l-9.5,16.48L322.8,15.75a29.5,29.5,0,1,0-51.1,29.5l26.54,46L286.82,111A29.49,29.49,0,0,0,332.3,147.5a29,29,0,0,0,5.62-7l28.45-49.27,26.54-46A29.5,29.5,0,0,0,382.11,5Z"/><path class="cls-1" d="M541.2.94H451.86a29.5,29.5,0,0,0,0,59H467v65.17a29.5,29.5,0,1,0,59,0V59.94H541.2a29.5,29.5,0,1,0,0-59Z"/><path class="cls-1" d="M716,23.07h0q-1.28-1.27-2.61-2.49c-.43-.38-.86-.74-1.29-1.11s-.94-.82-1.42-1.22-1.12-.89-1.68-1.32l-1.11-.86c-.63-.47-1.26-.91-1.9-1.35l-1-.7c-.66-.44-1.32-.86-2-1.27-.34-.22-.68-.44-1-.65-.65-.39-1.31-.76-2-1.14l-1.14-.63c-.63-.34-1.27-.66-1.9-1l-1.33-.65c-.58-.28-1.17-.54-1.76-.8l-1.57-.68-1.56-.62c-.61-.23-1.21-.47-1.83-.69l-1.38-.46c-.68-.23-1.37-.46-2.06-.67l-1.23-.35c-.74-.21-1.48-.41-2.23-.6l-1.15-.27c-.78-.17-1.55-.35-2.34-.5l-1.18-.22L675,2.44l-1.37-.17c-.72-.09-1.43-.19-2.15-.26s-1.23-.09-1.84-.14L668,1.75c-1.2-.06-2.41-.09-3.61-.09h0c-1.2,0-2.41,0-3.61.09-.57,0-1.13.08-1.7.12s-1.24.08-1.86.14-1.42.17-2.12.26l-1.41.17c-.76.12-1.52.25-2.27.39l-1.23.22c-.77.15-1.53.32-2.29.5l-1.19.27-2.19.59-1.28.37c-.68.2-1.34.42-2,.65-.48.15-.95.31-1.43.48s-1.19.44-1.77.67-1.09.42-1.62.64-1,.43-1.52.66-1.21.53-1.81.81l-1.27.63c-.66.33-1.31.66-2,1-.36.19-.72.4-1.08.6q-1,.57-2,1.17l-1,.61c-.68.42-1.37.85-2,1.31-.32.21-.63.43-.94.65-.66.46-1.32.92-2,1.4l-1,.79c-.59.46-1.19.91-1.77,1.39l-1.3,1.12c-.47.4-.94.79-1.4,1.21-.8.73-1.58,1.47-2.34,2.23l-.27.25-.24.26c-.77.77-1.52,1.55-2.25,2.36-.41.45-.79.91-1.19,1.37s-.77.88-1.14,1.33-.91,1.16-1.36,1.74c-.28.35-.56.7-.82,1.06-.48.63-.93,1.28-1.38,1.93-.22.32-.45.64-.67,1-.45.66-.87,1.34-1.29,2-.21.34-.43.67-.63,1-.4.66-.77,1.33-1.15,2l-.63,1.12c-.34.63-.66,1.27-1,1.91-.22.44-.44.88-.65,1.32s-.53,1.17-.79,1.76-.47,1-.69,1.57-.41,1-.61,1.57-.47,1.21-.69,1.82-.31.92-.47,1.38c-.23.68-.45,1.37-.66,2.06-.13.41-.24.81-.35,1.22-.21.75-.42,1.49-.61,2.25-.09.38-.17.75-.26,1.13-.18.78-.36,1.56-.51,2.36-.08.38-.14.76-.21,1.14-.14.78-.28,1.56-.39,2.36-.07.43-.12.87-.17,1.3-.1.74-.19,1.47-.27,2.22-.05.57-.09,1.15-.13,1.73s-.1,1.21-.13,1.83c-.05,1.08-.08,2.17-.08,3.26,0,.12,0,.23,0,.34s0,.23,0,.35c0,1.08,0,2.17.08,3.25,0,.62.09,1.22.13,1.83s.08,1.16.13,1.73c.08.74.17,1.48.27,2.21,0,.44.1.88.17,1.32.11.79.25,1.57.39,2.35.07.38.13.76.21,1.14.15.79.33,1.57.51,2.35.09.38.17.76.26,1.14.19.75.4,1.5.61,2.24.11.41.22.82.35,1.23.2.69.43,1.37.66,2.06.15.46.3.92.47,1.38.22.61.45,1.21.68,1.82s.41,1,.63,1.57.44,1,.67,1.56.52,1.18.8,1.77c.21.44.43.88.65,1.31.32.65.64,1.29,1,1.92l.63,1.12c.37.67.75,1.34,1.15,2,.2.33.42.66.62,1,.43.68.85,1.36,1.3,2,.22.33.45.64.67,1,.45.65.9,1.3,1.38,1.94.26.36.54.7.81,1.06.45.58.9,1.17,1.37,1.74s.76.89,1.14,1.33.78.92,1.19,1.37c.74.81,1.49,1.6,2.26,2.37.08.08.15.17.23.24h0A73.09,73.09,0,1,0,716,23.07Z"/><text class="cls-2" transform="translate(2.03 186.35)">Connected Design For Mitochondrial Disease</text></g></g></svg>