<svg xmlns="http://www.w3.org/2000/svg" viewBox="0 0 737.43 214.61"><defs><style>.cls-1{fill:#c3015a;}.cls-2{fill:#f0404f;}.cls-3{fill:#f8cb07;}.cls-4{fill:#35c5bf;}.cls-5{font-size:34.02px;fill:#4d4d4d;font-family:Avenir-Black, Avenir;}</style></defs><title>Asset 140</title><g id="Layer_2" data-name="Layer 2"><g id="Layer_1-2" data-name="Layer 1"><path class="cls-1" d="M96.44,3.52l.32.15Z"/><path class="cls-1" d="M104.05,8.41l.07.06Z"/><path class="cls-1" d="M97.86,4.2l.12.06Z"/><path class="cls-1" d="M93.57,2.43l.83.29Z"/><path class="cls-1" d="M86.58,1.07A28.79,28.79,0,0,1,92.11,2,29.32,29.32,0,0,0,86.58,1.07Z"/><path class="cls-1" d="M92.15,2l1.11.32Z"/><path class="cls-1" d="M108.66,13.57l.38.57Z"/><path class="cls-1" d="M107.82,12.43c.12.16.25.32.37.49C108.07,12.75,107.94,12.59,107.82,12.43Z"/><path class="cls-1" d="M85.2,1q.58,0,1.17.06Q85.79,1,85.2,1Z"/><path class="cls-1" d="M105.07,9.35l.16.15Z"/><path class="cls-1" d="M109.47,14.79l.35.58Z"/><path class="cls-1" d="M106,10.33l.25.26A3.07,3.07,0,0,1,106,10.33Z"/><path class="cls-1" d="M106.94,11.35l.32.38Z"/><path class="cls-1" d="M71.16,4.19c.35-.18.7-.34,1-.5Z"/><path class="cls-1" d="M63,10.32l.79-.81Z"/><path class="cls-1" d="M83.83,1h0Z"/><path class="cls-1" d="M63.94,9.34l.93-.87C64.56,8.76,64.25,9,63.94,9.34Z"/><path class="cls-1" d="M59.54,14.79c.13-.22.27-.44.42-.65C59.81,14.35,59.67,14.57,59.54,14.79Z"/><path class="cls-1" d="M65,8.39c.35-.3.7-.6,1.07-.89Z"/><path class="cls-1" d="M60.34,13.57l.47-.65C60.65,13.13,60.5,13.35,60.34,13.57Z"/><path class="cls-1" d="M61.18,12.43l.55-.69Z"/><path class="cls-1" d="M62.06,11.35l.66-.75Z"/><path class="cls-1" d="M72.58,3.52l.81-.34Z"/><path class="cls-1" d="M74,2.92l.52-.18Z"/><path class="cls-1" d="M75.45,2.42l.22-.07Z"/><path class="cls-1" d="M69.77,4.94c.4-.23.81-.45,1.23-.67C70.58,4.49,70.17,4.71,69.77,4.94Z"/><path class="cls-2" d="M59.18,15.37c-.07.12-.16.25-.23.38L4,111a29.5,29.5,0,1,0,51.09,29.49l29.45-51L59,45.25A29.49,29.49,0,0,1,59.18,15.37Z"/><path class="cls-1" d="M66.05,7.48A29.35,29.35,0,0,1,69.75,5,28.73,28.73,0,0,0,66.05,7.48Z"/><path class="cls-1" d="M95,2.93l.57.23Z"/><path class="cls-1" d="M119.9,147.81A29.5,29.5,0,0,0,165.05,111L154.27,92.35l-27.22,47.16A29.37,29.37,0,0,1,119.9,147.81Z"/><path class="cls-1" d="M86.37,1.06h0Z"/><path class="cls-1" d="M104.05,8.41A29.15,29.15,0,0,0,98,4.26c.42.22.85.45,1.26.69A29.15,29.15,0,0,1,104.05,8.41Z"/><path class="cls-1" d="M110.05,15.75c-.07-.13-.15-.26-.23-.38a29.52,29.52,0,0,1,.23,29.88L84.5,89.5l1.65,2.85,34.06-59Z"/><path class="cls-1" d="M109,14.14c.15.21.29.43.43.65C109.33,14.57,109.19,14.35,109,14.14Z"/><path class="cls-1" d="M84.35,1h0Z"/><path class="cls-1" d="M72.21,3.69l.37-.17Z"/><path class="cls-1" d="M75.67,2.35A30,30,0,0,1,83.83,1,29.4,29.4,0,0,0,75.67,2.35Z"/><path class="cls-1" d="M94.4,2.72l.6.21Z"/><path class="cls-1" d="M74.54,2.74l.91-.32Z"/><path class="cls-1" d="M107.26,11.73l.56.7Z"/><path class="cls-1" d="M96.76,3.67c.37.17.74.34,1.1.53Z"/><path class="cls-1" d="M93.26,2.33l.31.1Z"/><path class="cls-1" d="M104.12,8.47c.33.28.64.58.95.88C104.76,9.05,104.44,8.75,104.12,8.47Z"/><path class="cls-1" d="M95.57,3.16l.87.36Z"/><path class="cls-1" d="M108.19,12.92c.16.21.32.43.47.65C108.5,13.35,108.35,13.13,108.19,12.92Z"/><path class="cls-1" d="M92.11,2h0Z"/><path class="cls-1" d="M71,4.27l.16-.08Z"/><path class="cls-1" d="M105.23,9.5c.27.27.54.55.8.83C105.77,10.05,105.5,9.77,105.23,9.5Z"/><path class="cls-1" d="M106.28,10.59l.66.76Z"/><path class="cls-1" d="M73.39,3.18,74,2.92Z"/><path class="cls-1" d="M60.81,12.92c.12-.17.25-.33.37-.49Z"/><path class="cls-1" d="M63.77,9.51l.17-.17Z"/><path class="cls-1" d="M66,7.5l0,0Z"/><path class="cls-1" d="M62.72,10.6l.26-.28Z"/><path class="cls-1" d="M60,14.14c.12-.19.25-.38.38-.57C60.21,13.76,60.08,14,60,14.14Z"/><path class="cls-1" d="M69.76,5h0l0,0Z"/><path class="cls-1" d="M61.73,11.74l.33-.39Z"/><path class="cls-1" d="M64.87,8.47,65,8.39Z"/><path class="cls-1" d="M59.18,15.37l.36-.58Z"/><path class="cls-3" d="M109.82,15.37l-.35-.58c-.14-.22-.28-.44-.43-.65l-.38-.57c-.15-.22-.31-.44-.47-.65s-.25-.33-.37-.49l-.56-.7-.32-.38-.66-.76-.25-.26c-.26-.28-.53-.56-.8-.83l-.16-.15c-.31-.3-.62-.6-.95-.88l-.07-.06A29.15,29.15,0,0,0,99.24,5c-.41-.24-.84-.47-1.26-.69l-.12-.06c-.36-.19-.73-.36-1.1-.53l-.32-.15-.87-.36L95,2.93l-.6-.21-.83-.29-.31-.1L92.15,2h0a28.79,28.79,0,0,0-5.53-.93h-.21Q85.79,1,85.2,1H83.83a30,30,0,0,0-8.16,1.35l-.22.07-.91.32L74,2.92l-.63.26-.81.34-.37.17c-.35.16-.7.32-1,.5L71,4.27c-.42.22-.83.44-1.23.67l0,0a29.35,29.35,0,0,0-3.7,2.52l0,0c-.37.29-.72.59-1.07.89l-.09.08-.93.87-.17.17-.79.81-.26.28-.66.75-.33.39-.55.69c-.12.16-.25.32-.37.49l-.47.65c-.13.19-.26.38-.38.57s-.29.43-.42.65l-.36.58A29.49,29.49,0,0,0,59,45.25L84.5,89.5l25.55-44.25A29.52,29.52,0,0,0,109.82,15.37Z"/><path class="cls-1" d="M165.49,1.41l1.12.38Z"/><path class="cls-1" d="M158.55.07a29.62,29.62,0,0,1,6.92,1.33A29.28,29.28,0,0,0,158.55.07Z"/><path class="cls-1" d="M173.62,5.49l.28.19Z"/><path class="cls-1" d="M179.61,11.18c.25.31.49.63.72,1C180.1,11.81,179.86,11.49,179.61,11.18Z"/><path class="cls-1" d="M171.24,4l-.14-.07.29.16Z"/><path class="cls-1" d="M176.84,8.14l.52.51Z"/><path class="cls-1" d="M178.72,10.11c.23.27.46.53.68.81Z"/><path class="cls-1" d="M177.8,9.1l.61.66Z"/><path class="cls-1" d="M168.32,2.48l.61.28Z"/><path class="cls-1" d="M144.67,2.47l.51-.21Z"/><path class="cls-1" d="M166.9,1.9l.86.34Z"/><path class="cls-1" d="M174.76,6.34l.34.27Z"/><path class="cls-1" d="M175.83,7.22l.43.38Z"/><path class="cls-1" d="M169.73,3.14l.41.22Z"/><path class="cls-1" d="M181.3,13.54c.23.36.45.73.67,1.1C181.75,14.27,181.53,13.9,181.3,13.54Z"/><path class="cls-1" d="M138.21,6.34l.87-.66Z"/><path class="cls-1" d="M136.13,8.15c.19-.19.39-.37.59-.55C136.52,7.78,136.32,8,136.13,8.15Z"/><path class="cls-1" d="M139.36,5.48c.31-.22.63-.44,1-.65C140,5,139.67,5.26,139.36,5.48Z"/><path class="cls-1" d="M155.82,0h0Z"/><path class="cls-1" d="M137.14,7.23l.74-.62Z"/><path class="cls-1" d="M143.26,3.13l.76-.36Z"/><path class="cls-1" d="M146.09,1.89l.22-.08Z"/><path class="cls-1" d="M141.88,3.87c.31-.18.63-.34.94-.51Z"/><path class="cls-1" d="M140.58,4.66l1-.61Z"/><path class="cls-1" d="M131.67,13.56a1.37,1.37,0,0,1,.13-.2A1.37,1.37,0,0,0,131.67,13.56Z"/><path class="cls-1" d="M132.49,12.34l.17-.23Z"/><path class="cls-1" d="M133.35,11.2c.08-.1.15-.2.23-.29C133.5,11,133.43,11.1,133.35,11.2Z"/><path class="cls-1" d="M172.4,4.66l.25.16Z"/><path class="cls-1" d="M134.24,10.12l.33-.37Z"/><path class="cls-1" d="M157.18,0c.43,0,.86,0,1.28.06C158,0,157.61,0,157.18,0Z"/><path class="cls-1" d="M135.17,9.11c.15-.15.29-.31.45-.46Z"/><path class="cls-1" d="M180.47,12.32q.38.52.72,1Q180.85,12.85,180.47,12.32Z"/><path class="cls-1" d="M86.15,92.35,114,140.51a29.35,29.35,0,0,0,6,7.3,29.37,29.37,0,0,0,7.15-8.3l27.22-47.16-34.06-59Z"/><path class="cls-3" d="M182,14.75l-.07-.11A29.5,29.5,0,0,1,182,44.25L156.49,88.51l29.44,51A29.5,29.5,0,1,0,237,110Z"/><path class="cls-1" d="M179.4,10.92l.21.26Z"/><path class="cls-1" d="M180.33,12.13l.14.19Z"/><path class="cls-1" d="M181.19,13.37a1.63,1.63,0,0,0,.11.17A1.63,1.63,0,0,1,181.19,13.37Z"/><path class="cls-1" d="M131.8,13.36c.22-.35.46-.69.69-1Q132.13,12.84,131.8,13.36Z"/><path class="cls-1" d="M146.31,1.81A29.92,29.92,0,0,1,155.82,0,29.5,29.5,0,0,0,146.31,1.81Z"/><path class="cls-1" d="M140.32,4.83l.26-.17Z"/><path class="cls-1" d="M156.31,0h0Z"/><path class="cls-1" d="M141.74,4l-.16.1.3-.18Z"/><path class="cls-1" d="M158.46.06h0Z"/><path class="cls-1" d="M144,2.77l.65-.3Z"/><path class="cls-1" d="M142.82,3.36l.44-.23Z"/><path class="cls-1" d="M145.18,2.26l.91-.37Z"/><path class="cls-1" d="M168.93,2.76l.8.38Z"/><path class="cls-1" d="M170.14,3.36c.32.16.64.33,1,.52C170.78,3.7,170.47,3.52,170.14,3.36Z"/><path class="cls-1" d="M165.47,1.4h0Z"/><path class="cls-1" d="M171.39,4l1,.62Z"/><path class="cls-1" d="M167.76,2.24l.56.24Z"/><path class="cls-1" d="M166.61,1.79l.29.11Z"/><path class="cls-1" d="M137.88,6.61l.33-.27Z"/><path class="cls-1" d="M172.65,4.82l1,.67Z"/><path class="cls-1" d="M173.9,5.68l.86.66Z"/><path class="cls-1" d="M132.66,12.11c.22-.31.46-.61.69-.91C133.11,11.5,132.88,11.8,132.66,12.11Z"/><path class="cls-1" d="M131,14.62c.21-.36.42-.71.65-1.06C131.44,13.91,131.23,14.26,131,14.62Z"/><path class="cls-1" d="M177.36,8.65l.44.45Z"/><path class="cls-1" d="M176.26,7.6l.58.54Z"/><path class="cls-1" d="M175.1,6.61l.73.61Z"/><path class="cls-1" d="M135.62,8.65l.51-.5Z"/><path class="cls-1" d="M178.41,9.76l.31.35Z"/><path class="cls-1" d="M134.57,9.75c.2-.22.39-.43.6-.64C135,9.32,134.76,9.54,134.57,9.75Z"/><path class="cls-1" d="M139.08,5.68l.28-.2Z"/><path class="cls-1" d="M136.72,7.6l.42-.37Z"/><path class="cls-1" d="M133.58,10.91l.66-.79Z"/><path class="cls-4" d="M182,14.64c-.22-.37-.44-.74-.67-1.1a1.63,1.63,0,0,1-.11-.17q-.34-.53-.72-1l-.14-.19c-.23-.32-.47-.64-.72-1l-.21-.26c-.22-.28-.45-.54-.68-.81l-.31-.35-.61-.66-.44-.45-.52-.51-.58-.54-.43-.38-.73-.61-.34-.27-.86-.66-.28-.19-1-.67-.25-.16-1-.62-.29-.16c-.32-.19-.64-.36-1-.52l-.41-.22-.8-.38-.61-.28-.56-.24-.86-.34-.29-.11-1.12-.38h0A29.62,29.62,0,0,0,158.55.07h-.09c-.42,0-.85,0-1.28-.06h-1.36a29.92,29.92,0,0,0-9.51,1.81l-.22.08-.91.37-.51.21-.65.3-.76.36-.44.23c-.31.17-.63.33-.94.51l-.3.18-1,.61-.26.17c-.33.21-.65.43-1,.65l-.28.2-.87.66-.33.27-.74.62-.42.37c-.2.18-.4.36-.59.55l-.51.5c-.16.15-.3.31-.45.46s-.4.42-.6.64l-.33.37-.66.79c-.08.09-.15.19-.23.29-.23.3-.47.6-.69.91l-.17.23c-.23.33-.47.67-.69,1a1.37,1.37,0,0,0-.13.2c-.23.35-.44.7-.65,1.06a29.47,29.47,0,0,0-.08,29.63l25.55,44.26L182,44.25A29.5,29.5,0,0,0,182,14.64Z"/><path class="cls-1" d="M382.11,5a29.51,29.51,0,0,0-40.3,10.8L332.3,32.23l34.07,59,26.54-46A29.5,29.5,0,0,0,382.11,5Z"/><path class="cls-3" d="M326.69,140.51,298.24,91.24,286.82,111A29.49,29.49,0,0,0,332.3,147.5,29.22,29.22,0,0,1,326.69,140.51Z"/><path class="cls-4" d="M322.8,15.75a29.5,29.5,0,1,0-51.1,29.5l26.54,46,34.06-59Z"/><path class="cls-3" d="M298.24,91.24l28.45,49.27a29.22,29.22,0,0,0,5.61,7,29,29,0,0,0,5.62-7l28.45-49.27-34.07-59Z"/><path class="cls-2" d="M467,125.11a29.5,29.5,0,1,0,59,0V59.94H467Z"/><path class="cls-1" d="M541.2.94H451.86a29.5,29.5,0,0,0,0,59H467V35.77a29.5,29.5,0,0,1,59,0V59.94H541.2a29.5,29.5,0,1,0,0-59Z"/><path class="cls-1" d="M496.53,6.27A29.5,29.5,0,0,0,467,35.77V59.94h59V35.77A29.49,29.49,0,0,0,496.53,6.27Z"/><path class="cls-4" d="M737.43,74.75a73.1,73.1,0,1,1-73.1-73.09A73.09,73.09,0,0,1,737.43,74.75Z"/><path class="cls-3" d="M716,23.07,612.65,126.43A73.09,73.09,0,1,1,716,23.07Z"/><text class="cls-5" transform="translate(2.03 186.35)">Connected Design For Mitochondrial Disease</text></g></g></svg>