<?xml version="1.0" encoding="UTF-8"?>
<svg width="320px" height="248px" viewBox="0 0 320 248" version="1.1" xmlns="http://www.w3.org/2000/svg" xmlns:xlink="http://www.w3.org/1999/xlink">
    <!-- Generator: Sketch 53 (72520) - https://sketchapp.com -->
    <title>Collab</title>
    <desc>Created with Sketch.</desc>
    <defs>
        <path d="M9.575,0.361 C4.426,0.361 0.253,4.534 0.253,9.682 L0.253,9.682 L0.253,31.53 C0.253,36.678 4.426,40.851 9.575,40.851 L9.575,40.851 L31.422,40.851 C36.571,40.851 40.744,36.678 40.744,31.53 L40.744,31.53 L40.744,9.682 C40.744,4.534 36.571,0.361 31.422,0.361 L31.422,0.361" id="path-1"></path>
        <polygon id="path-3" points="0 319 698.656 319 698.656 0.196 0 0.196"></polygon>
    </defs>
    <g id="Page-1" stroke="none" stroke-width="1" fill="none" fill-rule="evenodd">
        <g id="Collab" transform="translate(-10.000000, -41.000000)">
            <g id="Group-22" transform="translate(10.000000, 60.804000)">
                <path d="M303.5286,115.9147 L258.5556,115.9147 L258.5556,115.8997 C248.1406,115.5977 239.7916,107.1387 239.7916,96.7397 C239.7916,86.3417 248.1406,77.8827 258.5556,77.5797 L258.5556,77.5657 L263.4646,77.5657 C272.0886,77.5657 279.0786,68.9067 279.0786,58.2257 L279.0786,58.2257 C279.0786,48.3897 273.1486,40.2747 265.4766,39.0507 L279.3656,39.0507 C287.9876,39.0507 294.9796,30.3927 294.9796,19.7107 L294.9796,19.7107 C294.9796,9.0297 287.9876,0.3707 279.3656,0.3707 L30.9346,0.3707 C22.3116,0.3707 15.3206,9.0297 15.3206,19.7107 L15.3206,19.7107 C15.3206,30.3927 22.3116,39.0507 30.9346,39.0507 L55.9006,39.0507 C63.5786,40.2667 69.5156,48.3837 69.5156,58.2257 C69.5156,68.0677 63.5786,76.1847 55.9006,77.3997 L38.6466,77.3997 C30.0236,77.3997 23.0326,86.0587 23.0326,96.7397 L23.0326,96.7407 C23.0326,106.5767 28.9626,114.6917 36.6346,115.9147 L16.0616,115.9147 C7.4386,115.9147 0.4476,124.5737 0.4476,135.2547 C0.4476,145.9357 7.4386,154.5947 16.0616,154.5947 L51.5546,154.5947 C44.6396,156.5827 39.4846,164.2567 39.4846,173.4277 L39.4846,173.4287 C39.4846,184.1097 46.4756,192.7687 55.0986,192.7687 L264.4916,192.7687 C273.1156,192.7687 280.1066,184.1097 280.1066,173.4287 L280.1066,173.4277 C280.1066,164.2567 274.9516,156.5827 268.0356,154.5947 L303.5286,154.5947 C312.1526,154.5947 319.1426,145.9357 319.1426,135.2547 C319.1426,124.5737 312.1526,115.9147 303.5286,115.9147" id="Fill-2" fill-opacity="0.1" fill="#000000"></path>
                <path d="M186.931,160.9645 C186.931,160.9645 197.32,208.0815 226.815,205.9855 C250.416,204.3095 244.543,174.3605 226.954,176.4195 C205.285,178.9555 207.819,219.9215 262.418,207.2705" id="Stroke-4" stroke="#F6F6F6" stroke-width="0.492" stroke-dasharray="2.461"></path>
                <path d="M209.9759,63.0885 C209.9759,63.0885 221.9459,43.6265 238.8929,50.4635 C255.8409,57.2995 240.0899,121.4685 275.3029,101.8345" id="Stroke-6" stroke="#F6F6F6" stroke-width="0.492" stroke-dasharray="2.461"></path>
                <path d="M202.8479,122.5158 C202.8479,122.5158 222.7979,152.5068 238.1859,140.0428 C253.5739,127.5778 249.3689,101.6518 226.4339,85.6568 C203.4989,69.6618 238.2739,10.5438 248.5849,12.6288" id="Stroke-8" stroke="#F6F6F6" stroke-width="0.492" stroke-dasharray="2.461"></path>
                <path d="M120.9192,54.5514 C120.9192,54.5514 104.5302,46.1744 92.5082,53.4024 C80.4852,60.6304 82.3762,83.7184 87.0682,92.2284 C89.8342,97.2434 93.2902,128.1914 66.7572,116.8964" id="Stroke-10" stroke="#F6F6F6" stroke-width="0.492" stroke-dasharray="2.461"></path>
                <path d="M103.7371,152.7145 C103.7371,152.7145 98.6741,136.3605 84.5781,140.8105 C77.8561,142.9325 64.1171,156.8285 69.9891,172.7515 C75.8611,188.6745 61.2631,208.6975 41.8341,192.7685" id="Stroke-12" stroke="#F6F6F6" stroke-width="0.492" stroke-dasharray="2.461"></path>
                <path d="M47.0994,18.196 C47.0994,18.196 92.8624,20.342 72.0804,63.089 C58.0484,91.954 90.5014,120.685 120.9194,93.033" id="Stroke-14" stroke="#F6F6F6" stroke-width="0.492" stroke-dasharray="2.461"></path>
                <path d="M303.26,124.4337 L281.413,124.4337 C276.265,124.4337 272.091,120.2597 272.091,115.1117 L272.091,93.2647 C272.091,88.1167 276.265,83.9427 281.413,83.9427 L303.26,83.9427 C308.408,83.9427 312.582,88.1167 312.582,93.2647 L312.582,115.1117 C312.582,120.2597 308.408,124.4337 303.26,124.4337" id="Fill-16" fill="#1EA1F3"></path>
                <path d="M302.5813,99.4352 C302.5983,99.6642 302.5983,99.8932 302.5983,100.1222 C302.5983,107.1102 297.2793,115.1632 287.5583,115.1632 C284.5623,115.1632 281.7813,114.2952 279.4403,112.7892 C279.8663,112.8382 280.2753,112.8552 280.7173,112.8552 C283.1883,112.8552 285.4633,112.0202 287.2793,110.5972 C284.9563,110.5472 283.0083,109.0252 282.3373,106.9312 C282.6643,106.9792 282.9923,107.0122 283.3363,107.0122 C283.8103,107.0122 284.2853,106.9472 284.7273,106.8322 C282.3053,106.3412 280.4883,104.2142 280.4883,101.6442 L280.4883,101.5792 C281.1913,101.9722 282.0103,102.2172 282.8773,102.2502 C281.4533,101.3012 280.5203,99.6812 280.5203,97.8482 C280.5203,96.8662 280.7823,95.9662 281.2403,95.1802 C283.8433,98.3882 287.7543,100.4822 292.1403,100.7112 C292.0593,100.3192 292.0093,99.9102 292.0093,99.5002 C292.0093,96.5872 294.3663,94.2142 297.2953,94.2142 C298.8173,94.2142 300.1923,94.8522 301.1573,95.8842 C302.3523,95.6552 303.4983,95.2132 304.5133,94.6072 C304.1193,95.8352 303.2853,96.8662 302.1883,97.5202 C303.2523,97.4062 304.2833,97.1112 305.2323,96.7022 C304.5133,97.7492 303.6123,98.6822 302.5813,99.4352" id="Fill-18" fill="#FFFFFF"></path>
                <path d="M45.4222,218.8512 L23.5752,218.8512 C18.4262,218.8512 14.2532,214.6782 14.2532,209.5292 L14.2532,187.6822 C14.2532,182.5342 18.4262,178.3602 23.5752,178.3602 L45.4222,178.3602 C50.5702,178.3602 54.7442,182.5342 54.7442,187.6822 L54.7442,209.5292 C54.7442,214.6782 50.5702,218.8512 45.4222,218.8512" id="Fill-20" fill="#FFFFFF"></path>
            </g>
            <g id="Group-25" transform="translate(24.000000, 238.804000)">
                <mask id="mask-2" fill="white">
                    <use xlink:href="#path-1"></use>
                </mask>
                <g id="Clip-24"></g>
                <path d="M40.7439,2.5929 L40.7439,38.6099 C40.7439,39.8479 39.7409,40.8429 38.5119,40.8429 L28.1899,40.8429 L28.1899,25.1699 L33.4499,25.1699 L34.2369,19.0609 L28.1809,19.0609 L28.1809,15.1559 C28.1809,13.3849 28.6689,12.1819 31.2089,12.1819 L34.4439,12.1819 L34.4439,6.7149 C33.8839,6.6419 31.9679,6.4699 29.7259,6.4699 C25.0629,6.4699 21.8629,9.3179 21.8629,14.5509 L21.8629,19.0609 L16.5849,19.0609 L16.5849,25.1699 L21.8629,25.1699 L21.8629,40.8509 L2.4859,40.8509 C1.2559,40.8509 0.2529,39.8479 0.2529,38.6189 L0.2529,2.5929 C0.2529,1.3639 1.2559,0.3609 2.4859,0.3609 L38.5019,0.3609 C39.7409,0.3609 40.7439,1.3639 40.7439,2.5929" id="Fill-23" fill="#3B579D" mask="url(#mask-2)"></path>
            </g>
            <g id="Group-166" transform="translate(0.000000, 0.804000)">
                <path d="M47.7776,98.4411 L25.9296,98.4411 C20.7816,98.4411 16.6086,94.2681 16.6086,89.1201 L16.6086,67.2721 C16.6086,62.1241 20.7816,57.9501 25.9296,57.9501 L47.7776,57.9501 C52.9256,57.9501 57.0996,62.1241 57.0996,67.2721 L57.0996,89.1201 C57.0996,94.2681 52.9256,98.4411 47.7776,98.4411" id="Fill-26" fill="#D7493D"></path>
                <path d="M31.8304,72.2917 C33.1164,72.2917 34.4024,72.7317 35.3404,73.6487 L37.7274,71.3327 C36.1014,69.8187 34.0544,69.0377 31.8304,69.0377 C26.9424,69.0377 23.0194,72.9807 23.0194,77.8477 C23.0194,82.7147 26.9424,86.6587 31.8304,86.6587 C36.8964,86.6587 40.2714,83.0777 40.2714,78.0467 C40.2714,77.5417 40.2284,77.0597 40.1364,76.5757 L31.8304,76.5757 L31.8304,79.6027 L36.8114,79.6027 C36.4414,82.0327 34.1464,83.3897 31.8304,83.3897 C28.7754,83.3897 26.3454,80.8677 26.3454,77.8407 C26.3454,74.8137 28.7824,72.2917 31.8304,72.2917" id="Fill-28" fill="#FFFFFF"></path>
                <polygon id="Fill-30" fill="#FFFFFF" points="45.6644 74.068 45.6644 76.59 43.1424 76.59 43.1424 79.112 45.6644 79.112 45.6644 81.635 48.1864 81.635 48.1864 79.112 50.6874 79.112 50.6874 76.59 48.1864 76.59 48.1864 74.068"></polygon>
                <path d="M291.5618,92.0627 L269.7138,92.0627 C264.5668,92.0627 260.3928,87.8897 260.3928,82.7417 L260.3928,60.8937 C260.3928,55.7457 264.5668,51.5717 269.7138,51.5717 L291.5618,51.5717 C296.7098,51.5717 300.8838,55.7457 300.8838,60.8937 L300.8838,82.7417 C300.8838,87.8897 296.7098,92.0627 291.5618,92.0627" id="Fill-32" fill="#FFFFFF"></path>
                <path d="M295.927,71.8175 C295.927,79.2145 289.93,85.2125 282.531,85.2125 C275.134,85.2125 269.137,79.2145 269.137,71.8175 C269.137,64.4195 275.134,58.4225 282.531,58.4225 C289.93,58.4225 295.927,64.4195 295.927,71.8175" id="Fill-34" fill="#F6F6F6"></path>
                <path d="M287.9309,68.591 C287.9309,71.904 285.4869,74.59 282.4709,74.59 C279.4559,74.59 277.0119,71.904 277.0119,68.591 C277.0119,65.278 279.4559,62.592 282.4709,62.592 C285.4869,62.592 287.9309,65.278 287.9309,68.591" id="Fill-36" fill="#CCCCCC"></path>
                <path d="M286.6907,74.5895 C285.4517,73.9925 284.0097,75.3305 282.4707,75.3305 C280.9337,75.3305 279.4937,73.9915 278.2537,74.5885 C275.7557,75.7905 274.0777,78.0275 274.0777,80.5895 C274.0777,81.2325 274.1847,81.8545 274.3827,82.4455 C276.6407,84.1795 279.4647,85.2125 282.5317,85.2125 C285.5237,85.2125 288.2867,84.2305 290.5157,82.5725 C290.7427,81.9435 290.8657,81.2785 290.8657,80.5895 C290.8657,78.0285 289.1877,75.7915 286.6907,74.5895" id="Fill-38" fill="#CCCCCC"></path>
                <path d="M266.3509,52.2077 C262.8679,53.5587 260.3929,56.9337 260.3929,60.8937 L260.3929,82.7417 C260.3929,86.7017 262.8679,90.0767 266.3509,91.4277 L266.3509,52.2077 Z" id="Fill-40" fill="#F7C856"></path>
                <path d="M72.6883,198.1208 L50.8413,198.1208 C45.6923,198.1208 41.5193,193.9478 41.5193,188.7988 L41.5193,166.9518 C41.5193,161.8038 45.6923,157.6298 50.8413,157.6298 L72.6883,157.6298 C77.8363,157.6298 82.0103,161.8038 82.0103,166.9518 L82.0103,188.7988 C82.0103,193.9478 77.8363,198.1208 72.6883,198.1208" id="Fill-42" fill="#FFFFFF"></path>
                <path d="M77.053,177.8752 C77.053,185.2732 71.056,191.2702 63.658,191.2702 C56.261,191.2702 50.263,185.2732 50.263,177.8752 C50.263,170.4782 56.261,164.4802 63.658,164.4802 C71.056,164.4802 77.053,170.4782 77.053,177.8752" id="Fill-44" fill="#F6F6F6"></path>
                <path d="M69.0569,174.6491 C69.0569,177.9621 66.6129,180.6481 63.5979,180.6481 C60.5829,180.6481 58.1389,177.9621 58.1389,174.6491 C58.1389,171.3361 60.5829,168.6501 63.5979,168.6501 C66.6129,168.6501 69.0569,171.3361 69.0569,174.6491" id="Fill-46" fill="#CCCCCC"></path>
                <path d="M67.8172,180.6471 C66.5772,180.0501 65.1362,181.3881 63.5982,181.3881 C62.0602,181.3881 60.6202,180.0501 59.3802,180.6461 C56.8822,181.8481 55.2032,184.0861 55.2032,186.6471 C55.2032,187.2911 55.3112,187.9121 55.5092,188.5031 C57.7672,190.2371 60.5912,191.2701 63.6582,191.2701 C66.6502,191.2701 69.4132,190.2881 71.6422,188.6301 C71.8692,188.0021 71.9922,187.3361 71.9922,186.6471 C71.9922,184.0861 70.3142,181.8501 67.8172,180.6471" id="Fill-48" fill="#CCCCCC"></path>
                <path d="M47.4773,158.2658 C43.9943,159.6158 41.5193,162.9908 41.5193,166.9518 L41.5193,188.7988 C41.5193,192.7598 43.9943,196.1348 47.4773,197.4848 L47.4773,158.2658 Z" id="Fill-50" fill="#359BCD"></path>
                <path d="M297.6409,287.925 L275.7939,287.925 C270.6459,287.925 266.4719,283.752 266.4719,278.603 L266.4719,256.756 C266.4719,251.608 270.6459,247.434 275.7939,247.434 L297.6409,247.434 C302.7889,247.434 306.9629,251.608 306.9629,256.756 L306.9629,278.603 C306.9629,283.752 302.7889,287.925 297.6409,287.925" id="Fill-52" fill="#FFFFFF"></path>
                <path d="M302.0061,267.6798 C302.0061,275.0768 296.0091,281.0748 288.6101,281.0748 C281.2131,281.0748 275.2161,275.0768 275.2161,267.6798 C275.2161,260.2818 281.2131,254.2848 288.6101,254.2848 C296.0091,254.2848 302.0061,260.2818 302.0061,267.6798" id="Fill-54" fill="#F6F6F6"></path>
                <path d="M294.01,264.4533 C294.01,267.7663 291.566,270.4523 288.551,270.4523 C285.535,270.4523 283.091,267.7663 283.091,264.4533 C283.091,261.1403 285.535,258.4543 288.551,258.4543 C291.566,258.4543 294.01,261.1403 294.01,264.4533" id="Fill-56" fill="#CCCCCC"></path>
                <path d="M292.7698,270.4513 C291.5308,269.8543 290.0888,271.1923 288.5498,271.1923 C287.0128,271.1923 285.5728,269.8543 284.3328,270.4503 C281.8348,271.6523 280.1568,273.8903 280.1568,276.4513 C280.1568,277.0953 280.2638,277.7163 280.4618,278.3073 C282.7198,280.0413 285.5438,281.0743 288.6118,281.0743 C291.6028,281.0743 294.3658,280.0923 296.5948,278.4343 C296.8218,277.8063 296.9448,277.1403 296.9448,276.4513 C296.9448,273.8903 295.2668,271.6543 292.7698,270.4513" id="Fill-58" fill="#CCCCCC"></path>
                <path d="M272.43,248.07 C268.947,249.42 266.472,252.795 266.472,256.756 L266.472,278.603 C266.472,282.564 268.947,285.939 272.43,287.289 L272.43,248.07 Z" id="Fill-60" fill="#DD5143"></path>
                <path d="M217.2718,242.8932 L114.5328,243.3292 C111.6238,243.3412 109.2548,240.9932 109.2428,238.0842 L108.5858,83.1552 C108.5738,80.2462 110.9218,77.8782 113.8308,77.8652 L216.5698,77.4302 C219.4788,77.4172 221.8468,79.7662 221.8598,82.6752 L222.5158,237.6032 C222.5288,240.5132 220.1808,242.8812 217.2718,242.8932" id="Fill-62" fill="#FFFFFF"></path>
                <polygon id="Fill-64" fill="#CCCCCC" points="163.6043 208.9743 116.0103 209.1763 115.9973 206.1513 163.5913 205.9503"></polygon>
                <polygon id="Fill-66" fill="#F6F6F6" points="163.4363 159.0417 116.0223 159.2427 115.8953 129.4087 163.3093 129.2077"></polygon>
                <polygon id="Fill-68" fill="#F6F6F6" points="215.303 211.7106 167.889 211.9116 167.791 188.5666 215.204 188.3656"></polygon>
                <polygon id="Fill-70" fill="#CCCCCC" points="215.8294 109.7458 115.9454 110.1698 115.9324 107.1448 215.8164 106.7218"></polygon>
                <polygon id="Fill-72" fill="#CCCCCC" points="179.8782 117.5544 115.9772 117.8254 115.9642 114.8004 179.8652 114.5294"></polygon>
                <polygon id="Fill-74" fill="#CCCCCC" points="163.6043 193.5397 116.0103 193.7417 115.9973 190.7167 163.5913 190.5157"></polygon>
                <polygon id="Fill-76" fill="#CCCCCC" points="163.637 201.1955 116.042 201.3975 116.03 198.3725 163.624 198.1705"></polygon>
                <polygon id="Fill-78" fill="#CCCCCC" points="163.637 216.63 116.042 216.832 116.03 213.807 163.624 213.606"></polygon>
                <polygon id="Fill-80" fill="#CCCCCC" points="144.1873 224.3683 116.0753 224.4873 116.0623 221.4633 144.1743 221.3433"></polygon>
                <polygon id="Fill-82" fill="#CCCCCC" points="163.6043 174.9894 116.0103 175.1914 115.9973 172.1664 163.5913 171.9644"></polygon>
                <polygon id="Fill-84" fill="#CCCCCC" points="163.637 167.2101 116.042 167.4121 116.03 164.3871 163.624 164.1861"></polygon>
                <polygon id="Fill-86" fill="#CCCCCC" points="163.637 182.6447 116.042 182.8467 116.03 179.8217 163.624 179.6207"></polygon>
                <polygon id="Fill-88" fill="#CCCCCC" points="196.2161 178.7965 168.1041 178.9155 168.0911 175.8915 196.2031 175.7725"></polygon>
                <polygon id="Fill-90" fill="#CCCCCC" points="215.428 140.0216 167.834 140.2236 167.821 137.1986 215.415 136.9966"></polygon>
                <polygon id="Fill-92" fill="#CCCCCC" points="215.4603 132.2423 167.8663 132.4443 167.8533 129.4193 215.4473 129.2183"></polygon>
                <polygon id="Fill-94" fill="#CCCCCC" points="215.4603 147.6769 167.8663 147.8789 167.8533 144.8539 215.4473 144.6529"></polygon>
                <polygon id="Fill-96" fill="#CCCCCC" points="215.428 163.7023 167.834 163.9043 167.821 160.8793 215.415 160.6783"></polygon>
                <polygon id="Fill-98" fill="#CCCCCC" points="215.4603 155.9235 167.8663 156.1255 167.8533 153.1005 215.4473 152.8985"></polygon>
                <polygon id="Fill-100" fill="#CCCCCC" points="215.4603 171.3581 167.8663 171.5601 167.8533 168.5351 215.4473 168.3331"></polygon>
                <polygon id="Fill-102" fill="#CCCCCC" points="204.3567 85.5202 206.5027 89.8672 211.2987 90.5642 207.8277 93.9482 208.6477 98.7272 204.3567 96.4712 200.0647 98.7272 200.8847 93.9482 197.4137 90.5642 202.2107 89.8672"></polygon>
                <path d="M166.2039,86.6735 C166.2039,87.5685 165.2229,88.2935 164.0129,88.2935 C162.8029,88.2935 161.8219,87.5685 161.8219,86.6735 C161.8219,85.7795 162.8029,85.0545 164.0129,85.0545 C165.2229,85.0545 166.2039,85.7795 166.2039,86.6735" id="Fill-104" fill="#606866"></path>
                <path d="M172.3519,70.2834 L163.5069,86.5814 L163.4969,86.5994 C163.5139,86.6544 163.5749,86.7874 163.7919,86.9244 L163.8659,86.8064 L173.6899,71.1204 L172.3519,70.2834 Z" id="Fill-106" fill="#F6F6F6"></path>
                <path d="M173.6897,71.1208 L163.8657,86.8068 L163.7927,86.9238 C163.7927,86.9248 163.7937,86.9248 163.7937,86.9258 C164.0047,87.0578 164.1487,87.0588 164.2107,87.0508 L164.2247,87.0318 L175.0267,71.9578 L173.6897,71.1208 Z" id="Fill-108" fill="#CCCCCC"></path>
                <path d="M186.2122,71.6628 C183.9742,75.2378 178.0222,75.5458 172.9202,72.3498 C167.8172,69.1548 165.4962,63.6658 167.7352,60.0908 L168.8862,58.2518 C170.1292,58.6198 186.1552,69.0678 187.3632,69.8248 L186.2122,71.6628 Z" id="Fill-110" fill="#F7C856"></path>
                <path d="M187.179,70.1203 C185.075,73.4803 179.232,73.6143 174.129,70.4183 C169.027,67.2233 166.597,61.9083 168.701,58.5483 C170.806,55.1873 176.648,55.0543 181.75,58.2503 C186.853,61.4453 189.283,66.7603 187.179,70.1203" id="Fill-112" fill="#F6B10C"></path>
                <polygon id="Fill-114" fill="#F7C856" points="183.4192 66.1193 173.9412 60.1833 183.8032 46.2613 191.6412 51.1703"></polygon>
                <path d="M183.4192,66.1193 C182.4862,67.6083 179.6092,67.4873 176.9922,65.8483 C174.3742,64.2083 173.0092,61.6723 173.9412,60.1833 C174.8742,58.6943 177.7522,58.8153 180.3692,60.4543 C182.9862,62.0943 184.3532,64.6303 183.4192,66.1193" id="Fill-116" fill="#F7C856"></path>
                <path d="M195.427,53.8131 C193.735,56.5151 188.859,56.5101 184.535,53.8031 C180.212,51.0951 178.079,46.7101 179.772,44.0091 C181.464,41.3071 186.34,41.3111 190.663,44.0191 C194.986,46.7261 197.118,51.1111 195.427,53.8131" id="Fill-118" fill="#F6B10C"></path>
                <path d="M196.1331,52.6857 C194.4411,55.3877 189.5651,55.3827 185.2411,52.6757 C180.9181,49.9677 178.7851,45.5827 180.4781,42.8807 C182.1701,40.1797 187.0461,40.1837 191.3691,42.8917 C195.6931,45.5987 197.8241,49.9837 196.1331,52.6857" id="Fill-120" fill="#F7C856"></path>
                <path d="M159.075,234.0929 C158.969,234.0029 158.819,233.9599 158.627,233.9599 L157.87,233.9599 L157.87,235.1429 L158.627,235.1429 C158.819,235.1429 158.969,235.0949 159.075,234.9979 C159.181,234.9019 159.235,234.7489 159.235,234.5399 C159.235,234.3319 159.181,234.1819 159.075,234.0929 M159.717,235.5419 C159.481,235.7379 159.145,235.8379 158.708,235.8379 L157.87,235.8379 L157.87,237.2829 L157.035,237.2829 L157.035,233.2599 L158.762,233.2599 C159.16,233.2599 159.478,233.3649 159.715,233.5709 C159.951,233.7789 160.07,234.0989 160.07,234.5349 C160.07,235.0099 159.951,235.3449 159.717,235.5419" id="Fill-122" fill="#CCCCCC"></path>
                <path d="M162.5394,236.4889 C162.6614,236.3269 162.7224,236.0979 162.7224,235.7989 C162.7224,235.5019 162.6614,235.2729 162.5394,235.1119 C162.4174,234.9519 162.2434,234.8699 162.0154,234.8699 C161.7884,234.8699 161.6134,234.9519 161.4904,235.1119 C161.3674,235.2729 161.3064,235.5019 161.3064,235.7989 C161.3064,236.0979 161.3674,236.3269 161.4904,236.4889 C161.6134,236.6519 161.7884,236.7309 162.0154,236.7309 C162.2434,236.7309 162.4174,236.6519 162.5394,236.4889 M163.1624,236.9189 C162.9104,237.2299 162.5294,237.3849 162.0184,237.3849 C161.5064,237.3849 161.1254,237.2299 160.8744,236.9189 C160.6234,236.6089 160.4984,236.2359 160.4984,235.7989 C160.4984,235.3699 160.6234,234.9999 160.8744,234.6839 C161.1254,234.3699 161.5064,234.2129 162.0184,234.2129 C162.5294,234.2129 162.9104,234.3699 163.1624,234.6839 C163.4134,234.9999 163.5384,235.3699 163.5384,235.7989 C163.5384,236.2359 163.4134,236.6089 163.1624,236.9189" id="Fill-124" fill="#CCCCCC"></path>
                <path d="M164.698,236.3327 C164.715,236.4727 164.749,236.5697 164.804,236.6277 C164.902,236.7307 165.081,236.7827 165.342,236.7827 C165.495,236.7827 165.617,236.7617 165.708,236.7147 C165.799,236.6697 165.844,236.6017 165.844,236.5107 C165.844,236.4237 165.807,236.3577 165.735,236.3107 C165.661,236.2667 165.391,236.1877 164.921,236.0767 C164.583,235.9937 164.345,235.8887 164.207,235.7627 C164.068,235.6397 163.999,235.4597 163.999,235.2277 C163.999,234.9537 164.107,234.7177 164.323,234.5197 C164.539,234.3217 164.843,234.2237 165.236,234.2237 C165.607,234.2237 165.91,234.2987 166.144,234.4467 C166.379,234.5947 166.513,234.8507 166.548,235.2147 L165.77,235.2147 C165.759,235.1147 165.731,235.0347 165.686,234.9767 C165.599,234.8727 165.454,234.8187 165.248,234.8187 C165.077,234.8187 164.957,234.8457 164.885,234.8987 C164.812,234.9497 164.777,235.0137 164.777,235.0827 C164.777,235.1727 164.815,235.2377 164.891,235.2777 C164.969,235.3187 165.239,235.3907 165.704,235.4937 C166.014,235.5647 166.245,235.6767 166.4,235.8227 C166.553,235.9717 166.63,236.1577 166.63,236.3827 C166.63,236.6767 166.52,236.9167 166.301,237.1037 C166.08,237.2907 165.741,237.3847 165.282,237.3847 C164.813,237.3847 164.467,237.2847 164.244,237.0887 C164.021,236.8907 163.909,236.6387 163.909,236.3327 L164.698,236.3327 Z" id="Fill-126" fill="#CCCCCC"></path>
                <path d="M166.8968,234.8903 L166.8968,234.3353 L167.3118,234.3353 L167.3118,233.5063 L168.0818,233.5063 L168.0818,234.3353 L168.5638,234.3353 L168.5638,234.8903 L168.0818,234.8903 L168.0818,236.4623 C168.0818,236.5833 168.0968,236.6603 168.1268,236.6893 C168.1588,236.7203 168.2528,236.7343 168.4118,236.7343 C168.4348,236.7343 168.4598,236.7343 168.4858,236.7333 C168.5128,236.7333 168.5388,236.7313 168.5638,236.7293 L168.5638,237.3093 L168.1958,237.3243 C167.8288,237.3363 167.5778,237.2733 167.4428,237.1333 C167.3558,237.0433 167.3118,236.9063 167.3118,236.7213 L167.3118,234.8903 L166.8968,234.8903 Z" id="Fill-128" fill="#CCCCCC"></path>
                <path d="M169.8377,235.0397 C169.7287,235.1547 169.6597,235.3077 169.6307,235.5017 L170.9707,235.5017 C170.9577,235.2937 170.8877,235.1377 170.7627,235.0317 C170.6397,234.9237 170.4857,234.8707 170.3017,234.8707 C170.1027,234.8707 169.9487,234.9267 169.8377,235.0397 M171.0027,234.3687 C171.2097,234.4617 171.3807,234.6077 171.5157,234.8087 C171.6367,234.9847 171.7157,235.1907 171.7537,235.4237 C171.7737,235.5597 171.7817,235.7577 171.7787,236.0137 L169.6117,236.0137 C169.6247,236.3127 169.7277,236.5217 169.9227,236.6417 C170.0417,236.7167 170.1847,236.7527 170.3517,236.7527 C170.5297,236.7527 170.6727,236.7077 170.7837,236.6167 C170.8437,236.5687 170.8967,236.4997 170.9437,236.4127 L171.7377,236.4127 C171.7167,236.5887 171.6207,236.7677 171.4497,236.9507 C171.1827,237.2397 170.8097,237.3847 170.3307,237.3847 C169.9347,237.3847 169.5857,237.2617 169.2827,237.0187 C168.9797,236.7747 168.8287,236.3777 168.8287,235.8277 C168.8287,235.3117 168.9657,234.9167 169.2387,234.6417 C169.5117,234.3667 169.8657,234.2287 170.3017,234.2287 C170.5607,234.2287 170.7947,234.2757 171.0027,234.3687" id="Fill-130" fill="#CCCCCC"></path>
                <path d="M173.9397,236.4753 C174.0537,236.3103 174.1117,236.1003 174.1117,235.8393 C174.1117,235.4753 174.0197,235.2163 173.8357,235.0583 C173.7237,234.9653 173.5917,234.9163 173.4437,234.9163 C173.2157,234.9163 173.0487,235.0033 172.9427,235.1743 C172.8357,235.3473 172.7837,235.5593 172.7837,235.8143 C172.7837,236.0903 172.8367,236.3093 172.9447,236.4743 C173.0527,236.6383 173.2167,236.7213 173.4377,236.7213 C173.6577,236.7213 173.8247,236.6383 173.9397,236.4753 M173.7487,234.3573 C173.8887,234.4353 174.0017,234.5443 174.0897,234.6843 L174.0897,233.2653 L174.8777,233.2653 L174.8777,237.2833 L174.1227,237.2833 L174.1227,236.8713 C174.0117,237.0473 173.8847,237.1753 173.7437,237.2563 C173.6007,237.3363 173.4247,237.3763 173.2137,237.3763 C172.8667,237.3763 172.5737,237.2343 172.3367,236.9543 C172.0987,236.6733 171.9807,236.3123 171.9807,235.8723 C171.9807,235.3643 172.0977,234.9653 172.3317,234.6743 C172.5647,234.3833 172.8777,234.2373 173.2677,234.2373 C173.4487,234.2373 173.6087,234.2773 173.7487,234.3573" id="Fill-132" fill="#CCCCCC"></path>
                <path d="M179.0267,236.4787 C179.1387,236.3157 179.1957,236.1037 179.1957,235.8387 C179.1957,235.6277 179.1677,235.4537 179.1127,235.3157 C179.0077,235.0527 178.8157,234.9217 178.5357,234.9217 C178.2507,234.9217 178.0547,235.0517 177.9487,235.3077 C177.8937,235.4437 177.8667,235.6197 177.8667,235.8377 C177.8667,236.0917 177.9227,236.3027 178.0367,236.4707 C178.1507,236.6367 178.3247,236.7217 178.5567,236.7217 C178.7587,236.7217 178.9167,236.6397 179.0267,236.4787 M179.6777,234.6667 C179.9007,234.9487 180.0117,235.3117 180.0117,235.7577 C180.0117,236.2197 179.9017,236.6037 179.6817,236.9057 C179.4627,237.2097 179.1567,237.3627 178.7627,237.3627 C178.5157,237.3627 178.3177,237.3127 178.1687,237.2147 C178.0787,237.1567 177.9807,237.0557 177.8777,236.9087 L177.8777,237.2827 L177.1107,237.2827 L177.1107,233.2657 L177.8877,233.2657 L177.8877,234.6957 C177.9867,234.5577 178.0957,234.4517 178.2147,234.3797 C178.3557,234.2887 178.5357,234.2427 178.7537,234.2427 C179.1467,234.2427 179.4557,234.3837 179.6777,234.6667" id="Fill-134" fill="#CCCCCC"></path>
                <path d="M180.6692,237.8527 L180.7672,237.8597 C180.8432,237.8627 180.9162,237.8597 180.9852,237.8517 C181.0542,237.8407 181.1122,237.8217 181.1592,237.7887 C181.2052,237.7567 181.2472,237.6917 181.2862,237.5937 C181.3252,237.4957 181.3422,237.4357 181.3372,237.4147 L180.2442,234.3087 L181.1092,234.3087 L181.7592,236.5017 L182.3722,234.3087 L183.2002,234.3087 L182.1802,237.2327 C181.9822,237.7977 181.8262,238.1467 181.7122,238.2837 C181.5982,238.4177 181.3682,238.4857 181.0242,238.4857 C180.9542,238.4857 180.8982,238.4857 180.8572,238.4837 C180.8152,238.4837 180.7522,238.4807 180.6692,238.4757 L180.6692,237.8527 Z" id="Fill-136" fill="#CCCCCC"></path>
                <path d="M186.0911,233.9596 L186.0911,236.5846 L186.8671,236.5846 C187.2641,236.5846 187.5411,236.3886 187.6971,235.9966 C187.7831,235.7826 187.8261,235.5266 187.8261,235.2306 C187.8261,234.8216 187.7621,234.5066 187.6341,234.2886 C187.5051,234.0696 187.2491,233.9596 186.8671,233.9596 L186.0911,233.9596 Z M187.6311,233.3486 C187.9141,233.4416 188.1431,233.6106 188.3171,233.8586 C188.4571,234.0576 188.5531,234.2756 188.6051,234.5076 C188.6541,234.7406 188.6811,234.9616 188.6811,235.1726 C188.6811,235.7076 188.5721,236.1616 188.3591,236.5316 C188.0671,237.0316 187.6171,237.2826 187.0091,237.2826 L185.2751,237.2826 L185.2751,233.2606 L187.0091,233.2606 C187.2581,233.2636 187.4661,233.2936 187.6311,233.3486 L187.6311,233.3486 Z" id="Fill-138" fill="#CCCCCC"></path>
                <path d="M190.9017,235.8376 C190.8517,235.8676 190.8017,235.8926 190.7517,235.9126 C190.7007,235.9306 190.6307,235.9486 190.5417,235.9656 L190.3647,235.9966 C190.1997,236.0266 190.0797,236.0616 190.0067,236.1046 C189.8847,236.1746 189.8237,236.2846 189.8237,236.4336 C189.8237,236.5666 189.8617,236.6636 189.9357,236.7216 C190.0107,236.7806 190.1017,236.8116 190.2097,236.8116 C190.3797,236.8116 190.5357,236.7616 190.6787,236.6636 C190.8217,236.5656 190.8967,236.3856 190.9017,236.1266 L190.9017,235.8376 Z M190.4257,235.4736 C190.5707,235.4556 190.6747,235.4316 190.7367,235.4056 C190.8477,235.3586 190.9047,235.2836 190.9047,235.1846 C190.9047,235.0636 190.8617,234.9786 190.7757,234.9316 C190.6907,234.8856 190.5637,234.8616 190.3977,234.8616 C190.2127,234.8616 190.0797,234.9086 190.0027,234.9986 C189.9477,235.0666 189.9107,235.1576 189.8917,235.2726 L189.1417,235.2726 C189.1587,235.0116 189.2307,234.7966 189.3617,234.6306 C189.5677,234.3686 189.9227,234.2376 190.4237,234.2376 C190.7517,234.2376 191.0427,234.3016 191.2967,234.4316 C191.5487,234.5616 191.6767,234.8036 191.6767,235.1626 L191.6767,236.5266 C191.6767,236.6216 191.6777,236.7366 191.6817,236.8706 C191.6877,236.9726 191.7037,237.0426 191.7287,237.0786 C191.7547,237.1146 191.7927,237.1456 191.8437,237.1686 L191.8437,237.2826 L190.9977,237.2826 C190.9737,237.2236 190.9577,237.1666 190.9477,237.1136 C190.9387,237.0606 190.9317,237.0006 190.9257,236.9346 C190.8187,237.0506 190.6937,237.1496 190.5527,237.2316 C190.3847,237.3276 190.1947,237.3766 189.9817,237.3766 C189.7117,237.3766 189.4877,237.2996 189.3117,237.1456 C189.1337,236.9926 189.0467,236.7726 189.0467,236.4916 C189.0467,236.1266 189.1887,235.8606 189.4727,235.6976 C189.6287,235.6086 189.8567,235.5456 190.1597,235.5066 L190.4257,235.4736 Z" id="Fill-140" fill="#CCCCCC"></path>
                <mask id="mask-4" fill="white">
                    <use xlink:href="#path-3"></use>
                </mask>
                <g id="Clip-143"></g>
                <polygon id="Fill-142" fill="#CCCCCC" mask="url(#mask-4)" points="192.373 237.283 193.151 237.283 193.151 233.261 192.373 233.261"></polygon>
                <path d="M194.0257,237.8527 L194.1247,237.8597 C194.2007,237.8627 194.2737,237.8597 194.3417,237.8517 C194.4117,237.8407 194.4697,237.8217 194.5167,237.7887 C194.5627,237.7567 194.6047,237.6917 194.6437,237.5937 C194.6827,237.4957 194.6997,237.4357 194.6947,237.4147 L193.6017,234.3087 L194.4667,234.3087 L195.1157,236.5017 L195.7297,234.3087 L196.5567,234.3087 L195.5377,237.2327 C195.3397,237.7977 195.1837,238.1467 195.0697,238.2837 C194.9547,238.4177 194.7257,238.4857 194.3807,238.4857 C194.3117,238.4857 194.2557,238.4857 194.2137,238.4837 C194.1727,238.4837 194.1097,238.4807 194.0257,238.4757 L194.0257,237.8527 Z" id="Fill-144" fill="#CCCCCC" mask="url(#mask-4)"></path>
                <path d="M198.6702,235.8376 C198.6202,235.8676 198.5702,235.8926 198.5202,235.9126 C198.4692,235.9306 198.3992,235.9486 198.3102,235.9656 L198.1332,235.9966 C197.9682,236.0266 197.8482,236.0616 197.7752,236.1046 C197.6532,236.1746 197.5922,236.2846 197.5922,236.4336 C197.5922,236.5666 197.6302,236.6636 197.7042,236.7216 C197.7792,236.7806 197.8702,236.8116 197.9782,236.8116 C198.1482,236.8116 198.3052,236.7616 198.4472,236.6636 C198.5902,236.5656 198.6652,236.3856 198.6702,236.1266 L198.6702,235.8376 Z M198.1942,235.4736 C198.3392,235.4556 198.4432,235.4316 198.5052,235.4056 C198.6162,235.3586 198.6732,235.2836 198.6732,235.1846 C198.6732,235.0636 198.6302,234.9786 198.5442,234.9316 C198.4592,234.8856 198.3322,234.8616 198.1662,234.8616 C197.9812,234.8616 197.8482,234.9086 197.7712,234.9986 C197.7162,235.0666 197.6792,235.1576 197.6602,235.2726 L196.9102,235.2726 C196.9272,235.0116 196.9992,234.7966 197.1302,234.6306 C197.3362,234.3686 197.6912,234.2376 198.1932,234.2376 C198.5202,234.2376 198.8112,234.3016 199.0652,234.4316 C199.3172,234.5616 199.4452,234.8036 199.4452,235.1626 L199.4452,236.5266 C199.4452,236.6216 199.4462,236.7366 199.4512,236.8706 C199.4562,236.9726 199.4722,237.0426 199.4972,237.0786 C199.5232,237.1146 199.5612,237.1456 199.6122,237.1686 L199.6122,237.2826 L198.7662,237.2826 C198.7422,237.2236 198.7262,237.1666 198.7162,237.1136 C198.7072,237.0606 198.7002,237.0006 198.6942,236.9346 C198.5872,237.0506 198.4622,237.1496 198.3212,237.2316 C198.1532,237.3276 197.9632,237.3766 197.7502,237.3766 C197.4802,237.3766 197.2562,237.2996 197.0802,237.1456 C196.9022,236.9926 196.8152,236.7726 196.8152,236.4916 C196.8152,236.1266 196.9572,235.8606 197.2412,235.6976 C197.3972,235.6086 197.6252,235.5456 197.9282,235.5066 L198.1942,235.4736 Z" id="Fill-145" fill="#CCCCCC" mask="url(#mask-4)"></path>
                <path d="M202.9007,234.4103 C202.9337,234.4633 203.0067,234.5573 203.1207,234.6923 C203.2347,234.6163 203.3147,234.5513 203.3637,234.4983 C203.4587,234.4003 203.5057,234.2933 203.5057,234.1773 C203.5057,234.0943 203.4777,234.0193 203.4207,233.9533 C203.3637,233.8883 203.2787,233.8553 203.1637,233.8553 C203.0907,233.8553 203.0237,233.8753 202.9627,233.9133 C202.8687,233.9703 202.8207,234.0593 202.8207,234.1813 C202.8207,234.2543 202.8467,234.3303 202.9007,234.4103 M202.5567,236.5653 C202.6677,236.6763 202.8087,236.7313 202.9807,236.7313 C203.1107,236.7313 203.2337,236.7033 203.3487,236.6433 C203.4637,236.5853 203.5577,236.5203 203.6297,236.4493 L202.8787,235.5323 C202.6807,235.6613 202.5507,235.7763 202.4877,235.8733 C202.4237,235.9723 202.3917,236.0793 202.3917,236.1993 C202.3917,236.3323 202.4477,236.4533 202.5567,236.5653 M201.7967,235.6013 C201.9177,235.4293 202.1137,235.2573 202.3867,235.0883 L202.4717,235.0363 C202.3557,234.9053 202.2647,234.7723 202.2017,234.6343 C202.1377,234.4983 202.1057,234.3573 202.1057,234.2093 C202.1057,233.9153 202.2057,233.6853 202.4047,233.5213 C202.6027,233.3563 202.8607,233.2733 203.1767,233.2733 C203.4657,233.2733 203.7057,233.3583 203.8937,233.5283 C204.0827,233.6953 204.1767,233.9113 204.1767,234.1743 C204.1767,234.4113 204.1207,234.6043 204.0067,234.7523 C203.8937,234.9003 203.7277,235.0363 203.5087,235.1623 L204.0877,235.8643 C204.1537,235.7693 204.2047,235.6663 204.2407,235.5553 C204.2757,235.4453 204.2957,235.3273 204.2967,235.2043 L204.9877,235.2043 C204.9747,235.4483 204.9167,235.6963 204.8097,235.9453 C204.7527,236.0863 204.6587,236.2413 204.5277,236.4103 L205.2567,237.2833 L204.3157,237.2833 L204.0367,236.9423 C203.9007,237.0683 203.7737,237.1613 203.6557,237.2213 C203.4467,237.3293 203.2047,237.3843 202.9297,237.3843 C202.5177,237.3843 202.1967,237.2643 201.9647,237.0233 C201.7327,236.7833 201.6177,236.5163 201.6177,236.2243 C201.6177,235.9823 201.6767,235.7743 201.7967,235.6013" id="Fill-146" fill="#CCCCCC" mask="url(#mask-4)"></path>
                <polygon id="Fill-147" fill="#CCCCCC" mask="url(#mask-4)" points="210.2513 233.2604 210.2513 233.9734 209.0483 233.9734 209.0483 237.2824 208.2023 237.2824 208.2023 233.9734 206.9923 233.9734 206.9923 233.2604"></polygon>
                <path d="M212.1263,236.4889 C212.2473,236.3269 212.3093,236.0979 212.3093,235.7989 C212.3093,235.5019 212.2473,235.2729 212.1263,235.1119 C212.0043,234.9519 211.8293,234.8699 211.6023,234.8699 C211.3743,234.8699 211.1993,234.9519 211.0763,235.1119 C210.9543,235.2729 210.8933,235.5019 210.8933,235.7989 C210.8933,236.0979 210.9543,236.3269 211.0763,236.4889 C211.1993,236.6519 211.3743,236.7309 211.6023,236.7309 C211.8293,236.7309 212.0043,236.6519 212.1263,236.4889 M212.7483,236.9189 C212.4963,237.2299 212.1163,237.3849 211.6053,237.3849 C211.0933,237.3849 210.7123,237.2299 210.4613,236.9189 C210.2103,236.6089 210.0853,236.2359 210.0853,235.7989 C210.0853,235.3699 210.2103,234.9999 210.4613,234.6839 C210.7123,234.3699 211.0933,234.2129 211.6053,234.2129 C212.1163,234.2129 212.4963,234.3699 212.7483,234.6839 C212.9993,234.9999 213.1243,235.3699 213.1243,235.7989 C213.1243,236.2359 212.9993,236.6089 212.7483,236.9189" id="Fill-148" fill="#CCCCCC" mask="url(#mask-4)"></path>
                <path d="M217.3929,234.3185 C217.5199,234.3705 217.6349,234.4605 217.7389,234.5865 C217.8229,234.6915 217.8789,234.8175 217.9089,234.9685 C217.9269,235.0695 217.9359,235.2155 217.9359,235.4085 L217.9299,237.2825 L217.1329,237.2825 L217.1329,235.3885 C217.1329,235.2755 217.1149,235.1845 217.0789,235.1115 C217.0089,234.9735 216.8819,234.9035 216.6969,234.9035 C216.4819,234.9035 216.3339,234.9935 216.2519,235.1715 C216.2099,235.2655 216.1889,235.3785 216.1889,235.5115 L216.1889,237.2825 L215.4069,237.2825 L215.4069,235.5115 C215.4069,235.3355 215.3879,235.2075 215.3509,235.1285 C215.2859,234.9835 215.1579,234.9115 214.9669,234.9115 C214.7449,234.9115 214.5949,234.9835 214.5189,235.1285 C214.4769,235.2095 214.4559,235.3305 214.4559,235.4935 L214.4559,237.2825 L213.6669,237.2825 L213.6669,234.3135 L214.4229,234.3135 L214.4229,234.7475 C214.5199,234.5925 214.6109,234.4835 214.6969,234.4185 C214.8469,234.3005 215.0429,234.2425 215.2839,234.2425 C215.5109,234.2425 215.6949,234.2935 215.8339,234.3935 C215.9469,234.4865 216.0329,234.6045 216.0909,234.7505 C216.1929,234.5765 216.3189,234.4485 216.4699,234.3655 C216.6299,234.2835 216.8089,234.2425 217.0049,234.2425 C217.1359,234.2425 217.2649,234.2685 217.3929,234.3185" id="Fill-149" fill="#CCCCCC" mask="url(#mask-4)"></path>
                <polygon id="Fill-150" fill="#CCCCCC" mask="url(#mask-4)" points="115.976 100.065 116.957 100.065 116.957 87.333 115.976 87.333"></polygon>
                <polygon id="Stroke-151" stroke="#CCCCCC" stroke-width="0.555" mask="url(#mask-4)" points="115.976 100.065 116.957 100.065 116.957 87.333 115.976 87.333"></polygon>
                <path d="M122.7674,89.9728 C122.7674,89.0488 122.0314,88.3128 121.1074,88.3128 L119.8244,88.3128 L119.8244,99.0838 L121.1074,99.0838 C122.0314,99.0838 122.7674,98.3478 122.7674,97.4238 L122.7674,89.9728 Z M123.7474,97.4238 C123.7474,98.8768 122.5594,100.0648 121.1074,100.0648 L118.8444,100.0648 L118.8444,87.3328 L121.1074,87.3328 C122.5594,87.3328 123.7474,88.5208 123.7474,89.9728 L123.7474,97.4238 Z" id="Fill-152" fill="#CCCCCC" mask="url(#mask-4)"></path>
                <path d="M122.7674,89.9728 C122.7674,89.0488 122.0314,88.3128 121.1074,88.3128 L119.8244,88.3128 L119.8244,99.0838 L121.1074,99.0838 C122.0314,99.0838 122.7674,98.3478 122.7674,97.4238 L122.7674,89.9728 Z M123.7474,97.4238 C123.7474,98.8768 122.5594,100.0648 121.1074,100.0648 L118.8444,100.0648 L118.8444,87.3328 L121.1074,87.3328 C122.5594,87.3328 123.7474,88.5208 123.7474,89.9728 L123.7474,97.4238 Z" id="Stroke-153" stroke="#CCCCCC" stroke-width="0.555" mask="url(#mask-4)"></path>
                <polygon id="Fill-154" fill="#CCCCCC" mask="url(#mask-4)" points="126.4837 88.3131 126.4837 93.1981 128.7657 93.1981 128.7657 94.1981 126.4837 94.1981 126.4837 99.0841 129.7287 99.0841 129.7287 100.0641 125.5037 100.0641 125.5037 87.3331 129.5767 87.3331 129.5767 88.3131"></polygon>
                <polygon id="Stroke-155" stroke="#CCCCCC" stroke-width="0.555" mask="url(#mask-4)" points="126.4837 88.3131 126.4837 93.1981 128.7657 93.1981 128.7657 94.1981 126.4837 94.1981 126.4837 99.0841 129.7287 99.0841 129.7287 100.0641 125.5037 100.0641 125.5037 87.3331 129.5767 87.3331 129.5767 88.3131"></polygon>
                <path d="M131.992,95.8205 L134.275,95.8205 L133.162,88.4265 L133.124,88.4265 L131.992,95.8205 Z M135.916,100.0645 L134.935,100.0645 L134.426,96.8005 L131.842,96.8005 L131.351,100.0645 L130.37,100.0645 L132.313,87.3325 L133.973,87.3325 L135.916,100.0645 Z" id="Fill-156" fill="#CCCCCC" mask="url(#mask-4)"></path>
                <path d="M131.992,95.8205 L134.275,95.8205 L133.162,88.4265 L133.124,88.4265 L131.992,95.8205 Z M135.916,100.0645 L134.935,100.0645 L134.426,96.8005 L131.842,96.8005 L131.351,100.0645 L130.37,100.0645 L132.313,87.3325 L133.973,87.3325 L135.916,100.0645 Z" id="Stroke-157" stroke="#CCCCCC" stroke-width="0.555" mask="url(#mask-4)"></path>
                <polygon id="Fill-158" fill="#F6B10C" mask="url(#mask-4)" points="213.1888 202.5294 217.2788 226.6804 221.9108 216.4364 232.8568 216.8574"></polygon>
                <polygon id="Fill-159" fill="#F7C856" mask="url(#mask-4)" points="213.1888 202.5294 217.2788 226.6804 221.9108 216.4364"></polygon>
                <path d="M81.8807,212.6515 L83.7477,213.4385 C84.3007,213.6715 84.3947,214.4165 83.9157,214.7785 L82.3007,216.0025 L80.6857,217.2255 C80.2067,217.5885 79.5157,217.2975 79.4407,216.7015 L79.1887,214.6905 L78.9367,212.6805 C78.8617,212.0845 79.4597,211.6305 80.0127,211.8645 L81.8807,212.6515 Z" id="Fill-160" fill="#FFFFFF" mask="url(#mask-4)"></path>
                <path d="M94.3084,143.7931 L96.2534,143.2261 C96.8304,143.0581 97.3724,143.5771 97.2294,144.1601 L96.7484,146.1281 L96.2664,148.0971 C96.1244,148.6801 95.4034,148.8901 94.9704,148.4751 L93.5064,147.0741 L92.0424,145.6721 C91.6084,145.2571 91.7874,144.5281 92.3634,144.3601 L94.3084,143.7931 Z" id="Fill-161" fill="#FFFFFF" mask="url(#mask-4)"></path>
                <path d="M78.5906,127.5661 L80.1446,126.2661 C80.6046,125.8801 81.3096,126.1381 81.4136,126.7291 L81.7626,128.7251 L82.1116,130.7211 C82.2156,131.3131 81.6396,131.7941 81.0756,131.5881 L79.1726,130.8931 L77.2696,130.1971 C76.7056,129.9911 76.5766,129.2521 77.0366,128.8671 L78.5906,127.5661 Z" id="Fill-162" fill="#FFFFFF" mask="url(#mask-4)"></path>
                <path d="M258.1067,131.4425 L260.1217,131.2285 C260.7187,131.1655 261.1607,131.7725 260.9167,132.3205 L260.0937,134.1725 L259.2717,136.0245 C259.0287,136.5735 258.2827,136.6525 257.9287,136.1675 L256.7357,134.5285 L255.5437,132.8905 C255.1897,132.4055 255.4947,131.7195 256.0907,131.6565 L258.1067,131.4425 Z" id="Fill-163" fill="#FFFFFF" mask="url(#mask-4)"></path>
                <path d="M254.0618,196.1549 L253.8318,198.1679 C253.7628,198.7639 253.0748,199.0629 252.5918,198.7059 L250.9638,197.4999 L249.3348,196.2929 C248.8528,195.9359 248.9388,195.1899 249.4898,194.9509 L251.3478,194.1439 L253.2078,193.3379 C253.7578,193.0979 254.3608,193.5449 254.2918,194.1419 L254.0618,196.1549 Z" id="Fill-164" fill="#FFFFFF" mask="url(#mask-4)"></path>
                <path d="M259.6409,271.0504 L258.0509,272.3064 C257.5789,272.6784 256.8819,272.4014 256.7949,271.8064 L256.5029,269.8014 L256.2099,267.7974 C256.1229,267.2024 256.7119,266.7374 257.2699,266.9594 L259.1529,267.7084 L261.0359,268.4574 C261.5929,268.6794 261.7029,269.4224 261.2309,269.7944 L259.6409,271.0504 Z" id="Fill-165" fill="#FFFFFF" mask="url(#mask-4)"></path>
            </g>
        </g>
    </g>
</svg>