<?xml version="1.0" encoding="UTF-8"?>
<svg width="321px" height="236px" viewBox="0 0 321 236" version="1.1" xmlns="http://www.w3.org/2000/svg" xmlns:xlink="http://www.w3.org/1999/xlink">
    <!-- Generator: Sketch 53 (72520) - https://sketchapp.com -->
    <title>Experts</title>
    <desc>Created with Sketch.</desc>
    <defs>
        <polygon id="path-1" points="0 319 698.656 319 698.656 0.196 0 0.196"></polygon>
    </defs>
    <g id="Page-1" stroke="none" stroke-width="1" fill="none" fill-rule="evenodd">
        <g id="Experts" transform="translate(-374.000000, -44.000000)">
            <path d="M682.4819,182.6676 L647.3219,182.6676 L647.3219,182.6556 C639.1789,182.4196 634.2969,175.8066 634.2969,167.6766 C634.2969,159.5466 639.1789,152.9336 647.3219,152.6966 L647.3219,152.6856 L651.1589,152.6856 C657.9019,152.6856 663.3669,145.9156 663.3669,137.5656 L663.3669,137.5646 C663.3669,129.8756 658.7309,123.5306 652.7329,122.5736 L663.5899,122.5736 C670.3329,122.5736 675.7979,115.8056 675.7979,107.4546 L675.7979,107.4536 C675.7979,99.1036 670.3329,92.3336 663.5899,92.3336 L398.5239,92.3336 C391.7819,92.3336 386.3159,99.1036 386.3159,107.4536 L386.3159,107.4546 C386.3159,115.8056 391.7819,122.5736 398.5239,122.5736 L418.0419,122.5736 C424.0459,123.5246 428.6869,129.8706 428.6869,137.5656 C428.6869,145.2606 424.0459,151.6056 418.0419,152.5566 L404.5539,152.5566 C397.8119,152.5566 392.3459,159.3256 392.3459,167.6766 C392.3459,175.3666 396.9819,181.7106 402.9809,182.6676 L386.8959,182.6676 C380.1549,182.6676 374.6889,189.4366 374.6889,197.7866 C374.6889,206.1386 380.1549,212.9066 386.8959,212.9066 L414.6449,212.9066 C409.2389,214.4626 405.2079,220.4616 405.2079,227.6316 C405.2079,235.9816 410.6739,242.7516 417.4159,242.7516 L651.9619,242.7516 C658.7049,242.7516 664.1699,235.9816 664.1699,227.6316 C664.1699,220.4616 660.1399,214.4626 654.7329,212.9066 L682.4819,212.9066 C689.2239,212.9066 694.6889,206.1386 694.6889,197.7866 C694.6889,189.4366 689.2239,182.6676 682.4819,182.6676" id="Fill-2" fill-opacity="0.1" fill="#000000"></path>
            <polygon id="Fill-4" fill="#FFFFFF" points="451.11 208.03 619.49 208.03 619.49 111.6 451.11 111.6"></polygon>
            <g id="Group-398" transform="translate(0.000000, 0.804000)">
                <g id="Group-129" transform="translate(460.000000, 113.000000)" stroke="#CBCBCA">
                    <path d="M153.6245,1.1634 L0.7885,1.5354" id="Stroke-5" stroke-width="0.463"></path>
                    <path d="M153.6342,5.1927 L0.7992,5.5657" id="Stroke-7" stroke-width="0.463"></path>
                    <path d="M153.644,9.223 L0.809,9.596" id="Stroke-9" stroke-width="0.463"></path>
                    <path d="M153.6537,13.2533 L0.8187,13.6253" id="Stroke-11" stroke-width="0.463"></path>
                    <path d="M153.6733,21.3128 L0.8383,21.6858" id="Stroke-13" stroke-width="0.463"></path>
                    <path d="M153.6635,17.2826 L0.8285,17.6556" id="Stroke-15" stroke-width="0.463"></path>
                    <path d="M153.683,25.3431 L0.848,25.7151" id="Stroke-17" stroke-width="0.463"></path>
                    <path d="M153.6928,29.3724 L0.8578,29.7454" id="Stroke-19" stroke-width="0.463"></path>
                    <path d="M153.7026,33.4027 L0.8676,33.7757" id="Stroke-21" stroke-width="0.463"></path>
                    <path d="M153.7123,37.433 L0.8773,37.805" id="Stroke-23" stroke-width="0.463"></path>
                    <path d="M153.7221,41.4632 L0.8871,41.8352" id="Stroke-25" stroke-width="0.463"></path>
                    <path d="M153.7319,45.4925 L0.8969,45.8655" id="Stroke-27" stroke-width="0.463"></path>
                    <path d="M153.7416,49.5228 L0.9066,49.8958" id="Stroke-29" stroke-width="0.463"></path>
                    <path d="M153.7514,53.5531 L0.9164,53.9251" id="Stroke-31" stroke-width="0.463"></path>
                    <path d="M153.7612,57.5824 L0.9262,57.9554" id="Stroke-33" stroke-width="0.463"></path>
                    <path d="M153.8403,89.8226 L1.0053,90.1946" id="Stroke-35" stroke-width="0.463"></path>
                    <path d="M153.7719,61.6126 L0.9359,61.9856" id="Stroke-37" stroke-width="0.463"></path>
                    <path d="M153.7817,65.6429 L0.9457,66.0149" id="Stroke-39" stroke-width="0.463"></path>
                    <path d="M153.7914,69.6722 L0.9564,70.0452" id="Stroke-41" stroke-width="0.463"></path>
                    <path d="M153.8012,73.7025 L0.9662,74.0755" id="Stroke-43" stroke-width="0.463"></path>
                    <path d="M153.811,77.7328 L0.976,78.1048" id="Stroke-45" stroke-width="0.463"></path>
                    <path d="M153.8207,81.7621 L0.9857,82.1351" id="Stroke-47" stroke-width="0.463"></path>
                    <path d="M153.8305,85.7923 L0.9955,86.1653" id="Stroke-49" stroke-width="0.463"></path>
                    <path d="M89.6577,89.9789 L89.4417,1.3199" id="Stroke-51" stroke-width="0.353"></path>
                    <path d="M85.6274,89.9886 L85.4114,1.3296" id="Stroke-53" stroke-width="0.353"></path>
                    <path d="M81.5981,89.9984 L81.3811,1.3394" id="Stroke-55" stroke-width="0.353"></path>
                    <path d="M77.5678,90.0081 L77.3518,1.3491" id="Stroke-57" stroke-width="0.353"></path>
                    <path d="M69.5078,90.0277 L69.2918,1.3687" id="Stroke-59" stroke-width="0.353"></path>
                    <path d="M73.538,90.0179 L73.322,1.3589" id="Stroke-61" stroke-width="0.353"></path>
                    <path d="M65.478,90.0374 L65.262,1.3784" id="Stroke-63" stroke-width="0.353"></path>
                    <path d="M61.4482,90.0472 L61.2322,1.3882" id="Stroke-65" stroke-width="0.353"></path>
                    <path d="M57.4179,90.057 L57.2019,1.398" id="Stroke-67" stroke-width="0.353"></path>
                    <path d="M53.3881,90.0677 L53.1721,1.4087" id="Stroke-69" stroke-width="0.353"></path>
                    <path d="M49.3583,90.0775 L49.1423,1.4185" id="Stroke-71" stroke-width="0.353"></path>
                    <path d="M45.328,90.0872 L45.112,1.4282" id="Stroke-73" stroke-width="0.353"></path>
                    <path d="M41.2982,90.097 L41.0822,1.438" id="Stroke-75" stroke-width="0.353"></path>
                    <path d="M37.2685,90.1068 L37.0525,1.4478" id="Stroke-77" stroke-width="0.353"></path>
                    <path d="M33.2382,90.1165 L33.0222,1.4575" id="Stroke-79" stroke-width="0.353"></path>
                    <path d="M0.9984,90.1947 L0.7824,1.5357" id="Stroke-81" stroke-width="0.353"></path>
                    <path d="M29.2084,90.1263 L28.9924,1.4673" id="Stroke-83" stroke-width="0.353"></path>
                    <path d="M25.1781,90.1361 L24.9621,1.4771" id="Stroke-85" stroke-width="0.353"></path>
                    <path d="M21.1483,90.1458 L20.9323,1.4868" id="Stroke-87" stroke-width="0.353"></path>
                    <path d="M17.1186,90.1556 L16.9026,1.4966" id="Stroke-89" stroke-width="0.353"></path>
                    <path d="M13.0883,90.1654 L12.8723,1.5064" id="Stroke-91" stroke-width="0.353"></path>
                    <path d="M9.0585,90.1751 L8.8425,1.5161" id="Stroke-93" stroke-width="0.353"></path>
                    <path d="M5.0287,90.1849 L4.8127,1.5259" id="Stroke-95" stroke-width="0.353"></path>
                    <path d="M153.8403,89.8226 L153.6243,1.1636" id="Stroke-97" stroke-width="0.353"></path>
                    <path d="M149.81,89.8324 L149.594,1.1734" id="Stroke-99" stroke-width="0.353"></path>
                    <path d="M145.7807,89.8421 L145.5637,1.1831" id="Stroke-101" stroke-width="0.353"></path>
                    <path d="M141.7504,89.8519 L141.5344,1.1929" id="Stroke-103" stroke-width="0.353"></path>
                    <path d="M137.7202,89.8617 L137.5042,1.2027" id="Stroke-105" stroke-width="0.353"></path>
                    <path d="M133.6909,89.8714 L133.4739,1.2124" id="Stroke-107" stroke-width="0.353"></path>
                    <path d="M129.6606,89.8812 L129.4446,1.2222" id="Stroke-109" stroke-width="0.353"></path>
                    <path d="M125.6303,89.891 L125.4143,1.232" id="Stroke-111" stroke-width="0.353"></path>
                    <path d="M93.3911,89.9701 L93.1741,1.3111" id="Stroke-113" stroke-width="0.353"></path>
                    <path d="M121.601,89.9007 L121.384,1.2417" id="Stroke-115" stroke-width="0.353"></path>
                    <path d="M117.5707,89.9105 L117.3537,1.2515" id="Stroke-117" stroke-width="0.353"></path>
                    <path d="M113.5405,89.9203 L113.3245,1.2613" id="Stroke-119" stroke-width="0.353"></path>
                    <path d="M109.5102,89.93 L109.2942,1.271" id="Stroke-121" stroke-width="0.353"></path>
                    <path d="M105.4809,89.9398 L105.2639,1.2808" id="Stroke-123" stroke-width="0.353"></path>
                    <path d="M101.4506,89.9505 L101.2346,1.2915" id="Stroke-125" stroke-width="0.353"></path>
                    <path d="M97.4203,89.9603 L97.2043,1.3013" id="Stroke-127" stroke-width="0.353"></path>
                </g>
                <path d="M675.1645,226.1175 L575.6875,226.1175 L575.6875,251.9355 L675.1645,251.9355 C676.0735,251.9355 676.8105,251.1995 676.8105,250.2905 L676.8105,227.7635 C676.8105,226.8535 676.0735,226.1175 675.1645,226.1175" id="Fill-130" fill="#FFFFFF"></path>
                <path d="M573.0834,226.1175 C572.1754,226.1175 571.4384,226.8535 571.4384,227.7635 L571.4384,250.2905 C571.4384,251.1995 572.1754,251.9355 573.0834,251.9355 L575.6874,251.9355 L575.6874,226.1175 L573.0834,226.1175 Z" id="Fill-132" fill="#F6B10C"></path>
                <path d="M599.8686,202.9476 C599.8686,202.9476 600.1476,203.2366 600.0846,203.6276 L608.0696,195.7956 L600.2006,188.4166 L599.8686,202.9476 Z" id="Fill-134" fill="#BEBFB9"></path>
                <path d="M592.0395,196.2865 C592.0395,196.2865 598.6075,202.7865 599.1805,203.9845 L607.4875,195.9735 C607.4875,195.9735 601.3665,189.6255 600.2005,188.4165 L592.0395,196.2865 Z" id="Fill-136" fill="#ED74A5"></path>
                <path d="M456.4159,121.6117 C455.4309,118.3747 457.2569,114.9507 460.4949,113.9657 C463.7329,112.9797 467.1569,114.8057 468.1419,118.0447 C469.1269,121.2827 467.3009,124.7057 464.0629,125.6907 C460.8249,126.6757 457.4009,124.8497 456.4159,121.6117 M464.6479,126.3717 C468.3169,125.2547 470.3869,121.3757 469.2699,117.7057 C468.1539,114.0367 464.2739,111.9667 460.6049,113.0837 C456.9359,114.1997 454.8659,118.0797 455.9819,121.7487 C457.0989,125.4187 460.9779,127.4877 464.6479,126.3717" id="Fill-138" fill="#EDD299"></path>
                <path d="M461.995,115.5462 C465.38,115.5842 468.092,118.3592 468.054,121.7432 C468.016,125.1272 465.241,127.8402 461.857,127.8022 C458.473,127.7642 455.76,124.9892 455.798,121.6052 C455.836,118.2212 458.611,115.5082 461.995,115.5462 M454.973,121.9572 C454.93,125.7922 458.004,128.9372 461.839,128.9802 C465.674,129.0232 468.818,125.9492 468.861,122.1142 C468.905,118.2782 465.831,115.1352 461.995,115.0922 C458.161,115.0482 455.016,118.1222 454.973,121.9572" id="Fill-140" fill="#EDD299"></path>
                <path d="M442.9164,93.7787 C446.9894,91.1767 452.4014,92.3707 455.0034,96.4437 C457.6054,100.5177 456.4124,105.9287 452.3384,108.5307 C448.2644,111.1327 442.8534,109.9397 440.2514,105.8667 C437.6494,101.7927 438.8424,96.3817 442.9164,93.7787" id="Fill-142" fill="#CBCBCA"></path>
                <path d="M439.7338,85.4095 L443.5718,91.4185 L440.9008,93.1245 L437.0638,87.1145 C436.8608,86.7995 436.9538,86.3795 437.2698,86.1775 L438.7968,85.2025 C439.1118,85.0005 439.5318,85.0935 439.7338,85.4095" id="Fill-144" fill="#F5F5F5"></path>
                <polygon id="Fill-146" fill="#CBCBCA" points="442.3534 89.5111 443.6114 91.4801 440.9404 93.1861 439.6834 91.2161"></polygon>
                <path d="M441.4652,91.0628 C445.5392,88.4608 450.9502,89.6548 453.5522,93.7278 C456.1542,97.8018 454.9612,103.2128 450.8872,105.8158 C446.8142,108.4168 441.4022,107.2238 438.8002,103.1508 C436.1982,99.0768 437.3912,93.6658 441.4652,91.0628" id="Fill-148" fill="#F5F5F5"></path>
                <path d="M442.6024,92.8431 C445.6924,90.8691 449.7984,91.7751 451.7724,94.8651 C453.7464,97.9551 452.8414,102.0611 449.7504,104.0351 C446.6604,106.0091 442.5544,105.1041 440.5804,102.0131 C438.6064,98.9231 439.5114,94.8181 442.6024,92.8431" id="Fill-150" fill="#EDD299"></path>
                <path d="M443.2035,93.4173 C446.1305,91.5483 450.0185,92.4053 451.8885,95.3323 C453.7575,98.2593 452.9005,102.1473 449.9735,104.0173 C447.0465,105.8863 443.1585,105.0283 441.2885,102.1023 C439.4195,99.1753 440.2765,95.2863 443.2035,93.4173" id="Fill-152" fill="#D0AF79"></path>
                <path d="M440.2387,96.5472 C440.4427,96.4462 440.6837,96.5262 440.7767,96.7242 C440.8697,96.9222 440.7807,97.1632 440.5767,97.2642 C440.3727,97.3642 440.1317,97.2852 440.0387,97.0872 C439.9457,96.8902 440.0347,96.6482 440.2387,96.5472" id="Fill-154" fill="#EDD299"></path>
                <path d="M440.2631,96.5999 C440.4371,96.5139 440.6431,96.5809 440.7221,96.7499 C440.8031,96.9189 440.7261,97.1259 440.5521,97.2119 C440.3771,97.2969 440.1721,97.2299 440.0921,97.0609 C440.0131,96.8919 440.0891,96.6859 440.2631,96.5999" id="Fill-156" fill="#D0AF79"></path>
                <path d="M440.578,95.5062 C440.888,95.3542 441.253,95.4742 441.394,95.7752 C441.536,96.0742 441.4,96.4422 441.09,96.5942 C440.781,96.7462 440.415,96.6262 440.274,96.3262 C440.132,96.0262 440.268,95.6582 440.578,95.5062" id="Fill-158" fill="#EDD299"></path>
                <path d="M440.6151,95.5863 C440.8801,95.4553 441.1921,95.5583 441.3131,95.8153 C441.4331,96.0703 441.3171,96.3843 441.0531,96.5153 C440.7881,96.6453 440.4761,96.5423 440.3551,96.2863 C440.2351,96.0293 440.3511,95.7163 440.6151,95.5863" id="Fill-160" fill="#D0AF79"></path>
                <path d="M441.6972,93.8871 C441.9582,93.7581 442.2662,93.8601 442.3852,94.1131 C442.5052,94.3661 442.3902,94.6751 442.1292,94.8041 C441.8682,94.9331 441.5602,94.8311 441.4412,94.5781 C441.3222,94.3251 441.4362,94.0161 441.6972,93.8871" id="Fill-162" fill="#EDD299"></path>
                <path d="M441.7289,93.9544 C441.9519,93.8444 442.2149,93.9314 442.3169,94.1464 C442.4189,94.3624 442.3209,94.6274 442.0979,94.7364 C441.8749,94.8474 441.6119,94.7604 441.5099,94.5444 C441.4079,94.3284 441.5059,94.0634 441.7289,93.9544" id="Fill-164" fill="#D0AF79"></path>
                <path d="M442.4135,93.3871 C442.6315,93.2801 442.8885,93.3641 442.9875,93.5751 C443.0875,93.7861 442.9915,94.0441 442.7735,94.1521 C442.5565,94.2591 442.2995,94.1751 442.1995,93.9631 C442.1005,93.7521 442.1955,93.4941 442.4135,93.3871" id="Fill-166" fill="#EDD299"></path>
                <path d="M442.4398,93.4427 C442.6258,93.3507 442.8448,93.4227 442.9308,93.6037 C443.0158,93.7837 442.9338,94.0047 442.7478,94.0957 C442.5618,94.1877 442.3418,94.1157 442.2568,93.9347 C442.1718,93.7547 442.2538,93.5347 442.4398,93.4427" id="Fill-168" fill="#D0AF79"></path>
                <path d="M441.0292,94.6078 C441.3312,94.4598 441.6872,94.5758 441.8242,94.8688 C441.9632,95.1618 441.8302,95.5188 441.5292,95.6678 C441.2272,95.8158 440.8712,95.6988 440.7332,95.4068 C440.5952,95.1138 440.7272,94.7558 441.0292,94.6078" id="Fill-170" fill="#EDD299"></path>
                <path d="M441.0658,94.6849 C441.3228,94.5579 441.6278,94.6579 441.7448,94.9079 C441.8628,95.1579 441.7498,95.4629 441.4918,95.5899 C441.2348,95.7159 440.9308,95.6169 440.8128,95.3669 C440.6948,95.1179 440.8078,94.8119 441.0658,94.6849" id="Fill-172" fill="#D0AF79"></path>
                <path d="M540.394,214.7132 C541.573,215.5162 542.659,216.1722 543.707,216.9902 C545.356,218.2772 546.982,219.6692 548.614,221.0292 C548.794,221.1802 548.983,221.3882 549.117,221.6092 C549.469,222.1922 549.804,222.2032 550.115,222.0582 C550.64,221.8112 550.727,220.3552 550.277,219.5562 C550.204,219.4272 550.083,219.3142 549.977,219.2262 C548.135,217.7132 546.29,216.2152 544.451,214.6932 C542.847,213.3682 541.228,212.1722 539.547,211.3912 C537.826,210.5912 537.03,211.1202 537.077,213.2452 C537.103,214.4442 537.342,215.7352 537.452,216.9742 C537.625,218.9572 537.784,220.9352 537.923,222.9052 C538.067,224.9402 538.268,226.9772 539.136,229.1152 C539.255,229.4092 539.396,229.6972 539.566,230.0762 C540.17,229.6282 540.595,229.0942 540.497,228.0352 C540.26,225.5022 539.998,222.9592 539.766,220.4282 C539.725,219.9742 539.783,219.5522 539.93,219.1422 C540.37,220.3402 540.787,221.5432 541.253,222.7342 C543.879,229.4362 547.224,235.5672 552.092,240.4182 C555.117,243.4332 558.245,245.5732 561.47,245.8622 C562.374,245.9432 563.229,245.7812 564.079,245.6522 C564.596,245.5742 564.73,243.8522 564.292,243.1892 C564.163,242.9922 563.909,242.7822 563.754,242.7682 C563.297,242.7272 562.795,242.6462 562.429,242.8212 C561.422,243.3042 560.289,243.1902 559.048,242.6312 C554.129,240.4172 549.942,236.3792 546.56,230.3642 C543.888,225.6112 541.968,220.6492 540.569,215.5442 C540.514,215.3462 540.485,215.1492 540.394,214.7132" id="Fill-174" fill="#FFFFFF"></path>
                <path d="M598.0942,238.6429 C598.0942,243.7139 593.9832,247.8269 588.9102,247.8269 C583.8382,247.8269 579.7272,243.7139 579.7272,238.6429 C579.7272,233.5709 583.8382,229.4589 588.9102,229.4589 C593.9832,229.4589 598.0942,233.5709 598.0942,238.6429" id="Fill-176" fill="#F6F6F6"></path>
                <path d="M592.6118,236.431 C592.6118,238.702 590.9358,240.543 588.8698,240.543 C586.8018,240.543 585.1268,238.702 585.1268,236.431 C585.1268,234.16 586.8018,232.318 588.8698,232.318 C590.9358,232.318 592.6118,234.16 592.6118,236.431" id="Fill-178" fill="#CCCCCC"></path>
                <path d="M591.7621,240.5433 C590.9121,240.1343 589.9241,241.0513 588.8691,241.0513 C587.8151,241.0513 586.8271,240.1333 585.9781,240.5423 C584.2651,241.3663 583.1141,242.9003 583.1141,244.6563 C583.1141,245.0983 583.1881,245.5233 583.3241,245.9293 C584.8711,247.1183 586.8081,247.8263 588.9101,247.8263 C590.9621,247.8263 592.8561,247.1533 594.3851,246.0163 C594.5391,245.5853 594.6241,245.1293 594.6241,244.6563 C594.6241,242.9003 593.4741,241.3673 591.7621,240.5433" id="Fill-180" fill="#CCCCCC"></path>
                <mask id="mask-2" fill="white">
                    <use xlink:href="#path-1"></use>
                </mask>
                <g id="Clip-183"></g>
                <polygon id="Fill-182" fill="#CCCCCC" mask="url(#mask-2)" points="600.911 234.984 672.724 234.984 672.724 232.977 600.911 232.977"></polygon>
                <polygon id="Fill-184" fill="#CCCCCC" mask="url(#mask-2)" points="600.911 240.064 672.724 240.064 672.724 238.056 600.911 238.056"></polygon>
                <polygon id="Fill-185" fill="#CCCCCC" mask="url(#mask-2)" points="600.911 245.143 643.329 245.143 643.329 243.136 600.911 243.136"></polygon>
                <path d="M494.4511,50.4749 L394.9741,50.4749 L394.9741,76.2929 L494.4511,76.2929 C495.3601,76.2929 496.0961,75.5569 496.0961,74.6479 L496.0961,52.1209 C496.0961,51.2109 495.3601,50.4749 494.4511,50.4749" id="Fill-186" fill="#FFFFFF" mask="url(#mask-2)"></path>
                <path d="M392.37,50.4749 C391.461,50.4749 390.725,51.2109 390.725,52.1209 L390.725,74.6479 C390.725,75.5569 391.461,76.2929 392.37,76.2929 L394.974,76.2929 L394.974,50.4749 L392.37,50.4749 Z" id="Fill-187" fill="#F6B10C" mask="url(#mask-2)"></path>
                <path d="M417.3803,63.0003 C417.3803,68.0713 413.2693,72.1843 408.1963,72.1843 C403.1253,72.1843 399.0133,68.0713 399.0133,63.0003 C399.0133,57.9283 403.1253,53.8163 408.1963,53.8163 C413.2693,53.8163 417.3803,57.9283 417.3803,63.0003" id="Fill-188" fill="#F6F6F6" mask="url(#mask-2)"></path>
                <path d="M411.8983,60.7884 C411.8983,63.0594 410.2223,64.9004 408.1553,64.9004 C406.0883,64.9004 404.4123,63.0594 404.4123,60.7884 C404.4123,58.5174 406.0883,56.6754 408.1553,56.6754 C410.2223,56.6754 411.8983,58.5174 411.8983,60.7884" id="Fill-189" fill="#CCCCCC" mask="url(#mask-2)"></path>
                <path d="M411.0482,64.9007 C410.1982,64.4917 409.2102,65.4087 408.1552,65.4087 C407.1012,65.4087 406.1132,64.4907 405.2642,64.8997 C403.5512,65.7237 402.4002,67.2577 402.4002,69.0137 C402.4002,69.4557 402.4742,69.8807 402.6102,70.2867 C404.1582,71.4747 406.0942,72.1837 408.1972,72.1837 C410.2482,72.1837 412.1422,71.5107 413.6712,70.3737 C413.8262,69.9427 413.9102,69.4867 413.9102,69.0137 C413.9102,67.2577 412.7602,65.7247 411.0482,64.9007" id="Fill-190" fill="#CCCCCC" mask="url(#mask-2)"></path>
                <polygon id="Fill-191" fill="#CCCCCC" mask="url(#mask-2)" points="420.196 59.341 492.01 59.341 492.01 57.334 420.196 57.334"></polygon>
                <polygon id="Fill-192" fill="#CCCCCC" mask="url(#mask-2)" points="420.196 64.421 492.01 64.421 492.01 62.413 420.196 62.413"></polygon>
                <polygon id="Fill-193" fill="#CCCCCC" mask="url(#mask-2)" points="420.197 69.5 462.615 69.5 462.615 67.493 420.197 67.493"></polygon>
                <path d="M525.4579,97.8275 C524.2279,96.8695 523.0869,96.0785 521.9989,95.1125 C520.2879,93.5945 518.6099,91.9625 516.9219,90.3645 C516.7349,90.1875 516.5429,89.9485 516.4129,89.6975 C516.0689,89.0375 515.7039,89.0015 515.3539,89.1395 C514.7639,89.3725 514.5679,90.9555 515.0049,91.8575 C515.0759,92.0045 515.1989,92.1365 515.3099,92.2395 C517.2149,94.0175 519.1259,95.7815 521.0289,97.5685 C522.6879,99.1265 524.3729,100.5435 526.1529,101.5125 C527.9769,102.5045 528.8829,101.9815 528.9779,99.6585 C529.0319,98.3475 528.8599,96.9215 528.8269,95.5625 C528.7739,93.3865 528.7369,91.2165 528.7209,89.0565 C528.7049,86.8255 528.6259,84.5885 527.8259,82.1925 C527.7159,81.8635 527.5829,81.5405 527.4229,81.1145 C526.7329,81.5615 526.2319,82.1155 526.2669,83.2775 C526.3489,86.0595 526.4599,88.8525 526.5379,91.6335 C526.5519,92.1315 526.4599,92.5875 526.2699,93.0245 C525.8739,91.6865 525.5019,90.3455 525.0749,89.0135 C522.6699,81.5155 519.4429,74.5915 514.4639,68.9605 C511.3699,65.4605 508.1039,62.9075 504.6029,62.3695 C503.6209,62.2185 502.6779,62.3365 501.7409,62.4175 C501.1699,62.4675 500.9059,64.3395 501.3369,65.0935 C501.4649,65.3155 501.7279,65.5625 501.8949,65.5895 C502.3919,65.6665 502.9349,65.7895 503.3469,65.6225 C504.4779,65.1655 505.7079,65.3685 507.0229,66.0635 C512.2399,68.8205 516.5319,73.5175 519.8079,80.3165 C522.3969,85.6895 524.1499,91.2395 525.3249,96.9085 C525.3709,97.1285 525.3889,97.3465 525.4579,97.8275" id="Fill-194" fill="#FFFFFF" mask="url(#mask-2)"></path>
                <path d="M631.9877,208.5345 L615.8047,202.7635 L625.0607,176.8075 L641.2437,182.5785 C641.7657,182.7645 642.0387,183.3395 641.8517,183.8615 L633.2707,207.9265 C633.0847,208.4485 632.5097,208.7215 631.9877,208.5345" id="Fill-195" fill="#F6C756" mask="url(#mask-2)"></path>
                <path d="M631.3998,207.0814 L617.3008,202.0544 L625.7898,178.2524 L639.8878,183.2794 C640.3548,183.4464 640.5988,183.9604 640.4318,184.4274 L632.5468,206.5364 C632.3808,207.0044 631.8678,207.2474 631.3998,207.0814" id="Fill-196" fill="#606967" mask="url(#mask-2)"></path>
                <path d="M631.0844,206.9691 L616.9864,201.9411 L625.4744,178.1401 L639.5724,183.1671 C640.0394,183.3341 640.2834,183.8481 640.1164,184.3151 L632.2324,206.4241 C632.0654,206.8921 631.5524,207.1351 631.0844,206.9691" id="Fill-197" fill="#CBCBCA" mask="url(#mask-2)"></path>
                <path d="M630.2963,206.6878 L616.1983,201.6608 L624.6863,177.8588 L638.7843,182.8858 C639.2513,183.0528 639.4953,183.5668 639.3283,184.0338 L631.4433,206.1438 C631.2773,206.6108 630.7643,206.8538 630.2963,206.6878" id="Fill-198" fill="#FFFFFF" mask="url(#mask-2)"></path>
                <path d="M608.9995,170.6956 L625.0695,176.7816 L615.8135,202.7376 L599.5195,197.2816 C598.9965,197.0946 598.7245,196.5206 598.9095,195.9986 L607.7165,171.3036 C607.9025,170.7816 608.4775,170.5086 608.9995,170.6956" id="Fill-199" fill="#F3B01B" mask="url(#mask-2)"></path>
                <path d="M609.4077,172.055 L623.3937,177.398 L614.9057,201.2 L600.6947,196.487 C600.2277,196.321 599.9837,195.807 600.1507,195.339 L608.2607,172.599 C608.4267,172.132 608.9407,171.888 609.4077,172.055" id="Fill-200" fill="#606967" mask="url(#mask-2)"></path>
                <path d="M609.7231,172.1673 L623.7091,177.5103 L615.2211,201.3123 L601.0101,196.5993 C600.5431,196.4333 600.2991,195.9193 600.4661,195.4513 L608.5761,172.7113 C608.7421,172.2443 609.2551,172.0013 609.7231,172.1673" id="Fill-201" fill="#CBCBCA" mask="url(#mask-2)"></path>
                <path d="M610.5112,172.4486 L624.4972,177.7916 L616.0092,201.5936 L601.7982,196.8806 C601.3312,196.7146 601.0872,196.2006 601.2542,195.7326 L609.3642,172.9926 C609.5302,172.5256 610.0432,172.2816 610.5112,172.4486" id="Fill-202" fill="#F5F5F5" mask="url(#mask-2)"></path>
                <path d="M628.3178,189.0501 L623.3278,187.2701 C623.1088,187.1931 622.9948,186.9491 623.0718,186.7311 C623.1498,186.5131 623.3928,186.3981 623.6108,186.4761 L628.6018,188.2551 C628.8198,188.3331 628.9348,188.5751 628.8568,188.7941 C628.7798,189.0131 628.5368,189.1281 628.3178,189.0501" id="Fill-203" fill="#CBCBCA" mask="url(#mask-2)"></path>
                <path d="M634.6235,191.2982 L629.6335,189.5192 C629.4145,189.4412 629.2995,189.1982 629.3775,188.9802 C629.4555,188.7612 629.6975,188.6462 629.9165,188.7242 L634.9065,190.5042 C635.1255,190.5812 635.2405,190.8242 635.1625,191.0422 C635.0845,191.2612 634.8425,191.3762 634.6235,191.2982" id="Fill-204" fill="#CBCBCA" mask="url(#mask-2)"></path>
                <path d="M633.6684,193.9779 L626.3034,191.3519 C626.0854,191.2739 625.9704,191.0319 626.0484,190.8129 C626.1254,190.5939 626.3684,190.4799 626.5874,190.5569 L633.9514,193.1839 C634.1704,193.2609 634.2844,193.5039 634.2074,193.7229 C634.1294,193.9409 633.8864,194.0559 633.6684,193.9779" id="Fill-205" fill="#CBCBCA" mask="url(#mask-2)"></path>
                <path d="M624.9731,190.8773 L622.4681,189.9843 C622.2491,189.9063 622.1341,189.6633 622.2121,189.4453 C622.2901,189.2273 622.5331,189.1113 622.7511,189.1903 L625.2561,190.0823 C625.4751,190.1603 625.5891,190.4033 625.5121,190.6213 C625.4341,190.8403 625.1911,190.9553 624.9731,190.8773" id="Fill-206" fill="#CBCBCA" mask="url(#mask-2)"></path>
                <polygon id="Fill-207" fill="#F5F5F5" mask="url(#mask-2)" points="615.8832 201.5472 616.1982 201.6602 624.6862 177.8592 624.3702 177.7462"></polygon>
                <path d="M626.4067,194.4095 L621.4167,192.6305 C621.1977,192.5525 621.0827,192.3085 621.1607,192.0915 C621.2387,191.8725 621.4807,191.7575 621.6997,191.8355 L626.6897,193.6145 C626.9087,193.6925 627.0237,193.9345 626.9457,194.1535 C626.8677,194.3725 626.6257,194.4875 626.4067,194.4095" id="Fill-208" fill="#CBCBCA" mask="url(#mask-2)"></path>
                <path d="M632.7123,196.6585 L627.7223,194.8785 C627.5033,194.8005 627.3883,194.5575 627.4663,194.3395 C627.5443,194.1205 627.7863,194.0065 628.0053,194.0835 L632.9953,195.8635 C633.2143,195.9415 633.3293,196.1835 633.2513,196.4025 C633.1733,196.6215 632.9313,196.7355 632.7123,196.6585" id="Fill-209" fill="#CBCBCA" mask="url(#mask-2)"></path>
                <path d="M620.1723,198.2279 L619.6533,198.0419 C619.4353,197.9639 619.3193,197.7219 619.3983,197.5029 C619.4763,197.2849 619.7183,197.1699 619.9373,197.2479 L620.4553,197.4329 C620.6743,197.5109 620.7893,197.7529 620.7113,197.9719 C620.6333,198.1909 620.3913,198.3049 620.1723,198.2279" id="Fill-210" fill="#CBCBCA" mask="url(#mask-2)"></path>
                <path d="M630.8012,202.0179 L621.8602,198.8299 C621.6422,198.7509 621.5272,198.5089 621.6052,198.2899 C621.6822,198.0719 621.9252,197.9559 622.1442,198.0349 L631.0842,201.2229 C631.3032,201.3009 631.4182,201.5429 631.3402,201.7619 C631.2622,201.9809 631.0202,202.0959 630.8012,202.0179" id="Fill-211" fill="#CBCBCA" mask="url(#mask-2)"></path>
                <path d="M627.8578,203.0931 L630.1288,203.9031 C630.3468,203.9811 630.4618,204.2231 630.3838,204.4421 C630.3068,204.6601 630.0638,204.7761 629.8448,204.6971 L627.5738,203.8881 C627.3558,203.8101 627.2408,203.5671 627.3188,203.3491 C627.3958,203.1301 627.6388,203.0151 627.8578,203.0931" id="Fill-212" fill="#CBCBCA" mask="url(#mask-2)"></path>
                <path d="M618.9809,199.9271 L626.5319,202.6201 C626.7499,202.6981 626.8649,202.9411 626.7869,203.1591 C626.7099,203.3771 626.4659,203.4921 626.2489,203.4141 L618.6979,200.7221 C618.4789,200.6441 618.3639,200.4021 618.4419,200.1831 C618.5199,199.9641 618.7619,199.8501 618.9809,199.9271" id="Fill-213" fill="#CBCBCA" mask="url(#mask-2)"></path>
                <path d="M627.9057,197.9652 L620.4607,195.3102 C620.2427,195.2322 620.1277,194.9892 620.2057,194.7712 C620.2827,194.5522 620.5257,194.4372 620.7447,194.5152 L628.1897,197.1702 C628.4077,197.2482 628.5227,197.4902 628.4447,197.7092 C628.3677,197.9282 628.1247,198.0422 627.9057,197.9652" id="Fill-214" fill="#CBCBCA" mask="url(#mask-2)"></path>
                <path d="M610.6752,196.5062 L615.7002,198.1832 C615.9212,198.2562 616.0412,198.4962 615.9672,198.7162 C615.8942,198.9362 615.6542,199.0562 615.4342,198.9832 L610.4072,197.3072 C610.1882,197.2342 610.0682,196.9932 610.1412,196.7732 C610.2142,196.5532 610.4542,196.4332 610.6752,196.5062" id="Fill-215" fill="#CBCBCA" mask="url(#mask-2)"></path>
                <path d="M604.3246,194.388 L609.3496,196.065 C609.5706,196.138 609.6906,196.378 609.6176,196.598 C609.5436,196.819 609.3036,196.939 609.0836,196.865 L604.0566,195.189 C603.8376,195.116 603.7176,194.875 603.7906,194.655 C603.8636,194.435 604.1036,194.315 604.3246,194.388" id="Fill-216" fill="#CBCBCA" mask="url(#mask-2)"></path>
                <path d="M605.2241,191.6898 L612.6421,194.1638 C612.8621,194.2368 612.9821,194.4768 612.9091,194.6968 C612.8341,194.9168 612.5951,195.0368 612.3741,194.9628 L604.9571,192.4898 C604.7381,192.4168 604.6181,192.1758 604.6911,191.9568 C604.7641,191.7358 605.0041,191.6158 605.2241,191.6898" id="Fill-217" fill="#CBCBCA" mask="url(#mask-2)"></path>
                <path d="M613.9819,194.6097 L616.5039,195.4517 C616.7239,195.5247 616.8439,195.7647 616.7709,195.9847 C616.6979,196.2057 616.4579,196.3257 616.2379,196.2517 L613.7149,195.4107 C613.4949,195.3377 613.3749,195.0967 613.4489,194.8767 C613.5219,194.6567 613.7619,194.5367 613.9819,194.6097" id="Fill-218" fill="#CBCBCA" mask="url(#mask-2)"></path>
                <path d="M612.7309,190.681 L617.7209,192.46 C617.9399,192.538 618.0539,192.781 617.9769,192.999 C617.8989,193.218 617.6569,193.333 617.4379,193.255 L612.4469,191.475 C612.2289,191.398 612.1139,191.155 612.1919,190.936 C612.2689,190.718 612.5119,190.603 612.7309,190.681" id="Fill-219" fill="#CBCBCA" mask="url(#mask-2)"></path>
                <path d="M606.4252,188.432 L611.4152,190.211 C611.6342,190.289 611.7492,190.533 611.6712,190.75 C611.5932,190.969 611.3512,191.084 611.1322,191.006 L606.1422,189.227 C605.9232,189.149 605.8082,188.907 605.8862,188.688 C605.9642,188.469 606.2062,188.354 606.4252,188.432" id="Fill-220" fill="#CBCBCA" mask="url(#mask-2)"></path>
                <path d="M618.9653,186.8626 L619.4843,187.0486 C619.7023,187.1256 619.8183,187.3686 619.7393,187.5876 C619.6613,187.8046 619.4193,187.9206 619.2003,187.8416 L618.6823,187.6576 C618.4633,187.5796 618.3483,187.3376 618.4263,187.1186 C618.5043,186.8996 618.7463,186.7846 618.9653,186.8626" id="Fill-221" fill="#CBCBCA" mask="url(#mask-2)"></path>
                <path d="M608.3364,183.0726 L617.2764,186.2606 C617.4954,186.3386 617.6104,186.5816 617.5324,186.8006 C617.4544,187.0176 617.2124,187.1336 616.9934,187.0546 L608.0534,183.8676 C607.8344,183.7896 607.7194,183.5466 607.7974,183.3286 C607.8754,183.1096 608.1174,182.9946 608.3364,183.0726" id="Fill-222" fill="#CBCBCA" mask="url(#mask-2)"></path>
                <path d="M611.1362,181.6693 L608.8862,180.8013 C608.6692,180.7173 608.5612,180.4723 608.6442,180.2553 C608.7282,180.0393 608.9732,179.9303 609.1902,180.0143 L611.4402,180.8823 C611.6562,180.9653 611.7652,181.2113 611.6812,181.4273 C611.5982,181.6443 611.3522,181.7523 611.1362,181.6693" id="Fill-223" fill="#CBCBCA" mask="url(#mask-2)"></path>
                <path d="M619.9282,185.0619 L612.4492,182.1759 C612.2332,182.0919 612.1242,181.8469 612.2072,181.6299 C612.2912,181.4149 612.5362,181.3049 612.7532,181.3889 L620.2322,184.2749 C620.4482,184.3589 620.5572,184.6039 620.4732,184.8209 C620.3902,185.0369 620.1442,185.1459 619.9282,185.0619" id="Fill-224" fill="#CBCBCA" mask="url(#mask-2)"></path>
                <path d="M611.2309,187.1253 L618.6759,189.7803 C618.8949,189.8583 619.0099,190.1013 618.9319,190.3193 C618.8539,190.5383 618.6119,190.6523 618.3929,190.5753 L610.9479,187.9203 C610.7289,187.8423 610.6149,187.6003 610.6919,187.3813 C610.7699,187.1623 611.0129,187.0473 611.2309,187.1253" id="Fill-225" fill="#CBCBCA" mask="url(#mask-2)"></path>
                <path d="M616.4594,179.7699 L621.4024,181.6769 C621.6194,181.7609 621.7284,182.0059 621.6444,182.2219 C621.5614,182.4389 621.3154,182.5479 621.0994,182.4639 L616.1554,180.5569 C615.9394,180.4729 615.8304,180.2279 615.9144,180.0109 C615.9974,179.7949 616.2434,179.6859 616.4594,179.7699" id="Fill-226" fill="#CBCBCA" mask="url(#mask-2)"></path>
                <path d="M610.2143,177.3597 L615.1573,179.2667 C615.3733,179.3507 615.4833,179.5957 615.3993,179.8127 C615.3153,180.0287 615.0693,180.1377 614.8533,180.0537 L609.9103,178.1467 C609.6933,178.0627 609.5853,177.8177 609.6683,177.6007 C609.7523,177.3847 609.9973,177.2757 610.2143,177.3597" id="Fill-227" fill="#CBCBCA" mask="url(#mask-2)"></path>
                <path d="M611.1176,175.0169 L618.4126,177.8319 C618.6296,177.9149 618.7376,178.1619 618.6536,178.3769 C618.5706,178.5939 618.3246,178.7029 618.1086,178.6199 L610.8136,175.8039 C610.5976,175.7209 610.4886,175.4759 610.5726,175.2589 C610.6556,175.0419 610.9016,174.9339 611.1176,175.0169" id="Fill-228" fill="#CBCBCA" mask="url(#mask-2)"></path>
                <path d="M619.7309,178.3412 L622.2109,179.2982 C622.4279,179.3822 622.5369,179.6272 622.4539,179.8442 C622.3699,180.0602 622.1249,180.1692 621.9079,180.0852 L619.4269,179.1282 C619.2099,179.0442 619.1019,178.7992 619.1849,178.5822 C619.2689,178.3662 619.5139,178.2572 619.7309,178.3412" id="Fill-229" fill="#CBCBCA" mask="url(#mask-2)"></path>
                <path d="M627.6557,182.014 C627.6007,182.167 627.4317,182.247 627.2787,182.193 C627.1247,182.138 627.0447,181.969 627.0987,181.816 C627.1537,181.662 627.3227,181.582 627.4767,181.637 C627.6307,181.692 627.7107,181.861 627.6557,182.014" id="Fill-231" fill="#FFFFFF" mask="url(#mask-2)"></path>
                <path d="M622.0424,211.6937 L621.6314,211.0907 C621.5744,211.0077 621.5964,210.8947 621.6794,210.8377 L635.3524,201.5097 L635.8654,202.2627 L622.0424,211.6937 Z" id="Fill-242" fill="#F5F5F5" mask="url(#mask-2)"></path>
                <path d="M622.5161,212.389 L622.0421,211.694 L635.8661,202.263 L636.4431,203.11 L622.7701,212.437 C622.6871,212.493 622.5731,212.472 622.5161,212.389" id="Fill-243" fill="#F3B01B" mask="url(#mask-2)"></path>
                <polygon id="Fill-244" fill="#F6C756" mask="url(#mask-2)" points="637.5366 200.6546 635.3516 201.5096 636.4426 203.1096 638.0006 201.3346"></polygon>
                <polygon id="Fill-245" fill="#30393F" mask="url(#mask-2)" points="639.1518 200.0218 637.5368 200.6548 638.0008 201.3338"></polygon>
                <path d="M621.6235,211.0794 L621.6025,211.0494 C621.5615,210.9884 621.5765,210.9074 621.6365,210.8664 L635.3525,201.5104 L635.4465,201.6484 L621.6235,211.0794 Z" id="Fill-246" fill="#F3B01B" mask="url(#mask-2)"></path>
                <path d="M657.519,54.5111 C668.549,63.1311 676.757,84.9571 672.393,90.0881 L671.177,91.5191 C664.667,99.1731 649.601,99.3451 643.502,94.5311 C637.404,89.7171 637.967,86.3471 636.804,84.8011 C635.641,83.2561 632.364,83.9511 626.554,79.8651 C620.746,75.7801 621.873,65.3621 628.383,57.7071 L628.629,53.3201 C632.993,48.1891 646.49,45.8921 657.519,54.5111" id="Fill-247" fill="#F3B01B" mask="url(#mask-2)"></path>
                <polygon id="Fill-248" fill="#F3B01B" mask="url(#mask-2)" points="634.3745 126.0667 629.8895 117.8207 628.3645 118.6497 632.8505 126.8957"></polygon>
                <path d="M668.8217,105.7337 C668.8217,105.7337 674.7647,91.4917 673.3937,85.1177 C672.0217,78.7437 661.8127,80.9577 660.4017,87.4327 C658.9907,93.9077 656.2007,100.1277 656.2007,100.1277 C656.0647,101.1287 655.4697,102.0087 654.5927,102.5077 L629.1327,116.9957 L634.4547,126.7807 L666.0767,109.5827 C667.5347,108.7897 668.5467,107.3707 668.8217,105.7337" id="Fill-249" fill="#F6C756" mask="url(#mask-2)"></path>
                <path d="M624.5121,130.2162 L620.9211,123.6342 C620.8631,123.5282 620.8171,123.4192 620.7751,123.3092 C620.3911,123.3302 620.0091,123.1382 619.8131,122.7782 L619.6911,122.5552 C619.4191,122.0562 619.6031,121.4312 620.1021,121.1582 L621.9441,120.1532 L621.9451,120.1532 L625.2991,118.3222 C626.5431,117.6442 628.1021,118.1022 628.7811,119.3462 L632.3711,125.9272 C633.0501,127.1712 632.5921,128.7302 631.3491,129.4082 L627.9931,131.2392 C626.7491,131.9182 625.1911,131.4602 624.5121,130.2162" id="Fill-250" fill="#6D4D33" mask="url(#mask-2)"></path>
                <path d="M624.5375,131.8695 C624.3655,131.5555 624.3665,131.1945 624.5035,130.8915 L624.0975,131.1125 C623.6025,131.3835 622.9825,131.2005 622.7135,130.7065 L622.6885,130.6605 C622.4195,130.1665 622.6005,129.5465 623.0955,129.2765 L623.5175,129.0465 L622.5915,129.5525 C622.0485,129.8485 621.3685,129.6475 621.0715,129.1045 L621.0375,129.0415 C620.7415,128.4985 620.9405,127.8185 621.4835,127.5225 L622.4105,127.0165 L621.1865,127.6845 C620.6265,127.9905 619.9245,127.7835 619.6185,127.2235 L619.6185,127.2235 C619.3115,126.6635 619.5185,125.9615 620.0795,125.6555 L621.3075,124.9845 L619.6935,125.8405 C619.1335,126.1455 618.4315,125.9395 618.1255,125.3795 C617.8195,124.8185 618.0255,124.1165 618.5865,123.8105 L622.1115,121.9125 C622.1335,121.9005 622.1555,121.8945 622.1775,121.8855 C622.2175,121.8595 622.2565,121.8335 622.2985,121.8105 L625.9525,119.8165 C627.1135,119.1825 628.5685,119.6105 629.2025,120.7715 L632.1795,126.2265 C632.7925,127.3505 632.4095,128.7475 631.3315,129.4105 C631.3235,129.4165 631.3185,129.4245 631.3105,129.4295 L626.0325,132.3085 C625.4985,132.6005 624.8285,132.4035 624.5375,131.8695" id="Fill-251" fill="#865A2D" mask="url(#mask-2)"></path>
                <polygon id="Fill-252" fill="#F3B01B" mask="url(#mask-2)" points="600.8051 96.4915 610.0831 99.6995 609.4911 101.4155 600.2111 98.2075"></polygon>
                <path d="M598.2973,107.3734 L605.7083,109.9364 C605.8273,109.9774 605.9483,110.0074 606.0693,110.0304 C606.1133,110.4314 606.3783,110.7904 606.7833,110.9314 L607.0353,111.0184 C607.5973,111.2114 608.2093,110.9134 608.4033,110.3524 L609.1213,108.2774 L610.4273,104.4994 C610.9113,103.0994 610.1693,101.5704 608.7693,101.0874 L601.3583,98.5234 C599.9563,98.0394 598.4293,98.7824 597.9443,100.1834 L596.6383,103.9614 C596.1533,105.3614 596.8973,106.8894 598.2973,107.3734" id="Fill-253" fill="#6D4D33" mask="url(#mask-2)"></path>
                <path d="M596.5873,107.6351 C596.9413,107.7571 597.3133,107.6941 597.6023,107.5001 L597.4443,107.9571 C597.2523,108.5141 597.5473,109.1211 598.1043,109.3141 L598.1543,109.3311 C598.7113,109.5251 599.3193,109.2291 599.5123,108.6721 L599.6763,108.1971 L599.3163,109.2391 C599.1043,109.8511 599.4283,110.5181 600.0393,110.7301 L600.1113,110.7541 C600.7233,110.9651 601.3893,110.6411 601.6013,110.0301 L601.9613,108.9871 L601.4843,110.3641 C601.2673,110.9951 601.6023,111.6841 602.2333,111.9031 C602.8633,112.1201 603.5523,111.7861 603.7703,111.1551 L604.2483,109.7731 L601.2703,118.3871 C601.0513,119.0181 601.3863,119.7061 602.0173,119.9241 C602.6483,120.1431 603.3363,119.8081 603.5543,119.1771 L607.2773,108.4101 C607.2853,108.3861 607.2883,108.3621 607.2953,108.3371 C607.3143,108.2911 607.3343,108.2471 607.3503,108.1991 L608.7743,104.0841 C609.2253,102.7771 608.5313,101.3511 607.2253,100.8991 L601.0823,98.7751 C599.8163,98.3371 598.4423,98.9741 597.9453,100.2001 C597.9413,100.2101 597.9333,100.2161 597.9303,100.2261 L595.8743,106.1691 C595.6663,106.7711 595.9853,107.4271 596.5873,107.6351" id="Fill-254" fill="#865A2D" mask="url(#mask-2)"></path>
                <path d="M627.7377,50.8968 C639.3767,47.1628 640.4347,59.3278 631.1067,62.2368 C624.8937,64.1748 616.5047,75.8468 615.0497,79.8088 C613.5927,83.7708 611.0647,100.3388 611.0647,100.3388 L600.0537,96.5318 C600.0537,96.5318 603.2407,73.9468 605.7757,69.1778 C608.3117,64.4108 616.0997,54.6318 627.7377,50.8968" id="Fill-255" fill="#F7C856" mask="url(#mask-2)"></path>
                <path d="M632.4213,63.3529 C637.4253,54.0509 649.0233,50.5679 658.3233,55.5719 C667.6253,60.5759 671.1093,72.1719 666.1063,81.4739 C661.1023,90.7759 649.5053,94.2589 640.2033,89.2549 C630.9013,84.2509 627.4173,72.6549 632.4213,63.3529" id="Fill-256" fill="#865A2D" mask="url(#mask-2)"></path>
                <path d="M660.3032,89.4789 C660.3032,89.4789 670.0612,80.2459 670.1662,75.7769 C670.2732,71.3079 673.4162,65.9379 664.0112,57.4399 C654.6072,48.9409 640.8972,50.7979 637.2202,54.9749 C633.5442,59.1529 630.4742,65.4659 632.1472,69.6249 C633.8202,73.7839 635.4292,79.8999 639.8802,83.5619 C639.8802,83.5619 637.4352,79.3489 637.5282,77.4089 C637.5282,77.4089 640.1702,83.1739 643.5952,85.5599 C643.5952,85.5599 642.4462,83.8559 642.4382,82.7649 C642.4382,82.7649 647.2332,88.3189 649.7982,89.8019 C649.7982,89.8019 648.8972,88.2309 648.9032,87.5099 C648.9032,87.5099 654.3462,91.5249 654.2472,92.1959 C654.2472,92.1959 654.5932,91.3309 655.5682,90.7989 C656.5432,90.2669 658.9932,90.7729 660.3032,89.4789" id="Fill-257" fill="#30393E" mask="url(#mask-2)"></path>
                <path d="M670.4164,61.5072 C673.4564,60.6592 674.0284,56.7792 673.6674,55.6152 C673.3064,54.4502 674.4844,51.8432 671.3434,50.8212 C668.2014,49.8002 667.1704,50.4032 667.0174,49.4582 C666.8644,48.5142 667.5884,45.5982 664.7324,44.9572 C661.8774,44.3162 659.4144,41.3362 656.1234,45.8852 C652.8314,50.4332 655.0094,52.4392 655.0094,52.4392 C655.0094,52.4392 651.8294,50.6762 651.7344,49.0112 C651.7344,49.0112 652.9214,53.1382 654.5124,53.6902 C656.1034,54.2412 658.1054,60.2612 659.9054,62.7132 C661.7054,65.1652 665.5174,61.6892 667.0374,61.2572 C668.5594,60.8242 668.7124,61.9822 670.4164,61.5072" id="Fill-258" fill="#30393E" mask="url(#mask-2)"></path>
                <path d="M656.2729,89.4173 C656.2729,89.4173 659.4359,90.0863 658.3069,91.9563 C657.1779,93.8273 654.3899,93.9583 655.8709,96.9043 C655.8709,96.9043 655.9669,95.7383 658.3119,94.9063 C660.6579,94.0743 662.6129,88.2403 661.1999,86.5843" id="Fill-259" fill="#30393E" mask="url(#mask-2)"></path>
                <polygon id="Fill-260" fill="#FFFFFF" mask="url(#mask-2)" points="503.1088 234.8177 494.5178 231.4227 495.1458 229.8347 503.7358 233.2287"></polygon>
                <path d="M487.3676,270.8949 L461.3496,278.6129 L458.0106,265.1059 L480.3826,259.2379 C481.3446,258.9859 482.1336,258.2989 482.5156,257.3819 L493.6216,230.7829 L503.8156,234.8099 L490.7986,267.7529 C490.1986,269.2719 488.9336,270.4309 487.3676,270.8949" id="Fill-261" fill="#359ACC" mask="url(#mask-2)"></path>
                <path d="M496.8388,235.5062 C496.5208,236.3112 495.6098,236.7052 494.8048,236.3872 C493.9998,236.0692 493.6048,235.1582 493.9228,234.3542 C494.2408,233.5482 495.1518,233.1532 495.9568,233.4722 C496.7618,233.7902 497.1568,234.7002 496.8388,235.5062" id="Fill-262" fill="#FFFFFF" mask="url(#mask-2)"></path>
                <path d="M505.9101,224.6908 L499.0481,221.9788 C498.9371,221.9348 498.8251,221.9028 498.7131,221.8758 C498.6871,221.4978 498.4531,221.1488 498.0771,221.0008 L497.8451,220.9088 C497.3251,220.7038 496.7371,220.9588 496.5321,221.4778 L495.7721,223.3988 L494.3901,226.8968 C493.8781,228.1938 494.5141,229.6608 495.8101,230.1718 L502.6721,232.8838 C503.9691,233.3968 505.4351,232.7608 505.9481,231.4638 L507.3301,227.9658 C507.8431,226.6698 507.2071,225.2028 505.9101,224.6908" id="Fill-263" fill="#F1B48B" mask="url(#mask-2)"></path>
                <path d="M507.5277,224.514 C507.1997,224.385 506.8487,224.43 506.5687,224.6 L506.7357,224.176 C506.9397,223.66 506.6867,223.077 506.1707,222.874 L506.1237,222.856 C505.6087,222.652 505.0247,222.905 504.8207,223.42 L504.6477,223.861 L504.6467,223.861 L505.0287,222.895 C505.2527,222.328 504.9747,221.689 504.4087,221.465 L504.3427,221.439 C503.7767,221.215 503.1367,221.493 502.9127,222.058 L502.5307,223.025 L503.0357,221.748 C503.2667,221.164 502.9797,220.503 502.3957,220.273 C501.8117,220.041 501.1507,220.328 500.9197,220.912 L500.4137,222.193 L503.5657,214.216 C503.7967,213.632 503.5097,212.971 502.9257,212.741 C502.3417,212.51 501.6807,212.796 501.4497,213.38 L497.5107,223.35 C497.5017,223.371 497.4987,223.395 497.4917,223.417 C497.4717,223.459 497.4507,223.5 497.4337,223.544 L495.9277,227.355 C495.4497,228.565 496.0437,229.934 497.2537,230.412 L502.9417,232.66 C504.1127,233.122 505.4307,232.579 505.9477,231.448 C505.9527,231.439 505.9597,231.433 505.9637,231.424 L508.1377,225.921 C508.3587,225.365 508.0847,224.735 507.5277,224.514" id="Fill-264" fill="#FBBE91" mask="url(#mask-2)"></path>
                <path d="M451.8036,275.6986 L422.5566,248.5526 C417.8606,244.1936 417.5876,236.8526 421.9466,232.1566 L423.1606,230.8476 C429.6636,223.8426 440.6146,223.4336 447.6206,229.9366 L468.5026,249.3186 C475.5086,255.8216 475.9166,266.7726 469.4136,273.7786 L468.1996,275.0876 C463.8406,279.7836 456.4996,280.0566 451.8036,275.6986" id="Fill-265" fill="#359ACC" mask="url(#mask-2)"></path>
                <path d="M462.3852,258.7386 C457.6532,266.6876 447.3732,269.2966 439.4242,264.5636 C431.4752,259.8326 428.8672,249.5516 433.5992,241.6026 C438.3312,233.6536 448.6112,231.0466 456.5602,235.7776 C464.5092,240.5096 467.1172,250.7906 462.3852,258.7386" id="Fill-266" fill="#FBBE91" mask="url(#mask-2)"></path>
                <path d="M438.9804,234.8187 C438.9804,234.8187 430.0914,242.5277 429.8294,246.4337 C429.5664,250.3397 426.6124,254.9197 434.5184,262.7137 C442.4244,270.5067 454.4924,269.4027 457.8674,265.8867 C461.2434,262.3717 464.1694,256.9637 462.8634,253.2607 C461.5584,249.5587 460.3814,244.1457 456.6264,240.7727 C456.6264,240.7727 458.6064,244.5507 458.4514,246.2467 C458.4514,246.2467 456.3574,241.0997 453.4514,238.8827 C453.4514,238.8827 454.3924,240.4187 454.3584,241.3727 C454.3584,241.3727 450.3744,236.3307 448.1854,234.9357 C448.1854,234.9357 448.9144,236.3437 448.8814,236.9747 C448.8814,236.9747 444.2704,233.2557 444.3824,232.6717 C444.3824,232.6717 444.0474,233.4157 443.1744,233.8437 C442.3004,234.2717 440.1764,233.7367 438.9804,234.8187" id="Fill-267" fill="#926F5C" mask="url(#mask-2)"></path>
                <polygon id="Fill-268" fill="#FFFFFF" mask="url(#mask-2)" points="451.8964 188.2601 457.1964 195.8251 458.5954 194.8451 453.2954 187.2801"></polygon>
                <path d="M420.4701,211.9613 L419.0161,239.0603 L432.9291,239.1663 L433.4321,216.0423 C433.4541,215.0493 433.9381,214.1213 434.7411,213.5363 L458.0281,196.5483 L451.7391,187.5693 L422.7271,207.8933 C421.3901,208.8303 420.5571,210.3303 420.4701,211.9613" id="Fill-269" fill="#359BCD" mask="url(#mask-2)"></path>
                <path d="M452.6855,194.5179 C451.9765,195.0139 451.8045,195.9919 452.3005,196.7009 C452.7975,197.4099 453.7745,197.5819 454.4835,197.0849 C455.1935,196.5879 455.3655,195.6119 454.8685,194.9029 C454.3725,194.1929 453.3945,194.0209 452.6855,194.5179" id="Fill-270" fill="#FFFFFF" mask="url(#mask-2)"></path>
                <path d="M461.4071,192.2581 L458.3261,194.4151" id="Fill-271" fill="#F1B48B" mask="url(#mask-2)"></path>
                <path d="M461.0785,183.1087 L465.3205,189.1457 C465.3885,189.2437 465.4465,189.3447 465.4995,189.4477 C465.8725,189.3837 466.2665,189.5297 466.4985,189.8607 L466.6425,190.0647 C466.9635,190.5227 466.8535,191.1537 466.3955,191.4757 L464.7055,192.6627 L464.7055,192.6637 L461.6285,194.8257 C460.4875,195.6267 458.9125,195.3517 458.1115,194.2107 L453.8705,188.1737 C453.0685,187.0327 453.3435,185.4587 454.4845,184.6567 L457.5615,182.4947 C458.7025,181.6927 460.2775,181.9677 461.0785,183.1087" id="Fill-272" fill="#F1B48B" mask="url(#mask-2)"></path>
                <path d="M460.871,181.4945 C461.074,181.7835 461.112,182.1355 461.013,182.4475 L461.385,182.1855 C461.839,181.8675 462.465,181.9765 462.784,182.4305 L462.812,182.4725 C463.131,182.9255 463.022,183.5515 462.568,183.8705 L462.181,184.1425 L463.031,183.5455 C463.529,183.1955 464.216,183.3155 464.566,183.8135 L464.607,183.8715 C464.956,184.3695 464.836,185.0575 464.339,185.4065 L463.489,186.0045 L464.611,185.2155 C465.125,184.8535 465.835,184.9775 466.196,185.4925 C466.557,186.0065 466.433,186.7155 465.919,187.0765 L464.793,187.8675 L466.275,186.8525 C466.789,186.4915 467.499,186.6155 467.86,187.1305 C468.221,187.6435 468.097,188.3525 467.583,188.7145 L464.347,190.9615 C464.328,190.9745 464.306,190.9835 464.286,190.9955 C464.249,191.0245 464.214,191.0555 464.176,191.0815 L460.824,193.4365 C459.759,194.1845 458.288,193.9285 457.54,192.8635 L454.025,187.8595 C453.301,186.8285 453.52,185.4215 454.5,184.6525 C454.507,184.6465 454.511,184.6385 454.519,184.6325 L459.36,181.2305 C459.85,180.8865 460.527,181.0045 460.871,181.4945" id="Fill-273" fill="#FBBE91" mask="url(#mask-2)"></path>
                <path d="M463.4281,165.7308 C463.4281,165.7308 462.7531,166.7858 463.6361,167.3568 C464.4511,167.8828 473.6271,174.0248 478.7531,176.1728 C478.8051,176.1958 478.8651,176.1758 478.8961,176.1278 L479.0761,175.8498 L463.4281,165.7308 Z" id="Fill-274" fill="#34A2AB" mask="url(#mask-2)"></path>
                <path d="M463.4281,165.7308 C463.4281,165.7308 464.1141,164.6818 464.9971,165.2528 C465.8111,165.7798 475.1771,171.6278 479.2391,175.4208 C479.2811,175.4598 479.2881,175.5228 479.2571,175.5708 L479.0761,175.8498 L463.4281,165.7308 Z" id="Fill-275" fill="#2D8C8C" mask="url(#mask-2)"></path>
                <path d="M479.0766,175.8499 L479.7186,176.2649 L479.6426,176.3819 C479.6426,176.3819 479.3756,176.3839 478.8986,176.1239 L479.0766,175.8499 Z" id="Fill-276" fill="#EB703C" mask="url(#mask-2)"></path>
                <path d="M479.0766,175.8499 L479.7186,176.2649 L479.7946,176.1469 C479.7946,176.1469 479.6866,175.9029 479.2546,175.5749 L479.0766,175.8499 Z" id="Fill-277" fill="#DD5143" mask="url(#mask-2)"></path>
                <path d="M479.7187,176.265 L479.9847,176.437 C479.9567,176.479 479.8137,176.447 479.6637,176.35" id="Fill-278" fill="#606866" mask="url(#mask-2)"></path>
                <path d="M479.7187,176.265 L479.9847,176.437 C480.0117,176.394 479.9237,176.277 479.7737,176.179" id="Fill-279" fill="#30393E" mask="url(#mask-2)"></path>
                <path d="M464.9501,169.2455 L466.7841,166.4085 L465.9131,165.8455 L464.0791,168.6825 C463.9731,168.8455 464.0201,169.0635 464.1841,169.1695 L464.4631,169.3495 C464.6261,169.4555 464.8451,169.4085 464.9501,169.2455" id="Fill-280" fill="#30393E" mask="url(#mask-2)"></path>
                <path d="M467.9467,170.1273 C468.1247,170.2123 468.1997,170.4253 468.1147,170.6033 C468.0297,170.7813 467.8177,170.8563 467.6387,170.7723 C467.4617,170.6873 467.3857,170.4743 467.4707,170.2963 C467.5547,170.1173 467.7687,170.0423 467.9467,170.1273" id="Fill-281" fill="#30393E" mask="url(#mask-2)"></path>
                <polygon id="Fill-282" fill="#30393E" mask="url(#mask-2)" points="467.8256 170.3812 467.6386 170.7722 464.6326 169.3392 464.8186 168.9472"></polygon>
                <path d="M456.7636,153.4124 C456.7636,153.4124 452.4446,159.7924 451.5496,160.4454 L459.3906,166.0254 C459.3906,166.0254 463.6546,160.0344 464.4666,158.8934 L456.7636,153.4124 Z" id="Fill-283" fill="#E5971A" mask="url(#mask-2)"></path>
                <path d="M456.5658,153.5169 C456.5658,153.5169 452.5208,160.0749 451.6548,160.7649 L459.7248,166.0079 C459.7248,166.0079 463.7308,159.8419 464.4938,158.6679 L456.5658,153.5169 Z" id="Fill-284" fill="#EA8F0C" mask="url(#mask-2)"></path>
                <path d="M456.5097,153.3568 C456.5097,153.3568 452.3997,159.8748 451.5277,160.5548 L459.5577,166.0028 C459.5577,166.0028 463.6117,159.7528 464.3857,158.5858 L456.5097,153.3568 Z" id="Fill-285" fill="#F48B0C" mask="url(#mask-2)"></path>
                <path d="M456.3393,153.3988 C456.3393,153.3988 452.4103,160.0268 451.5563,160.7328 L459.7183,165.8328 C459.7183,165.8328 463.6143,159.5958 464.3563,158.4088 L456.3393,153.3988 Z" id="Fill-286" fill="#FBAB19" mask="url(#mask-2)"></path>
                <path d="M614.2407,123.1136 C614.2407,123.1136 609.6377,129.9116 608.6847,130.6076 L617.0397,136.5526 C617.0397,136.5526 621.5827,130.1706 622.4477,128.9546 L614.2407,123.1136 Z" id="Fill-287" fill="#E5971A" mask="url(#mask-2)"></path>
                <path d="M614.0297,123.2249 C614.0297,123.2249 609.7187,130.2119 608.7967,130.9479 L617.3947,136.5349 C617.3947,136.5349 621.6637,129.9649 622.4767,128.7129 L614.0297,123.2249 Z" id="Fill-288" fill="#EA8F0C" mask="url(#mask-2)"></path>
                <path d="M613.9702,123.054 C613.9702,123.054 609.5902,129.998 608.6602,130.725 L617.2172,136.53 C617.2172,136.53 621.5362,129.868 622.3622,128.625 L613.9702,123.054 Z" id="Fill-289" fill="#F48B0C" mask="url(#mask-2)"></path>
                <path d="M613.7875,123.099 C613.7875,123.099 609.6005,130.161 608.6915,130.913 L617.3885,136.347 C617.3885,136.347 621.5395,129.703 622.3305,128.437 L613.7875,123.099 Z" id="Fill-290" fill="#FBAB19" mask="url(#mask-2)"></path>
                <path d="M479.5321,148.0658 C479.5321,148.0658 479.5321,148.4668 479.2161,148.7048 L490.4011,148.6098 L489.8581,137.8358 L479.5321,148.0658 Z" id="Fill-291" fill="#BEBFB9" mask="url(#mask-2)"></path>
                <path d="M478.5204,137.8353 C478.5204,137.8353 478.7364,147.0733 478.3164,148.3333 L489.8584,148.3333 L489.8584,137.8353 L478.5204,137.8353 Z" id="Fill-292" fill="#CDDE52" mask="url(#mask-2)"></path>
                <path d="M492.9154,148.0921 C492.9154,148.0921 492.8954,148.4911 492.5674,148.7111 L503.7434,149.1731 L503.7344,138.4341 L492.9154,148.0921 Z" id="Fill-293" fill="#BEBFB9" mask="url(#mask-2)"></path>
                <path d="M492.4106,137.8705 C492.4106,137.8705 492.1676,147.1085 491.6856,148.3465 L503.2126,148.9195 C503.2126,148.9195 503.6516,140.1115 503.7346,138.4335 L492.4106,137.8705 Z" id="Fill-294" fill="#C9D34A" mask="url(#mask-2)"></path>
                <path d="M479.2953,160.721 C479.2953,160.721 479.2953,161.119 478.9793,161.355 L490.1643,161.261 L489.6213,150.556 L479.2953,160.721 Z" id="Fill-295" fill="#BEBFB9" mask="url(#mask-2)"></path>
                <path d="M478.2831,150.556 C478.2831,150.556 478.4991,159.794 478.0791,161.054 L489.6211,161.054 L489.6211,150.556 L478.2831,150.556 Z" id="Fill-296" fill="#C9D34A" mask="url(#mask-2)"></path>
                <path d="M493.8295,161.0277 C493.8295,161.0277 493.8525,161.4287 493.5505,161.6827 L504.7115,160.9537 L503.5575,150.2277 L493.8295,161.0277 Z" id="Fill-297" fill="#BEBFB9" mask="url(#mask-2)"></path>
                <path d="M492.2382,150.8724 C492.2382,150.8724 492.9792,160.0834 492.6312,161.3644 L504.1542,160.7094 C504.1542,160.7094 503.6532,151.9044 503.5572,150.2274 L492.2382,150.8724 Z" id="Fill-298" fill="#CDDE52" mask="url(#mask-2)"></path>
                <path d="M479.4545,173.6078 C479.4545,173.6078 479.4385,174.0088 479.1125,174.2328 L490.2925,174.5938 L490.1895,163.8068 L479.4545,173.6078 Z" id="Fill-299" fill="#BEBFB9" mask="url(#mask-2)"></path>
                <path d="M478.8607,163.3451 C478.8607,163.3451 478.6997,172.5841 478.2287,173.8261 L489.7607,174.2961 C489.7607,174.2961 490.1207,165.4861 490.1897,163.8071 L478.8607,163.3451 Z" id="Fill-300" fill="#CDDE52" mask="url(#mask-2)"></path>
                <path d="M494.0663,174.1371 C494.0663,174.1371 494.0743,174.5381 493.7633,174.7821 L504.9443,174.4591 L504.1813,163.6991 L494.0663,174.1371 Z" id="Fill-301" fill="#BEBFB9" mask="url(#mask-2)"></path>
                <path d="M492.8461,163.93 C492.8461,163.93 493.2501,173.162 492.8561,174.43 L504.3961,174.195 C504.3961,174.195 504.2161,165.378 504.1811,163.699 L492.8461,163.93 Z" id="Fill-302" fill="#CDDE52" mask="url(#mask-2)"></path>
                <path d="M512.0742,149.1878 C512.0742,149.1878 512.0742,149.5888 511.7582,149.8258 L522.9432,149.7308 L522.4002,138.9578 L512.0742,149.1878 Z" id="Fill-303" fill="#BEBFB9" mask="url(#mask-2)"></path>
                <path d="M511.0619,138.9574 C511.0619,138.9574 511.2779,148.1954 510.8579,149.4554 L522.3999,149.4554 L522.3999,138.9574 L511.0619,138.9574 Z" id="Fill-304" fill="#EE6E9F" mask="url(#mask-2)"></path>
                <path d="M539.9741,148.7337 C539.9741,148.7337 539.9541,149.1327 539.6261,149.3527 L550.8021,149.8147 L550.7931,139.0757 L539.9741,148.7337 Z" id="Fill-305" fill="#BEBFB9" mask="url(#mask-2)"></path>
                <path d="M539.4692,138.5121 C539.4692,138.5121 539.2262,147.7491 538.7442,148.9871 L550.2722,149.5611 C550.2722,149.5611 550.7102,140.7531 550.7932,139.0751 L539.4692,138.5121 Z" id="Fill-306" fill="#EE6E9F" mask="url(#mask-2)"></path>
                <path d="M511.8368,161.8421 C511.8368,161.8421 511.8368,162.2411 511.5208,162.4771 L522.7058,162.3821 L522.1628,151.6771 L511.8368,161.8421 Z" id="Fill-307" fill="#BEBFB9" mask="url(#mask-2)"></path>
                <path d="M510.8251,151.6771 C510.8251,151.6771 511.0411,160.9161 510.6211,162.1761 L522.1631,162.1761 L522.1631,151.6771 L510.8251,151.6771 Z" id="Fill-308" fill="#EE6E9F" mask="url(#mask-2)"></path>
                <path d="M526.3715,162.1497 C526.3715,162.1497 526.3945,162.5497 526.0925,162.8047 L537.2535,162.0747 L536.0995,151.3487 L526.3715,162.1497 Z" id="Fill-309" fill="#BEBFB9" mask="url(#mask-2)"></path>
                <path d="M524.7797,151.9935 C524.7797,151.9935 525.5207,161.2045 525.1727,162.4865 L536.6957,161.8305 C536.6957,161.8305 536.1947,153.0265 536.0987,151.3485 L524.7797,151.9935 Z" id="Fill-310" fill="#ED7AA9" mask="url(#mask-2)"></path>
                <path d="M511.9965,174.7289 C511.9965,174.7289 511.9795,175.1299 511.6545,175.3539 L522.8335,175.7149 L522.7305,164.9289 L511.9965,174.7289 Z" id="Fill-311" fill="#BEBFB9" mask="url(#mask-2)"></path>
                <path d="M511.4023,164.4662 C511.4023,164.4662 511.2413,173.7062 510.7703,174.9472 L522.3023,175.4182 C522.3023,175.4182 522.6623,166.6072 522.7313,164.9292 L511.4023,164.4662 Z" id="Fill-312" fill="#ED74A5" mask="url(#mask-2)"></path>
                <path d="M512.2851,188.1439 C512.2851,188.1439 512.2931,188.5449 511.9821,188.7889 L523.1621,188.4659 L522.4001,177.7059 L512.2851,188.1439 Z" id="Fill-313" fill="#BEBFB9" mask="url(#mask-2)"></path>
                <path d="M511.0644,177.9369 C511.0644,177.9369 511.4694,187.1689 511.0744,188.4369 L522.6144,188.2019 C522.6144,188.2019 522.4344,179.3849 522.3994,177.7059 L511.0644,177.9369 Z" id="Fill-314" fill="#EE6E9F" mask="url(#mask-2)"></path>
                <path d="M556.3969,148.8343 C556.3969,148.8343 556.3969,149.2353 556.0819,149.4733 L567.2659,149.3783 L566.7229,138.6043 L556.3969,148.8343 Z" id="Fill-315" fill="#BEBFB9" mask="url(#mask-2)"></path>
                <path d="M555.3852,138.6039 C555.3852,138.6039 555.6022,147.8419 555.1822,149.1019 L566.7232,149.1019 L566.7232,138.6039 L555.3852,138.6039 Z" id="Fill-316" fill="#FEED57" mask="url(#mask-2)"></path>
                <path d="M569.7807,148.8607 C569.7807,148.8607 569.7597,149.2597 569.4327,149.4797 L580.6087,149.9417 L580.5997,139.2027 L569.7807,148.8607 Z" id="Fill-317" fill="#BEBFB9" mask="url(#mask-2)"></path>
                <path d="M569.2758,138.639 C569.2758,138.639 569.0328,147.876 568.5498,149.114 L580.0778,149.688 C580.0778,149.688 580.5158,140.88 580.5998,139.202 L569.2758,138.639 Z" id="Fill-318" fill="#FCE856" mask="url(#mask-2)"></path>
                <path d="M556.1606,161.4886 C556.1606,161.4886 556.1606,161.8876 555.8446,162.1236 L567.0286,162.0296 L566.4866,151.3246 L556.1606,161.4886 Z" id="Fill-319" fill="#BEBFB9" mask="url(#mask-2)"></path>
                <path d="M555.1479,151.3246 C555.1479,151.3246 555.3649,160.5626 554.9449,161.8226 L566.4869,161.8226 L566.4869,151.3246 L555.1479,151.3246 Z" id="Fill-320" fill="#FCE856" mask="url(#mask-2)"></path>
                <path d="M570.6948,161.7962 C570.6948,161.7962 570.7168,162.1972 570.4158,162.4512 L581.5768,161.7222 L580.4228,150.9962 L570.6948,161.7962 Z" id="Fill-321" fill="#BEBFB9" mask="url(#mask-2)"></path>
                <path d="M569.103,151.64 C569.103,151.64 569.844,160.852 569.497,162.133 L581.019,161.478 C581.019,161.478 580.518,152.673 580.422,150.996 L569.103,151.64 Z" id="Fill-322" fill="#FEED57" mask="url(#mask-2)"></path>
                <path d="M556.3198,174.3763 C556.3198,174.3763 556.3028,174.7773 555.9778,175.0013 L567.1578,175.3623 L567.0538,164.5753 L556.3198,174.3763 Z" id="Fill-323" fill="#BEBFB9" mask="url(#mask-2)"></path>
                <path d="M555.726,164.1136 C555.726,164.1136 555.565,173.3526 555.094,174.5936 L566.626,175.0646 C566.626,175.0646 566.986,166.2546 567.054,164.5756 L555.726,164.1136 Z" id="Fill-324" fill="#FCE965" mask="url(#mask-2)"></path>
                <path d="M570.9311,174.9056 C570.9311,174.9056 570.9401,175.3066 570.6281,175.5506 L581.8091,175.2266 L581.0461,164.4676 L570.9311,174.9056 Z" id="Fill-325" fill="#BEBFB9" mask="url(#mask-2)"></path>
                <path d="M569.7114,164.6986 C569.7114,164.6986 570.1154,173.9296 569.7214,175.1986 L581.2614,174.9636 C581.2614,174.9636 581.0804,166.1456 581.0464,164.4676 L569.7114,164.6986 Z" id="Fill-326" fill="#FCE856" mask="url(#mask-2)"></path>
                <path d="M584.5932,161.9994 C584.5932,161.9994 584.6162,162.3994 584.3142,162.6544 L595.4762,161.9244 L594.3222,151.1984 L584.5932,161.9994 Z" id="Fill-327" fill="#BEBFB9" mask="url(#mask-2)"></path>
                <path d="M583.0014,151.8431 C583.0014,151.8431 583.7424,161.0541 583.3954,162.3361 L594.9184,161.6801 C594.9184,161.6801 594.4174,152.8761 594.3214,151.1981 L583.0014,151.8431 Z" id="Fill-328" fill="#FEED57" mask="url(#mask-2)"></path>
                <path d="M494.5478,187.0462 C494.5478,187.0462 494.5318,187.4462 494.2058,187.6712 L505.3858,188.0322 L505.2828,177.2452 L494.5478,187.0462 Z" id="Fill-329" fill="#BEBFB9" mask="url(#mask-2)"></path>
                <path d="M493.954,176.7835 C493.954,176.7835 493.793,186.0225 493.322,187.2635 L504.854,187.7345 C504.854,187.7345 505.214,178.9245 505.283,177.2455 L493.954,176.7835 Z" id="Fill-330" fill="#CDDE52" mask="url(#mask-2)"></path>
                <path d="M540.4067,162.4779 C540.4067,162.4779 540.4297,162.8779 540.1277,163.1329 L551.2897,162.4029 L550.1357,151.6769 L540.4067,162.4779 Z" id="Fill-331" fill="#BEBFB9" mask="url(#mask-2)"></path>
                <path d="M538.8149,152.3216 C538.8149,152.3216 539.5559,161.5326 539.2089,162.8146 L550.7319,162.1586 C550.7319,162.1586 550.2299,153.3546 550.1349,151.6766 L538.8149,152.3216 Z" id="Fill-332" fill="#ED7AA9" mask="url(#mask-2)"></path>
                <path d="M479.745,134.9574 C479.745,134.9574 479.745,135.3594 479.429,135.5964 L490.614,135.5014 L490.071,124.7274 L479.745,134.9574 Z" id="Fill-333" fill="#BEBFB9" mask="url(#mask-2)"></path>
                <path d="M478.7333,124.7269 C478.7333,124.7269 478.9493,133.9659 478.5293,135.2259 L490.0713,135.2259 L490.0713,124.7269 L478.7333,124.7269 Z" id="Fill-334" fill="#AADDF0" mask="url(#mask-2)"></path>
                <path d="M512.0273,135.4613 C512.0273,135.4613 512.0153,135.8623 511.6923,136.0893 L522.8753,136.3303 L522.6553,125.5453 L512.0273,135.4613 Z" id="Fill-335" fill="#BEBFB9" mask="url(#mask-2)"></path>
                <path d="M511.3227,125.2044 C511.3227,125.2044 511.2607,134.4454 510.8037,135.6914 L522.3407,136.0384 C522.3407,136.0384 522.6047,127.2244 522.6557,125.5454 L511.3227,125.2044 Z" id="Fill-336" fill="#AADDF0" mask="url(#mask-2)"></path>
                <path d="M526.0878,135.4818 C526.0878,135.4818 526.0888,135.8828 525.7748,136.1218 L536.9588,135.9798 L536.3708,125.2088 L526.0878,135.4818 Z" id="Fill-337" fill="#BEBFB9" mask="url(#mask-2)"></path>
                <path d="M525.0327,125.2562 C525.0327,125.2562 525.2877,134.4932 524.8727,135.7552 L536.4147,135.7062 C536.4147,135.7062 536.3777,126.8882 536.3707,125.2082 L525.0327,125.2562 Z" id="Fill-338" fill="#AADDF0" mask="url(#mask-2)"></path>
                <path d="M556.434,135.2982 C556.434,135.2982 556.435,135.6992 556.121,135.9382 L567.305,135.7972 L566.717,125.0252 L556.434,135.2982 Z" id="Fill-339" fill="#BEBFB9" mask="url(#mask-2)"></path>
                <path d="M555.3784,125.0726 C555.3784,125.0726 555.6334,134.3096 555.2194,135.5716 L566.7604,135.5226 C566.7604,135.5226 566.7244,126.7046 566.7174,125.0246 L555.3784,125.0726 Z" id="Fill-340" fill="#AADDF0" mask="url(#mask-2)"></path>
                <polygon id="Fill-341" fill="#B5B5B5" mask="url(#mask-2)" points="487.9486 140.3519 479.9906 140.7209 479.9566 140.0059 487.9156 139.6359"></polygon>
                <polygon id="Fill-342" fill="#B5B5B5" mask="url(#mask-2)" points="486.7904 142.3792 480.0814 142.6912 480.0484 141.9752 486.7574 141.6632"></polygon>
                <polygon id="Fill-343" fill="#B5B5B5" mask="url(#mask-2)" points="488.1293 144.2425 480.1703 144.6115 480.1383 143.9285 488.0973 143.5575"></polygon>
                <polygon id="Fill-344" fill="#B5B5B5" mask="url(#mask-2)" points="488.2182 146.1634 480.2602 146.5324 480.2282 145.8494 488.1862 145.4784"></polygon>
                <polygon id="Fill-345" fill="#B5B5B5" mask="url(#mask-2)" points="503.3695 180.2445 495.4185 179.7325 495.4645 179.0175 503.4155 179.5295"></polygon>
                <polygon id="Fill-346" fill="#B5B5B5" mask="url(#mask-2)" points="501.9945 182.1312 495.2925 181.7002 495.3385 180.9852 502.0405 181.4162"></polygon>
                <polygon id="Fill-347" fill="#B5B5B5" mask="url(#mask-2)" points="488.433 166.3509 480.473 166.0109 480.504 165.2949 488.464 165.6349"></polygon>
                <polygon id="Fill-348" fill="#B5B5B5" mask="url(#mask-2)" points="488.3998 168.3226 484.3128 168.1476 484.3438 167.4316 488.4308 167.6066"></polygon>
                <polygon id="Fill-349" fill="#B5B5B5" mask="url(#mask-2)" points="488.3168 170.2445 480.3068 169.9015 480.3368 169.2175 488.3458 169.5595"></polygon>
                <polygon id="Fill-350" fill="#B5B5B5" mask="url(#mask-2)" points="488.1845 172.1634 480.2245 171.8224 480.2535 171.1394 488.2135 171.4784"></polygon>
                <polygon id="Fill-351" fill="#B5B5B5" mask="url(#mask-2)" points="483.5507 168.1156 480.3887 167.9796 480.4197 167.2636 483.5817 167.3996"></polygon>
                <polygon id="Fill-352" fill="#B5B5B5" mask="url(#mask-2)" points="534.7387 154.0482 526.8007 154.7222 526.7397 154.0082 534.6777 153.3342"></polygon>
                <polygon id="Fill-353" fill="#B5B5B5" mask="url(#mask-2)" points="534.9565 156.0081 530.8805 156.3541 530.8205 155.6401 534.8955 155.2941"></polygon>
                <polygon id="Fill-354" fill="#B5B5B5" mask="url(#mask-2)" points="535.1181 157.9242 527.1301 158.6032 527.0721 157.9202 535.0601 157.2422"></polygon>
                <polygon id="Fill-355" fill="#B5B5B5" mask="url(#mask-2)" points="535.2309 159.8451 527.2929 160.5191 527.2339 159.8361 535.1729 159.1621"></polygon>
                <polygon id="Fill-356" fill="#B5B5B5" mask="url(#mask-2)" points="530.1205 156.4183 526.9675 156.6873 526.9065 155.9723 530.0595 155.7043"></polygon>
                <polygon id="Fill-357" fill="#B5B5B5" mask="url(#mask-2)" points="565.0668 154.0033 557.0998 153.8863 557.1108 153.1703 565.0768 153.2863"></polygon>
                <polygon id="Fill-358" fill="#B5B5B5" mask="url(#mask-2)" points="563.7866 155.9554 557.0716 155.8574 557.0816 155.1414 563.7976 155.2394"></polygon>
                <polygon id="Fill-359" fill="#B5B5B5" mask="url(#mask-2)" points="578.5678 141.4417 570.6008 141.3257 570.6118 140.6097 578.5778 140.7257"></polygon>
                <polygon id="Fill-360" fill="#B5B5B5" mask="url(#mask-2)" points="577.2875 143.3949 570.5725 143.2969 570.5825 142.5809 577.2985 142.6779"></polygon>
                <polygon id="Fill-361" fill="#B5B5B5" mask="url(#mask-2)" points="577.2875 145.3949 570.5725 145.2969 570.5825 144.5809 577.2985 144.6779"></polygon>
                <path d="M540.686,174.973 C540.686,174.973 540.694,175.374 540.382,175.618 L551.564,175.31 L550.816,164.548 L540.686,174.973 Z" id="Fill-362" fill="#BEBFB9" mask="url(#mask-2)"></path>
                <path d="M539.4799,164.764 C539.4799,164.764 539.8719,173.996 539.4759,175.264 L551.0149,175.044 C551.0149,175.044 550.8469,166.228 550.8159,164.548 L539.4799,164.764 Z" id="Fill-363" fill="#FBAB19" mask="url(#mask-2)"></path>
                <path d="M553.0971,214.1488 C553.0971,214.1488 553.3751,214.4378 553.3131,214.8278 L561.2981,206.9958 L553.4291,199.6178 L553.0971,214.1488 Z" id="Fill-364" fill="#AADDF0" mask="url(#mask-2)"></path>
                <path d="M545.267,207.4876 C545.267,207.4876 551.835,213.9876 552.408,215.1856 L560.716,207.1746 C560.716,207.1746 554.595,200.8266 553.429,199.6176 L545.267,207.4876 Z" id="Fill-365" fill="#AADDF0" mask="url(#mask-2)"></path>
                <path d="M501.6166,114.2923 C501.6166,114.2923 501.8956,114.5813 501.8326,114.9713 L509.8176,107.1393 L501.9486,99.7603 L501.6166,114.2923 Z" id="Fill-366" fill="#BEBFB9" mask="url(#mask-2)"></path>
                <path d="M493.787,107.6302 C493.787,107.6302 500.356,114.1302 500.928,115.3282 L509.236,107.3172 C509.236,107.3172 503.115,100.9692 501.949,99.7602 L493.787,107.6302 Z" id="Fill-367" fill="#FEED57" mask="url(#mask-2)"></path>
                <polygon id="Fill-368" fill="#8E8E8E" mask="url(#mask-2)" points="480.06 127.862 486.778 127.862 486.778 126.958 480.06 126.958"></polygon>
                <polygon id="Fill-369" fill="#8E8E8E" mask="url(#mask-2)" points="480.06 129.581 486.778 129.581 486.778 128.678 480.06 128.678"></polygon>
                <polygon id="Fill-370" fill="#8E8E8E" mask="url(#mask-2)" points="512.706 128.27 521.34 128.27 521.34 127.41 512.706 127.41"></polygon>
                <polygon id="Fill-371" fill="#8E8E8E" mask="url(#mask-2)" points="512.705 129.99 519.423 129.99 519.423 129.087 512.705 129.087"></polygon>
                <polygon id="Fill-372" fill="#8E8E8E" mask="url(#mask-2)" points="526.16 127.856 534.794 127.856 534.794 126.996 526.16 126.996"></polygon>
                <polygon id="Fill-373" fill="#8E8E8E" mask="url(#mask-2)" points="526.16 129.538 528.876 129.538 528.876 128.634 526.16 128.634"></polygon>
                <polygon id="Fill-374" fill="#8E8E8E" mask="url(#mask-2)" points="529.579 129.538 533.43 129.538 533.43 128.634 529.579 128.634"></polygon>
                <polygon id="Fill-375" fill="#8E8E8E" mask="url(#mask-2)" points="556.938 127.426 562.477 127.426 562.477 126.566 556.938 126.566"></polygon>
                <polygon id="Fill-376" fill="#8E8E8E" mask="url(#mask-2)" points="556.937 129.146 561.247 129.146 561.247 128.243 556.937 128.243"></polygon>
                <path d="M573.6899,165.6585 C577.8429,166.4255 579.3579,170.1165 578.1889,171.7295 C577.0199,173.3435 574.7879,173.8825 573.0789,172.5785 C571.3689,171.2745 571.5269,169.3715 572.8239,167.6705 C574.1209,165.9705 576.2449,165.1895 578.1149,166.6155" id="Stroke-377" stroke="#B5B5B5" stroke-width="0.75" stroke-linecap="round" mask="url(#mask-2)"></path>
                <polygon id="Fill-378" fill="#B5B5B5" mask="url(#mask-2)" points="577.0034 169.4095 573.6614 169.3605 573.6714 168.6435 577.0134 168.6925"></polygon>
                <polygon id="Fill-379" fill="#B5B5B5" mask="url(#mask-2)" points="576.4496 171.3734 573.6326 171.3314 573.6426 170.6154 576.4606 170.6564"></polygon>
                <path d="M577.8627,201.7308 C582.0197,203.1888 584.2077,207.7408 582.7507,211.8968 C581.2927,216.0538 576.7407,218.2428 572.5837,216.7848 C568.4257,215.3278 566.2387,210.7758 567.6957,206.6188 C569.1537,202.4608 573.7057,200.2728 577.8627,201.7308" id="Fill-380" fill="#CBCBCA" mask="url(#mask-2)"></path>
                <path d="M584.1811,198.2747 L579.8561,203.1247 L577.7011,201.2027 L582.0261,196.3527 C582.2531,196.0967 582.6441,196.0747 582.9001,196.3017 L584.1311,197.4007 C584.3861,197.6287 584.4091,198.0197 584.1811,198.2747" id="Fill-381" fill="#F5F5F5" mask="url(#mask-2)"></path>
                <polygon id="Fill-382" fill="#CBCBCA" mask="url(#mask-2)" points="581.4848 201.2826 580.0668 202.8726 577.9118 200.9506 579.3298 199.3606"></polygon>
                <path d="M577.5336,199.4017 C581.6906,200.8597 583.8796,205.4117 582.4216,209.5677 C580.9636,213.7247 576.4126,215.9137 572.2556,214.4557 C568.0976,212.9987 565.9096,208.4467 567.3676,204.2897 C568.8246,200.1317 573.3766,197.9437 577.5336,199.4017" id="Fill-383" fill="#F5F5F5" mask="url(#mask-2)"></path>
                <path d="M576.8969,201.2181 C580.0499,202.3241 581.7099,205.7781 580.6049,208.9311 C579.4999,212.0851 576.0449,213.7451 572.8919,212.6391 C569.7379,211.5331 568.0779,208.0801 569.1839,204.9261 C570.2899,201.7731 573.7429,200.1131 576.8969,201.2181" id="Fill-384" fill="#986E44" mask="url(#mask-2)"></path>
                <path d="M576.7885,202.1429 C579.6995,203.1359 581.2455,206.1979 580.2415,208.9819 C579.2375,211.7669 576.0635,213.2179 573.1535,212.2249 C570.2425,211.2329 568.6965,208.1699 569.7005,205.3859 C570.7045,202.6019 573.8785,201.1499 576.7885,202.1429" id="Fill-385" fill="#695046" mask="url(#mask-2)"></path>
                <path d="M571.8129,202.0257 C572.0849,202.1187 572.2309,202.4057 572.1359,202.6667 C572.0419,202.9267 571.7459,203.0627 571.4729,202.9697 C571.2009,202.8777 571.0549,202.5897 571.1499,202.3297 C571.2439,202.0687 571.5409,201.9327 571.8129,202.0257" id="Fill-386" fill="#986E44" mask="url(#mask-2)"></path>
                <path d="M571.7885,202.0951 C572.0205,202.1741 572.1445,202.4191 572.0645,202.6421 C571.9835,202.8651 571.7305,202.9811 571.4975,202.9011 C571.2655,202.8221 571.1415,202.5761 571.2215,202.3541 C571.3025,202.1311 571.5565,202.0151 571.7885,202.0951" id="Fill-387" fill="#695046" mask="url(#mask-2)"></path>
                <path d="M573.0502,201.3988 C573.4642,201.5398 573.6842,201.9748 573.5412,202.3708 C573.3992,202.7658 572.9472,202.9728 572.5332,202.8318 C572.1192,202.6898 571.9002,202.2548 572.0432,201.8598 C572.1862,201.4628 572.6372,201.2568 573.0502,201.3988" id="Fill-388" fill="#986E44" mask="url(#mask-2)"></path>
                <path d="M573.0131,201.5033 C573.3661,201.6233 573.5541,201.9953 573.4321,202.3333 C573.3101,202.6713 572.9251,202.8473 572.5721,202.7273 C572.2181,202.6063 572.0311,202.2343 572.1531,201.8973 C572.2741,201.5593 572.6591,201.3823 573.0131,201.5033" id="Fill-389" fill="#695046" mask="url(#mask-2)"></path>
                <path d="M575.5043,200.9535 C575.8543,201.0715 576.0383,201.4385 575.9183,201.7725 C575.7983,202.1055 575.4173,202.2795 575.0683,202.1615 C574.7203,202.0425 574.5343,201.6755 574.6553,201.3415 C574.7753,201.0085 575.1553,200.8345 575.5043,200.9535" id="Fill-390" fill="#986E44" mask="url(#mask-2)"></path>
                <path d="M575.4731,201.0414 C575.7711,201.1434 575.9291,201.4564 575.8271,201.7404 C575.7231,202.0254 575.3991,202.1744 575.1011,202.0724 C574.8031,201.9714 574.6451,201.6574 574.7471,201.3734 C574.8501,201.0884 575.1751,200.9394 575.4731,201.0414" id="Fill-391" fill="#695046" mask="url(#mask-2)"></path>
                <path d="M576.5942,201.1478 C576.8852,201.2478 577.0392,201.5528 576.9402,201.8318 C576.8392,202.1098 576.5222,202.2548 576.2312,202.1558 C575.9402,202.0558 575.7852,201.7508 575.8862,201.4718 C575.9862,201.1938 576.3032,201.0478 576.5942,201.1478" id="Fill-392" fill="#986E44" mask="url(#mask-2)"></path>
                <path d="M576.5678,201.221 C576.8158,201.306 576.9488,201.568 576.8628,201.805 C576.7768,202.043 576.5058,202.166 576.2568,202.082 C576.0088,201.997 575.8778,201.736 575.9628,201.498 C576.0478,201.26 576.3198,201.137 576.5678,201.221" id="Fill-393" fill="#695046" mask="url(#mask-2)"></path>
                <path d="M574.2612,200.9984 C574.6632,201.1364 574.8772,201.5604 574.7392,201.9454 C574.6002,202.3314 574.1602,202.5324 573.7572,202.3944 C573.3542,202.2574 573.1402,201.8334 573.2792,201.4474 C573.4182,201.0614 573.8582,200.8604 574.2612,200.9984" id="Fill-394" fill="#986E44" mask="url(#mask-2)"></path>
                <path d="M574.2241,201.1009 C574.5681,201.2179 574.7511,201.5799 574.6321,201.9099 C574.5131,202.2389 574.1381,202.4109 573.7941,202.2919 C573.4501,202.1749 573.2671,201.8129 573.3861,201.4839 C573.5041,201.1549 573.8791,200.9829 574.2241,201.1009" id="Fill-395" fill="#695046" mask="url(#mask-2)"></path>
                <path d="M462.3695,202.7777 C462.3695,202.7777 462.2255,203.1527 461.8455,203.2597 L472.3185,207.1867 L475.6795,196.9357 L462.3695,202.7777 Z" id="Fill-396" fill="#BEBFB9" mask="url(#mask-2)"></path>
                <path d="M465.0971,192.8665 C465.0971,192.8665 461.9831,201.5665 461.1391,202.5915 L471.9111,206.7345 C471.9111,206.7345 475.0761,198.5035 475.6801,196.9355 L465.0971,192.8665 Z" id="Fill-397" fill="#CDDE52" mask="url(#mask-2)"></path>
            </g>
            <g id="vr-cardboard-solid-copy" transform="translate(628.050687, 184.763081) rotate(21.000000) translate(-628.050687, -184.763081) translate(625.550687, 182.763081)" fill="#CCCCCC" fill-rule="nonzero">
                <path d="M4.6,0.210526316 L0.4,0.210526316 C0.27115625,0.210526316 0.166666667,0.34408443 0.166666667,0.50877193 L0.166666667,3.49122807 C0.166666667,3.65591557 0.27115625,3.78947368 0.4,3.78947368 L1.56827083,3.78947368 C1.75194792,3.78947368 1.91848958,3.65181469 1.9938125,3.43773026 L2.19608333,2.86323465 C2.25361458,2.69975877 2.37130208,2.59649123 2.5,2.59649123 C2.62869792,2.59649123 2.74638542,2.69975877 2.80391667,2.86323465 L3.0061875,3.43773026 C3.08151042,3.65181469 3.248125,3.78947368 3.43172917,3.78947368 L4.6,3.78947368 C4.72884375,3.78947368 4.83333333,3.65591557 4.83333333,3.49122807 L4.83333333,0.50877193 C4.83333333,0.34408443 4.72884375,0.210526316 4.6,0.210526316 Z M1.33333333,2.44736842 C1.07557292,2.44736842 0.866666667,2.18034539 0.866666667,1.85087719 C0.866666667,1.52140899 1.07557292,1.25438596 1.33333333,1.25438596 C1.59109375,1.25438596 1.8,1.52140899 1.8,1.85087719 C1.8,2.18034539 1.59109375,2.44736842 1.33333333,2.44736842 Z M3.66666667,2.44736842 C3.40890625,2.44736842 3.2,2.18034539 3.2,1.85087719 C3.2,1.52140899 3.40890625,1.25438596 3.66666667,1.25438596 C3.92442708,1.25438596 4.13333333,1.52140899 4.13333333,1.85087719 C4.13333333,2.18034539 3.92442708,2.44736842 3.66666667,2.44736842 Z" id="Shape" transform="translate(2.500000, 2.000000) rotate(-1.000000) translate(-2.500000, -2.000000) "></path>
            </g>
            <path d="M634.763081,187.550687 C635.315424,187.550687 635.763081,186.879203 635.763081,186.050687 C635.763081,185.222171 635.315424,184.550687 634.763081,184.550687 C634.210737,184.550687 633.763081,185.222171 633.763081,186.050687 C633.763081,186.879203 634.210737,187.550687 634.763081,187.550687 Z M635.563081,187.550687 L635.413974,187.550687 C635.215759,187.641758 634.995224,187.693544 634.763081,187.693544 C634.530938,187.693544 634.311295,187.641758 634.112188,187.550687 L633.963081,187.550687 C633.300581,187.550687 632.763081,188.088187 632.763081,188.750687 L632.763081,189.122116 C632.763081,189.358723 632.955045,189.550687 633.191652,189.550687 L636.334509,189.550687 C636.571116,189.550687 636.763081,189.358723 636.763081,189.122116 L636.763081,188.750687 C636.763081,188.088187 636.225581,187.550687 635.563081,187.550687 Z" id="Shape-Copy" fill="#CCCCCC" fill-rule="nonzero" transform="translate(634.763081, 187.050687) rotate(21.000000) translate(-634.763081, -187.050687) "></path>
        </g>
    </g>
</svg>