<?xml version="1.0" encoding="UTF-8"?>
<svg width="321px" height="254px" viewBox="0 0 321 254" version="1.1" xmlns="http://www.w3.org/2000/svg" xmlns:xlink="http://www.w3.org/1999/xlink">
    <!-- Generator: Sketch 53 (72520) - https://sketchapp.com -->
    <title>VrIdea</title>
    <desc>Created with Sketch.</desc>
    <defs>
        <polygon id="path-1" points="0.656 290 358.656 290 358.656 0 0.656 0"></polygon>
    </defs>
    <g id="Page-1" stroke="none" stroke-width="1" fill="none" fill-rule="evenodd">
        <g id="VrIdea" transform="translate(-35.000000, -21.000000)">
            <g id="Group-148">
                <g id="Group-147" transform="translate(0.000000, 0.947000)">
                    <path d="M294.3538,185.9209 L294.3538,185.9059 C283.8958,185.6029 275.5128,177.1089 275.5128,166.6679 C275.5128,156.2269 283.8958,147.7329 294.3538,147.4289 L294.3538,147.4149 L299.2808,147.4149 C307.9418,147.4149 314.9598,138.7209 314.9598,127.9959 C314.9598,118.1189 309.0068,109.9709 301.3028,108.7419 L315.2478,108.7419 C323.9058,108.7419 330.9268,100.0479 330.9268,89.3239 C330.9268,78.5979 323.9058,69.9039 315.2478,69.9039 L65.8008,69.9039 C57.1418,69.9039 50.1218,78.5979 50.1218,89.3229 C50.1218,100.0479 57.1418,108.7419 65.8008,108.7419 L90.8678,108.7419 C98.5778,109.9629 104.5398,118.1139 104.5398,127.9959 C104.5398,137.8779 98.5778,146.0279 90.8678,147.2489 L73.5438,147.2489 C64.8848,147.2489 57.8648,155.9429 57.8648,166.6679 C57.8648,176.5449 63.8198,184.6929 71.5238,185.9209 L50.8658,185.9209 C42.2078,185.9209 35.1888,194.6149 35.1888,205.3399 C35.1888,216.0649 42.2078,224.7589 50.8658,224.7589 L86.5048,224.7589 C79.5608,226.7559 74.3848,234.4609 74.3848,243.6699 C74.3848,254.3949 81.4048,263.0889 90.0638,263.0889 L300.3138,263.0889 C308.9728,263.0889 315.9918,254.3949 315.9918,243.6699 C315.9918,234.4609 310.8168,226.7559 303.8718,224.7589 L339.5098,224.7589 C348.1698,224.7589 355.1888,216.0649 355.1888,205.3399 C355.1888,194.6149 348.1698,185.9209 339.5098,185.9209 L294.3538,185.9209 Z" id="Fill-2" fill-opacity="0.1" fill="#000000"></path>
                    <path d="M103.9351,121.5747 L87.0781,20.6477 C87.5971,20.5747 88.1161,20.4977 88.6431,20.4427 C110.2971,18.1597 130.4161,32.6307 134.5541,53.4137 C136.8391,64.8917 132.4151,75.2027 127.7191,85.0527 C121.9631,97.1207 119.5751,104.1817 121.2741,114.3547 L121.9771,118.5617 L103.9351,121.5747 Z" id="Fill-4" fill="#F6B10C"></path>
                    <path d="M103.939,121.5835 L87.079,20.6385 C86.188,20.7875 85.296,20.9555 84.402,21.1605 C63.181,26.0385 48.856,46.2625 51.698,67.2625 C53.267,78.8605 60.802,87.1735 68.445,94.9625 C77.809,104.5045 82.363,110.4065 84.062,120.5805 L84.765,124.7865 L103.939,121.5835 Z" id="Fill-6" fill="#F7C856"></path>
                    <path d="M97.144,80.915 C100.229,80.4 101.869,74.823 100.806,68.459 C99.743,62.096 96.38,57.354 93.295,57.87" id="Stroke-8" stroke="#CCCCCC" stroke-width="1.989"></path>
                    <path d="M91.5571,81.8481 C94.6421,81.3331 96.2821,75.7561 95.2191,69.3921 C94.1561,63.0291 90.7931,58.2881 87.7081,58.8031" id="Stroke-10" stroke="#CCCCCC" stroke-width="1.989"></path>
                    <path d="M85.9702,82.7812 C89.0552,82.2662 90.6952,76.6892 89.6322,70.3252 C88.5692,63.9622 85.2062,59.2212 82.1212,59.7362" id="Stroke-12" stroke="#CCCCCC" stroke-width="1.989"></path>
                    <path d="M108.3184,79.0488 C111.4034,78.5328 113.0434,72.9568 111.9804,66.5928 C110.9174,60.2298 107.5544,55.4878 104.4694,56.0038" id="Stroke-14" stroke="#CCCCCC" stroke-width="1.989"></path>
                    <path d="M102.731,79.9819 C105.816,79.4659 107.456,73.8899 106.393,67.5259 C105.331,61.1629 101.967,56.4209 98.882,56.9369" id="Stroke-16" stroke="#CCCCCC" stroke-width="1.989"></path>
                    <path d="M111.9917,73.8306 C111.9917,73.8306 107.3457,103.3426 109.1677,114.2536" id="Stroke-18" stroke="#CCCCCC" stroke-width="1.989"></path>
                    <path d="M98.8818,56.937 C95.7968,57.452 94.1568,63.029 95.2198,69.393 C96.2828,75.756 99.6458,80.497 102.7308,79.982" id="Stroke-20" stroke="#FFFFFF" stroke-width="1.989"></path>
                    <path d="M93.2949,57.8701 C90.2099,58.3851 88.5699,63.9621 89.6329,70.3261 C90.6959,76.6891 94.0589,81.4301 97.1439,80.9151" id="Stroke-22" stroke="#FFFFFF" stroke-width="1.989"></path>
                    <path d="M87.708,58.8032 C84.623,59.3182 82.983,64.8952 84.046,71.2592 C85.109,77.6222 88.472,82.3642 91.557,81.8482" id="Stroke-24" stroke="#FFFFFF" stroke-width="1.989"></path>
                    <path d="M82.1211,59.7363 C79.0361,60.2513 77.3961,65.8283 78.4591,72.1923 C79.5221,78.5553 82.8851,83.2973 85.9701,82.7813" id="Stroke-26" stroke="#FFFFFF" stroke-width="1.989"></path>
                    <path d="M104.4692,56.0039 C101.3842,56.5189 99.7442,62.0959 100.8072,68.4599 C101.8692,74.8229 105.2332,79.5639 108.3182,79.0489" id="Stroke-28" stroke="#FFFFFF" stroke-width="1.989"></path>
                    <path d="M80.7959,79.041 C80.7959,79.041 94.7809,105.441 96.6039,116.353" id="Stroke-30" stroke="#FFFFFF" stroke-width="1.989"></path>
                    <polygon id="Fill-32" fill="#CCCCCC" points="102.6592 113.9341 83.4882 117.1361 79.4032 123.6171 103.6012 119.5751"></polygon>
                    <polygon id="Fill-34" fill="#FFFFFF" points="103.6011 119.5752 79.4031 123.6172 85.3721 128.4182 104.5431 125.2162"></polygon>
                    <polygon id="Fill-36" fill="#CCCCCC" points="104.5435 125.2163 85.3725 128.4183 81.8445 134.0473 105.3625 130.1183"></polygon>
                    <polygon id="Fill-38" fill="#FFFFFF" points="106.1812 135.0205 87.0102 138.2225 81.8442 134.0465 105.3622 130.1185"></polygon>
                    <polygon id="Fill-40" fill="#CCCCCC" points="106.1812 135.0205 87.0102 138.2225 84.9372 143.6075 107.0002 139.9225"></polygon>
                    <polygon id="Fill-42" fill="#FFFFFF" points="107.8184 144.8247 88.6474 148.0267 84.9374 143.6077 107.0004 139.9227"></polygon>
                    <polygon id="Fill-44" fill="#CCCCCC" points="91.9316 147.4785 92.8956 148.7905 108.0576 146.2585 107.8186 144.8245"></polygon>
                    <polygon id="Fill-46" fill="#606866" points="95.8809 148.292 100.2819 153.775 109.0689 152.307 108.0579 146.258"></polygon>
                    <polygon id="Fill-48" fill="#B2B2B2" points="102.6592 113.9341 121.8302 110.7321 127.8002 115.5341 103.6012 119.5751"></polygon>
                    <polygon id="Fill-50" fill="#F6F6F6" points="103.6011 119.5752 127.8001 115.5332 123.7151 122.0142 104.5431 125.2162"></polygon>
                    <polygon id="Fill-52" fill="#B2B2B2" points="104.5435 125.2163 123.7145 122.0143 128.8805 126.1903 105.3625 130.1183"></polygon>
                    <polygon id="Fill-54" fill="#F6F6F6" points="106.1812 135.0205 125.3522 131.8185 128.8802 126.1905 105.3622 130.1185"></polygon>
                    <polygon id="Fill-56" fill="#B2B2B2" points="106.1812 135.0205 125.3522 131.8185 129.0622 136.2375 107.0002 139.9225"></polygon>
                    <polygon id="Fill-58" fill="#F6F6F6" points="107.8184 144.8247 126.9894 141.6227 129.0624 136.2377 107.0004 139.9227"></polygon>
                    <polygon id="Fill-60" fill="#B2B2B2" points="123.7056 142.1714 123.2206 143.7254 108.0586 146.2584 107.8186 144.8244"></polygon>
                    <polygon id="Fill-62" fill="#30393E" points="120.2354 144.2246 117.8554 150.8396 109.0684 152.3076 108.0584 146.2586"></polygon>
                    <path d="M282.1729,240.2397 L197.7679,240.2397 L197.7679,104.8617 L282.1729,104.8617 C284.8979,104.8617 287.1059,107.0697 287.1059,109.7947 L287.1059,235.3067 C287.1059,238.0317 284.8979,240.2397 282.1729,240.2397" id="Fill-64" fill="#45B6F4"></path>
                    <path d="M277.0557,234.4848 L203.5227,234.4848 L203.5227,110.3438 L277.0557,110.3438 C279.4927,110.3438 281.4677,112.3198 281.4677,114.7558 L281.4677,230.0718 C281.4677,232.5088 279.4927,234.4848 277.0557,234.4848" id="Fill-66" fill="#606866"></path>
                    <path d="M275.4111,234.4848 L201.8781,234.4848 L201.8781,110.3438 L275.4111,110.3438 C277.8481,110.3438 279.8231,112.3198 279.8231,114.7558 L279.8231,230.0718 C279.8231,232.5088 277.8481,234.4848 275.4111,234.4848" id="Fill-68" fill="#CCCCCC"></path>
                    <path d="M271.2998,234.4848 L197.7678,234.4848 L197.7678,110.3438 L271.2998,110.3438 C273.7378,110.3438 275.7128,112.3198 275.7128,114.7558 L275.7128,230.0718 C275.7128,232.5088 273.7378,234.4848 271.2998,234.4848" id="Fill-70" fill="#FDFDFD"></path>
                    <path d="M113.3613,103.081 L197.7673,104.726 L197.7673,240.103 L113.3613,241.748 C110.6373,241.748 108.4283,239.539 108.4283,236.815 L108.4283,108.014 C108.4283,105.289 110.6373,103.081 113.3613,103.081" id="Fill-72" fill="#359BCD"></path>
                    <path d="M117.4941,108.7002 L191.0271,110.3442 L191.0271,234.4852 L117.4941,236.1292 C115.0571,236.1292 113.0821,234.1542 113.0821,231.7172 L113.0821,113.1122 C113.0821,110.6752 115.0571,108.7002 117.4941,108.7002" id="Fill-74" fill="#606866"></path>
                    <path d="M119.1387,108.7002 L192.6717,110.3442 L192.6717,234.4852 L119.1387,236.1292 C116.7017,236.1292 114.7267,234.1542 114.7267,231.7172 L114.7267,113.1122 C114.7267,110.6752 116.7017,108.7002 119.1387,108.7002" id="Fill-76" fill="#CCCCCC"></path>
                    <path d="M123.2495,108.7002 L196.7825,110.3442 L196.7825,234.4852 L123.2495,236.1292 C120.8125,236.1292 118.8375,234.1542 118.8375,231.7172 L118.8375,113.1122 C118.8375,110.6752 120.8125,108.7002 123.2495,108.7002" id="Fill-78" fill="#F6F6F6"></path>
                    <path d="M233.041,165.4306 L207.013,165.4306 C205.872,165.4306 204.94,164.4976 204.94,163.3586 C204.94,162.2186 205.872,161.2856 207.013,161.2856 L233.041,161.2856 C234.182,161.2856 235.113,162.2186 235.113,163.3586 C235.113,164.4976 234.182,165.4306 233.041,165.4306" id="Fill-80" fill="#CCCCCC"></path>
                    <path d="M265.9287,165.4306 L239.8997,165.4306 C238.7597,165.4306 237.8267,164.4976 237.8267,163.3586 C237.8267,162.2186 238.7597,161.2856 239.8997,161.2856 L265.9287,161.2856 C267.0687,161.2856 268.0007,162.2186 268.0007,163.3586 C268.0007,164.4976 267.0687,165.4306 265.9287,165.4306" id="Fill-82" fill="#CCCCCC"></path>
                    <path d="M265.9287,175.5654 L227.5177,175.5654 C226.3777,175.5654 225.4457,174.6324 225.4457,173.4934 C225.4457,172.3534 226.3777,171.4204 227.5177,171.4204 L265.9287,171.4204 C267.0687,171.4204 268.0007,172.3534 268.0007,173.4934 C268.0007,174.6324 267.0687,175.5654 265.9287,175.5654" id="Fill-84" fill="#CCCCCC"></path>
                    <path d="M220.5771,175.5654 L207.5131,175.5654 C206.3731,175.5654 205.4401,174.6324 205.4401,173.4934 C205.4401,172.3534 206.3731,171.4204 207.5131,171.4204 L220.5771,171.4204 C221.7171,171.4204 222.6491,172.3534 222.6491,173.4934 C222.6491,174.6324 221.7171,175.5654 220.5771,175.5654" id="Fill-86" fill="#CCCCCC"></path>
                    <mask id="mask-2" fill="white">
                        <use xlink:href="#path-1"></use>
                    </mask>
                    <g id="Clip-89"></g>
                    <polygon id="Fill-88" fill="#F6F6F6" mask="url(#mask-2)" points="196.123 234.485 197.768 234.485 197.768 110.344 196.123 110.344"></polygon>
                    <path d="M233.041,186.3203 L207.013,186.3203 C205.872,186.3203 204.94,185.3873 204.94,184.2473 C204.94,183.1083 205.872,182.1753 207.013,182.1753 L233.041,182.1753 C234.182,182.1753 235.113,183.1083 235.113,184.2473 C235.113,185.3873 234.182,186.3203 233.041,186.3203" id="Fill-90" fill="#CCCCCC" mask="url(#mask-2)"></path>
                    <path d="M265.9287,186.3203 L239.8997,186.3203 C238.7597,186.3203 237.8267,185.3873 237.8267,184.2473 C237.8267,183.1083 238.7597,182.1753 239.8997,182.1753 L265.9287,182.1753 C267.0687,182.1753 268.0007,183.1083 268.0007,184.2473 C268.0007,185.3873 267.0687,186.3203 265.9287,186.3203" id="Fill-91" fill="#CCCCCC" mask="url(#mask-2)"></path>
                    <path d="M210.4922,212.7871 L207.7852,212.7871 C206.6452,212.7871 205.7132,211.8541 205.7132,210.7151 C205.7132,209.5751 206.6452,208.6421 207.7852,208.6421 L210.4922,208.6421 C211.6332,208.6421 212.5652,209.5751 212.5652,210.7151 C212.5652,211.8541 211.6332,212.7871 210.4922,212.7871" id="Fill-92" fill="#CCCCCC" mask="url(#mask-2)"></path>
                    <path d="M265.9287,212.7871 L219.2957,212.7871 C218.1567,212.7871 217.2237,211.8541 217.2237,210.7151 C217.2237,209.5751 218.1567,208.6421 219.2957,208.6421 L265.9287,208.6421 C267.0687,208.6421 268.0007,209.5751 268.0007,210.7151 C268.0007,211.8541 267.0687,212.7871 265.9287,212.7871" id="Fill-93" fill="#CCCCCC" mask="url(#mask-2)"></path>
                    <path d="M254.082,218.7773 L265.929,218.7773 C267.068,218.7773 268.001,219.7103 268.001,220.8493 C268.001,221.9893 267.068,222.9223 265.929,222.9223 L254.082,222.9223 C252.942,222.9223 252.01,221.9893 252.01,220.8493 C252.01,219.7103 252.942,218.7773 254.082,218.7773" id="Fill-94" fill="#CCCCCC" mask="url(#mask-2)"></path>
                    <path d="M207.7852,218.7773 L247.1652,218.7773 C248.3062,218.7773 249.2382,219.7103 249.2382,220.8493 C249.2382,221.9893 248.3062,222.9223 247.1652,222.9223 L207.7852,222.9223 C206.6452,222.9223 205.7132,221.9893 205.7132,220.8493 C205.7132,219.7103 206.6452,218.7773 207.7852,218.7773" id="Fill-95" fill="#CCCCCC" mask="url(#mask-2)"></path>
                    <path d="M245.8447,202.0322 L207.0127,202.0322 C205.8717,202.0322 204.9407,201.1002 204.9407,199.9602 C204.9407,198.8202 205.8717,197.8872 207.0127,197.8872 L245.8447,197.8872 C246.9847,197.8872 247.9167,198.8202 247.9167,199.9602 C247.9167,201.1002 246.9847,202.0322 245.8447,202.0322" id="Fill-96" fill="#CCCCCC" mask="url(#mask-2)"></path>
                    <path d="M163.7051,219.1313 L189.7281,218.5943 C190.8681,218.5703 191.8201,219.4843 191.8431,220.6233 C191.8671,221.7633 190.9541,222.7143 189.8141,222.7383 L163.7901,223.2753 C162.6511,223.2983 161.6991,222.3853 161.6761,221.2463 C161.6521,220.1063 162.5651,219.1543 163.7051,219.1313" id="Fill-97" fill="#CCCCCC" mask="url(#mask-2)"></path>
                    <path d="M130.8247,219.81 L156.8477,219.273 C157.9877,219.249 158.9387,220.163 158.9627,221.302 C158.9867,222.441 158.0737,223.393 156.9337,223.416 L130.9097,223.954 C129.7707,223.977 128.8187,223.064 128.7957,221.925 C128.7717,220.785 129.6847,219.833 130.8247,219.81" id="Fill-98" fill="#CCCCCC" mask="url(#mask-2)"></path>
                    <path d="M131.1558,209.5542 L169.5588,208.7622 C170.6978,208.7382 171.6498,209.6512 171.6738,210.7902 C171.6968,211.9302 170.7838,212.8822 169.6438,212.9052 L131.2408,213.6982 C130.1018,213.7212 129.1508,212.8082 129.1268,211.6692 C129.1028,210.5292 130.0158,209.5772 131.1558,209.5542" id="Fill-99" fill="#CCCCCC" mask="url(#mask-2)"></path>
                    <path d="M176.498,208.6181 L189.559,208.3481 C190.699,208.3251 191.65,209.2381 191.674,210.3781 C191.697,211.5171 190.784,212.4691 189.644,212.4931 L176.583,212.7621 C175.444,212.7851 174.492,211.8721 174.469,210.7331 C174.445,209.5931 175.358,208.6421 176.498,208.6181" id="Fill-100" fill="#CCCCCC" mask="url(#mask-2)"></path>
                    <path d="M164.2241,198.0781 L190.2531,198.0781 C191.3921,198.0781 192.3251,199.0111 192.3251,200.1501 C192.3251,201.2901 191.3921,202.2231 190.2531,202.2231 L164.2241,202.2231 C163.0841,202.2231 162.1511,201.2901 162.1511,200.1501 C162.1511,199.0111 163.0841,198.0781 164.2241,198.0781" id="Fill-101" fill="#CCCCCC" mask="url(#mask-2)"></path>
                    <path d="M131.3364,198.0781 L157.3654,198.0781 C158.5054,198.0781 159.4384,199.0111 159.4384,200.1501 C159.4384,201.2901 158.5054,202.2231 157.3654,202.2231 L131.3364,202.2231 C130.1964,202.2231 129.2644,201.2901 129.2644,200.1501 C129.2644,199.0111 130.1964,198.0781 131.3364,198.0781" id="Fill-102" fill="#CCCCCC" mask="url(#mask-2)"></path>
                    <path d="M142.604,161.584 L130.759,161.344 C129.62,161.321 128.707,160.37 128.729,159.23 C128.753,158.09 129.704,157.177 130.844,157.2 L142.688,157.44 C143.828,157.463 144.741,158.415 144.718,159.554 C144.695,160.694 143.744,161.607 142.604,161.584" id="Fill-103" fill="#CCCCCC" mask="url(#mask-2)"></path>
                    <path d="M188.8911,162.5229 L149.5191,161.7239 C148.3791,161.7009 147.4661,160.7499 147.4891,159.6099 C147.5121,158.4709 148.4631,157.5569 149.6031,157.5809 L188.9751,158.3789 C190.1151,158.4019 191.0281,159.3539 191.0051,160.4929 C190.9821,161.6319 190.0311,162.5459 188.8911,162.5229" id="Fill-104" fill="#CCCCCC" mask="url(#mask-2)"></path>
                    <path d="M163.4751,147.8276 L189.4961,148.4976 C190.6351,148.5266 191.5431,149.4836 191.5141,150.6226 C191.4841,151.7626 190.5281,152.6706 189.3891,152.6406 L163.3691,151.9716 C162.2291,151.9416 161.3211,150.9856 161.3501,149.8466 C161.3791,148.7066 162.3351,147.7986 163.4751,147.8276" id="Fill-105" fill="#CCCCCC" mask="url(#mask-2)"></path>
                    <path d="M130.5986,146.9814 L156.6196,147.6514 C157.7586,147.6804 158.6666,148.6364 158.6376,149.7764 C158.6076,150.9154 157.6516,151.8234 156.5126,151.7944 L130.4916,151.1244 C129.3526,151.0954 128.4446,150.1394 128.4736,148.9994 C128.5026,147.8604 129.4586,146.9524 130.5986,146.9814" id="Fill-106" fill="#CCCCCC" mask="url(#mask-2)"></path>
                    <path d="M130.2964,136.3179 L168.6944,137.3069 C169.8344,137.3359 170.7424,138.2919 170.7134,139.4319 C170.6834,140.5709 169.7274,141.4789 168.5884,141.4499 L130.1894,140.4609 C129.0504,140.4319 128.1424,139.4759 128.1714,138.3359 C128.2004,137.1969 129.1564,136.2889 130.2964,136.3179" id="Fill-107" fill="#CCCCCC" mask="url(#mask-2)"></path>
                    <path d="M175.6333,137.4848 L188.6933,137.8208 C189.8323,137.8508 190.7403,138.8068 190.7113,139.9458 C190.6813,141.0858 189.7253,141.9938 188.5863,141.9648 L175.5263,141.6288 C174.3873,141.5988 173.4793,140.6428 173.5083,139.5038 C173.5373,138.3638 174.4933,137.4558 175.6333,137.4848" id="Fill-108" fill="#CCCCCC" mask="url(#mask-2)"></path>
                    <path d="M218.3652,124.6719 C218.3652,125.4729 217.7162,126.1219 216.9152,126.1219 C216.1142,126.1219 215.4652,125.4729 215.4652,124.6719 C215.4652,123.8709 216.1142,123.2219 216.9152,123.2219 C217.7162,123.2219 218.3652,123.8709 218.3652,124.6719" id="Fill-110" fill="#FDFDFD" mask="url(#mask-2)"></path>
                    <path d="M260.0596,127.9057 C260.0596,128.8747 259.2746,129.6587 258.3056,129.6587 C257.3366,129.6587 256.5516,128.8747 256.5516,127.9057 C256.5516,126.9377 257.3366,126.1527 258.3056,126.1527 C259.2746,126.1527 260.0596,126.9377 260.0596,127.9057" id="Fill-115" fill="#FDFDFD" mask="url(#mask-2)"></path>
                    <path d="M265.8145,127.9057 C265.8145,128.8747 265.0295,129.6587 264.0615,129.6587 C263.0925,129.6587 262.3075,128.8747 262.3075,127.9057 C262.3075,126.9377 263.0925,126.1527 264.0615,126.1527 C265.0295,126.1527 265.8145,126.9377 265.8145,127.9057" id="Fill-116" fill="#FDFDFD" mask="url(#mask-2)"></path>
                    <path d="M241.3662,271.27 L238.4702,269.161 C238.0702,268.869 237.9812,268.307 238.2742,267.906 L286.1502,202.185 L289.7712,204.823 L241.3662,271.27 Z" id="Fill-121" fill="#FFFFFF" mask="url(#mask-2)"></path>
                    <path d="M244.7051,273.7026 L241.3661,271.2696 L289.7711,204.8226 L293.8371,207.7846 L245.9601,273.5056 C245.6681,273.9066 245.1061,273.9946 244.7051,273.7026" id="Fill-122" fill="#F6B10C" mask="url(#mask-2)"></path>
                    <polygon id="Fill-123" fill="#F7C856" mask="url(#mask-2)" points="294.8447 194.6225 286.1507 202.1845 293.8367 207.7845 298.1137 197.0035"></polygon>
                    <polygon id="Fill-124" fill="#30393E" mask="url(#mask-2)" points="301.2773 189.0278 294.8443 194.6228 298.1133 197.0038"></polygon>
                    <path d="M238.8486,269.436 L238.2726,269.017 C237.9816,268.804 237.9166,268.396 238.1296,268.104 L286.1506,202.185 L287.2536,202.989 L238.8486,269.436 Z" id="Fill-125" fill="#F6B10C" mask="url(#mask-2)"></path>
                    <polygon id="Fill-126" fill="#CCCCCC" mask="url(#mask-2)" points="128.687 131.783 129.782 131.783 129.782 117.563 128.687 117.563"></polygon>
                    <polygon id="Stroke-127" stroke="#CCCCCC" stroke-width="0.62" mask="url(#mask-2)" points="128.687 131.783 129.782 131.783 129.782 117.563 128.687 117.563"></polygon>
                    <path d="M136.2715,120.5127 C136.2715,119.4807 135.4495,118.6587 134.4175,118.6587 L132.9845,118.6587 L132.9845,130.6887 L134.4175,130.6887 C135.4495,130.6887 136.2715,129.8667 136.2715,128.8337 L136.2715,120.5127 Z M137.3665,128.8337 C137.3665,130.4567 136.0395,131.7837 134.4175,131.7837 L131.8895,131.7837 L131.8895,117.5637 L134.4175,117.5637 C136.0395,117.5637 137.3665,118.8907 137.3665,120.5127 L137.3665,128.8337 Z" id="Fill-128" fill="#CCCCCC" mask="url(#mask-2)"></path>
                    <path d="M136.2715,120.5127 C136.2715,119.4807 135.4495,118.6587 134.4175,118.6587 L132.9845,118.6587 L132.9845,130.6887 L134.4175,130.6887 C135.4495,130.6887 136.2715,129.8667 136.2715,128.8337 L136.2715,120.5127 Z M137.3665,128.8337 C137.3665,130.4567 136.0395,131.7837 134.4175,131.7837 L131.8895,131.7837 L131.8895,117.5637 L134.4175,117.5637 C136.0395,117.5637 137.3665,118.8907 137.3665,120.5127 L137.3665,128.8337 Z" id="Stroke-129" stroke="#CCCCCC" stroke-width="0.62" mask="url(#mask-2)"></path>
                    <polygon id="Fill-130" fill="#CCCCCC" mask="url(#mask-2)" points="140.4224 118.6592 140.4224 124.1152 142.9714 124.1152 142.9714 125.2312 140.4224 125.2312 140.4224 130.6882 144.0464 130.6882 144.0464 131.7842 139.3264 131.7842 139.3264 117.5632 143.8774 117.5632 143.8774 118.6592"></polygon>
                    <polygon id="Stroke-131" stroke="#CCCCCC" stroke-width="0.62" mask="url(#mask-2)" points="140.4224 118.6592 140.4224 124.1152 142.9714 124.1152 142.9714 125.2312 140.4224 125.2312 140.4224 130.6882 144.0464 130.6882 144.0464 131.7842 139.3264 131.7842 139.3264 117.5632 143.8774 117.5632 143.8774 118.6592"></polygon>
                    <path d="M146.5742,127.0434 L149.1232,127.0434 L147.8812,118.7854 L147.8382,118.7854 L146.5742,127.0434 Z M150.9562,131.7834 L149.8612,131.7834 L149.2922,128.1384 L146.4062,128.1384 L145.8582,131.7834 L144.7632,131.7834 L146.9322,117.5634 L148.7862,117.5634 L150.9562,131.7834 Z" id="Fill-132" fill="#CCCCCC" mask="url(#mask-2)"></path>
                    <path d="M146.5742,127.0434 L149.1232,127.0434 L147.8812,118.7854 L147.8382,118.7854 L146.5742,127.0434 Z M150.9562,131.7834 L149.8612,131.7834 L149.2922,128.1384 L146.4062,128.1384 L145.8582,131.7834 L144.7632,131.7834 L146.9322,117.5634 L148.7862,117.5634 L150.9562,131.7834 Z" id="Stroke-133" stroke="#CCCCCC" stroke-width="0.62" mask="url(#mask-2)"></path>
                    <polygon id="Fill-134" fill="#CCCCCC" mask="url(#mask-2)" points="128.687 167.5478 128.687 190.2088 191.893 190.2088 191.893 168.8438"></polygon>
                    <path d="M241.0693,271.039 L238.1743,268.931 C237.7743,268.639 237.6853,268.077 237.9773,267.676 L285.8423,201.971 L289.4633,204.608 L241.0693,271.039 Z" id="Fill-143" fill="#EB703C" mask="url(#mask-2)"></path>
                    <path d="M244.4072,273.4707 L241.0692,271.0387 L289.4632,204.6077 L293.5262,207.5687 L245.6622,273.2737 C245.3702,273.6747 244.8082,273.7627 244.4072,273.4707" id="Fill-144" fill="#DD5143" mask="url(#mask-2)"></path>
                    <polygon id="Fill-145" fill="#F7C856" mask="url(#mask-2)" points="294.5342 194.4101 285.8432 201.9711 293.5272 207.5681 297.8032 196.7911"></polygon>
                    <polygon id="Fill-146" fill="#7A808C" mask="url(#mask-2)" points="300.9658 188.8169 294.5338 194.4099 297.8028 196.7909"></polygon>
                </g>
            </g>
            <text id="HACKATHON" font-family="Helvetica-Bold, Helvetica" font-size="11" font-weight="bold" line-spacing="17" letter-spacing="-0.600000024" fill="#CCCCCC">
                <tspan x="203.864356" y="156">HACKATHO</tspan>
                <tspan x="261.191797" y="156">N</tspan>
            </text>
            <g id="vr-cardboard-solid" transform="translate(218.000000, 131.500000) rotate(-1.000000) translate(-218.000000, -131.500000) translate(204.000000, 123.000000)" fill="#CCCCCC" fill-rule="nonzero">
                <path d="M26.6,0 L1.4,0 C0.6269375,0 0,0.634401042 0,1.41666667 L0,15.5833333 C0,16.365599 0.6269375,17 1.4,17 L8.409625,17 C9.5116875,17 10.5109375,16.3461198 10.962875,15.3292188 L12.1765,12.6003646 C12.5216875,11.8238542 13.2278125,11.3333333 14,11.3333333 C14.7721875,11.3333333 15.4783125,11.8238542 15.8235,12.6003646 L17.037125,15.3292188 C17.4890625,16.3461198 18.48875,17 19.590375,17 L26.6,17 C27.3730625,17 28,16.365599 28,15.5833333 L28,1.41666667 C28,0.634401042 27.3730625,0 26.6,0 Z M7,10.625 C5.4534375,10.625 4.2,9.35664062 4.2,7.79166667 C4.2,6.22669271 5.4534375,4.95833333 7,4.95833333 C8.5465625,4.95833333 9.8,6.22669271 9.8,7.79166667 C9.8,9.35664062 8.5465625,10.625 7,10.625 Z M21,10.625 C19.4534375,10.625 18.2,9.35664062 18.2,7.79166667 C18.2,6.22669271 19.4534375,4.95833333 21,4.95833333 C22.5465625,4.95833333 23.8,6.22669271 23.8,7.79166667 C23.8,9.35664062 22.5465625,10.625 21,10.625 Z" id="Shape"></path>
            </g>
            <g id="user-solid" transform="translate(259.500000, 128.500000) rotate(3.000000) translate(-259.500000, -128.500000) translate(248.000000, 115.000000)" fill="#CCCCCC" fill-rule="nonzero">
                <path d="M11.5,13.5 C15.1296875,13.5 18.0714286,10.4783203 18.0714286,6.75 C18.0714286,3.02167969 15.1296875,0 11.5,0 C7.8703125,0 4.92857143,3.02167969 4.92857143,6.75 C4.92857143,10.4783203 7.8703125,13.5 11.5,13.5 Z M16.1,15.1875 L15.2426339,15.1875 C14.1029018,15.7253906 12.8348214,16.03125 11.5,16.03125 C10.1651786,16.03125 8.90223214,15.7253906 7.75736607,15.1875 L6.9,15.1875 C3.090625,15.1875 1.02318154e-12,18.3621094 1.02318154e-12,22.275 L1.02318154e-12,24.46875 C1.02318154e-12,25.8662109 1.10379464,27 2.46428571,27 L20.5357143,27 C21.8962054,27 23,25.8662109 23,24.46875 L23,22.275 C23,18.3621094 19.909375,15.1875 16.1,15.1875 Z" id="Shape"></path>
            </g>
        </g>
    </g>
</svg>