<?xml version="1.0" encoding="utf-8"?>
<!-- Generator: Adobe Illustrator 22.0.1, SVG Export Plug-In . SVG Version: 6.00 Build 0)  -->
<svg version="1.1" id="Layer_1" xmlns="http://www.w3.org/2000/svg" xmlns:xlink="http://www.w3.org/1999/xlink" x="0px" y="0px"
	 viewBox="0 0 1451.5 776.7" style="enable-background:new 0 0 1451.5 776.7;" xml:space="preserve">
<style type="text/css">
	.st0{fill:#F2F2F2;}
	.st1{fill:#C3015A;}
	.st2{fill:#F0404F;}
	.st3{fill:#F8CB07;}
	.st4{fill:#35C5BF;}
	.st5{fill:#4D4D4D;}
	.st6{font-family:'Avenir-Black';}
	.st7{font-size:45.6911px;}
</style>
<rect class="st0" width="1451.5" height="776.7"/>
<title>Asset 140</title>
<g id="Layer_1-2">
	<path class="st1" d="M360.1,257.5l0.4,0.2L360.1,257.5z"/>
	<path class="st1" d="M370.3,264.1L370.3,264.1L370.3,264.1z"/>
	<path class="st1" d="M362,258.4l0.2,0.1L362,258.4z"/>
	<path class="st1" d="M356.2,256l1.1,0.4L356.2,256z"/>
	<path class="st1" d="M346.8,254.2c2.5,0.2,5,0.6,7.4,1.2C351.8,254.8,349.3,254.4,346.8,254.2z"/>
	<path class="st1" d="M354.3,255.5c0.5,0.1,1,0.3,1.5,0.4C355.3,255.7,354.8,255.6,354.3,255.5z"/>
	<path class="st1" d="M376.5,271l0.5,0.8L376.5,271z"/>
	<path class="st1" d="M375.3,269.5c0.2,0.2,0.3,0.4,0.5,0.7C375.7,269.9,375.5,269.7,375.3,269.5z"/>
	<path class="st1" d="M345,254.1c0.5,0,1,0,1.6,0.1C346,254.2,345.5,254.1,345,254.1z"/>
	<path class="st1" d="M371.7,265.3l0.2,0.2L371.7,265.3z"/>
	<path class="st1" d="M377.6,272.6l0.5,0.8C377.9,273.1,377.7,272.9,377.6,272.6z"/>
	<path class="st1" d="M372.9,266.6l0.3,0.3L372.9,266.6z"/>
	<path class="st1" d="M374.2,268c0.1,0.2,0.3,0.3,0.4,0.5C374.5,268.4,374.4,268.2,374.2,268z"/>
	<path class="st1" d="M326.1,258.4l1.4-0.7C327,257.9,326.6,258.2,326.1,258.4z"/>
	<path class="st1" d="M315.1,266.6c0.3-0.4,0.7-0.7,1.1-1.1C315.8,265.9,315.5,266.3,315.1,266.6z"/>
	<path class="st1" d="M343.1,254.1L343.1,254.1z"/>
	<path class="st1" d="M316.4,265.3c0.4-0.4,0.8-0.8,1.2-1.2C317.2,264.5,316.8,264.9,316.4,265.3z"/>
	<path class="st1" d="M310.5,272.6l0.6-0.9L310.5,272.6z"/>
	<path class="st1" d="M317.8,264c0.5-0.4,1-0.8,1.4-1.2C318.7,263.2,318.2,263.6,317.8,264z"/>
	<path class="st1" d="M311.6,271c0.2-0.3,0.4-0.6,0.6-0.9C312,270.4,311.8,270.7,311.6,271z"/>
	<path class="st1" d="M312.7,269.5c0.2-0.3,0.5-0.6,0.7-0.9C313.2,268.8,313,269.1,312.7,269.5z"/>
	<path class="st1" d="M313.9,268l0.9-1L313.9,268z"/>
	<path class="st1" d="M328,257.5l1.1-0.5L328,257.5z"/>
	<path class="st1" d="M329.9,256.7l0.7-0.3L329.9,256.7z"/>
	<path class="st1" d="M331.9,256l0.3-0.1L331.9,256z"/>
	<path class="st1" d="M324.2,259.4l1.7-0.9C325.3,258.8,324.8,259.1,324.2,259.4z"/>
	<path class="st2" d="M310,273.4l-0.3,0.5l-73.9,128c-10.9,19-4.4,43.2,14.5,54.2c19,10.9,43.2,4.4,54.2-14.5l39.5-68.5l-34.4-59.4
		C302.5,301.1,302.6,285.7,310,273.4z"/>
	<path class="st1" d="M319.3,262.8c1.6-1.3,3.2-2.4,5-3.4C322.5,260.4,320.9,261.6,319.3,262.8z"/>
	<path class="st1" d="M358.1,256.7l0.8,0.3L358.1,256.7z"/>
	<path class="st1" d="M391.6,451.3c16.3,14.6,41.3,13.3,55.9-3c11.5-12.8,13.4-31.5,4.8-46.4l-14.5-25.1l-36.6,63.3
		C398.7,444.4,395.5,448.2,391.6,451.3z"/>
	<path class="st1" d="M346.5,254.2L346.5,254.2z"/>
	<path class="st1" d="M370.3,264.1c-2.5-2.2-5.2-4.1-8.2-5.6c0.6,0.3,1.1,0.6,1.7,0.9C366.2,260.8,368.3,262.3,370.3,264.1z"/>
	<path class="st1" d="M378.4,273.9l-0.3-0.5c7.4,12.3,7.5,27.7,0.3,40.2L344,373l2.2,3.8l45.7-79.2L378.4,273.9z"/>
	<path class="st1" d="M377.1,271.7l0.6,0.9L377.1,271.7z"/>
	<path class="st1" d="M343.8,254.1L343.8,254.1z"/>
	<path class="st1" d="M327.5,257.7l0.5-0.2L327.5,257.7z"/>
	<path class="st1" d="M332.2,255.9c3.5-1.1,7.2-1.7,10.9-1.8C339.4,254.2,335.7,254.8,332.2,255.9z"/>
	<path class="st1" d="M357.3,256.4l0.8,0.3L357.3,256.4z"/>
	<path class="st1" d="M330.6,256.4l1.2-0.4L330.6,256.4z"/>
	<path class="st1" d="M374.6,268.5c0.3,0.3,0.5,0.6,0.7,0.9C375.1,269.1,374.9,268.8,374.6,268.5z"/>
	<path class="st1" d="M360.5,257.7c0.5,0.2,1,0.5,1.5,0.7C361.5,258.2,360.9,257.9,360.5,257.7z"/>
	<path class="st1" d="M355.8,255.9l0.4,0.1L355.8,255.9z"/>
	<path class="st1" d="M370.3,264.1c0.4,0.4,0.9,0.8,1.3,1.2C371.2,264.9,370.8,264.5,370.3,264.1z"/>
	<path class="st1" d="M358.9,257l1.2,0.5L358.9,257z"/>
	<path class="st1" d="M375.8,270.1c0.2,0.3,0.4,0.6,0.6,0.9C376.3,270.7,376.1,270.4,375.8,270.1z"/>
	<path class="st1" d="M354.2,255.4L354.2,255.4z"/>
	<path class="st1" d="M325.9,258.5l0.2-0.1L325.9,258.5z"/>
	<path class="st1" d="M371.9,265.5c0.4,0.4,0.7,0.7,1.1,1.1C372.6,266.3,372.2,265.9,371.9,265.5z"/>
	<path class="st1" d="M373.3,267c0.3,0.3,0.6,0.7,0.9,1C373.9,267.7,373.6,267.3,373.3,267z"/>
	<path class="st1" d="M329.1,257l0.8-0.3L329.1,257z"/>
	<path class="st1" d="M312.2,270.1l0.5-0.7L312.2,270.1z"/>
	<path class="st1" d="M316.2,265.5l0.2-0.2L316.2,265.5z"/>
	<path class="st1" d="M319.2,262.8L319.2,262.8z"/>
	<path class="st1" d="M314.8,267l0.3-0.4L314.8,267z"/>
	<path class="st1" d="M311.1,271.7l0.5-0.8C311.4,271.3,311.3,271.5,311.1,271.7z"/>
	<path class="st1" d="M324.2,259.4L324.2,259.4z"/>
	<path class="st1" d="M313.5,268.5c0.1-0.2,0.3-0.3,0.4-0.5C313.7,268.2,313.6,268.4,313.5,268.5z"/>
	<path class="st1" d="M317.7,264.1l0.1-0.1L317.7,264.1z"/>
	<path class="st1" d="M310,273.4c0.1-0.3,0.3-0.5,0.5-0.8C310.3,272.9,310.2,273.1,310,273.4z"/>
	<path class="st3" d="M378,273.4l-0.5-0.8l-0.6-0.9l-0.5-0.8c-0.2-0.3-0.4-0.6-0.6-0.9c-0.2-0.3-0.3-0.4-0.5-0.7
		c-0.2-0.2-0.5-0.6-0.7-0.9c-0.3-0.3-0.3-0.3-0.4-0.5c-0.1-0.2-0.6-0.7-0.9-1l-0.3-0.3c-0.3-0.4-0.7-0.8-1.1-1.1l-0.2-0.2
		c-0.4-0.4-0.8-0.8-1.3-1.2l-0.1-0.1c-2-1.7-4.2-3.3-6.5-4.6c-0.6-0.3-1.1-0.6-1.7-0.9l-0.2-0.1c-0.5-0.3-1-0.5-1.5-0.7l-0.4-0.2
		l-1.2-0.5l-0.8-0.3l-0.8-0.3l-1.1-0.4l-0.4-0.1c-0.5-0.1-1-0.3-1.5-0.4l0,0c-2.4-0.6-4.9-1.1-7.4-1.2h-0.3c-0.5,0-1,0-1.6-0.1h-1.8
		c-3.7,0.1-7.4,0.7-10.9,1.8l-0.3,0.1l-1.2,0.4l-0.7,0.3l-0.8,0.3l-1.1,0.5l-0.5,0.2l-1.4,0.7l-0.2,0.1l-1.7,0.9l0,0
		c-1.7,1-3.4,2.1-5,3.4l0,0c-0.5,0.4-1,0.8-1.4,1.2l-0.1,0.1c-0.4,0.4-0.8,0.8-1.2,1.2l-0.2,0.2c-0.4,0.3-0.7,0.7-1.1,1.1l-0.3,0.4
		l-0.9,1c-0.1,0.2-0.3,0.3-0.4,0.5c-0.1,0.2-0.5,0.6-0.7,0.9l-0.5,0.7c-0.2,0.3-0.4,0.6-0.6,0.9l-0.5,0.8l-0.6,0.9
		c-0.2,0.3-0.3,0.5-0.5,0.8c-7.4,12.3-7.5,27.7-0.3,40.1l34.3,59.4l34.3-59.4C385.6,301.1,385.4,285.7,378,273.4z"/>
	<path class="st1" d="M452.8,254.7c0.5,0.2,1,0.3,1.5,0.5C453.8,255,453.3,254.8,452.8,254.7z"/>
	<path class="st1" d="M443.5,252.9c3.2,0.2,6.3,0.8,9.3,1.8C449.8,253.7,446.6,253.1,443.5,252.9z"/>
	<path class="st1" d="M463.7,260.1l0.4,0.3L463.7,260.1z"/>
	<path class="st1" d="M471.8,267.8c0.3,0.4,0.7,0.8,1,1.3C472.4,268.6,472.1,268.2,471.8,267.8z"/>
	<path class="st1" d="M460.5,258.1l-0.2-0.1l0.4,0.2L460.5,258.1z"/>
	<path class="st1" d="M468,263.7l0.7,0.7L468,263.7z"/>
	<path class="st1" d="M470.6,266.3c0.3,0.3,0.6,0.7,0.9,1.1C471.2,267.1,470.9,266.7,470.6,266.3z"/>
	<path class="st1" d="M469.3,265c0.3,0.3,0.6,0.6,0.8,0.9C469.9,265.6,469.6,265.3,469.3,265z"/>
	<path class="st1" d="M456.6,256.1l0.8,0.4L456.6,256.1z"/>
	<path class="st1" d="M424.8,256.1l0.7-0.3L424.8,256.1z"/>
	<path class="st1" d="M454.7,255.3c0.4,0.1,0.8,0.3,1.2,0.5L454.7,255.3z"/>
	<path class="st1" d="M465.2,261.3l0.5,0.4L465.2,261.3z"/>
	<path class="st1" d="M466.7,262.5l0.6,0.5L466.7,262.5z"/>
	<path class="st1" d="M458.5,257l0.6,0.3L458.5,257z"/>
	<path class="st1" d="M474,271c0.3,0.5,0.6,1,0.9,1.5C474.6,271.9,474.3,271.4,474,271z"/>
	<path class="st1" d="M416.2,261.3l1.2-0.9C416.9,260.7,416.5,261,416.2,261.3z"/>
	<path class="st1" d="M413.3,263.7l0.8-0.7L413.3,263.7z"/>
	<path class="st1" d="M417.7,260.1c0.4-0.3,0.8-0.6,1.3-0.9L417.7,260.1z"/>
	<path class="st1" d="M439.8,252.8L439.8,252.8z"/>
	<path class="st1" d="M414.7,262.5l1-0.8L414.7,262.5z"/>
	<path class="st1" d="M422.9,257l1-0.5L422.9,257z"/>
	<path class="st1" d="M426.8,255.3l0.3-0.1L426.8,255.3z"/>
	<path class="st1" d="M421.1,258c0.4-0.2,0.8-0.5,1.2-0.7C421.9,257.5,421.5,257.7,421.1,258z"/>
	<path class="st1" d="M419.3,259c0.4-0.3,0.9-0.6,1.3-0.8C420.2,258.5,419.8,258.7,419.3,259z"/>
	<path class="st1" d="M407.4,271l0.2-0.3L407.4,271z"/>
	<path class="st1" d="M408.5,269.3c0.1-0.1,0.1-0.2,0.2-0.3C408.6,269.1,408.6,269.2,408.5,269.3z"/>
	<path class="st1" d="M409.6,267.8l0.3-0.4L409.6,267.8z"/>
	<path class="st1" d="M462.1,259l0.3,0.2L462.1,259z"/>
	<path class="st1" d="M410.8,266.4l0.4-0.5L410.8,266.4z"/>
	<path class="st1" d="M441.6,252.8c0.6,0,1.1,0,1.7,0.1C442.8,252.8,442.2,252.8,441.6,252.8z"/>
	<path class="st1" d="M412.1,265l0.6-0.6L412.1,265z"/>
	<path class="st1" d="M472.9,269.3c0.3,0.5,0.7,0.9,1,1.4C473.6,270.3,473.3,269.8,472.9,269.3z"/>
	<path class="st1" d="M346.2,376.8l37.3,64.7c2.1,3.7,4.8,7,8,9.8c3.9-3.1,7.1-6.9,9.6-11.1l36.6-63.3L392,297.6L346.2,376.8z"/>
	<path class="st3" d="M475,272.6l-0.1-0.1c7.2,12.3,7.2,27.4,0.1,39.8l-34.3,59.5l39.5,68.5c11.1,18.9,35.3,25.2,54.2,14.2
		c18.7-11,25.1-34.9,14.4-53.8L475,272.6z"/>
	<path class="st1" d="M471.5,267.4c0.1,0.1,0.2,0.2,0.3,0.3C471.7,267.7,471.6,267.5,471.5,267.4z"/>
	<path class="st1" d="M472.7,269c0.1,0.1,0.1,0.2,0.2,0.3C472.9,269.2,472.8,269.1,472.7,269z"/>
	<path class="st1" d="M473.9,270.7l0.1,0.2L473.9,270.7z"/>
	<path class="st1" d="M407.5,270.7c0.3-0.5,0.6-0.9,0.9-1.3C408.2,269.8,407.8,270.2,407.5,270.7z"/>
	<path class="st1" d="M427,255.2c4.1-1.5,8.4-2.3,12.8-2.4C435.5,252.9,431.1,253.7,427,255.2z"/>
	<path class="st1" d="M419,259.3l0.3-0.2L419,259.3z"/>
	<path class="st1" d="M440.5,252.8L440.5,252.8z"/>
	<path class="st1" d="M420.9,258.1l-0.2,0.1l0.4-0.2L420.9,258.1z"/>
	<path class="st1" d="M443.4,252.9L443.4,252.9z"/>
	<path class="st1" d="M424,256.5c0.3-0.1,0.6-0.3,0.9-0.4L424,256.5z"/>
	<path class="st1" d="M422.3,257.3l0.6-0.3L422.3,257.3z"/>
	<path class="st1" d="M425.5,255.8c0.4-0.2,0.8-0.3,1.2-0.5C426.3,255.5,425.9,255.6,425.5,255.8z"/>
	<path class="st1" d="M457.4,256.5c0.3,0.2,0.7,0.3,1.1,0.5L457.4,256.5z"/>
	<path class="st1" d="M459.1,257.3c0.4,0.2,0.9,0.5,1.3,0.7C459.9,257.7,459.5,257.5,459.1,257.3z"/>
	<path class="st1" d="M452.8,254.7L452.8,254.7z"/>
	<path class="st1" d="M460.7,258.2c0.5,0.3,0.9,0.6,1.3,0.8L460.7,258.2z"/>
	<path class="st1" d="M455.8,255.8c0.3,0.1,0.5,0.2,0.8,0.3C456.3,256,456.1,255.9,455.8,255.8z"/>
	<path class="st1" d="M454.3,255.2l0.4,0.1L454.3,255.2z"/>
	<path class="st1" d="M415.7,261.6l0.5-0.4L415.7,261.6z"/>
	<path class="st1" d="M462.4,259.2l1.3,0.9L462.4,259.2z"/>
	<path class="st1" d="M464.1,260.4c0.4,0.3,0.8,0.6,1.2,0.9C464.9,261,464.5,260.7,464.1,260.4z"/>
	<path class="st1" d="M408.7,269c0.3-0.4,0.6-0.8,0.9-1.2C409.3,268.2,409,268.6,408.7,269z"/>
	<path class="st1" d="M406.5,272.4c0.3-0.5,0.6-1,0.9-1.4C407.1,271.5,406.8,271.9,406.5,272.4z"/>
	<path class="st1" d="M468.8,264.4l0.6,0.6L468.8,264.4z"/>
	<path class="st1" d="M467.3,263l0.8,0.7L467.3,263z"/>
	<path class="st1" d="M465.7,261.6l1,0.8L465.7,261.6z"/>
	<path class="st1" d="M412.7,264.4l0.7-0.7L412.7,264.4z"/>
	<path class="st1" d="M470.1,265.9c0.1,0.1,0.3,0.3,0.4,0.5C470.4,266.2,470.3,266,470.1,265.9z"/>
	<path class="st1" d="M411.3,265.9l0.8-0.9L411.3,265.9z"/>
	<path class="st1" d="M417.4,260.4l0.4-0.3L417.4,260.4z"/>
	<path class="st1" d="M414.2,263l0.5-0.5L414.2,263z"/>
	<path class="st1" d="M410,267.4c0.3-0.3,0.6-0.7,0.9-1C410.5,266.7,410.2,267.1,410,267.4z"/>
	<path class="st4" d="M474.9,272.4c-0.3-0.5-0.6-1-0.9-1.5l-0.1-0.2c-0.3-0.5-0.6-1-1-1.4c-0.1-0.1-0.1-0.2-0.2-0.3
		c-0.3-0.4-0.6-0.8-1-1.3c-0.1-0.1-0.2-0.2-0.3-0.3c-0.3-0.4-0.6-0.7-0.9-1.1c-0.1-0.2-0.3-0.3-0.4-0.5c-0.1-0.1-0.5-0.6-0.8-0.9
		l-0.6-0.6l-0.7-0.7l-0.8-0.7l-0.6-0.5l-1-0.8l-0.5-0.4c-0.4-0.3-0.8-0.6-1.2-0.9l-0.4-0.3l-1.3-0.9L462,259
		c-0.5-0.3-0.9-0.6-1.3-0.8l-0.4-0.2c-0.4-0.2-0.8-0.5-1.3-0.7l-0.6-0.3c-0.3-0.2-0.7-0.3-1.1-0.5l-0.8-0.4
		c-0.2-0.1-0.5-0.2-0.8-0.3c-0.3-0.1-0.8-0.3-1.2-0.5l-0.4-0.1c-0.5-0.2-1-0.4-1.5-0.5l0,0c-3-1-6.1-1.6-9.3-1.8h-0.1
		c-0.6,0-1.1-0.1-1.7-0.1h-1.8c-4.4,0.1-8.7,0.9-12.8,2.4l-0.3,0.1c-0.4,0.1-0.8,0.3-1.2,0.5l-0.7,0.3c-0.3,0.1-0.6,0.3-0.9,0.4
		l-1,0.5l-0.6,0.3c-0.4,0.2-0.8,0.4-1.2,0.7l-0.4,0.2c-0.5,0.3-0.9,0.5-1.3,0.8l-0.3,0.2c-0.4,0.3-0.9,0.6-1.3,0.9l-0.4,0.3
		l-1.2,0.9l-0.5,0.4l-1,0.9l-0.6,0.5l-0.8,0.7l-0.7,0.7L412,265l-0.8,0.9l-0.4,0.5c-0.3,0.3-0.6,0.7-0.9,1l-0.3,0.4
		c-0.3,0.4-0.6,0.8-0.9,1.2c-0.1,0.1-0.2,0.2-0.2,0.3c-0.3,0.4-0.6,0.9-0.9,1.3l-0.2,0.3c-0.3,0.5-0.6,1-0.9,1.4
		c-7.2,12.3-7.2,27.5-0.1,39.8l34.3,59.5l34.4-59.5C482.1,299.9,482.1,284.7,474.9,272.4z"/>
	<path class="st1" d="M743.7,259.4c-18.9-10.9-43.2-4.4-54.1,14.5c0,0,0,0,0,0l-12.8,22.2l45.7,79.2l35.6-61.8
		C769.2,294.6,762.7,270.4,743.7,259.4C743.7,259.4,743.7,259.4,743.7,259.4z"/>
	<path class="st3" d="M669.3,441.5l-38.2-66.1l-15.3,26.6c-11,18.9-4.5,43.2,14.5,54.1c15,8.7,33.9,6.6,46.6-5.1
		C673.9,448.2,671.3,445,669.3,441.5z"/>
	<path class="st4" d="M664.1,273.9c-10.9-19-35.2-25.4-54.1-14.5c-19,10.9-25.4,35.2-14.5,54.1l35.7,61.8l45.7-79.2L664.1,273.9z"/>
	<path class="st3" d="M631.1,375.3l38.2,66.2c2,3.5,4.6,6.7,7.5,9.4c3-2.7,5.5-5.9,7.5-9.4l38.2-66.2l-45.7-79.2L631.1,375.3z"/>
	<path class="st2" d="M857.8,420.8c0,21.9,17.7,39.6,39.6,39.6c21.9,0,39.6-17.7,39.6-39.6v-87.5h-79.2V420.8z"/>
	<path class="st1" d="M957.4,254h-120c-21.9,0-39.6,17.7-39.6,39.6c0,21.9,17.7,39.6,39.6,39.6h20.4v-32.5
		c0-21.9,17.7-39.6,39.6-39.6c21.9,0,39.6,17.7,39.6,39.6v32.5h20.4c21.9,0,39.6-17.7,39.6-39.6C997,271.8,979.3,254,957.4,254z"/>
	<path class="st1" d="M897.4,261.2c-21.9,0-39.6,17.7-39.6,39.6l0,0v32.5H937v-32.5C937,278.9,919.3,261.2,897.4,261.2L897.4,261.2z
		"/>
	<path class="st4" d="M1220.9,353.2c0,54.2-44,98.2-98.2,98.2c-54.2,0-98.2-44-98.2-98.2s44-98.2,98.2-98.2c0,0,0,0,0,0
		C1177,255,1220.9,298.9,1220.9,353.2C1220.9,353.2,1220.9,353.2,1220.9,353.2z"/>
	<path class="st3" d="M1192.2,283.7l-138.8,138.8c-38.3-38.3-38.3-100.5,0-138.8C1091.7,245.4,1153.9,245.4,1192.2,283.7z"/>
	<text transform="matrix(1 0 0 1 233.2713 503.038)" class="st5 st6 st7">Connected Design For Mitochondrial Disease</text>
</g>
</svg>
