<?xml version="1.0" encoding="utf-8"?>
<!-- Generator: Adobe Illustrator 22.0.1, SVG Export Plug-In . SVG Version: 6.00 Build 0)  -->
<svg version="1.1" id="Layer_1" xmlns="http://www.w3.org/2000/svg" xmlns:xlink="http://www.w3.org/1999/xlink" x="0px" y="0px"
	 viewBox="0 0 640 480" style="enable-background:new 0 0 640 480;" xml:space="preserve">
<style type="text/css">
	.st0{fill:#FFFFFF;}
	.st1{fill:#011E41;}
</style>
<g>
	<g>
		<g>
			<circle class="st0" cx="405.5" cy="104.5" r="3.7"/>
			<circle class="st0" cx="326.4" cy="204.6" r="3.7"/>
			<circle class="st0" cx="336.9" cy="207.5" r="2"/>
			<circle class="st0" cx="296.7" cy="254" r="2"/>
			<circle class="st0" cx="377.3" cy="295.6" r="2"/>
			<circle class="st0" cx="381.4" cy="305.7" r="2"/>
			<circle class="st0" cx="287.9" cy="62.4" r="3.7"/>
			<circle class="st0" cx="368" cy="297.9" r="3.7"/>
			<circle class="st0" cx="354.1" cy="297.8" r="3.7"/>
			<circle class="st0" cx="233.8" cy="263.1" r="3.7"/>
			<circle class="st0" cx="387.9" cy="290.4" r="5.3"/>
			<circle class="st0" cx="295" cy="70" r="2"/>
			<circle class="st0" cx="285.8" cy="73.3" r="3.7"/>
			<circle class="st0" cx="405.5" cy="180.3" r="2"/>
			<circle class="st0" cx="405.5" cy="188.4" r="2"/>
			<circle class="st0" cx="417.1" cy="200.8" r="3.7"/>
			<circle class="st0" cx="394.8" cy="181.7" r="3.7"/>
			<circle class="st0" cx="379.4" cy="111.3" r="10.2"/>
			<circle class="st0" cx="344.7" cy="99.8" r="9.8"/>
			<circle class="st0" cx="267" cy="96.4" r="7.4"/>
			<circle class="st0" cx="393.1" cy="119.4" r="3.7"/>
			<circle class="st0" cx="370.3" cy="87" r="3.7"/>
			<circle class="st0" cx="358.7" cy="104.8" r="3.7"/>
			<circle class="st0" cx="313.3" cy="104.2" r="3.7"/>
			<circle class="st0" cx="307.9" cy="85.7" r="9.4"/>
			<circle class="st0" cx="249.2" cy="119.4" r="5.3"/>
			<circle class="st0" cx="389.2" cy="99.7" r="3.7"/>
			<circle class="st0" cx="366.7" cy="97.4" r="5.3"/>
			<circle class="st0" cx="396.4" cy="103.7" r="2"/>
			<circle class="st0" cx="353.6" cy="110.6" r="2"/>
			<circle class="st0" cx="329.8" cy="101.3" r="3.7"/>
			<circle class="st0" cx="375.2" cy="126.8" r="3.7"/>
			<circle class="st0" cx="362.4" cy="113.7" r="3.7"/>
			<circle class="st0" cx="379.3" cy="93.7" r="5.3"/>
			<circle class="st0" cx="357.7" cy="96" r="2"/>
			<circle class="st0" cx="319.9" cy="76.9" r="3.7"/>
			<circle class="st0" cx="328.7" cy="88.7" r="7.4"/>
			<circle class="st0" cx="366.1" cy="107.5" r="2"/>
			<circle class="st0" cx="321.7" cy="103.7" r="2"/>
			<circle class="st0" cx="328.2" cy="77.2" r="2"/>
			<circle class="st0" cx="345.3" cy="84.8" r="3.7"/>
			<circle class="st0" cx="358" cy="85" r="7.4"/>
			<circle class="st0" cx="318.4" cy="96" r="3.7"/>
			<circle class="st0" cx="291.3" cy="110.6" r="3.7"/>
			<circle class="st0" cx="302" cy="102.2" r="5.3"/>
			<circle class="st0" cx="338.5" cy="85.5" r="2"/>
			<circle class="st0" cx="287.4" cy="100.1" r="5.3"/>
			<circle class="st0" cx="336.1" cy="77.8" r="3.7"/>
			<circle class="st0" cx="347.8" cy="78" r="2"/>
			<circle class="st0" cx="368.3" cy="120.4" r="2"/>
			<circle class="st0" cx="394.3" cy="110.6" r="3.7"/>
			<circle class="st0" cx="402" cy="114.1" r="2"/>
			<circle class="st0" cx="296.1" cy="93.7" r="2"/>
			<circle class="st0" cx="382.5" cy="124.7" r="2"/>
			<circle class="st0" cx="386.8" cy="250.5" r="10.2"/>
			<circle class="st0" cx="349.1" cy="192.2" r="9.8"/>
			<circle class="st0" cx="277.5" cy="113.2" r="7.4"/>
			<circle class="st0" cx="370.5" cy="266.8" r="3.7"/>
			<circle class="st0" cx="376.9" cy="227.9" r="3.7"/>
			<circle class="st0" cx="363.2" cy="197.3" r="3.7"/>
			<circle class="st0" cx="359.4" cy="267.2" r="3.7"/>
			<circle class="st0" cx="239.1" cy="247.4" r="5.3"/>
			<circle class="st0" cx="283.3" cy="82.5" r="2"/>
			<circle class="st0" cx="358" cy="203" r="2"/>
			<circle class="st0" cx="263.8" cy="233.7" r="3.7"/>
			<circle class="st0" cx="366.8" cy="206.9" r="3.7"/>
			<circle class="st0" cx="387.9" cy="223.4" r="5.3"/>
			<circle class="st0" cx="362.1" cy="188.4" r="2"/>
			<circle class="st0" cx="373.9" cy="280.4" r="7.4"/>
			<circle class="st0" cx="358.6" cy="258.7" r="2"/>
			<circle class="st0" cx="364.3" cy="289.3" r="2"/>
			<circle class="st0" cx="374.3" cy="239.9" r="3.7"/>
			<circle class="st0" cx="365.7" cy="177.5" r="7.4"/>
			<circle class="st0" cx="294.2" cy="80" r="3.7"/>
			<circle class="st0" cx="376.7" cy="201.7" r="5.3"/>
			<circle class="st0" cx="364.3" cy="273.2" r="2"/>
			<circle class="st0" cx="340.8" cy="291.8" r="3.7"/>
			<circle class="st0" cx="250.8" cy="110" r="2"/>
			<circle class="st0" cx="247.1" cy="240.4" r="2"/>
			<circle class="st0" cx="339.6" cy="264.3" r="2"/>
			<circle class="st0" cx="344.5" cy="271.9" r="2"/>
			<circle class="st0" cx="263.8" cy="258.3" r="10.2"/>
			<circle class="st0" cx="299.3" cy="268.5" r="9.6"/>
			<circle class="st0" cx="249.1" cy="250.6" r="3.7"/>
			<circle class="st0" cx="273.4" cy="282.4" r="3.7"/>
			<circle class="st0" cx="284.6" cy="264.4" r="3.7"/>
			<circle class="st0" cx="331.8" cy="265.8" r="3.7"/>
			<circle class="st0" cx="353.6" cy="281.6" r="9.4"/>
			<circle class="st0" cx="254.2" cy="270.1" r="3.7"/>
			<circle class="st0" cx="276.8" cy="271.9" r="5.3"/>
			<circle class="st0" cx="247" cy="266.3" r="2"/>
			<circle class="st0" cx="289.6" cy="258.5" r="2"/>
			<circle class="st0" cx="315.2" cy="267.2" r="3.7"/>
			<circle class="st0" cx="267.7" cy="242.8" r="3.7"/>
			<circle class="st0" cx="280.7" cy="255.6" r="3.7"/>
			<circle class="st0" cx="264.3" cy="275.9" r="5.3"/>
			<circle class="st0" cx="285.8" cy="273.2" r="2"/>
			<circle class="st0" cx="324.9" cy="293" r="3.7"/>
			<circle class="st0" cx="314.9" cy="279.8" r="7.4"/>
			<circle class="st0" cx="277.2" cy="261.8" r="2"/>
			<circle class="st0" cx="323.3" cy="264.7" r="2"/>
			<circle class="st0" cx="316.6" cy="292.2" r="2"/>
			<circle class="st0" cx="297.7" cy="283.3" r="3.7"/>
			<circle class="st0" cx="285.6" cy="283.9" r="6.7"/>
			<circle class="st0" cx="325.1" cy="272.3" r="3.7"/>
			<circle class="st0" cx="348.8" cy="263.9" r="5.3"/>
			<circle class="st0" cx="305.2" cy="285.7" r="2"/>
			<circle class="st0" cx="336.3" cy="276.6" r="5.3"/>
			<circle class="st0" cx="307.8" cy="292.6" r="3.7"/>
			<circle class="st0" cx="297.7" cy="291.8" r="2"/>
			<circle class="st0" cx="274.7" cy="249" r="2"/>
			<circle class="st0" cx="248.9" cy="259.4" r="3.7"/>
			<circle class="st0" cx="241.1" cy="256.1" r="2"/>
			<circle class="st0" cx="394.3" cy="274" r="2"/>
			<circle class="st0" cx="255.8" cy="235.5" r="2"/>
			<circle class="st0" cx="256.1" cy="243.6" r="5.3"/>
			<circle class="st0" cx="386.9" cy="277.7" r="2"/>
			<circle class="st0" cx="395.9" cy="264.3" r="3.7"/>
			<circle class="st0" cx="333.5" cy="291.4" r="2"/>
			<circle class="st0" cx="368.9" cy="254" r="6.7"/>
			<circle class="st0" cx="340.8" cy="284.6" r="2"/>
			<circle class="st0" cx="327.5" cy="283.5" r="4.4"/>
			<circle class="st0" cx="260.9" cy="112.6" r="5.3"/>
			<circle class="st0" cx="267.5" cy="121.7" r="3.7"/>
			<circle class="st0" cx="398" cy="231.1" r="3.7"/>
			<circle class="st0" cx="333.9" cy="195.1" r="3.7"/>
			<circle class="st0" cx="253.6" cy="140.6" r="2"/>
			<circle class="st0" cx="336.9" cy="171.8" r="2"/>
			<circle class="st0" cx="262.9" cy="150.2" r="10.2"/>
			<circle class="st0" cx="296.5" cy="165.7" r="9.6"/>
			<circle class="st0" cx="245.4" cy="140" r="3.7"/>
			<circle class="st0" cx="269.5" cy="177.1" r="3.7"/>
			<circle class="st0" cx="282.5" cy="159.3" r="3.7"/>
			<circle class="st0" cx="329.8" cy="166.4" r="3.7"/>
			<circle class="st0" cx="251.6" cy="162" r="3.7"/>
			<circle class="st0" cx="273.6" cy="165.6" r="5.3"/>
			<circle class="st0" cx="273.9" cy="126.8" r="2"/>
			<circle class="st0" cx="288.4" cy="154.3" r="2"/>
			<circle class="st0" cx="312.4" cy="166.8" r="3.7"/>
			<circle class="st0" cx="277" cy="135.1" r="3.7"/>
			<circle class="st0" cx="280" cy="150.1" r="3.7"/>
			<circle class="st0" cx="260.7" cy="169.2" r="5.3"/>
			<circle class="st0" cx="282.4" cy="168.2" r="2"/>
			<circle class="st0" cx="317.9" cy="193.8" r="3.7"/>
			<circle class="st0" cx="310.1" cy="179.3" r="7.4"/>
			<circle class="st0" cx="275.6" cy="155.7" r="2"/>
			<circle class="st0" cx="320.7" cy="165.6" r="2"/>
			<circle class="st0" cx="309.8" cy="191.7" r="2"/>
			<circle class="st0" cx="293.4" cy="180" r="3.7"/>
			<circle class="st0" cx="281.4" cy="179.6" r="6.7"/>
			<circle class="st0" cx="321.4" cy="173.4" r="3.7"/>
			<circle class="st0" cx="299.7" cy="183.6" r="2"/>
			<circle class="st0" cx="331.7" cy="179.3" r="5.3"/>
			<circle class="st0" cx="301.1" cy="190.7" r="3.7"/>
			<circle class="st0" cx="291.3" cy="188.4" r="2"/>
			<circle class="st0" cx="275.9" cy="142.6" r="2"/>
			<circle class="st0" cx="247.2" cy="149.7" r="3.7"/>
			<circle class="st0" cx="244.7" cy="129.5" r="2"/>
			<circle class="st0" cx="258.6" cy="123.9" r="2"/>
			<circle class="st0" cx="253.6" cy="131.5" r="5.3"/>
			<circle class="st0" cx="326.7" cy="193.5" r="2"/>
			<circle class="st0" cx="335" cy="187.9" r="2"/>
			<circle class="st0" cx="322" cy="184.8" r="4.4"/>
			<circle class="st0" cx="266" cy="133" r="5.3"/>
			<circle class="st0" cx="351.1" cy="171.7" r="5.3"/>
			<circle class="st0" cx="287.9" cy="89.7" r="3.7"/>
			<circle class="st0" cx="375.2" cy="217.6" r="2"/>
			<circle class="st0" cx="399.9" cy="210.4" r="9.6"/>
			<circle class="st0" cx="277.6" cy="89.2" r="3.7"/>
			<circle class="st0" cx="388" cy="201" r="3.7"/>
			<circle class="st0" cx="342.6" cy="178.3" r="3.7"/>
			<circle class="st0" cx="386" cy="190" r="5.3"/>
			<circle class="st0" cx="353.6" cy="179.7" r="2"/>
			<circle class="st0" cx="373.9" cy="210.6" r="2"/>
			<circle class="st0" cx="255.3" cy="102.2" r="3.7"/>
			<circle class="st0" cx="383.2" cy="212.3" r="3.7"/>
			<circle class="st0" cx="372.6" cy="190.8" r="5.3"/>
			<circle class="st0" cx="342.1" cy="167.1" r="2"/>
			<circle class="st0" cx="404.4" cy="242.9" r="7.4"/>
			<circle class="st0" cx="384.4" cy="180.8" r="2"/>
			<circle class="st0" cx="377.3" cy="262.3" r="2"/>
			<circle class="st0" cx="411.8" cy="234" r="2"/>
			<circle class="st0" cx="397.6" cy="194.3" r="3.7"/>
			<circle class="st0" cx="391.7" cy="237.2" r="2"/>
			<circle class="st0" cx="384.6" cy="268.5" r="5.3"/>
			<circle class="st0" cx="384.3" cy="234.3" r="3.7"/>
			<circle class="st0" cx="398.6" cy="223.4" r="2"/>
			<circle class="st0" cx="277.2" cy="101.6" r="2"/>
			<circle class="st0" cx="377.3" cy="182.3" r="2"/>
			<circle class="st0" cx="409" cy="225.4" r="5.3"/>
			<circle class="st0" cx="281.2" cy="124.7" r="2"/>
			<circle class="st0" cx="402.2" cy="256.3" r="4.4"/>
			<circle class="st0" cx="237.5" cy="154" r="2"/>
			<circle class="st0" cx="227" cy="273" r="2"/>
			<circle class="st0" cx="239.1" cy="163.1" r="3.7"/>
			<circle class="st0" cx="241.8" cy="105.5" r="3.7"/>
			<circle class="st0" cx="252.9" cy="282.4" r="3.7"/>
			<circle class="st0" cx="225" cy="156.4" r="2"/>
			<circle class="st0" cx="409.6" cy="87.1" r="2"/>
			<circle class="st0" cx="398.6" cy="95.7" r="2"/>
			<circle class="st0" cx="396.8" cy="85.1" r="3.7"/>
			<circle class="st0" cx="424.7" cy="212.3" r="2"/>
			<circle class="st0" cx="284.2" cy="300" r="2"/>
			<circle class="st0" cx="351.5" cy="121.1" r="2"/>
		</g>
		<g>
			<polygon class="st0" points="405.5,22 186.9,22 186.9,240.6 197.6,229.9 197.6,32.7 394.8,32.7 			"/>
			<polygon class="st0" points="452.1,138.4 452.1,335.5 254.9,335.5 244.2,346.2 462.8,346.2 462.8,127.6 			"/>
		</g>
	</g>
	<g>
		<g>
			<path class="st1" d="M128.5,396.9c-1.2-2-4.6-4-8.4-4c-5,0-7.3,2.1-7.3,4.7c0,3.1,3.6,4,7.9,4.5c7.4,0.9,14.3,2.8,14.3,11.3
				c0,7.9-7,11.3-14.9,11.3c-7.2,0-12.8-2.2-15.5-8.7l5.6-2.9c1.6,3.9,5.7,5.6,10,5.6c4.2,0,8.2-1.5,8.2-5.3c0-3.3-3.5-4.7-8.2-5.2
				c-7.2-0.9-13.9-2.8-13.9-10.7c0-7.3,7.2-10.3,13.7-10.3c5.5,0,11.2,1.6,13.9,7L128.5,396.9z"/>
			<path class="st1" d="M166.6,423.8H140c0-11.8,0-23.7,0-35.5h26.5v6.5h-19.9v8.2h19.2v6.2h-19.2v8h19.9V423.8z"/>
			<path class="st1" d="M196.1,388.3h6.7v35.5h-4.2v0.1l-18.6-24v23.9h-6.7v-35.5h5.4l17.4,22V388.3z"/>
			<path class="st1" d="M231.4,396.9c-1.2-2-4.6-4-8.4-4c-5,0-7.3,2.1-7.3,4.7c0,3.1,3.6,4,7.9,4.5c7.4,0.9,14.3,2.8,14.3,11.3
				c0,7.9-7,11.3-14.9,11.3c-7.2,0-12.8-2.2-15.5-8.7l5.6-2.9c1.6,3.9,5.7,5.6,10,5.6c4.2,0,8.2-1.5,8.2-5.3c0-3.3-3.5-4.7-8.2-5.2
				c-7.2-0.9-13.9-2.8-13.9-10.7c0-7.3,7.2-10.3,13.7-10.3c5.5,0,11.2,1.6,13.9,7L231.4,396.9z"/>
			<path class="st1" d="M269.4,423.8h-26.5c0-11.8,0-23.7,0-35.5h26.5v6.5h-19.9v8.2h19.2v6.2h-19.2v8h19.9V423.8z"/>
			<path class="st0" d="M305.5,398.1L294,413.5h-1.3l-11.3-15.5v25.8h-6.7v-35.5h7.7l11.1,15.2l11.1-15.2h7.6v35.5h-6.7V398.1z"/>
			<path class="st0" d="M333.4,403l9.4-14.6h8.1v0.3l-14.1,20.5v14.6h-6.7v-14.6l-13.6-20.5v-0.3h8L333.4,403z"/>
			<path class="st1" d="M375.7,396.9c-1.2-2-4.6-4-8.4-4c-5,0-7.3,2.1-7.3,4.7c0,3.1,3.6,4,7.9,4.5c7.4,0.9,14.3,2.8,14.3,11.3
				c0,7.9-7,11.3-14.9,11.3c-7.2,0-12.8-2.2-15.5-8.7l5.6-2.9c1.6,3.9,5.7,5.6,10,5.6c4.2,0,8.2-1.5,8.2-5.3c0-3.3-3.5-4.7-8.2-5.2
				c-7.2-0.9-13.9-2.8-13.9-10.7c0-7.3,7.2-10.3,13.7-10.3c5.5,0,11.2,1.6,13.9,7L375.7,396.9z"/>
			<path class="st1" d="M396.5,394.5h-11.2v-6.1c10.2,0,18.9,0,29.2,0v6.1h-11.2v29.4h-6.7V394.5z"/>
			<path class="st1" d="M449.9,423.8h-8L431.7,412h-6.4v11.9h-6.7v-35.5c5.6,0,11.2,0.1,16.9,0.1c8.4,0.1,12.8,5.6,12.8,11.8
				c0,4.9-2.2,9.8-9,11.1l10.7,12.1V423.8z M425.2,394.6V406h10.2c4.3,0,6.1-2.8,6.1-5.7c0-2.8-1.9-5.7-6.1-5.7H425.2z"/>
			<path class="st1" d="M479.1,423.8h-26.5c0-11.8,0-23.7,0-35.5h26.5v6.5h-19.9v8.2h19.2v6.2h-19.2v8h19.9V423.8z"/>
			<path class="st1" d="M510.7,423.8h-26.5c0-11.8,0-23.7,0-35.5h26.5v6.5h-19.9v8.2H510v6.2h-19.2v8h19.9V423.8z"/>
			<path class="st1" d="M527.2,394.5h-11.2v-6.1c10.2,0,18.9,0,29.2,0v6.1h-11.2v29.4h-6.7V394.5z"/>
		</g>
		<g>
			<path class="st1" d="M235.3,444.4c0,0.9-0.2,1.8-0.5,2.6c-0.3,0.8-0.8,1.5-1.4,2c-0.6,0.6-1.3,1-2.1,1.3
				c-0.8,0.3-1.7,0.5-2.7,0.5h-5v-12.9h5c1,0,1.9,0.2,2.7,0.5c0.8,0.3,1.5,0.8,2.1,1.3c0.6,0.6,1,1.3,1.4,2
				C235.2,442.6,235.3,443.5,235.3,444.4z M232.3,444.4c0-0.6-0.1-1.2-0.2-1.7s-0.4-0.9-0.7-1.3c-0.3-0.4-0.7-0.6-1.1-0.8
				c-0.4-0.2-1-0.3-1.5-0.3h-2v8.3h2c0.6,0,1.1-0.1,1.5-0.3c0.4-0.2,0.8-0.5,1.1-0.8c0.3-0.4,0.5-0.8,0.7-1.3
				C232.2,445.6,232.3,445,232.3,444.4z"/>
			<path class="st1" d="M249.7,450.9h-2.3c-0.3,0-0.5-0.1-0.6-0.2c-0.2-0.1-0.3-0.3-0.4-0.5l-0.8-2.3h-4.9l-0.8,2.3
				c-0.1,0.2-0.2,0.3-0.3,0.4c-0.2,0.1-0.4,0.2-0.6,0.2h-2.3l5-12.9h3.1L249.7,450.9z M241.4,445.9h3.5l-1.2-3.5
				c-0.1-0.2-0.2-0.5-0.3-0.8c-0.1-0.3-0.2-0.6-0.3-1c-0.1,0.4-0.2,0.7-0.3,1s-0.2,0.6-0.3,0.8L241.4,445.9z"/>
			<path class="st1" d="M260.1,437.9v2.4h-3.6v10.5h-3v-10.5h-3.6v-2.4H260.1z"/>
			<path class="st1" d="M273.4,450.9H271c-0.3,0-0.5-0.1-0.6-0.2c-0.2-0.1-0.3-0.3-0.4-0.5l-0.8-2.3h-4.9l-0.8,2.3
				c-0.1,0.2-0.2,0.3-0.3,0.4c-0.2,0.1-0.4,0.2-0.6,0.2h-2.3l5-12.9h3.1L273.4,450.9z M265.1,445.9h3.5l-1.2-3.5
				c-0.1-0.2-0.2-0.5-0.3-0.8c-0.1-0.3-0.2-0.6-0.3-1c-0.1,0.4-0.2,0.7-0.3,1c-0.1,0.3-0.2,0.6-0.3,0.8L265.1,445.9z"/>
			<path class="st1" d="M289,437.9v2.3h-5.3v3.3h4.4v2.3h-4.4v5h-3v-12.9H289z"/>
			<path class="st1" d="M304.7,444.4c0,0.9-0.2,1.8-0.5,2.6c-0.3,0.8-0.8,1.5-1.4,2.1c-0.6,0.6-1.3,1.1-2.1,1.4
				c-0.8,0.3-1.7,0.5-2.7,0.5c-1,0-1.9-0.2-2.7-0.5c-0.8-0.3-1.5-0.8-2.1-1.4c-0.6-0.6-1-1.3-1.4-2.1c-0.3-0.8-0.5-1.7-0.5-2.6
				c0-0.9,0.2-1.8,0.5-2.6c0.3-0.8,0.8-1.5,1.4-2.1c0.6-0.6,1.3-1.1,2.1-1.4c0.8-0.3,1.7-0.5,2.7-0.5c1,0,1.9,0.2,2.7,0.5
				c0.8,0.3,1.5,0.8,2.1,1.4c0.6,0.6,1,1.3,1.4,2.1C304.6,442.6,304.7,443.5,304.7,444.4z M301.6,444.4c0-0.6-0.1-1.2-0.2-1.7
				s-0.4-0.9-0.7-1.3c-0.3-0.4-0.7-0.6-1.1-0.8c-0.4-0.2-1-0.3-1.5-0.3c-0.6,0-1.1,0.1-1.5,0.3c-0.5,0.2-0.8,0.5-1.1,0.8
				c-0.3,0.4-0.5,0.8-0.7,1.3s-0.2,1.1-0.2,1.7c0,0.6,0.1,1.2,0.2,1.7c0.2,0.5,0.4,0.9,0.7,1.3c0.3,0.4,0.7,0.6,1.1,0.8
				c0.5,0.2,1,0.3,1.5,0.3c0.6,0,1.1-0.1,1.5-0.3c0.4-0.2,0.8-0.5,1.1-0.8c0.3-0.4,0.5-0.8,0.7-1.3
				C301.6,445.6,301.6,445,301.6,444.4z"/>
			<path class="st1" d="M310.6,446.1v4.8h-3v-12.9h4.2c0.9,0,1.7,0.1,2.4,0.3c0.7,0.2,1.2,0.5,1.6,0.8c0.4,0.3,0.7,0.7,0.9,1.2
				c0.2,0.5,0.3,1,0.3,1.5c0,0.4-0.1,0.8-0.2,1.2c-0.1,0.4-0.3,0.7-0.5,1c-0.2,0.3-0.5,0.6-0.8,0.8c-0.3,0.2-0.7,0.5-1.1,0.6
				c0.2,0.1,0.4,0.2,0.6,0.4c0.2,0.1,0.3,0.3,0.5,0.5l2.7,4.5h-2.7c-0.5,0-0.9-0.2-1.1-0.6l-2.1-3.8c-0.1-0.2-0.2-0.3-0.3-0.4
				c-0.1-0.1-0.3-0.1-0.5-0.1H310.6z M310.6,444h1.2c0.4,0,0.8-0.1,1-0.2c0.3-0.1,0.5-0.2,0.7-0.4c0.2-0.2,0.3-0.4,0.4-0.6
				c0.1-0.2,0.1-0.5,0.1-0.8c0-0.6-0.2-1-0.6-1.3c-0.4-0.3-0.9-0.5-1.7-0.5h-1.2V444z"/>
			<path class="st1" d="M333.9,437.9v2.3h-5.3v3h4.1v2.2h-4.1v3.1h5.3v2.3h-8.3v-12.9H333.9z"/>
			<path class="st1" d="M336,437.9h2.4c0.3,0,0.5,0.1,0.6,0.2c0.2,0.1,0.3,0.3,0.4,0.5l2.5,6.9c0.1,0.3,0.2,0.6,0.3,1
				c0.1,0.4,0.2,0.7,0.3,1.1c0.1-0.4,0.2-0.8,0.3-1.1c0.1-0.4,0.2-0.7,0.3-1l2.5-6.9c0.1-0.2,0.2-0.3,0.3-0.4
				c0.2-0.1,0.4-0.2,0.6-0.2h2.4l-5.2,12.9h-2.7L336,437.9z"/>
			<path class="st1" d="M359.9,437.9v2.3h-5.3v3h4.1v2.2h-4.1v3.1h5.3v2.3h-8.3v-12.9H359.9z"/>
			<path class="st1" d="M366,446.1v4.8h-3v-12.9h4.2c0.9,0,1.7,0.1,2.4,0.3c0.7,0.2,1.2,0.5,1.6,0.8c0.4,0.3,0.7,0.7,0.9,1.2
				c0.2,0.5,0.3,1,0.3,1.5c0,0.4-0.1,0.8-0.2,1.2c-0.1,0.4-0.3,0.7-0.5,1c-0.2,0.3-0.5,0.6-0.8,0.8c-0.3,0.2-0.7,0.5-1.1,0.6
				c0.2,0.1,0.4,0.2,0.6,0.4c0.2,0.1,0.3,0.3,0.5,0.5l2.7,4.5h-2.7c-0.5,0-0.9-0.2-1.1-0.6l-2.1-3.8c-0.1-0.2-0.2-0.3-0.3-0.4
				c-0.1-0.1-0.3-0.1-0.5-0.1H366z M366,444h1.2c0.4,0,0.8-0.1,1-0.2c0.3-0.1,0.5-0.2,0.7-0.4s0.3-0.4,0.4-0.6
				c0.1-0.2,0.1-0.5,0.1-0.8c0-0.6-0.2-1-0.6-1.3c-0.4-0.3-0.9-0.5-1.7-0.5H366V444z"/>
			<path class="st1" d="M382.6,445.9v4.9h-3v-4.9l-4.7-8h2.6c0.3,0,0.5,0.1,0.6,0.2c0.2,0.1,0.3,0.3,0.4,0.5l1.8,3.8
				c0.1,0.3,0.3,0.6,0.4,0.8c0.1,0.3,0.2,0.5,0.3,0.8c0.1-0.3,0.2-0.5,0.3-0.8c0.1-0.3,0.3-0.5,0.4-0.8l1.8-3.8
				c0-0.1,0.1-0.2,0.1-0.2c0.1-0.1,0.1-0.1,0.2-0.2c0.1-0.1,0.2-0.1,0.3-0.2c0.1,0,0.2-0.1,0.3-0.1h2.7L382.6,445.9z"/>
			<path class="st1" d="M401.7,444.4c0,0.9-0.2,1.8-0.5,2.6c-0.3,0.8-0.8,1.5-1.4,2.1c-0.6,0.6-1.3,1.1-2.1,1.4
				c-0.8,0.3-1.7,0.5-2.7,0.5c-1,0-1.9-0.2-2.7-0.5c-0.8-0.3-1.5-0.8-2.1-1.4c-0.6-0.6-1-1.3-1.4-2.1c-0.3-0.8-0.5-1.7-0.5-2.6
				c0-0.9,0.2-1.8,0.5-2.6c0.3-0.8,0.8-1.5,1.4-2.1c0.6-0.6,1.3-1.1,2.1-1.4c0.8-0.3,1.7-0.5,2.7-0.5c1,0,1.9,0.2,2.7,0.5
				c0.8,0.3,1.5,0.8,2.1,1.4c0.6,0.6,1,1.3,1.4,2.1C401.5,442.6,401.7,443.5,401.7,444.4z M398.6,444.4c0-0.6-0.1-1.2-0.2-1.7
				s-0.4-0.9-0.7-1.3c-0.3-0.4-0.7-0.6-1.1-0.8c-0.4-0.2-1-0.3-1.5-0.3c-0.6,0-1.1,0.1-1.5,0.3c-0.5,0.2-0.8,0.5-1.1,0.8
				c-0.3,0.4-0.5,0.8-0.7,1.3s-0.2,1.1-0.2,1.7c0,0.6,0.1,1.2,0.2,1.7c0.2,0.5,0.4,0.9,0.7,1.3c0.3,0.4,0.7,0.6,1.1,0.8
				c0.5,0.2,1,0.3,1.5,0.3c0.6,0,1.1-0.1,1.5-0.3c0.4-0.2,0.8-0.5,1.1-0.8c0.3-0.4,0.5-0.8,0.7-1.3
				C398.5,445.6,398.6,445,398.6,444.4z"/>
			<path class="st1" d="M406.4,438c0.1,0,0.2,0,0.2,0.1c0.1,0,0.1,0.1,0.2,0.1c0.1,0.1,0.1,0.1,0.2,0.2l6.1,7.8c0-0.2,0-0.5-0.1-0.7
				c0-0.2,0-0.5,0-0.7v-6.8h2.6v12.9h-1.6c-0.2,0-0.4,0-0.6-0.1c-0.2-0.1-0.3-0.2-0.5-0.4l-6.1-7.7c0,0.2,0,0.4,0,0.7
				c0,0.2,0,0.4,0,0.6v6.9h-2.6v-12.9h1.6C406.2,437.9,406.3,437.9,406.4,438z"/>
			<path class="st1" d="M427.7,437.9v2.3h-5.3v3h4.1v2.2h-4.1v3.1h5.3v2.3h-8.3v-12.9H427.7z"/>
		</g>
	</g>
</g>
</svg>
