<svg xmlns="http://www.w3.org/2000/svg" viewBox="0 0 1945.09 1267.53"><defs><style>.cls-1{opacity:0.1;}.cls-2{fill:#fff;}.cls-11,.cls-3,.cls-4,.cls-9{fill:none;stroke-miterlimit:10;}.cls-3,.cls-4{stroke:#cbcbca;}.cls-3{stroke-width:2.81px;}.cls-4{stroke-width:2.14px;}.cls-5{fill:#606866;}.cls-6{fill:#f6f6f6;}.cls-7{fill:#f6b10c;}.cls-8{fill:#ccc;}.cls-9{stroke:#606866;stroke-width:3.61px;stroke-dasharray:18.04;}.cls-10{fill:#30393e;}.cls-11{stroke:#ccc;stroke-width:2.44px;}.cls-12,.cls-13,.cls-16{fill:#edd299;}.cls-12{opacity:0.63;}.cls-13{opacity:0.27;}.cls-14{fill:#cbcbca;}.cls-15{fill:#f5f5f5;}.cls-17{fill:#d0af79;}.cls-18{fill:#f6c756;}.cls-19{fill:#606967;}.cls-20{fill:#f3b01b;}.cls-21{fill:#30393f;}.cls-22{fill:#6d4d33;}.cls-23{fill:#865a2d;}.cls-24{fill:#f7c856;}</style></defs><title>Asset 14</title><g id="Layer_2" data-name="Layer 2"><g id="Layer_1-2" data-name="Layer 1"><path class="cls-1" d="M1870.89,841.6H1657.17v-.07c-49.49-1.44-79.17-41.64-79.17-91.05s29.68-89.61,79.17-91.05v-.07h23.32c41,0,74.2-41.15,74.2-91.9h0c0-46.74-28.18-85.3-64.64-91.12h66c41,0,74.2-41.15,74.2-91.9h0c0-50.76-33.23-91.91-74.2-91.91H144.88c-41,0-74.2,41.15-74.2,91.91h0c0,50.76,33.22,91.9,74.2,91.9H263.52c36.49,5.78,64.71,44.35,64.71,91.12S300,652.79,263.52,658.57h-82c-41,0-74.2,41.15-74.2,91.9h0c0,46.74,28.18,85.31,64.64,91.12H74.2c-41,0-74.2,41.15-74.2,91.91H0c0,50.76,33.22,91.91,74.2,91.91H242.87c-32.86,9.45-57.36,45.92-57.36,89.5h0c0,50.76,33.22,91.91,74.2,91.91H1685.38c41,0,74.2-41.15,74.2-91.91h0c0-43.58-24.5-80-57.36-89.5h168.67c41,0,74.2-41.15,74.2-91.91h0C1945.09,882.74,1911.87,841.6,1870.89,841.6Z"/><rect class="cls-2" x="464.51" y="409.62" width="1023.48" height="586.14"/><g class="cls-1"><line class="cls-3" x1="1452.34" y1="430.09" x2="523.35" y2="432.35"/><line class="cls-3" x1="1452.4" y1="454.58" x2="523.41" y2="456.85"/><line class="cls-3" x1="1452.46" y1="479.08" x2="523.47" y2="481.35"/><line class="cls-3" x1="1452.52" y1="503.58" x2="523.53" y2="505.84"/><line class="cls-3" x1="1452.64" y1="552.57" x2="523.65" y2="554.83"/><line class="cls-3" x1="1452.58" y1="528.07" x2="523.59" y2="530.34"/><line class="cls-3" x1="1452.7" y1="577.06" x2="523.71" y2="579.33"/><line class="cls-3" x1="1452.76" y1="601.56" x2="523.77" y2="603.82"/><line class="cls-3" x1="1452.82" y1="626.05" x2="523.83" y2="628.32"/><line class="cls-3" x1="1452.88" y1="650.55" x2="523.89" y2="652.82"/><line class="cls-3" x1="1452.94" y1="675.05" x2="523.95" y2="677.31"/><line class="cls-3" x1="1453" y1="699.54" x2="524.01" y2="701.81"/><line class="cls-3" x1="1453.06" y1="724.04" x2="524.07" y2="726.3"/><line class="cls-3" x1="1453.12" y1="748.53" x2="524.12" y2="750.8"/><line class="cls-3" x1="1453.18" y1="773.03" x2="524.18" y2="775.29"/><line class="cls-3" x1="1453.66" y1="969" x2="524.66" y2="971.26"/><line class="cls-3" x1="1453.24" y1="797.53" x2="524.24" y2="799.79"/><line class="cls-3" x1="1453.3" y1="822.02" x2="524.3" y2="824.29"/><line class="cls-3" x1="1453.36" y1="846.52" x2="524.36" y2="848.78"/><line class="cls-3" x1="1453.42" y1="871.01" x2="524.42" y2="873.28"/><line class="cls-3" x1="1453.48" y1="895.51" x2="524.48" y2="897.77"/><line class="cls-3" x1="1453.54" y1="920" x2="524.54" y2="922.27"/><line class="cls-3" x1="1453.6" y1="944.5" x2="524.6" y2="946.77"/><line class="cls-4" x1="1063.53" y1="969.95" x2="1062.22" y2="431.04"/><line class="cls-4" x1="1039.04" y1="970.01" x2="1037.72" y2="431.1"/><line class="cls-4" x1="1014.54" y1="970.07" x2="1013.23" y2="431.16"/><line class="cls-4" x1="990.04" y1="970.13" x2="988.73" y2="431.22"/><line class="cls-4" x1="941.05" y1="970.25" x2="939.74" y2="431.34"/><line class="cls-4" x1="965.55" y1="970.19" x2="964.23" y2="431.28"/><line class="cls-4" x1="916.56" y1="970.31" x2="915.24" y2="431.4"/><line class="cls-4" x1="892.06" y1="970.36" x2="890.75" y2="431.46"/><line class="cls-4" x1="867.57" y1="970.42" x2="866.25" y2="431.52"/><line class="cls-4" x1="843.07" y1="970.48" x2="841.76" y2="431.58"/><line class="cls-4" x1="818.57" y1="970.54" x2="817.26" y2="431.64"/><line class="cls-4" x1="794.08" y1="970.6" x2="792.76" y2="431.7"/><line class="cls-4" x1="769.58" y1="970.66" x2="768.27" y2="431.76"/><line class="cls-4" x1="745.09" y1="970.72" x2="743.77" y2="431.82"/><line class="cls-4" x1="720.59" y1="970.78" x2="719.28" y2="431.88"/><line class="cls-4" x1="524.62" y1="971.26" x2="523.31" y2="432.35"/><line class="cls-4" x1="696.09" y1="970.84" x2="694.78" y2="431.94"/><line class="cls-4" x1="671.6" y1="970.9" x2="670.28" y2="432"/><line class="cls-4" x1="647.1" y1="970.96" x2="645.79" y2="432.06"/><line class="cls-4" x1="622.61" y1="971.02" x2="621.29" y2="432.12"/><line class="cls-4" x1="598.11" y1="971.08" x2="596.8" y2="432.17"/><line class="cls-4" x1="573.62" y1="971.14" x2="572.3" y2="432.23"/><line class="cls-4" x1="549.12" y1="971.2" x2="547.81" y2="432.29"/><line class="cls-4" x1="1453.66" y1="969" x2="1452.34" y2="430.09"/><line class="cls-4" x1="1429.16" y1="969.06" x2="1427.85" y2="430.15"/><line class="cls-4" x1="1404.67" y1="969.12" x2="1403.35" y2="430.21"/><line class="cls-4" x1="1380.17" y1="969.17" x2="1378.86" y2="430.27"/><line class="cls-4" x1="1355.68" y1="969.23" x2="1354.36" y2="430.33"/><line class="cls-4" x1="1331.18" y1="969.29" x2="1329.87" y2="430.39"/><line class="cls-4" x1="1306.68" y1="969.35" x2="1305.37" y2="430.45"/><line class="cls-4" x1="1282.19" y1="969.41" x2="1280.87" y2="430.51"/><line class="cls-4" x1="1086.22" y1="969.89" x2="1084.91" y2="430.98"/><line class="cls-4" x1="1257.69" y1="969.47" x2="1256.38" y2="430.57"/><line class="cls-4" x1="1233.2" y1="969.53" x2="1231.88" y2="430.63"/><line class="cls-4" x1="1208.7" y1="969.59" x2="1207.39" y2="430.69"/><line class="cls-4" x1="1184.21" y1="969.65" x2="1182.89" y2="430.75"/><line class="cls-4" x1="1159.71" y1="969.71" x2="1158.4" y2="430.81"/><line class="cls-4" x1="1135.21" y1="969.77" x2="1133.9" y2="430.87"/><line class="cls-4" x1="1110.72" y1="969.83" x2="1109.4" y2="430.92"/></g><rect class="cls-2" x="587.5" y="528.12" width="183.18" height="326.8"/><path class="cls-5" d="M782.81,565.65h-.88V509.06a25.22,25.22,0,0,0-25.19-25.19H601.42a25.22,25.22,0,0,0-25.19,25.19v21.48h-.86a.42.42,0,0,0-.26.12l-.06,0s0,0,0,0a.5.5,0,0,0-.12.31v14.19a.48.48,0,0,0,.46.5h.86v19.92h-.86a.44.44,0,0,0-.26.12s0,0-.06,0,0,0,0,0a.5.5,0,0,0-.12.31v25.56a.48.48,0,0,0,.46.5h.86v6.28h-.86a.48.48,0,0,0-.46.5v25.55a.48.48,0,0,0,.46.5h.86V876.11a25.22,25.22,0,0,0,25.19,25.19H756.74a25.22,25.22,0,0,0,25.19-25.19V592.2h.88a.48.48,0,0,0,.47-.5V566.15A.49.49,0,0,0,782.81,565.65ZM679.09,494.73a2.81,2.81,0,1,1-2.81,2.81A2.81,2.81,0,0,1,679.09,494.73Zm-13.23,12.1h26.46a2.64,2.64,0,1,1,0,5.28H665.86a2.64,2.64,0,1,1,0-5.28ZM651,505.74a3.85,3.85,0,1,1-3.85,3.84A3.85,3.85,0,0,1,651,505.74Zm28,384.76a14.82,14.82,0,1,1,14.82-14.82A14.84,14.84,0,0,1,679.09,890.5Zm91.57-36.72H587.48V528.13H770.66Z"/><circle class="cls-6" cx="679.03" cy="875.88" r="15.02"/><rect class="cls-7" x="602.23" y="558.72" width="97.73" height="50.41"/><rect class="cls-8" x="711.78" y="558.72" width="46.29" height="50.41"/><rect class="cls-8" x="602.23" y="621.98" width="60.84" height="207.28"/><rect class="cls-8" x="674.24" y="621.98" width="83.84" height="97.62"/><rect class="cls-7" x="674.24" y="731.93" width="83.84" height="97.62"/><rect class="cls-5" x="969.84" y="548.48" width="460.87" height="288.7" rx="11.14" ry="11.14"/><rect class="cls-2" x="1005.87" y="575.98" width="388.82" height="233.69" rx="9.21" ry="9.21"/><circle class="cls-6" cx="990.15" cy="692.83" r="11.52"/><rect class="cls-7" x="1028.03" y="597.24" width="226.61" height="35.13"/><rect class="cls-8" x="1264.24" y="597.24" width="107.34" height="35.13"/><rect class="cls-8" x="1028.03" y="641.33" width="138.91" height="144.46"/><rect class="cls-8" x="1177.18" y="641.33" width="194.41" height="68.03"/><rect class="cls-7" x="1177.18" y="717.96" width="194.41" height="68.03"/><line class="cls-9" x1="896.12" y1="463.91" x2="896.12" y2="919.7"/><path class="cls-2" d="M1826.41,1110.59H1221.76v156.93h604.66a10,10,0,0,0,10-10V1120.59A10,10,0,0,0,1826.41,1110.59Z"/><path class="cls-7" d="M1205.92,1110.59a10,10,0,0,0-10,10v136.93a10,10,0,0,0,10,10h15.83V1110.59Z"/><path class="cls-10" d="M238.3,942H632.57a25.91,25.91,0,0,1,25.91,25.91v244.6a25.91,25.91,0,0,1-25.91,25.91H238.3a0,0,0,0,1,0,0V942A0,0,0,0,1,238.3,942Z"/><rect class="cls-5" x="310.3" y="992.57" width="298.99" height="195.33"/><rect class="cls-7" x="658.48" y="1052.11" width="23.62" height="76.25"/><rect class="cls-5" x="265.22" y="1137.95" width="20.56" height="12.85"/><rect class="cls-5" x="265.22" y="1160.29" width="20.56" height="12.85"/><rect class="cls-5" x="265.22" y="1182.63" width="20.56" height="12.85"/><rect class="cls-5" x="265.22" y="984.99" width="20.56" height="12.85"/><rect class="cls-5" x="265.22" y="1007.33" width="20.56" height="12.85"/><rect class="cls-5" x="265.22" y="1029.67" width="20.56" height="12.85"/><circle class="cls-5" cx="276.04" cy="1090.24" r="22.63"/><circle class="cls-10" cx="276.04" cy="1090.24" r="9.74"/><rect class="cls-11" x="333.56" y="1013.76" width="250.91" height="156.09"/><circle class="cls-5" cx="207.57" cy="943.95" r="10.02" transform="translate(-657.49 512.92) rotate(-51.11)"/><rect class="cls-5" x="181.48" y="835.97" width="208.8" height="21.77" transform="translate(1124.53 1155.98) rotate(128.89)"/><rect class="cls-10" x="285.33" y="797.32" width="49.26" height="2.86" transform="translate(1126.29 1058.94) rotate(128.89)"/><rect class="cls-10" x="202.62" y="925.71" width="21.77" height="21.77" transform="translate(1076.57 1358.39) rotate(128.89)"/><polygon class="cls-10" points="359.9 772.43 371.63 744.49 367.77 741.38 342.95 758.76 359.9 772.43"/><path class="cls-5" d="M373.94,739a.86.86,0,0,0-1.29-1l-4.89,3.42,3.86,3.11Z"/><path class="cls-12" d="M546.81,504.29a42.21,42.21,0,1,0-52.67-28.1A42.21,42.21,0,0,0,546.81,504.29Zm-50-28.93a37.25,37.25,0,1,1,46.48,24.79A37.25,37.25,0,0,1,496.77,475.37Z"/><path class="cls-13" d="M488,477.47a42.21,42.21,0,1,0,42.69-41.73A42.21,42.21,0,0,0,488,477.47Zm42.68-39A37.25,37.25,0,1,1,493,475.32,37.25,37.25,0,0,1,530.68,438.5Z"/><circle class="cls-14" cx="443.35" cy="351.02" r="53.2" transform="translate(-119.24 293.84) rotate(-32.57)"/><path class="cls-15" d="M374.07,267.39h43.34a4.13,4.13,0,0,1,4.13,4.13v11a4.13,4.13,0,0,1-4.13,4.13H374.07a0,0,0,0,1,0,0V267.39A0,0,0,0,1,374.07,267.39Z" transform="matrix(-0.54, -0.84, 0.84, -0.54, 378.48, 761.39)"/><rect class="cls-14" x="399.9" y="281.78" width="14.21" height="19.26" transform="translate(380.49 791.28) rotate(-122.57)"/><circle class="cls-15" cx="434.53" cy="334.51" r="53.2" transform="translate(-111.74 286.5) rotate(-32.57)"/><circle class="cls-16" cx="434.53" cy="334.51" r="40.36" transform="translate(-111.74 286.5) rotate(-32.57)"/><circle class="cls-17" cx="437.03" cy="336.2" r="38.22" transform="translate(-112.25 288.11) rotate(-32.57)"/><path class="cls-16" d="M398.44,323a2.41,2.41,0,0,1,3.27,1.07,2.51,2.51,0,0,1-1.22,3.28,2.41,2.41,0,0,1-3.27-1.07A2.51,2.51,0,0,1,398.44,323Z"/><path class="cls-17" d="M398.59,323.33a2.05,2.05,0,0,1,2.79.92,2.14,2.14,0,0,1-1,2.8,2.05,2.05,0,0,1-2.79-.92A2.14,2.14,0,0,1,398.59,323.33Z"/><path class="cls-16" d="M400.5,316.69a3.65,3.65,0,0,1,5,1.63,3.81,3.81,0,0,1-1.85,5,3.65,3.65,0,0,1-5-1.63A3.81,3.81,0,0,1,400.5,316.69Z"/><path class="cls-17" d="M400.73,317.17a3.12,3.12,0,0,1,4.24,1.39,3.25,3.25,0,0,1-1.58,4.26,3.12,3.12,0,0,1-4.24-1.39A3.25,3.25,0,0,1,400.73,317.17Z"/><path class="cls-16" d="M407.3,306.84a3.08,3.08,0,0,1,4.18,1.37,3.21,3.21,0,0,1-1.56,4.2,3.08,3.08,0,0,1-4.18-1.37A3.21,3.21,0,0,1,407.3,306.84Z"/><path class="cls-17" d="M407.49,307.25a2.63,2.63,0,0,1,3.57,1.17,2.74,2.74,0,0,1-1.33,3.59,2.63,2.63,0,0,1-3.57-1.17A2.74,2.74,0,0,1,407.49,307.25Z"/><path class="cls-16" d="M411.66,303.8a2.57,2.57,0,0,1,3.49,1.14,2.68,2.68,0,0,1-1.3,3.5,2.57,2.57,0,0,1-3.49-1.14A2.68,2.68,0,0,1,411.66,303.8Z"/><path class="cls-17" d="M411.82,304.14a2.19,2.19,0,0,1,3,1,2.29,2.29,0,0,1-1.11,3,2.19,2.19,0,0,1-3-1A2.29,2.29,0,0,1,411.82,304.14Z"/><path class="cls-16" d="M403.24,311.22a3.56,3.56,0,0,1,4.84,1.59,3.71,3.71,0,0,1-1.8,4.85,3.56,3.56,0,0,1-4.84-1.59A3.71,3.71,0,0,1,403.24,311.22Z"/><path class="cls-17" d="M403.46,311.69a3,3,0,0,1,4.13,1.35,3.17,3.17,0,0,1-1.54,4.15,3,3,0,0,1-4.13-1.35A3.17,3.17,0,0,1,403.46,311.69Z"/><g id="FE1xaR.tif"><path class="cls-2" d="M1007.22,1041.27c7.16,4.88,13.76,8.87,20.14,13.85,10,7.82,19.9,16.28,29.82,24.55a14.66,14.66,0,0,1,3.06,3.52c2.14,3.54,4.18,3.61,6.06,2.72,3.19-1.5,3.72-10.35,1-15.2a7.67,7.67,0,0,0-1.82-2c-11.19-9.2-22.41-18.3-33.59-27.55-9.75-8.06-19.59-15.33-29.8-20.08-10.46-4.86-15.3-1.65-15,11.27.16,7.29,1.62,15.14,2.28,22.67q1.59,18.08,2.87,36.05c.87,12.36,2.09,24.75,7.37,37.75.73,1.79,1.58,3.54,2.61,5.84,3.67-2.72,6.25-6,5.65-12.4-1.43-15.4-3-30.85-4.44-46.24a17.82,17.82,0,0,1,1-7.81c2.67,7.28,5.2,14.59,8,21.83,16,40.73,36.3,78,65.88,107.49,18.39,18.32,37.4,31.33,57,33.09,5.5.49,10.69-.49,15.85-1.27,3.15-.48,4-11,1.3-15-.79-1.19-2.33-2.47-3.27-2.56-2.78-.25-5.83-.74-8.06.32-6.12,2.93-13,2.24-20.55-1.16-29.9-13.46-55.35-38-75.91-74.56-16.24-28.89-27.91-59.05-36.42-90.08C1008,1045.12,1007.77,1043.92,1007.22,1041.27Z"/></g><circle class="cls-6" cx="1302.13" cy="1186.73" r="55.82"/><ellipse class="cls-8" cx="1301.87" cy="1173.28" rx="22.75" ry="25"/><path class="cls-8" d="M1319.46,1198.28c-5.17-2.49-11.17,3.09-17.58,3.09s-12.41-5.58-17.58-3.09c-10.41,5-17.41,14.33-17.41,25a24.27,24.27,0,0,0,1.27,7.73,55.8,55.8,0,0,0,67.23.53,24.3,24.3,0,0,0,1.46-8.26C1336.86,1212.61,1329.86,1203.29,1319.46,1198.28Z"/><rect class="cls-8" x="1375.06" y="1152.29" width="436.51" height="12.2"/><rect class="cls-8" x="1375.06" y="1183.16" width="436.51" height="12.2"/><rect class="cls-8" x="1375.06" y="1214.04" width="257.84" height="12.2"/><path class="cls-2" d="M728,43H123.3V199.9H728a10,10,0,0,0,10-10V53A10,10,0,0,0,728,43Z"/><path class="cls-7" d="M107.47,43a10,10,0,0,0-10,10V189.9a10,10,0,0,0,10,10H123.3V43Z"/><circle class="cls-6" cx="203.67" cy="119.1" r="55.82"/><ellipse class="cls-8" cx="203.42" cy="105.65" rx="22.75" ry="25"/><path class="cls-8" d="M221,130.65c-5.17-2.49-11.17,3.09-17.58,3.09s-12.41-5.58-17.58-3.09c-10.41,5-17.41,14.33-17.41,25a24.27,24.27,0,0,0,1.27,7.73,55.8,55.8,0,0,0,67.23.53,24.3,24.3,0,0,0,1.46-8.26C238.41,145,231.41,135.66,221,130.65Z"/><rect class="cls-8" x="276.61" y="84.66" width="436.51" height="12.2"/><rect class="cls-8" x="276.61" y="115.53" width="436.51" height="12.2"/><rect class="cls-8" x="276.61" y="146.41" width="257.84" height="12.2"/><g id="FE1xaR.tif-2" data-name="FE1xaR.tif"><path class="cls-2" d="M916.44,330.8c-7.48-5.82-14.41-10.63-21-16.51-10.4-9.23-20.6-19.15-30.86-28.86a16,16,0,0,1-3.1-4.06c-2.09-4-4.31-4.23-6.43-3.39-3.59,1.42-4.78,11-2.12,16.53a8.39,8.39,0,0,0,1.85,2.32c11.58,10.81,23.2,21.53,34.76,32.39,10.08,9.47,20.32,18.08,31.15,24,11.08,6,16.59,2.85,17.17-11.27.33-8-.72-16.64-.92-24.9q-.48-19.84-.64-39.55c-.1-13.56-.58-27.16-5.44-41.71-.67-2-1.48-4-2.45-6.55-4.19,2.72-7.24,6.08-7,13.15.5,16.91,1.18,33.89,1.65,50.79a19.49,19.49,0,0,1-1.63,8.46c-2.41-8.13-4.67-16.29-7.27-24.39-14.61-45.57-34.23-87.66-64.49-121.89-18.81-21.27-38.66-36.79-59.94-40.06-6-.92-11.7-.2-17.4.3-3.47.3-5.08,11.68-2.45,16.26.78,1.36,2.38,2.86,3.39,3,3,.47,6.31,1.22,8.82.2,6.88-2.78,14.35-1.55,22.35,2.68,31.71,16.76,57.8,45.31,77.71,86.64,15.74,32.66,26.39,66.39,33.53,100.85C915.9,326.54,916,327.87,916.44,330.8Z"/></g><path class="cls-18" d="M1598.65,772.47H1727.5A7.53,7.53,0,0,1,1735,780V971.61a7.53,7.53,0,0,1-7.53,7.53H1598.65a0,0,0,0,1,0,0V772.47A0,0,0,0,1,1598.65,772.47Z" transform="translate(391.01 -508.99) rotate(19.63)"/><path class="cls-19" d="M1607.5,780.88h112.26a6.74,6.74,0,0,1,6.74,6.74v176a6.74,6.74,0,0,1-6.74,6.74H1607.5a0,0,0,0,1,0,0V780.88a0,0,0,0,1,0,0Z" transform="translate(390.97 -509.05) rotate(19.63)"/><path class="cls-14" d="M1605.14,780h112.26a6.74,6.74,0,0,1,6.74,6.74v176a6.74,6.74,0,0,1-6.74,6.74H1605.14a0,0,0,0,1,0,0V780a0,0,0,0,1,0,0Z" transform="translate(390.55 -508.31) rotate(19.63)"/><path class="cls-2" d="M1599.23,777.93h112.26a6.74,6.74,0,0,1,6.74,6.74v176a6.74,6.74,0,0,1-6.74,6.74H1599.23a0,0,0,0,1,0,0V777.93a0,0,0,0,1,0,0Z" transform="translate(389.49 -506.44) rotate(19.63)"/><path class="cls-20" d="M1516.87,709.73l120.52,45.64L1568,950l-122.21-40.92a7.53,7.53,0,0,1-4.56-9.62l66-185.2A7.53,7.53,0,0,1,1516.87,709.73Z"/><path class="cls-19" d="M1519.93,719.93,1624.82,760l-63.65,178.5-106.58-35.34a6.74,6.74,0,0,1-4.08-8.61L1511.32,724A6.74,6.74,0,0,1,1519.93,719.93Z"/><path class="cls-14" d="M1522.29,720.77l104.89,40.07-63.65,178.5L1457,904a6.74,6.74,0,0,1-4.08-8.61l60.82-170.54A6.74,6.74,0,0,1,1522.29,720.77Z"/><path class="cls-15" d="M1528.2,722.88l104.89,40.07-63.65,178.5-106.58-35.34a6.74,6.74,0,0,1-4.08-8.61L1519.6,727A6.74,6.74,0,0,1,1528.2,722.88Z"/><rect class="cls-14" x="1621.07" y="834.57" width="46.06" height="6.33" rx="3.16" ry="3.16" transform="translate(376.9 -503.56) rotate(19.63)"/><rect class="cls-14" x="1668.36" y="851.43" width="46.06" height="6.33" rx="3.16" ry="3.16" transform="translate(385.31 -518.47) rotate(19.63)"/><rect class="cls-14" x="1642.84" y="868.35" width="64.97" height="6.33" rx="3.16" ry="3.16" transform="translate(390.06 -512.09) rotate(19.63)"/><rect class="cls-14" x="1625.17" y="841.63" width="6.33" height="26.27" rx="3.16" ry="3.16" transform="translate(276.29 2101.39) rotate(-70.37)"/><rect class="cls-15" x="1600.24" y="757.53" width="2.51" height="189.51" transform="translate(379.32 -488.41) rotate(19.63)"/><rect class="cls-14" x="1606.73" y="874.76" width="46.06" height="6.33" rx="3.16" ry="3.16" transform="translate(389.57 -496.41) rotate(19.63)"/><rect class="cls-14" x="1654.02" y="891.63" width="46.06" height="6.33" rx="3.16" ry="3.16" transform="translate(397.98 -511.32) rotate(19.63)"/><rect class="cls-14" x="1594.55" y="909.37" width="10.46" height="6.33" rx="3.16" ry="3.16" transform="translate(399.45 -484.33) rotate(19.63)"/><rect class="cls-14" x="1609.15" y="926.54" width="77.52" height="6.33" rx="3.16" ry="3.16" transform="translate(408.02 -499.5) rotate(19.63)"/><rect class="cls-14" x="1653.54" y="955.56" width="24.41" height="6.33" rx="3.16" ry="3.16" transform="translate(2912.7 2421.24) rotate(-160.37)"/><rect class="cls-14" x="1585.75" y="938.87" width="66.44" height="6.33" rx="3.16" ry="3.16" transform="translate(2827.47 2373.14) rotate(-160.37)"/><rect class="cls-14" x="1599" y="898.14" width="65.61" height="6.33" rx="3.16" ry="3.16" transform="translate(397.54 -495.74) rotate(19.63)"/><rect class="cls-14" x="1524.25" y="909.43" width="46.06" height="6.33" rx="3.16" ry="3.16" transform="translate(2726.35 2267.83) rotate(-161.56)"/><rect class="cls-14" x="1476.62" y="893.54" width="46.06" height="6.33" rx="3.16" ry="3.16" transform="translate(2638.57 2221.81) rotate(-161.56)"/><rect class="cls-14" x="1482.88" y="876.29" width="64.97" height="6.33" rx="3.16" ry="3.16" transform="translate(2674.65 2193.17) rotate(-161.56)"/><rect class="cls-14" x="1559.53" y="882.1" width="6.33" height="26.27" rx="3.16" ry="3.16" transform="translate(219.03 2094.42) rotate(-71.56)"/><rect class="cls-14" x="1539.47" y="866.1" width="46.06" height="6.33" rx="3.16" ry="3.16" transform="translate(2742.24 2212.86) rotate(-160.37)"/><rect class="cls-14" x="1492.18" y="849.24" width="46.06" height="6.33" rx="3.16" ry="3.16" transform="translate(2656.08 2164.22) rotate(-160.37)"/><rect class="cls-14" x="1587.26" y="831.49" width="10.46" height="6.33" rx="3.16" ry="3.16" transform="translate(2812.11 2155.71) rotate(-160.37)"/><rect class="cls-14" x="1505.6" y="814.33" width="77.52" height="6.33" rx="3.16" ry="3.16" transform="translate(2724.41 2106.22) rotate(-160.37)"/><rect class="cls-14" x="1513.39" y="782.66" width="24.41" height="6.33" rx="3.16" ry="3.16" transform="translate(385.21 -496.55) rotate(21.1)"/><rect class="cls-14" x="1538.7" y="800.54" width="66.44" height="6.33" rx="3.16" ry="3.16" transform="translate(394.76 -512.03) rotate(21.1)"/><rect class="cls-14" x="1527.66" y="842.72" width="65.61" height="6.33" rx="3.16" ry="3.16" transform="matrix(-0.94, -0.34, 0.34, -0.94, 2746.14, 2166.77)"/><rect class="cls-14" x="1567.18" y="784.72" width="46.06" height="6.33" rx="3.16" ry="3.16" transform="translate(2790.14 2095.45) rotate(-158.9)"/><rect class="cls-14" x="1520.34" y="766.65" width="46.06" height="6.33" rx="3.16" ry="3.16" transform="translate(2706.1 2043.65) rotate(-158.9)"/><rect class="cls-14" x="1526.49" y="752.49" width="64.97" height="6.33" rx="3.16" ry="3.16" transform="translate(2741.35 2021.89) rotate(-158.9)"/><rect class="cls-14" x="1602.35" y="760.48" width="6.33" height="26.27" rx="3.16" ry="3.16" transform="matrix(0.36, -0.93, 0.93, 0.36, 305.76, 1992.95)"/><path class="cls-14" d="M1648.78,801.35l9.47,10.58a14.2,14.2,0,1,1,3.35-16.66Z"/><circle class="cls-2" cx="1654.7" cy="793.87" r="2.21" transform="translate(351.15 2085.78) rotate(-70.37)"/><circle class="cls-14" cx="1664.45" cy="805.83" r="1.99" transform="translate(346.37 2102.91) rotate(-70.37)"/><circle class="cls-14" cx="1673.46" cy="809.04" r="1.99" transform="translate(349.33 2113.53) rotate(-70.37)"/><circle class="cls-14" cx="1682.48" cy="812.26" r="1.99" transform="translate(352.29 2124.16) rotate(-70.37)"/><path class="cls-14" d="M1725.26,824.56a9.36,9.36,0,0,0-17.62-6.28h0l-4.12,11.56a2.47,2.47,0,0,0,1,3,2.38,2.38,0,0,0,3.41-1.28l.45-1.26a1.11,1.11,0,0,1,1.42-.67h0a1.11,1.11,0,0,1,.67,1.42l-.4,1.14a2.47,2.47,0,0,0,1,3,2.38,2.38,0,0,0,3.41-1.28l.45-1.26a1.11,1.11,0,0,1,1.42-.67h0a1.11,1.11,0,0,1,.67,1.42l-.45,1.26a2.38,2.38,0,0,0,1.44,3h0a2.38,2.38,0,0,0,3-1.44l4.16-11.68Z"/><circle class="cls-2" cx="1712.55" cy="819.75" r="2.68" transform="translate(365.21 2157.46) rotate(-70.37)"/><circle class="cls-2" cx="1720.83" cy="822.7" r="2.68" transform="translate(367.92 2167.22) rotate(-70.37)"/><circle class="cls-14" cx="1720.13" cy="822.54" r="1.34" transform="translate(367.61 2166.45) rotate(-70.37)"/><circle class="cls-14" cx="1711.86" cy="819.59" r="1.34" transform="translate(364.89 2156.7) rotate(-70.37)"/><circle class="cls-14" cx="1691.49" cy="815.47" r="1.99" transform="translate(355.24 2134.78) rotate(-70.37)"/><circle class="cls-14" cx="1700.5" cy="818.69" r="1.99" transform="translate(358.2 2145.41) rotate(-70.37)"/><path class="cls-15" d="M1661.17,916.27H1668a0,0,0,0,1,0,0v125.5a0,0,0,0,1,0,0h-5.47a1.37,1.37,0,0,1-1.37-1.37V916.27A0,0,0,0,1,1661.17,916.27Z" transform="translate(1535.28 -947.8) rotate(55.7)"/><path class="cls-20" d="M1664.84,922.26h7.68a0,0,0,0,1,0,0v124.13a1.37,1.37,0,0,1-1.37,1.37h-6.31a0,0,0,0,1,0,0V922.26A0,0,0,0,1,1664.84,922.26Z" transform="translate(1542.02 -948.56) rotate(55.7)"/><polygon class="cls-18" points="1730.88 934.42 1714.5 940.83 1722.68 952.82 1734.36 939.52 1730.88 934.42"/><polygon class="cls-21" points="1743 929.67 1730.88 934.42 1734.36 939.52 1743 929.67"/><path class="cls-20" d="M1662.39,914h1.26a0,0,0,0,1,0,0v125.5a0,0,0,0,1,0,0h-.28a1,1,0,0,1-1-1V914a0,0,0,0,1,0,0Z" transform="translate(1532.69 -947.51) rotate(55.7)"/><path class="cls-20" d="M1719.16,67.5c67,52.39,116.93,185.07,90.41,216.25l-7.39,8.69C1762.61,339,1671,340,1634,310.76s-33.64-49.75-40.71-59.14-27-5.17-62.3-30-28.45-88.16,11.12-134.69l1.5-26.67C1570.08,29.07,1652.11,15.11,1719.16,67.5Z"/><rect class="cls-20" x="1531.68" y="474.63" width="57.06" height="10.55" transform="translate(1236.33 -1119.99) rotate(61.46)"/><path class="cls-18" d="M1787.86,378.85s36.13-86.57,27.79-125.31-70.39-25.28-79,14.07-25.54,77.16-25.54,77.16a19.7,19.7,0,0,1-9.78,14.47l-154.75,88.06L1579,506.79l192.21-104.54A32.83,32.83,0,0,0,1787.86,378.85Z"/><path class="cls-22" d="M1518.53,527.66l-21.83-40a15.64,15.64,0,0,1-.89-2,6.24,6.24,0,0,1-5.85-3.23l-.74-1.36a6.25,6.25,0,0,1,2.49-8.48l11.2-6.11h0l20.39-11.13a15.6,15.6,0,0,1,21.16,6.22l21.83,40a15.6,15.6,0,0,1-6.22,21.16l-20.39,11.13A15.59,15.59,0,0,1,1518.53,527.66Z"/><path class="cls-23" d="M1518.68,537.72a6.67,6.67,0,0,1-.21-5.95l-2.47,1.35a6.2,6.2,0,0,1-8.41-2.47l-.15-.27a6.2,6.2,0,0,1,2.47-8.41l2.57-1.4h0l-5.63,3.07a6.81,6.81,0,0,1-9.23-2.71l-.21-.39a6.81,6.81,0,0,1,2.71-9.23l5.63-3.07h0l-7.44,4.06a7,7,0,0,1-9.53-2.8h0a7,7,0,0,1,2.8-9.53l7.46-4.07h0l-9.8,5.2a7,7,0,1,1-6.73-12.34l21.43-11.54c.13-.07.27-.11.4-.17s.48-.31.74-.45l22.21-12.12a14.56,14.56,0,0,1,19.75,5.81l18.09,33.16a14.55,14.55,0,0,1-5.15,19.35s-.08.09-.13.11l-32.08,17.51A6.7,6.7,0,0,1,1518.68,537.72Z"/><rect class="cls-20" x="1370.98" y="332.12" width="59.68" height="11.03" transform="translate(2614.38 1114.53) rotate(-160.93)"/><path class="cls-22" d="M1359.18,388.82l45,15.58a16.36,16.36,0,0,0,2.19.57,6.52,6.52,0,0,0,4.34,5.47l1.53.53a6.54,6.54,0,0,0,8.32-4l4.36-12.61h0l7.94-23a16.31,16.31,0,0,0-10.08-20.74l-45-15.58A16.31,16.31,0,0,0,1357,345.11l-7.94,23A16.31,16.31,0,0,0,1359.18,388.82Z"/><path class="cls-23" d="M1348.79,390.41a7,7,0,0,0,6.17-.82l-1,2.78a6.48,6.48,0,0,0,4,8.25l.31.11a6.48,6.48,0,0,0,8.25-4l1-2.89h0l-2.19,6.34a7.12,7.12,0,0,0,4.4,9.05l.44.15a7.12,7.12,0,0,0,9.05-4.4l2.19-6.34h0l-2.9,8.38a7.35,7.35,0,0,0,4.54,9.35h0a7.35,7.35,0,0,0,9.35-4.54l2.91-8.4h0l-18.11,52.36a7.35,7.35,0,1,0,13.89,4.8l22.63-65.45c.05-.15.06-.29.1-.44s.24-.55.34-.84l8.65-25a15.23,15.23,0,0,0-9.41-19.36l-37.34-12.91a15.21,15.21,0,0,0-19.06,8.67,1.47,1.47,0,0,0-.1.15l-12.49,36.12A7,7,0,0,0,1348.79,390.41Z"/><path class="cls-24" d="M1538.14,45.53c70.74-22.7,77.18,51.24,20.48,68.93-37.77,11.78-88.76,82.73-97.61,106.81s-24.22,124.79-24.22,124.79l-66.92-23.14s19.37-137.28,34.78-166.26S1467.39,68.23,1538.14,45.53Z"/><circle class="cls-23" cx="1668.98" cy="176.32" r="116.25" transform="translate(723.02 1562.58) rotate(-61.72)"/><path class="cls-10" d="M1736.08,280.05s59.31-56.13,60-83.29,19.75-59.8-37.42-111.46-140.5-40.37-162.85-15-41,63.77-30.84,89,20,62.45,47,84.71c0,0-14.87-25.6-14.3-37.4,0,0,16.06,35.05,36.88,49.55,0,0-7-10.36-7-17,0,0,29.15,33.76,44.74,42.77,0,0-5.48-9.55-5.44-13.93,0,0,33.09,24.4,32.49,28.48a18.64,18.64,0,0,1,8-8.49C1713.22,284.84,1728.12,287.91,1736.08,280.05Z"/><path class="cls-10" d="M1797.55,110c18.48-5.15,22-28.73,19.76-35.81s5-22.93-14.13-29.14-25.37-2.55-26.29-8.29,3.47-23.47-13.89-27.36-32.33-22-52.33,5.64-6.77,39.84-6.77,39.84-19.33-10.71-19.9-20.84c0,0,7.21,25.08,16.88,28.44s21.84,39.95,32.78,54.85,34.11-6.23,43.35-8.85S1787.2,112.91,1797.55,110Z"/><path class="cls-10" d="M1711.58,279.67s19.23,4.07,12.37,15.44-23.81,12.16-14.81,30.08c0,0,.59-7.09,14.84-12.15s26.14-40.52,17.55-50.58"/></g></g></svg>